<mxfile host="app.diagrams.net" agent="Mozilla/5.0 (Macintosh; Intel Mac OS X 10_15_7) AppleWebKit/537.36 (KHTML, like Gecko) Chrome/131.0.0.0 Safari/537.36" version="24.9.1">
  <diagram name="Seite-1" id="OEOHDNyh7ImCIJcJOeEm">
    <mxGraphModel dx="1349" dy="761" grid="0" gridSize="10" guides="1" tooltips="1" connect="1" arrows="1" fold="1" page="0" pageScale="1" pageWidth="827" pageHeight="1169" background="none" math="0" shadow="0">
      <root>
        <mxCell id="0" />
        <mxCell id="1" parent="0" />
        <mxCell id="qKbXp1eUw0ZFxBGl5K6w-1" value="" style="shape=image;verticalLabelPosition=bottom;labelBackgroundColor=default;verticalAlign=top;aspect=fixed;imageAspect=0;image=data:image/webp,UklGRkAsAgBXRUJQVlA4IH4QAQCwgAOdASoABAAEPjEYi0OiIaElI5RJWKAGCWNu++tu9I3/gV0qAB/Wf9p/VfR/jFao+d3/odw/DjNO6ABDXtWftxefV5fpnBUL55P9t8H0t3gf73+2P9m/cz5vbA/T/7l/hf7z/Y//X/rft2/Zf8z/C+tvVP/K/zn5afAl5N+p/63+4/4//r/6H///9z7lf8//r/5f/JfDP9Mf8r/G/vr9Af8R/k3+N/tn+R/43+O//3/W+s39lPep/kv+v/6f2c+Af9T/tv/T/z3+s/9nzPf6r/wf6L3V/4f/e/+r/lfAP/a/8t/4/9p++vz4epp/0//h7C/7hf+n/ge71/z//r/wf+F///pW/pn+t/+n+x/1////6X2Jfzf+0f9D9q//9/s/oA/9/th/wD/u///2AP+R66/iP/p/yvqR+RfyX+C/x3+Q/2X939k/Pn6a+mP9X/c//j/uvuO/VNb/Z5qQfJ/ud+V/uX+S/5v+M/cz7p/3P/V8O/mP/sf5r2CPxz+X/3z+3/5D/U/4L9svsz/J7kbfv956BHuj9S/z/97/y3/R/wfyIfd/7L0l/gv9b/xvuV+wH9cP9f/e/3r/xP///+n4r/3f+v44f6H/wewH/Qf7b/tP8X/pv2Y+m7+s/7X+Z/0/7ee4/9C/xP/Z/y/+q/cX7DP5f/WP91/dP89/7P89/////92P/o90H7f/+v3Wv2G/8f5//+EXFBhxvHUXS0TB7BvdNbjT/U0rWsdJ7SRmE5oYbWh7AhoQLoAxWMVZmiQWuSD7ZxMN8hnsCKcD/swU7QQ1xu8F0rALejxbE9L+7sfJ7m1/Si9Mg0wt2dEVdln0dWR7rfU4rz7IPMvtf1c5YIHbfBSF6lSAElm6i5VupTA5ngqaOFN42R7wJZVV1Jkd06gF9Ui2kQlgolxknuq897yTNAZ+L4rcfSuKkEvLrDzsryEfnZRPgq+XhsNzhhoT9KLt2cqvSXLTHmno+FFTF0p71m9crJGEfXfB2UBllVXUmlSADf1gpxuNIrqNgyJjE3myG4MtVv67HIDf8Qh3OQbDfbwpilCWQl6osa+wKystYbXL2SgR0XMMGS6z5uQB7kEgje3Q73ele5xUgkdX46nUtPU4tLkqp073vJqoAN/wZ4Zot/7KEb5Hmlb9xpOsoVMNFFDaF1JBeOSUKmGd6L+FzHpABxiZtA2FKCaZgOAGld1fOnhuyC74S4axyrUchmaMkDf3evRoF7nE++6WdjzpzJc7w8J32fTCvdOsj1TPvrlrdqCG/GJ9GJL0wiCoRlSKkGchL0EALGXOsfhx7HB4MWwiKAwms8Mi3QHAkCR7SDMSdPuxb9z//tHpPkB57TAcQlPfC9Xb5myoAbPeH4okKXoevEn7CgEUJuHR0KmSshujSZoDdYiTMp2m8ddMzTRiUfgFaDapa727nrLspDelf+IOL3NDKszTiFrj+pkI21ed81s5xg+w4R8v1RikwVWJbA3oTSEhM8ZBSO146YRf0qfi3/tzl7NPerNpPTirOqz7/fWlKPzkI78n4dCsVukDGz9GOZCwspMd/GWuslG6o5KgYX4ZfhhzMptGhI1G6r0mzkf6Qx2RFnb77r6Xf6/F5AtjR1rxjF8RDti6f15ytzIxohZYDcfncgDWk6VH14F6OmGIOrcnLG63f+84wvpFTvbxXG2MG3TWDQtvZ1EmA4nJlXUgOiXqfQqJ3Ufl6p4RVFWaf8OsJx2iVXEAjOYIrzEh4N/XZBgV8f/gDdbeA8xMzzYDNxdBPM4ucopRX4YUDi8pRRopF01p0J/t3Emp7qJjQmbNkTf52CURa/ShJuDmwPqjPdoLlzz+o3K64HQ4Kl8BDscTipBnw30RZR8HOxPZtDF8K4Ob9DZYgcX0wawTmOMvXQ4HIky+uT0JqVKFhLnAhRKGd7bWzUDSwEd+z2aQxspc0tcogp2ofogp//LdkSCBp8zClDd98OZwdVimltKaZRv7Qf+eGoT3kxqWjFYr9aI83Gz21+liJyKNn0e92Wg270HGrj4qjmf4o6iMepQohAncByUmDdLEr4iBLGfeuXb/+05fr4n+r+zApR2qwVNXk9dkaPPOaq/UrttLOrR/tZA39j/xMqzOt/HqSd/fdX/3nbx/eUQr7fcdOP/ww7KDyXKzr3v+Ta9xbyL4yCKKk9b+9XEBkLS7r0jjlbNPng7OSUFcukhTi85S80P77R0PsJMmA2mPfWsJjocvVKqjyvgWvWgB2vhYOXQixiI27BRz1p/7w3z4OoosJJi9Bn6R0immeny2qxH9vegbnYxQ7e81eZH973nraW1quvLOHyx+HLth/+tvel082jkiVpJ1Xrpcm5PVBY5R/H8hAzLA308IYWuhm68AByCxGuqHtS9kFF503WHimJ7erMjkFfeAudSvB5uvZXy5QVi4T+t3kvAtv/zkDCfrFjlsNEIHjLk+k/oj2MtKkcddhn2YLRITFXiSuCCOSlqNUPXtc0vOTKrjdJSH1HiThH64U5/BKOJYSMu9p8K869dIBKU270CEAxiPx8nmSmSn/Yp5IJXhxT0f/y/8YL9w+V9fyhrdby7C6KpNDSCrwyzMmhhWGaNbEsrjwr+jWXDhcS03Q5JT/HIAOESmLQInWZw+lbNjl6ah3A+qt+AIf9Hci00uRtXDiVqYZa3bpACIjXfXuBO8vs/V0oVnGs77awXSe/deAlfFmWHDxTnSiG19SYEWD1Pt/9ICauCuescI+7tpt794LXC8Of5i3zRNpTqCYeMJXk3FoGMRALJUSao8bM11pOptsHkErAU/Ib4NcOu80uQPNbQTTamShSkhSfszLD1AFlzdgxhvLvbe9/WEdUjEjPe6l+WgNDNnow9XLxOgpwPclOCHEyvnyrF2GwHaJLaP451EFEts3UaqXRlQcl29/sjXRp/W4pqcjsHLP5oqoTSBATAiy/vpqXP/JYX0gcq0DQDD3ecDMt7qUbM2GbtGCbVdlj8ZjSjF7yS58CFhNeocmH6YKk7umvHpbSpCagL/mVNj2v4l3f5mpav8QF/FdAIDCEn+K+wsz5C5a4cHsWRxR13J4i/LADuGlb+4YaLCnn0ntj9exJuwp/yLaMGUgFQDda0hynZsXnm8kgf8Z1vdP2fG2sH+hZt/3fn8n+4qdhvXN83RdqPvBOPDZcM6azlnKoy0spxB2x9oShkBpBCWuJ0Hd1IDgDezQbL7Jpb1oE0e1O2TED11nmBtpBWBXvoaMyr/ljfVkhigqOnf0ELgNSrL/9MXHgZ2Uq4wMsQojeTUPBq7lVqP/uU82TNpydTnPGOQNkoIJ5s9dbHdncYRUfwOe+J/2Aam+7m1Nvs4Mfyf31rFsDHrGclcH3DRUJEMXhtOpkX0/FzDwld6wt7EqyJM5yI3p0MeIdzgn+zyStxO7tN38KfSxGDq/2M0pCqWU50rX0DGhZDoTAbO7OYLhTF+RdBbPujbNIzmZMTV+qvUUtBofAcXnE9rVCgZNM5aH9iTHBOiZKobLv/tBdoUFj6txDVR/N/mE9H3HvDPpgeTPvKO2rocQT6cFqWj98+Icg8TGfD0nPhNzWSkfVksYrdJFpCzksY19+E0Ezs5S9xF2sSlMvqxJWQMODNCjE10m1tXceMIdApXz0zv+pZa28pMlbPOzBUw0gZRmO0UM57LM93pF0MM2m5ahpfqJM/rL10oz0UJf/48THtUg222MCBngIPOyZPftfOOyfexwLoC/0hkILxKVCFNYOYLR7D+oOSDsJRDhxSTZLgqaVeejb1N2mOPUg/+MoQTIc+kD+UBIKo4JbttPryb9rKTOArL3Sap7MyY00pAkr+pkOhknrmCTBZVU7qevUSW6WK6jdU21Xjxg/Xkn5JyXZD7F8TWMUZDuX4olnFlSdWDzNgsnH/pbbB3UVMe7mg7MvvALkr3klC6HxfDhTTTzT/RXaafgydWjB/RVTm5TSXK00a95T/8JsHdQDuZNubbzBR9R/c1Q4okaCiKyL4eVCcy3F/r3Xab+iB6il00VFriSso2SO9AMZ4fkEpUs5UaLkyyR+5WmfTwlOijxpHBXA+PsnSXBkDq/oXyANF1WUHDM2vJXROekiNOiaLO62wrdJynPnuwHdCgFQvD4W9cMpSRV1IDnR7UPRO887K9zqYFqCDhSqpR6DuepP3/8zZ55VKL5cp2CWYoogSjdAkIxJLnwOzngUGKPp/Usqj2RI4Rsosi9YEcfRDt3rX3a+11Nsl+BrLB+SLxrQbmP4ZDFB8T3tPh4cJjXIWN2jfBG/rFofQf94bdPfm7pMKCBsnhkrxqTv6orgZ7TqtTcHFMQtYJqIog91rKTySgmmRIIKp+6LqR1KSV5OMv2Flyo7hNPerBg2yK7QtGhM/6xLjEOG4mDffWapkeW61pHK57Ho5T/4i+zd1QAkew+BSI3olT515N4Y3nH5K30oblMo1xtxw3C2pp1qi4I48SgibLhr4Tes58V7/n7eObR31N5JnVn5k0UKcHd7cEd+8sj1y0+nBjXIL1NZf8And4bbwE0gr83qRUhNhWzm2ZaR6mqm0vGQZEpN6yoB81lDr3SYb4TOOG393wbDFsrOhT/vzFHv3F2TJN+Vq+3eRS2V+4b/iB2BrjhkMSdv4fkrH3nptL/BPm/tOiLT0K1rljeBQJQTjyCRLy5kz++0gFQrL73x7NL7jJoL9q+ZZm9hBiIS9TaVZQEzQHKVwUx+3VLfYFvTg/RRdPb9kQXcGuLFAs6TwG5wDJLRvYwGPG0fSWn0ngjghUDvm1K//aUw5fQs4E3g6Lf/2gz/iklHc//v/nP8rW5dHozXwssGjgDw1xPGhxvsaaqxWpb4QCNX5Q28pNLPZn9Vguiqu2WYTupqpvKRdibvZZ5l0E5DMf0S4bgr2701fWBVF3pf/B8QepuRfJLgEC1QXqyEQ7G6POMh1Uev3eOhj33YaXnChrr3ZRyyKCpOLPj2Db50lw5FLPsMKH65DD7d7aNYBG3nW2Ali+9jo/SZir/270La1OLlZXZWY8c7tk9fVUDRHA7VObtgcNDcuxy1wGCAwJQ+8Y4J/icblDbTu12xY/+fz+8Z9cSm6jZ7Zpb1nx5/ncgjMjcYEJFOmcec4E4iey9mzDXUshOAzD57VHssokZmxowIcMdKyKj+7RRNO6wu/mRH74ii7YcbfqiKLzTn8OkbZZk4ouayL1IbWNqViGZx5jOVmjtd/bM7/LH6qbppmopTN1mI0f/UAbLP24UQTpVbuhUYCyOPpUfUf/9kn6tECT/L/NmFv1MAS4vldSb+tUjKm230Arjhrp4pq/1Pxckmx6nUJNgqJsWM1Sx0mO2qv17cCnIyJ/u1lk4EKgNqZFC+ds5jn2+rGRcUqikiXRyr1BzuFOcA2rigAPDEl92qHpf7ggr04u75ozfZfnFGZ/rtgnE//Rn/3p+Gv5mtfk57L9DlX/3mEdrucDaf4wt/+ucdibvaKf0qJO0IKIO294CUGGZvTxIPca4xdyvg5Q69FCD6wBTrzvyzdIZ9aIV9fxqj/z4g1obeHUyhWAXNxBzx8jZ4oujdzBnCjznYI4QAYESoHXPQzFzSR3FDmOq2kNi9o+2ZK3bkN917/Z11VoHBuWjAbGMlm8ZTUhneP//bI6n7QWnw4BR+ajf+MGWxeA//u5/AEN1u5kn3ANwO7hc1PN/rBltyHvNj8YaAIuxO2B4uniTuTkK7CBb4VGQ7foR4g4ei8zSA367MK0KP/vdmA6aKFLpyqlemaERaK2/ABYW1o8k+63NtktpxMmOAT4snXvl6n2X8JjoxBl+xTu4Th8v9F/W/oN7p8YzLGVAQ0QjsVULbuvvC4eJB/aM+hh+l+NNXoI2Mgx6az/j2M7/Dvr44VmwC0uO8T/pzJdhk+vfv/lt1BhQu6evFwjhtOVz8PYJHuAqyaXL+hYztKkAG6yCvATCQpArP121lwrvLL4nlzRITnz96LHuJoggJW6z+qVp5h+hnRUIPSFc1mA9bj5dxo9VqQhQK6G+tPwMvojIASR1+V6ElaTk6obVLR5qIF4dbL1iKHeyINkjuB1dZL6eROnzOjDwiKvFBuylP/+qz2bfRl1/uoJcm6RTnB/I2Xnb6sNWTl1ARo/EXO24PBjW1Ov6xhD0yKdDH//2L05dVACrIo1Bkz4hHu/rO/+qvwhHIVMZob9ElHLISDJzMoh3P2c9g4JU2r6liDDBsGMUj4U/J0xmxs1MSxSZtFyJiiUkUzTocapbSD3QjP1uO4NUBtl1ukdLwg7z3xyJC6YGC/d12Ajn9Aq8PvhsOW7Rbo3Dsu8+3uorcwX1OTEfBtp4UM093nqU7fGbbpVBPXRq/Wq2QbRpG7PR7qTGFuuibJEiOUQDJQukY2rBFNujhFzKyqr9UwRvGQ21tJCQqukHaEXm0C4D90nKk4lmr7KGvRaGtu+f8Y5660cLhxiOGh3pSpCI9cmOvFTD2wR2E3vfT7h8KupBSRudQqlkBYdZQfkvt4PpiZbf//+7H82nGfr5SrZvkggDiHIJssldLlUupDqP6B9mSu1IKD1wVLLQJr1/wAB0hCP0Srn2pqa6PM5W52nG3Afibfk1llV3fvzzp4/yq5ECWJk9KrluaKtJ7x0p+1ZoI+I/ARUZnr2Es6P1V3Yby1E94TPupL82JBqrJ7CKqZE6ns/FexawkBFTLgTP0VFOXTbJ987fvvrB2UBUi+rS2MPGQVYFEhxCB1vbKKypqImoAOVztmp/zFoM77JfPBZYFElC407TAObu3Pisq8tH+v6owJXDyWlkq9ciBv7H/sW5Gj6nZgL4yL5r2xVGfVmP8eO493XkLEn7p/q/gHXivWkTnVAsI8TDy53aggH+3BhRX5jmQXlY5pJEJot3dHDUaWWPR3lLy01swczgNUXgMUa2MWOuuVGMVXLkGw1d1/ucCw81Th2K8IbU3ymi/kph+aXzXOYnXEDwHEWjx3GHjukKxMjpjek+hIySltKj/3Ah8Q9MJLODd06dvqgTQdyQBuxaM0cGopx/AFF9PrPEQrtgL45ZwkQjQ4Tynlyft2Ljli58xcdixUsm7JMVbkcD0PVoyHleRBNcsD11jbL5y7CMRBs0ETcMqVDqXLJS2v7gK+XaqUJ556/7LDwzTP3i6S54uibbGCl/8w/dXMQwpejK44zds+hcF9xyQnCYZj0DRVlZaOcV3SOGY85CjmmU8xSkjCYPeUlxf2r2+PPdceAwKO7upfFMSw1ZUxBPbTVgDp1TLi5u1Kbr69kFsWULbo4aBRLYpcGFecEVdGIOR1pC0N/kPl1x2PH5f7aMeSG6JLY2Hy2AZZ+2ocf3pjFQ1iBlsrFZO6GfqP+ynbMLz+jfeHOeFomzHjaxQeQ3zGuNyBIji2huiXzPHFv307ymL4Iog5gmDsEVGZpQy4CV33j0KM+7MlftDlST1vvl0AGoQjGBuyadJ90xu5nUZf5DFat5rnQ+wf8Z/3JcmqGT+y9ix0EgCHduyMtWathwfXySEuZN/pfJYpjYdFk1QykOcRn44CRQt5Oee8HFkwcsZYPwGE9RV7HFfwe9Cj9+YvjFjn7lMN7NAkTxu1p2Ch8rsUrV9Ex5J9GqFZOsbElabONMnIx26ksaOgk1M4JL/LC1/tZGOyfwDI4o4g0IZtqt4Cy3kcjbcxhY/C/MR9JbKtvj9YCQ4qBrcbCDCeQAMCmstBftBXpixtChe/jeO3nOYM9hVUUSwxF2KjaDFiWV3Vko66nxxbYfHuMv5BQKFxk9Kp9Omjn64eQR5mHBn7U55rPw8tml0FfZ2L9N143uBS4qfSkeu422Vjs7aLeMxAhIcUshl4gSBwKH1XnZYm0g42pONv06fc8hrb45x2ZxZy6PcGC+5mUZrOWY+QmnMeQXc1OEee8HPJxG3Lx5OlqK0y1PFLhl0PODAwJu/zX0/u6gVi26Db4BSwp3qPG3Nyb+J/mH1rLOUgmSlZ/J8JDyc79tqpqZosuKj//c6Rlyb2+ihCKFrffq/rEBPQmshLRVHFSgJ4V+64otA3WcMjtUHmwgYdQReR5/48zTAyv0OrND5f/417oL9woh2xABVb3AjGa2R3NTLGX73CKeUmtW3wBhKTscIzbfOoleQdT9RH9F6ZSoxOQpBRUn6HYwUFuTFSd+z9ACCQ+RMrMok5SuAEZwzX4QuBDc5k1kWTgcolg45mKS6kM3hoU1z6yfBGH9lCYykkPRZ/S+iDRNacyiX3D9QzrDRS407t9e0C1/xJQht8U9ByTd/gucY3she2jgkPeyTVNVGL5hQ31BCj5i+DKYnolpbEsHdLoF1nqHl1dowDHwa1cptnwIQrIaw7WrajPYWw8miv4UgLtE254hLIUCAsUr0B4DsA+IrUfcLPfLGBKZYrMRL6WeGicwJIzXGCvOBXHDhNTDtQycMVlApnzl0BnOHMyZ9R08p7QrMwk6xiPIyjsH5araP1C58AaM+C6PVHlMKzkXqwpqY6QEmXpMXZAUgG/guXVetMCQdXLIhCwu7UHMPHnZXu2oKm4vfCVvIDmYigA0FBSvcv3b8JS/8nalVDIpFCRcIbFtlR7f6pXyqKVJ2oxZINq7XbpF6JfiJa15lDM8u6ie9Q+K23gYiJ9uZjG3tIxhboRUEdgLN4dk2GsmGX/YvnF1siO2Jc8iBeME9ykPFycHOTKhZfNTEt3qlvxmUITWL6ixoOgZmdkzjOk9sOiZ49JaV9NunZZVfRyhLwck758EDIWZqp1aPJQt0Yed/lreZsvZxie6L5MfNKYbuR/JnlrkespwKD6jzRXEy3nPJMRGxsJjFGm24OP0hHJQJla3PDfuoDIjjgbCcbLIyLZdNK0gVbrTJ0uqYmxZ/y+ucfF6Kiy/Kqv7IBwmfERmLt3qme1wY7EhkVm3/02OJR+oPVw36vyya0Hv4pYCdyTOyVma/jqL/C/VBNVcvVPynpnDMV1pHReCqngqq6yCUkSBIF4Kqv8d53ZjEff2QAcW5AG0z4ztNQ089jLR9K4qP/bqQG/vddOAPx8lqI6wSZ9u/m1V/bhiLuoxJ7NhnVkKfbnNp5o+tlq/JrLKmjjmR0MXLn7EK/soDLbHt3zlMpSTU8edllbEIUfiTWFZqC7d8dXajlDRbSNn+iwqYcG31/25z9QQG/sfkXm0nUmhy1cdPDM+By1rl2FbmCewvBVx1/Y/HRiudlo7qYnn/sW9H8nxcGmYHV1IDfrSkwjBtczFt92ESPTvQjKR+Awf+3iEJ5mT8IbYsfY446ePOnjzqCaQG/x1FqsAcODa+d2Pu9r9kAIW+ne8kCQfQXTjpx5771MI1lejJrCpwcme/V/v2QAb+xlo+hlaCaa93yaog4/HTNS7W2vDzQa2XRouI+xxx2ied7WpOMS1TWcdm6L1N8zVYRTQ2PJh46kfpKcgnFcsP4TBU41MBLKm8JRIUi3HWeFIfKF0Uq/ZB1LhyWBxauO1R2ADOTwhe82JTBIay9KcWBff9qXzGcmsfs3TZN8sbPNUbb5RLubg5XHbWgRimNgaIUC5SfqjtSDnb94FdnNwzGc07NXIsU3qLwTaaW0MDVTcntYQh46keTTQ9myNlgA/v0wrMizgVMqupdi2/c0XT4vDWni8qvehwrKlVb8AEAAS257tAywhU/srE+gibAUFg5epw6+FdyKQnyF2dXb/guhBaEaDPbWL7TdV11RuC7juxFK5D7zYQMsum0SRP7ElmP8BKFmr4tvbLYxmleH8qRxOxht82Np7KIk/QtFFQBBF/M67LmNGWU5s0XkcU5rWvs2Cu5BdIN1rroU4FNXLLB74Eyt7aBBPYbDl8wlww0ACkPgWx7mjOH1Oz73anDLHICYRCMLWMci1WgWYeMnW1ifiCARVkf0jr4pG3lDBqiWzznrrcbhs5vSVtkje8dJlG80iABkVqYJ+IAf3A+fxxW2nQ03OLEgmijq81oFGUAAAAH6djPK+SVSICHRn6Ozoc45fYtKknNNObpKOTAwRXLoNy82xSbmyuzBc4opg2/qVsBroPXns+qoYtQpdAtyWTdQW2vWDFU1U0QR3S1v6mLRWnwMlOg3mOrVmY4VRLYi8lc0F6/k0/95o6wW1yfw9iEtuvC3f4AbWvghCV1+KoSsKvlXiPKUIMfFtDclgbmB2x4FfN+Fgg0wGPHdG3AO3JX+Kch2V89pASDDq2mj4K5yVo6ldC6PNXRI0xYN0AwxE7F6DC40xmViWBPLy2PxjbLYwS6/stcILDW0EqLqmpz4Gsz7YL24TgSCawVICH5hXJ8/W3nXAh2kU17EXj9nSTHQMInkgSOh7ni01Yz0bBe3Y2jSfFVuQqgBQHXDdWc4nH1ZkKAdaj0KR+ClPtM6c/Nrneds5eyZhJ0FKruyU96Ob2v81te7USBRePTVFrOAMLD/F3HYzCB5gQ4+aODYTtsEQk5GA2IEFQ/w8oj2Z2PGzUNb+FZZ90Ft+DGJmNgQNzBz/VB/ydtiCfdw1vL2R4jbzji4CJcfPKMIIal53SVcLcKYrfz3Mhv1Dp7uE94fz6aB/IqIBsn6Gg5MED2wBtZ6oUD4+Dl9XBAQIw/rSWmBmNQIkv/UVpT8COLiTQ0QhMD8igwfh7To9HWZGAqrmMLcuZRCJUx/zALluOfQcSX2jdlzbHZBkeidwX0YoGozIy5AW7sqtE4vKSBOiJ53nxOAASe3cXZKwnoNLvv3b8BbGTEVlSpUxjFV/Cucau3DnWrrudBOkwTlbKQ4OTVTornSYwrC/wauTp4+W4tcBs6pkMCwLnGlQ0BDN18jVB1tpE34zV3IrTdHmKTOlPU/ooOsANyGg1Y50J2GWbgGuzW9UV8cWwxVFJUN+924pQLX7UwJK/UyVmlEJbcZECvoY4Y+kvxOy6IvJlBMJVIA/LnRWkAIsIA+CqESp347pxTjRpYD/FwThhzW0j5e3LrpFz5Z6RhH5c60hAJNgrAxB3pavKbm1j/8GvOIHNq84C3eb9HUeKDP7jEVsCpCTw+Co7ucijnBPrR8JyhaHlRpeJjpolEjRk+ZH3MoEtBnndXMFlJ910cbh0kgK9GWrXC8XFKfNQJnKfsHntZdPLQHGUdLpV8frNw6pcCr4+m9zMfkjQQlvacsn8yzZzfLkBK7RuR4ysm5eMfsYpsL0pnD9O7QaU4QtiDoQkvvwiwOC2N2nqrPzgw349ac8U211C1WWGk6d/j59ievpWo73Wx7mAwgOOz1ZwA4ds0veuenefoClFtjgTfaZnmVDPTLrZL1WBuClsLQUvePg5JZfWsqqYEd/DZNDVP/yG2QrFEeGfHRUwKPwBSNJd6djRUKLmgklwBKjonQc7taWm/tSOElLeSaIW3d2M/Xq7pWfn7RMyeELj2O1LTdKh1gIkVXWof79DHUKOd9mcGpUO4GO0TM1YIWhWpja3P1zT9tlcR3YjmvkO+to1jOMQ06fsD46uHPCztIHFajLDe3SdtxArAy53cqkPreWtusuLEd7kfIFgJnNyRwdY9zXTSiWz2oV+pvWbbmoKnVBlnTfD9C7rwt1v6SA3w0QJbRSErVCXO7tkDwr6KiE65kE7EuaIIiuOOoYff1PgqoUkfTE/hlew7ICnLns6QZ9FMa39fO/R1WAFIVFtF0j6M3MKHdApMmlOAbZv6M43cnmL5l9zMjGaHsKrZzbY8gSAYb/a1bcsgYJTO8zrZwAM5ux7erdOp3M2Ggu2dr4CODPjJK9jZAoBZq1kfC4c4v1twzngXcMXeclG0HXmd16JxGanlMCec+N5qa37waMblrnZN26lChFIuiBgGpEBKO4jSRUXapbG86ewdwVSoTP/nYvmOS2rqrt+A4LZo+JSVHzv7px4nyGtJ8XWOIsUFK0N7McceaCenoxA179DMH6bv2CeNvSkq6B+hMvk5xiMguplA5ME463REC8zVcrtiWvyaZRmBteQuzPewN3P+DcJ04juYAcMQ8bg+3FUbfZD2q/fkp50JfVfnSHNyDyBi+45wEG0EJBtesNZorvQPjby7tLQRh/VOL30th0eVTdQODdrseYPcU5mOZKuMvJ4IE11UT0/LPVXfAXgxOAm2A5oIvG0LPyLWNSdL1aFROiAzF5vdkDk0U0isJTCnnlSLcD1+UmMtfuuoaZQUv8LS60UYdWgiJY7g34xpQX/TJ8xakwoCqK3RSJVv8DShOIfClMU3c+Z1SBLEWMumv+Z37C2/nJPdE6Z1+RG4TCHTu0qXzrmFiujR2y9Ntzn8zSe8mRq8lrZmURGvQ/WCUogKIKjNdUtHm0E5PhBGQdfIAHOPBgAXvJOODtFu5eXgV6JAcJLftV6snmHqg6IGciwArEmehth2UBdiEtFFUmHufbxPAwwSsl6bhuxQwvD4KNRQFlQvJ2CIH030dKGyg0atMNBP+Cxpm/IUejWYWCaZGTDTVRHTNQ392ueIoNB+YlD2CbgzbIGQV26jiJet07On3gFy9CbXWUYBKiIthNpdBaPjXGvqgdkt+TATIbzbyI0721+NXxWSoFWlgGIsa/wokFLzXaD/P4ISYlh/0st5gDEfCHx5s7vXIWiooY/YLfntC96c74n26Xqkv4XAqWLfxgvvc72PgC7BmIX90iZuTuTwHQIojnMW2SmY9GEH/XjNDgX07bFOwWNJ2Bfl/RgUh1p5HIZP0EDRY1hKyU2GL39iFb/+tzKl1pXue6Q/1aRhtHWv/PVDYbIW6thoVRD2EMZUv+VCcjf0F76egr3hJdcletpv+UGq55nzNo9hffBxWhAGsa7xh/XUqC8wkbBc/+uRsgAJow06j05fup+DmCWGPPgBecSFL2+frKW0lw4PelwRxg+XMB7VEWP5+1hf9QTlof20PlKwSVUxJQ5z9tkbZgvHSfwZBC84THd2PlLD5avmwL+OdX5ZE0jyuUyptkqqr9CQYTal1ibXwMQwH/AeshXDLepGPRELTGlOw8JhOaHjg6YuXSkJiWsU7pUNO1vLQ5bLomRmWUwXyIkw3nwUNPKa/VZIqf6D/vZtG2WKRckt3z0+ZsviZ4vQQB5pue5RrNc+Vh8w7FApCUzNZXw3Zf7Po8YvpSwvR9zu656rg1Rcz61IW/8yuqYvRaL3j4qyV19+Z8WBOkt76cW8rIKHN8xzavMeiGHYFv8Oh8XYGv6hWjoVajD2lBD5soH5/szYr48wOf1IXzOW5l+DxFoQzITcjFRitUqAyFOBZy7rFov0OkNzNHYUyYC8QiWpjce5KzS8ObqBlSVS028/QuCMsRFN99/0d++OkO0SVyYmUVM9mAYoh76PWvoKBWiozIaBgHr2cCCL9E6vHXAk8D2LRI2HFAwuR/yHKxV8cTFcaOMeu2dhWrRMIqrZ8MhUGZiWnm1616iVzpzDcpNOx4003QSg6OsbPgHbnGOqvbiGco7I9yaIWGfQLjsrSiLt1LRNyUdWNM/qC3aFNPeHjrwdq83iGfiAOuxAK5sSj1jUWeRm2gQEmAVWb8i4arPUAd41K9AfJt6zPUBrpBdaByURrC9n1kJNtyFEChmDaGNh5ihjABn82KLoZlkDpTkOPKkNK2/Fh4N050kcMnV2aQkQLwHWi6AxjOZQT4iMGx+e1MY6kMO2bOBpTdzcC/ANE411hwAg9pcYoS7llFwqvzDDq1eb1m/+yZTAP/ylMfnH9USdJvM9Cj8seUiQHxyHafJdPdLDafbK+k6Qmb3Lnr7UXebIySlxBHnmEM9mC1bgoY+CTjC8v1JBhRH/1rH/p4wjbeBDiWn4uhky/LGi3D0aGe7m7b/IGJryc/tDWS6GSfctlwUyCT6oQFTarxl3iz6da0FV8+mlbm5hCwpr7Jnc/gg7HyJNE4TCCXG52zw07Xh+uk+T9OmzEuwbpX1muLHb94VQTpGIe5hb7p42p2sffyf2SvJX6Hn+UmYU/9M7HTHiPk1goHUlJP7BiQXkiXna7w09wEuEJ7BJ+/0ZNAwvgQ/XXdSuD2zT0gUfLoGaydWYCMhmg03vwWOoEGTohGlP/25KfhUpa51Doa8bbf8DOt1LRYOwdz/hfjixHw7S+jN8NQYZCTgrtSieyJsd5J0ZXowokF+W1wYB9/wKD7HpwSjb2rf9nyyKLEseUYGQHglUG3vd47yywmayuOIhQHvebcZKRWXzrVVpfXAuild+balsrB3VtRM5Q1a3xeAALcwN2XvNFk+3IdoIedDsSYKticPaYl25KandeVaMbL6DcV4w9QW7zYACb1sOSTPA5GSErn+/LRAUrdTsghjxEhg80YcKhMzmPEM1cYGLg92YOmoBE+i0PYS+vn64jxpRWS3Q79OxA4JyPLZGom9dtdAruji8exdp1mICGTB+aHMXvXpS6gSk3Q10M6F0bp/sywHTKg3P2gI4EhSKegLk0EuSJgNsa/DJxvAWR41x6jPej4vAyPlvShT+/jE6nMAnT5GcsOu6QlkSJRxKJrlZotZs/xOqF3FHUzwLREQrhwvoll+w1zLz2G8u5ObtIbPJYpuh3L/z92Wy0vjhbouf5xLOMh4UoZNuFOTdT8t+O15FNR7/xXX8wmY0Sd0i+CjwGfqNRPPDyZ+xSaxA1vp+L457Lul82qaFny9jtO0bmD9D7tLBKaekOOeVF95AlE/mSVTPVX1YgkIGZj1mZ6VugpynjGnQkE1vgBag3Cpj9EkWCrIBpUAYqXWkkVQwb9AwjqYrpCXRHtijWnEhs58Nhu+M7obBUHmD63eq5HErO/ZYU/8nnEA6t56/+GVoYH3VEywdoE29bTu+GQLiixo2/M6IiPuKAMk3YewLiSXxGjXpc3lQFrreUYJwvXqU9ykNFIB9/GHDCW7OOEp52YNpBJmzBEVdmQuEl/8AcpePs9Sw1h9K7GWaJ7jsMg201HY1rvS43xXxcLLXiSKvxzy+KgU+5qJixzKjjAYIbEziLzGroAdrVckMXN20obGp08WlrYpsisczGt8oxvJsFO3pSnJXLkwFSo9dpatFN5nRgrChdNYe5XMFTtsXHUYnxaU8ARj6+KSJ25Dg/bS/GjZtG4Ju1cwaRchnM8NL/kdolxS9maMvaQ3h8Z6bGRBAV7LqpgwR2S9F/pKeculd9BepguERLxEehFtLUH/08w5FS/jNdf5SSJ1Gb42r3kf76+lSsdpbjYQtSLvqIfNPiKvg3p5rNAFEuZA1BBcERHbhSlISKlopjDNcvjGuas6dCU+4jmpWCrLr7neBnsv/aqVdEnPhGunPtCk3MGlmovY+GSt6nxf3my2MgXBTpROrYLfeJfDcDLAkiaNaIrMTEhXSvoCH3sXaWO/mNscfgJJcdDnG8yfRyZ7e9C1RBqMhlJl2lLfysbWC0Lp3wtzJPy+OKzQYGKInIkQ0fYcBa7wbTPfWFQJIIU74EHEhLz/el9re1Q5UBJ5vX9SK0DIZiPReo9wosVesJTYAAW/bYDsTqC+F55ywe/b2DdGfBrqIIvIqWN0vp2Lw4vKUhM4EP0d5fxdYDV7c+e8fPuextLAez7w4B/wWRW1vgeCxPcTTjFsvt8e5jkUU0K4m0ElVRSx2CW3kQn8GpMckx99+ncZlM/+cn7lAsoP8JWBhwPCW95RBt+cf4xxUd0xfOY2ntCVUZGpA5sYtOp/wKffqK6x8Hs9+Iu1smrJ/XjIz+msPa8hR38OE/ITXJOBqyIv3xGwsIwImA37f+0Pe9O+9+2aCls5VGNdQzYc+q5AdX2D0CAsUMKh1wCZgpEygBGiKu0lsFmvsU8Pqb5b+9BHB6ghypUXXSExGK0AbUKXoKgCJxJxwqGe5FS0RoKuDOcsS/F2a4Q4Pp3bs+H9Q5kKgjJUYTFGh9d45hxtuZPiM0tlpdg6N5Tqq8JL4lwpfx0ZQFI5Ixm0jVn66MvdaLESEi1XYS2fmZKJ0uuspkeC87gNL4Ss2AAnJ/16nJgX5PeYm4zyFblbugiTSNi5Yo82MVcIlxYIUEhj1Ks4dC3U446lpBtOT7Fwe80lZaqqj5EpIgQeoU+/pSU2n2YKey8Rc/Ze1xUTrQb66+82pBTMmAykz52zGnEs4OC3OQzs1YMR8khZ0RJnFB3f6VzFqbGqSTnoUx3BjWMdnLIz5SYcqB0Jwjpvpwl8BV8FkuSDN9oU7kZqQ/BHH5vVffXnZ892dEzQaG7P0POTcQSkQuxs6mVjicsHlbNYMZ6tVLIyjSj/qfMQpOq2B2NCuNPoTCzc2+yaDcqx/Xb6cedmK/UYjj0KUmm26cMSQYt946ovHnMrsrMQoT4era037DRW5oMQvlygiOobtXjGbm2CU3+NFqTkh+8KOJP9dRyDjkZPrZ58yBrE8DVdife5xaFyNB51s/b+JPgxuzbm2qE8AwOyPgyq5PErs9wOJ4w6pBiEmqPGu0wL8Xuy9uX2ZPniJi8FoEmjjiL3uz02vS9D0abzusMTpVdTnSjY9FflhCLOwFTxpMKyfPKt5Y8uokmrsJWOs7KUwTf9M0V4vIQQ1SH8AoSqNFsMopgsHI0y+X9X/U7UAxiWvPFe2KJjLStT95EXfFyLvQfr/9cSfvXijJuSehLKehucvUSo5WXg17am+2j7FAnbhW2SXnvXq7aNunT4lyopWupvo176iV3d6vmFPmFte+D62loCQSqksuZUD4RLSfqgovXNwCTx21m0IGC2og7t+0JkeXLI8Z75gf9YGNUuz4dekU1KJBbIljCX0huO0AX5zt5zL//3dbo8vV331nQAW1rH/EmEDibYAADqjM3NTTeZ5jk8TGAfAk7IogXjVbIZpdYp3wo/GWfYM2XuZVzziavcKbLY95SIu11aDJB6CuaZAux1X9wD74u78HhhQA6jrHO8nCaeyYJwG1bZsr2HrGe/lNOUJZqrFBM8cuZjeLjPUQ6b7iYsy16UWEUsSuUmVmwko7umKXDieBjbGHmlk1k9Fzg9t3M5qQiaaW5aEyIku3lj97mNIf1xqlPCwWzgBlEdFk9mKmXKqRyM7Jy9nxdA+waidu5BHBbf1wPfci0QTrZxAcESdIB8bUUIbVJGkTIPqFNNEGn59lJP8p9ilTOqpZa/DUL7y+3m956XkpxcILkpVVXanL/cbu+Z/vQDnJryRNec20h17EVJ04XOmyycFydNHKEZv3x5de/jz2u14vQ4gh74qFlBRX5EJIoF2Axi266Im6x8zDG6aGUQlOGmRiRLPpR6roNdyHSbENMVAAswXOy5dgq7wp+7HzNNOaebV+mYHCly88nLjR5gOb0uOv7FaXd/wlL0x7Ay0tZXXGwDobBTaeU2Ibv/HkpCAVKd3YXeXAmPgOOPjPHTAPvNOQNsiDieH2mWr8e3co5yEyjkZfbLvBiMahk6ZfpFxxamI3c9BZJv8Z/af0CDVnsXqb5aCSOLmCA/KMGL0KKBKokorIiC5+fW3rzSKtpUct9wOr3kXmnsUoVNjrYiDq79Bjfy3YNws5bV8QzUZ1FfSCif63ifG//UjTpgHgOJq9zYWdutq45hay7w6wFOnPZsg0/vO7H0aIHNRPXlATCFEFzyV9kUP3Tr2peD2jNVUGHw9Op7Afp9JkpJKsulXiKLomlmbqsvMBlZMGhqqA5+P25TZbrBDusjLmzznU/dFAWIH92TKVDIo7HB4wFcv+Rs6aptcrXlK9iOYRsD52SBeE0w+IqPIzhy87wFenax7g1EqGhTGdiUB0M/2ng9zqaDXVOqgi8v1zeWZlK3LRXKEzBYlAXnypq6oOyZPfQicFt28L8Gg9xQYu8FPC/FPatgjVo9ECtpteZrwljJuSJxXZ4v5pBZv4AzleSE1bvf75/4wS+3EnBR+qOPq6TKiuc7SmDP5ruTPfe6t3f1e5/xymG85Hd99WtstYrZ0NdDU6Of2X6JcSXm8qP7k4rw82yDWEL+N7zf197VTv7NTIiQ+GpZd5imt0hhkuGaSVjZuv7d/Uz0i1LZVF9nFokDkJ8SKul3zmMun6zimXatffT0tcLkgjrDv48eucSWjTjT0lr3ZfYVR4VejKyh46h51jNd5ARSn/UWpvKBvG4zs2shblqWXIlS0yzz9tM2xRRuevGfgUCNjFwnYBGzAakm4Oo1JcWjcrAROCDjzuJfgemaZccTNMCkZ5jNrks3CyfRFGzuoFbx+pMp7c9osL3W2qAeYzG1tK4ddUUX9+cy69HsmQ5mjSsXR1vGSYfinqy7DGNneje1dL7KHq3RbfP5eZDknKeryNAm2JJGKJE2icsAwP4XTSXOupV+jwz9C/p1gmBrBR77xwTp8jR9YUZ9GWC1u4zvPh9Yt/wvgsq2vnVoyu5MP43At297TjyPjIG05kppAhH/uKO8lNydZOoVIolF1RlOq+vcidb0DTyqhq8aPFGBW1yBaDD3POSUEC3rfRkB5/lZIJ0Fuck72Pk7woGGPHNlmOC6i6sVoAAjED43JFybYaTRFP1fo463Q2C+kcYQm6efcYIw8WPR+4bMdXfhY7oHOwiXcznIqQWOtQlsrGeX1DcxkG5Rld2k6gSm8udsD/iXsqryA6KA9xQUuFuNrZErrGmAb1OOr0kDnMtGLNUDE/U9wGQGwtbBVzGTwi4Hl89aDt4bSg+EUC2Sjzrco4srnGZLSYclAa0nquizHJs2e5vH0Dm5qyCfrJa6CZ8uLagEidLX553sQeFPIPmnzda6dbnuiEuFovb9gEoGCVlpslceU2dhNaXCV4ccsHkq+yg8LHSawGVxYuP1Ehr/Q6BBOTdu1+DNA9EDzYRwwHCFT6Cs2h+MlW3aHL1hzE2Ad7LgMqjI0sTaEheAaNPFTi6pCmjm8QmTteiiH135eFBSUUs0ob6oWpVx2o9XRQrI2x2nPcg/V8ng4vlF3wFMaMdKDHdsM88GY3GRmaX0id4za2oYIX9Qnaws3nmw6iMxD3enyoU4aXXV4cI3W4XKxOberpSUX4orkynzBsZS11r2RrEmjxXxdIt9wOAhM3EmZRAy7OfRvkoMly3phhDL+DHrMqwoPdkQKAK3smj37TQdf8bIxcPfaylZb5f0F/Ju1rXxFX3IXwS/Ejk8utCaWxWAnNdKnUD7PfXCx1R5iS/uovwNMR2826OY3Sm5Ad6TCqc+m1m/qD5Uxthx91V1CNlBQ2ZnQXr20WElcwM82ZoLwfpdVPUyIE3/21TO/CKdXzzdzehRDotbK0qEBnKCdZrPSkGEGnBCdHCcVdm0eZiEPjw7ZNIa9Peq1bV5BGRnwRyzaUYo3dx3Wh8KeVD6gQzWZUY5djdF72iP2E+Pn0y55dOG/XWIxD7Zulk/jU9BqbykqseqQHDzDESvF1f1Z0N2YDjcHxAEJEHk0sVzOoCDcLAqVhTXtUhq+qiM2hbbvwflvyhovebK0VJgX+eCe54bi+jLgSUhY4SVhSk/IAFzf7/gRaAojIRlCqCZRE4ApMCbx0Y7DKXaSMJJlp6LSFUPr1lQ7+dOnCokwkdI5OpLwwW5Oc9b3CVv2EOMmSFwZ5TP4VDGtRJcv30+G4bBH2q3/LUya0KImKy2Y4gysJJ7EAQQ+fuSTrGrcSyUH+5SBPP5bZGeSIjyd5KVURTTKBhDuvxGDOuiWMTLSqHYGkA/2vjSn1gI4z0IsQ/RxxVIIbHHtBC07Od3avoOWnFqUss+jnWd8mYbHT3EVlruohuDeWezguxCdtjL8+/0RxFT/290ZcA6IQBQz/xrlNZcBStCbsL4WxosudSwfpwUalnUS6l6ivncSqBMTjghsZweaIFSmZaz1qvuCd+659Hdws5eEY61Jpk+LVuvfWCzcVXDBAhJZ7H2RH0e1ZZIcXr0/XD6pAmPXbRiRBXp2nUCjdJf+09YqErxB1GUuSSeRfJy4lXV8J09LyiqHjryLMuL8m7DrHzB18FqPtdTiz3sS5uCJjnMN48lUdyH5KL73C9Fk+tqrJZuc0Gsah2QUqSBUiMsq/+5Xm5PKQ178b4aJz6JlqUs+POeWy1yvO75a1r+quYWvtqtAEHgW+kshinSOeem+1a7CZ1usn7sSyHbBeSenf/RCw4yCXFY5ppigFiEW4Fr51n3qq3Z7QKNLinj0eFUQKIyL32yulbYubJ3Sle1wyzrp7Bf4ZoIDCiEwTk/IaZsM9JqfYJMvydbMvQOSQW4/T3ek2tnS8mAUtBQYqFik1qibxc5HOkXmgMR14oDDBotiqvdAmGl8CKQB/xuzC8b2VeYu6g6XfM4wY/MqbcuZviq67p8ThoZ7yhY7g8KYv3Xi9/qTGWSkAh0JHGCHIVHOndUPHp5viyPXXh+vlxmrBrctWxxaeouYqHMv5vFjRkDI8zHGt8B0BNJMcoXEFOJ/5pZ3pDbOo4MRctHNm0IMxGiUHiXQWU+GXO70mRVKz+V/08LFzz4Nib4MuDXabeVR/wMrbKpsOF22IWBQ5HUmbVBS4Z8/qLCR+O54Bdj6eVDEcjbBiYV4iD8V+g4hMqZ9yElDN0gBwrfBReuw20AxYR3OheRnuiXgKfiRZYeMrn+0bamM7NXNPwJV17diVpNgPVxvPHHAU/2UKnvX4zcRBVJnnpKvP+KwrERhWdpIz3lOGz6vjXg+FGYklDASMgzP3D/KIP4ncCIX7JCFfMgzfclz3bwkciMBjJV2kOtMr7bc0iyXyOxKlhDMtBOccg2kw6rvuR9KnkBfc4M3bbuVeMgbdNhMLPDDZvQM6lCxrrt9bMHfhEtumdT2z0mwSw54OXVl7ueS006SAShIppfAplKSmDo2kuhHNsPk6UwS/PR1thwd0ngE9iAUNAQcK8jMoXQ3GGMJH+Hd+gaBY+o4W2pYEOSCEfh65mn53cwE92ieCirvLiESe7AmVON6QiZ8dii/JmX2aIlVhFppSXxUov3zsTKupiqgViavpeq7WmT5Ie67oGCMHGQmCLK8efIBmZlazlpZEQX+DzcuTv50Aly1FFI22IeAPIpMN1WZApq+sS4aSfahMAKi1sQ2wyz+f99+OL4FF104BGUMR2LTaXPjo8+/u1SN7bL7VWOXbsw/RtmrCQesE4GW1S088n/7x/inDM6MRNKharsHQR91iTSeD6LnJfbeGXNWDZ1d/BesFgPcmkysK0PgxNg8IjIvIL2huJmusN+YULF41DE2HR3Ik6Ko2HHvmPDuj73ysk9d+Z3h3jQS+XagR3uo0KTgnlJFicFZCfbi2KR1s8FntnHMxZNvm3rXo+vt2FHFc70j2Mh6fZduphgZZyHBYNwWNIJREkPDjQtPMjTebA8UUNhJxgYC7g8DW2P/7D1vvLzbchVk0vDlzB/dMghbuFFD8SHMO0RshHWX+Aqhq3P8A0yeHrUZRktbexrrrBfVLcN89RXJsa3ROwUVF3YNfoTXpBszC8vXJBJa7EFXO+bE3ZPtD6fDFZZvUYXVJ0Qqu4D1V3TkhwBVMNlBQj4pw7Cf0KqRMl24WyYx0kUl1Qls7/HHj2Vd7S+7PsNctZWcBQEfldfgdE2mDtMOeTzdu+RQytWWi3Xv/pDYzGwVjLWfWd+8eIN+pZG4C0gZ3F/tszz5JiQC5bIcPmIel70FDVTc2UZmLjLkYQZ5GZy3W2/26II3loKBJ2QmOrX5euZFyLRYGH1bHE1CIPZaK4GMau7+cPLl/70ij3ni4foebfHYNbU0QLWcyS9FbIuJYzg8egC7HA1AN2Cs83W7mfktY7tnaw2Yt9z+vdYV31+7a7En0e900RLDt+zJLGUAPlKBKp700IRwbdHalVJ5lM42U7v8z9G9kNWrQUJBtkRFEcY4YnBZwERO46kGMc08FT2N053jEKwZ4Jmj8XTtlOpih5h5dmQwj4Pl7S/ylN72Jstg40Fjy4ALLIhvtysgN5L5kwwPbHjQ7S5SOsG3q62WAjZiOeKsbS8JWgA97ykEL97ekXKa+laCOjw5OwXQRGAxMngeASPdgE/SInisdZ/12/tTX+9gegjBI8oQ9C4v6buIT9PSoCsjbi/WP54gudk9s5++fDHP0dedkGzD3zqAf/+6Wvb9vO6ebSjcQkbW5IO/jPpPvqLJqyDz0hXU5UfkXA5jqkZfYEYmY27vJp+SjqiSbtDq+/cjCqzSrJG1c26Z2IW3RPRQkFTuzTPUZDXU4VKJOAj0v4lnsVz08XXrvpG6XZKkKoMAo5RiJvBBd1/JZRNjLouBksfY9vw5uKBC3CXt9oj5T/L7YLgxJPGYF7xvVWGngPGRy/44iJKyPeDH3tGCu7Vc5RO18VW7aRR6JRej18jIaZ5uGdmuzdM9ES+hVeE67tCdpqhtYBfpadOZooJ/+bFKaMz6vj3eoB3oQO5k3wzbfUZNU+PghfyS3pLTTa1ujivTMOaQnQnx/QjvLemP4DVSwdmaUmiyBcxaeJu3S07VkwAdet3Vkl3tu44R6ooHtgB/slMEMOOWURJKvRdXaH6WVu7rLfpjGj2nNPnnbiGd+EyNY83NcmVkxRAmIWaXLit2vJ/Nc9nnn4l50eY6OHF/XrRzs1WOXrsDU6AGlb4GQFz9VJRYbs/ukwxAES9glWRFmj0b//hO46gChf0iSZNZnG4vTGaFJxdVNmnFEG8j4/yCNVmabi6ZovjeC293nfIIxPEeocV69RGq4f8+aiEfqnNFh/OZuy31Jks08aJOHP644OZhK7a56b39z8N71vUjuAmUlb7X7RXzCc4wCv4+kEYJ/atInDX8NdpJnP1jv+dCA8bRhWrtfrr6+2tBlVdzAaWs84VbcIQjc1u6TmB5T11hqp02gpPlfuRLLhlM1B4WhxeDfWIA8xrH7sYqJT2oOFjHE7VuSAo6z1OxUC+fy4TUTiQDFNm1cq6y5a+hZsrGHvXOHbOx10lB3CwndTv8dZwO+3xE/uWzrc3f3StWFG/VDwAgAEe0VGcZqYuu8O1lzrVs7AdHGeOGV0lgkufFtjCuQ4X0R69hsZh42EIS42G7vejK0DfFcV1AkcowBMSZt/EXldBPo/7aVH97k6SmlHv4KBk1GFrOUr5thlLQ6BBDsAC3/GzHVQzMTR3CLKiCE1WSZ5WEnJ/PKxfXkkNJ3jcRmGLl4xCB1voVrvyq8Lcw38MLDOhDB0xZGhrtWkX3LgCWkxYcJ5Zw2Mho3KwPZRdccQjPaCEiiFmYGu/FI3CMx92XO7xxWCAovVaPAiPo367PlhL3zmU3rjeLNmu0S/RNc0bNAf7LuBx7qrjGVY/VnMcXIwwO84bSsR0MIIHvx2FCMFTuCqqZMzGdBEkIwuNG+zRTRPUX+XJX9nxXi7XigHSo+S4Ji9j70gMLYRqxTylaS8d5W4sIkCDlQRflwM9v8P3uo1uhinEr55+gc1wDLN/o0AVMF2/Kd0a/GCXFk3dsCuwJB/9pYDPcXHlL73g8gt4GC1e3w4hbNNdEkEV3OnIcGVinowSsvw93YwJkpEa0Q2zfdh/lVgJbyI1dlPauuUMZV+456xVs+2UMpbv2hRyOTlRF39mfgVxn98sVL8ZOjKo21X2CpPJnBsR/Y4/j+TpH17u2U8sOFV3/drXt6Hx7vTIIsU51tBTeU35wdq+O64lnI35XBhMVAC/RMhwy30ORoJO+LS4BQPNAgLo/wycy6hXqEZcegbY+P3yorBWYj9L+I+Pe9fgcb7CG5AzS+u2Gzz7OIqwDb8VJn+tYWU8H5rCH3MMsAqbgTYmNigYhRb2yYjns8M02P8KSgTA69invtrAH0TK/VKCDU8tfSGuWfGF5P8+JOktELC26WesyM6rvBXyhsDiYIORPf1KwkCuR20tgKQrXt9dapQBIpDUFOkV7UyP5IfESiDBRo4g2W2k9/WjElw3Cx3wbpR04Rcvk/dnBRQESvuKeSdCvZ0YCP/G/44aERi5zDn5bZmLoCyMNuWAAQOj3O7fX+J1g1v7XakSZfl0HtbUR3ZhVEGF73BboBrMpGv6KHuIRcLsCGt2UEBX87U1brE0+cWDNGrSa5wa/0iIairr4wlHu5/T8fJfikc7FvFvj0vOZtlMjw3pmGKLAl6Wh71ur6C7+LpooHlu+m7IuwsMyxu8P9L0j6r5Rb0Siwmn8TwxKdYrEZv9neD+HRy7HpN05cwbkLsUi0cjU/jY/UfCv/TI6yZc1iqVEuLYH33WG+VsIIEm/H6vuSeNHCtf0Z3Zs2eeSmNnYsfZHHW8fkQlcrytVg4fgBa+uER+SjQkxLG2Wd0YGbEgoaJIRMclJWsZtW5MKtBjLRn/FnsQTDjQKVU+rq8QhB4SgmXH18DpQ1i3+Hv2Mqbm0VHcMPEZCB+GjlNCKN09x/SUpNvLmO0dUoL9/Gr3jxCeeAJhooygdk4yj05hZ1xCy49AgpIqQ7etAxXjXh8HFYjj/U1d9s+k+7L3MAsR1eVFXXU25/Y+uWyVbAfpJEF7f/uFNoGNb28KXflXMe1CAcpN29oFclNzv9rMUGaOUrTPwnTCy8jdlYWkAi/OzGE+3empc5t3wkY320T6hKte134dEgr9d3tdMzEXO2Kk6Mz80CxpKHeNbooguZxUMu2dR40diJ52aCMHG8ePZUDbXhCVruHcAUm5XeS7cKhoCizC7szC3HVFt092fFx0qBGCiBscuc60mdhZkA85+xZ0/K9gdqHc5MDFwB0L06SuGLbLMiEKlP4JIDYf1RccoZ2DWtgR0L4IWpnYVo8zywktquvrX/guDe6m99EM0a5QVLRRWP+fAtVyysmsdJTO++3aP94T+Ugx86XDDNXUz4YmqzwdeX5ooSjdbwQvcmQmlKRETZu1PNeFEVKeY+c44xUu34P5t91RvaKmjPktJeEOUIP5pQc3RPvjoQrnrkyxCA89VLqeRf75IRr/xOzpcwx5Lc1+qgwGbbx1a7QggQdnqAxOYfyczKwMQSNkt6V2s2/9BWTH6uW+xbFF0hKc4b6ciCqjmLryxDQevQ5028Alt5YovTCPc9dMTrSlbIQd8hbb1rTJfWXQp2B02XK0KIr97mBqXTq8SKcQsOBY3+7hsP836K+YRwyZW8eMQz59mCzyUkEpNoYWKb1PtqFtZyzj6av75upAS4fBp9cXJOGB/XlvIl057K+2H4T3ud2pxs7GNcUWgiEqC+jBKyCPhbgP2tt5O2HIj0AZCJVQnQelpAQ5Q+goyL+VDHy/onHsIF5sOirVfN7Dc9xYZXgA4t78ys98WQj7i9FD5ReMxUKKkna60/2xn8dPNfZOG5cvtPxaAl4Gg/8GIPdX/w7sbyGjWQUMXDANInG8tQTjattti84Gg0B6ZjCXCTZh1r4Jz/7Fr07WM5ibKbFBuZ1F8AdtPjhk/+NwGXjl5//iXQ2YTjUe7m0b1JJfu8kryW8jE2QMEa8IMxZBAJZhIhfqdVXger/kQQAR2yKSEsSXLvI2E76+54tTmsFVwA8BFYQVp8Lpz1LA7i1cAz27mM463MUlE6g/NxumuB/o+0PKQ5JIgbG6xixncqATmZ/QPHu3H2CRD7bRHtnUHzXL8w/Pv0/qfa7K1PRLaWtkIIGrI8wSEH0b2G3hmv6kYmgddp3sby4vSbQeO1JzBJBn17PmN6xR08s/bWueXzeezMgOVCPMpWaCoitB5nLUUJtAEFeRGUDKgwhHLS0R7vscjs7hHaKzOn3iYF0wgC/myYGZvmzNOeUqwFh7BJ6640KVkKn3Fl8cKagzH9r4tDQpWQlDNm8/S2not0x0JtyIj3JVcCMKP/aO1IJwabMMoxfB1gjnI9AXYXZyHuVVeXPzbg91RWFxIN0afiN+Z7EdjhqxgYLF/SvDy90++zg3juCWOlzJkNigEIG1g6QUKzLyMb+583RMu3oDDHM92v+DQ7svsyBR4BhGw7aWMsXFXJUJTStfTZyNx8TVBxR1GSK6ZAZ14UgOtONmcqnwUipWXXT8yEBoeu6E4/85tKfKMcORmAfJWguXpUd8iu/FAjc2VUco54pVGQphG4uDiGbtVdJSFC/z+Yb7uVxt0dvjVd4x2XOOYqqLwRmWywWyl94Bh7oJsigU8bdjhshjT289gfu/mdS0L5AWTY0tOheRzKpoR4CMY550eqjc8GEMLX611e3ALrQqGbFxHP50PukLOoAx0cp4uyCybzaLp53NIp0/IeHMhpqUAFSf8vV3IV5gtFuZQ9kZw/OqeABmeIhGvr6lWXlqI2sS5o+NR/rRUgRLE2f43UrQHy06KKvTrmNHNjhOkdJGgJWkjctJZQNR4qibt5eBColKEXhvn8MkC1vb1gXexWF1nfoyIPbblZ0Iz2K+y4cmuTJhQI8NF1AS9ImRgz/bDEa2yXZuxbR+/F+M6rG4dhxHz+iwfaLOflRYyvb05tjGCHviXkmm48/X5hOLERv18vtkfXrKjsYWBCCv0yJ5kQwKPIq0EHpToubv8tTNmacUBty/aHckpz/23Kl8Ff41XX93Ce96JvE70c2yyJJinakvFD5Cd7uDv5UpM9EKiFzByb69YAuAmGfQJStwf/nUJ5KwPeFjVYYvLLcWiNq995MAmKFruUKSbzvIIOKvDGi9cO5nKztoiV3UUKibAe3KTf2dRN+ygSPJpqPwCgCD1rURxNbmATzNTTClNAR6Um/7Q9MDclmTZgr+dkzpObKQEiFNGkEYRivXQgVE1/JIgUDmYrDunikXKldf5wDhJJtw/oydshDNs3gQqaDEg5MkdYinVkgEYVkzP211lSYaCEq8U+x86rtDUx/jQ9fNsAkStGkZC0mqBo9KkZKYaoqZQp9uaCwr/WCBAvJ7NEEeYpFGM/67TNp1FgN4/Ok6FXYTQnRW5UIj1Q0mBMN4YOyYmtnqXDy7FGAtToMzlF9AyAN8GaH0cn0J/K9zdoIrK63BjG/858WHumlUOdKMfie9u06gX+Km03lDD3a5a5JbrRYWsWkUBMPtyy8Je7o8/5zmkexPQOipLD/6uk74xzUXFlq0qFjkm4UkLxz3tihpzE71qYkZPDBQe9HT45/i3ksIKT6ed3YwmFvdXNoLWsGan697vwcZKRcSdn1iY6Qb+ryQWvLmxCrz6EHUxcN55TAZ1WZ0ppNCebLrFzkmBCnJXEfeeDNgjIAKjIteynnzKtSOcRq5EpUin/LfrcYuKWZUbu4+viJ4CJpwY9DSbVDt+5HJOK3W87TgBuefJeq0xeQnZqFXZsNHhKcuX4EzMU2zRGd6rYSOvGXalq4RGXyoi9JSuaSvV/TkdiZ1nEuoH2AhZLgJIrAKwpJYqv/ek7BCYPKJze8gcxmwioT8tiuLiLeK4LyMkkZFuxqqZQ/+sdqIhV+OSm4u0F+qG8EbgNxmX5tOJ5T/HiUqTb09Q0aCEicPfQ2EZYtTMGeWHiapNza+BqSRGnLPa5lX5/Pny0qPcoP5/K/TJKY8Kl4arhDXTO6bMtafFDDW0pld3cUxQwmqwTAHizXfkqHODFnIDjOOeTewTNoTRNug3fKBUhlqbuD9cHHCuoZpgNb8yAkK2feIbIyrkG7/pPARerjI4hrUNUI++qGK0h5xOT+MugiyaDVrzXX5E1850hjXG4VgJ8kJAMXikL20tbZ0BJfWGzUa8+1DMgV3kHryvyLD741Bvi0erpRdSmP0y+BWG7349cqvrGyU3sx7SZEOnKsoYoo+9a2SjfHKuZkFh5f26TaGu/HH84xO00tMT9yPOzwmVOl9tqYqy1Jd+nxb/0iqd8YdmC+LcXJiH6hgZ2ePCtV60j1WEwToAHH0eBjVga4YSGijQg10c4L2h2t3Uml9ALRIQbhsxIJi92LbSAPnra4u8Vxahqay8mUMr9ZN58zgeQl6tWbwQAht1GnJ2ClZDNbISUQJW401PutdJYTaXwAIsgwTm//Jhre1j4Rl4EoDMtRzWEQO0aC69ZjFmHzD/uG4RPZ6jiOS3fqQbqmwH/nc6qKftmLbZ42tbic5ZwFyCszE6KnUVqwrQZFrvHAiuKTLr9Xx1XQo+AqLN/E5t2Cq5qknOlV6qhbc/vYVslSCC62bCQCmtRLzlD9E5iCgtWgnX0vxxIcvo+N4BSm5QJO/KGBSoTUSU6VyTQJJTgxjQcKl23DtBns74jE0ddIAAb92N15whgf2TXYtl5rStgMu7twnijCs87pv1U+wWck9uRKBD8BeBPrz1+irLB+Jd1jiBOBBmwITty/m0KRsorneGY1Lsx/bPHNwSFSV5wzNnwcKAB5x7TpoTllVy1FKOlxnH8xaou7gjDr5APOIrb/AUjHdo9cw4mPHNAMFaJbZLkCjoAnsJeCIqMQj2JiZBv8VL3yHtBx22qP8X/ARNH7fmMHBnKyMSxzNHYl514Xq/Z62UAkzhwKE5lyqixqdZFoT95AxQw0hr+2uGJtPbmiGY0YIh//9gKA9fh8+A/kUAPyT+PPIiKr8j4pnSN0SrdzUlytvq8Hg0koJDxG+R/HMWfKwtJmpYDs4m2oR6RZyJG0WbVszwNTd+Zw5hSH6cpkRbbjaomDxqrO9upk2nskWHe7PrXb98KwbiqD0kfEV0MwOWJzbG76k1ZwCOSG52xk/bTMu8ObHRoXNakQEwS4u9SR//8nUKAbbThV6/EOCsevgiRDuwAtcqxzfzNB1V1e3pvliudPPEgq+dQemS5bksetLbSapNyA9wwBGTA/tLRICWsG5R1tlqtDAMNGUltDejgvz4F4+ItvDzoSXxz59cDY/bVw8j12gqCh7ZrvgdngvMBrf6KC6cBESWDeUP6uT9R423pqtiYXmx7yfaw+DMwXFiKbS08D72JLGrVdmdW0jTZEii5DwLCTt6TeJtwNGFex1N2H3bSjiovutn1U3tnISx+H1qklXXsc76Ft57Dsw7pnAHv3Hlkq21SPkhVzFJhmjAqGE1wR6I2Y996paXWI2Bfzd7yCSdtkdvVGw5BLUznTTeBIDB27JkLYGUJJAm1iRAJjQSv0fAnQEDQ2bPbL4yAN60KEfU3d2caaEFC50AnXiv/pV6VUmUsbtM0FrdZ38sRNSyHg9VKQHobd9NzQhQT262+TcD94gXLQbqBSAwZwOztW3SJUD4ZZ8iKppKBIq76Zdcz9tHcVVxrH7tuGswZ5fFJL8ziY22ZdMXxkrV7vCs5IPOQfGwz8FfdP5+p7gUDV+y/QEkawR1GYpZbq9uc9D7PytRdMXcPtbeTUT9w80WXtJuUl+gVvd0XuykDPrbOv5xiKIkA0r0h2gP+tthbGArcn4VcVDd10it58/sD+pfd5O0z9M1mH41fG8xlFLcQv/hckUjVuP+1dWJIB7m27Z1BWJC4od8PJa5+Tr+PTZ0f5VotTfN3LaOeh/GWgi3wx4PMcK8uVGZB2F+tBiqrN+bczIGo8KUNVw1Kg79EqbUh/4aqQl7vVDHjOOqaxdr0q3R+uhJoPpdspx3vXXPb+LAWNiE6NtSPomv7Om5qIWJVrnf1/7RzFjfJarO4wF0/GL/kxGmxSVg3MfQKEzCdoom1/54VPxkeonCYUVsZCJZaP6gKMJTPcu+JahIWTxWIRFQtvm2rpA2N+gKKNqC4zj5aPr0ZqVEn5T9yBQPlYF0x5IuIRGIdCIJ8M2urMWAFXJPK1+/WKL3PX/FkHqoyTooTjqaWrxBv/7OTyWPibTgP1GxJXAYjriiiWYF89V0dBzWjCyLxzMmsX5nQdHxNYx+PPUcUjukhfn0GraeVDtCOqUWgGS+RjnGdMWCnojD/AjiU+r3V9rRVaM8WDGT52oY2G9jeFgiaz8AU0owwxqbk3GC0c4IhaQbOzeXCm/5hE7SLWWy7z7egXXrSk9U4lJ1tga5gZIazdt7jSsrZ/jqSLfZl++PY2ha+1MKSZvzS4Qsy0Nsco+Xf3kg20KpElVKGPiz6+28Zc53YgAKKvXCEfbf/eHwPIBge195LleBqqeJTsGXS57X5IFCMy3NzWvgs/YqJOWDWgTXfjqRp36/qTdTxfi1WOFHVxdvt4YCV3Xn3gLe3ipuAZ6D5BIPeOLAAvHcsDV+LQlyN7vSxsNmDXpTtyu5EJivzR4TGYbU1cBHgWCU+VQENXQEWHcxmGpTNaca1/9r+uwjlnfKeZYbiIpYYDolm+/2jeKHhj/psCQp8enV/h0WZOqYUaFjZRbV3s9WwWfwmNfrLoPr7L2G624h587tC2H9cAtfL+SOMr1I1HPgSX1WWZOKE00VWgXRQp6Yy2zRtcOocHcUBNIKltMOOouCxYM9/Ldx5fxXSvE/YHyzcVB2BiJEeomGeuvoY53eZk7n9KLC9tYNFmCRx9qY/Bmx866n+T5FZzQ2/8knaMXypUIW05WwozXY/7e2qdO/XQrh2p3EKmqvp3WMvswGbWVuFFHKQUSkV+5vhTPPULDrj/Ea8i1Tad35qpKumSh+kNgVYTJTJYT6lB3GjQjT1lSG/f426fShrMkdYgvMBDQHazrLwlGmKl30x/t40NvEpYvIdga6ClQDe5hJCWpTEr82U77y/4LrNCaqjX7r8dZdmW1msgpOa3nrVrz4m/q12xuudJ3g/4ZOi4ii4+gOSfadcEMyYGmJCRQBVf/8R49qg7SvnGCb4MHaJw4HConiqzb/1sGa0sK42RHKym0XWmpXCpz5ddHIFOXKrxIvoRWK5MEhyEYRhhL0mtysAZxnS6p7qsJHwwSX5Q16QjKwLggfg1cz28ozg1bbqp5h7Nm7rismyM+hJ48jYyFKxJDkKG5F0bftU1p/NooeeiuKCud0F61SJewn9MIfoecW29VcATq5OJCK7HBzVWqeDmIISZd95yayCF3KTbboyMsensg4S1dV7rXOiNGdagoDwP3C4jpJ6NbmfiPCRsbgHyNTSkibPdGJMQiVvO082M2xJ+yr6Bt+cRfJQV/Hs45H9k693ESlq4N8T0XsRsuHhg5AJ0998L6LkYMgxVI5UEPIND8AQUFrI6Nco4FOD3d8Y5R/h0QCqphL1rrOPd19foEsRs+jSEP1YPOxmEFQm8TU5+0eX9v8Q9u+s5JfPoW5vZHxnALhe7iwYTz+exUpoSETESUheYyNUZN98UYyK3ZwpH0lUi7kcludE5yq5kCF64I5SRcuuEh9DCuzlq6ltZINpWNkjG2m7qX2a9EGej4fzVcSGIpNyAMxVWGBLhtVmfA+w9tArE64R3EZ+eG/0DEyef/B8LbYvocWRzk1x7KVn//PyoqYPdT+/KaG0nfv4SJkUJsuAUg/5Xwv5j6HOFJJ+RlKFPpdUm5cJWvFD3TPeYUB7hZjhbOglsiKZC8OjVb1ShvqudgC9aiXL7lkmiJtQAgSzuk8nwGPWnE7wBB5yParFzOcKAVSIw6okfugoo+rSyR+juKmmPSJqWWcv8mx2NQ3vob+frNpe8JEh3DBWHdJWJwl2+Ldv/P7CEwRHF4cu3rWMGj/p8aM4/UF5zY0/h9Kg3QSr02/ZxJI88h7Pm1oSc66GmAkSDdRjG9CL9zLRgNGQwniahk5F0Z5HvODBD5o1Jcso7CLbPxdjoL/e0qyP/LGr+on83QVTXHl7d087Ze734PRIGNkaxTCdzGDZb7blnrbJWN64AArHauHhxLOMqvGTdEx60B4TXfdzJUS8siekulkGZgKEFdkmMN6GRbCigcFtbagWdkk3mjvWM/gty5YG20JyaXUHo1ZknFu30uOIUxTOJRlvlyHJGTc1PwAMsuupeuw0pBL7sJAhqTA0M3vX1v6Fp+htfIQjb6NYrh4KFgwkR22cplqHAZxK9yKxemJZuNAF+xPeGN9LJY87PWmUOkGQDhUvm/f+bzS/0Ud5CbS0sMwoLNi2bV50dI3rQwCwt+451zip43/LL91ZPmxMgyooiEVGS58s3CDeAkT6Zg+Njet0y0p3zHEP3PVuGl7aD0jZW32/0/KC+WaVcbBApFAFgK4oQ/KAwlf2iV3qsGvK+R5Voy1cJFFCiBqb6lIEUib1DrjoAYnNwfilp5WUZ5tX/V0IwJ6ElqZ6YCFfxm2wp+NkwjYrixVgSn6I2Nc/ns6CGo/Sg8mBiIKVfvuvj/S3vPtS4Xp1eI5XxSy1etdPG9MPym20Kc1bsMMmIuG3UgvJRAkNLdMzXxy9RWEq0wShD2b9v8Dya5HVdRxp1hEnAzvPE431GVGSMoQlNxzKGLHS8s+540uAjC+Qu09t3zC4W3lG9WvGy07OTQ6bmuauGP4SZQBEWToxoFFK8cuCFXQhebB8zYC2G0VD6foB1yjtiihyFNnj+Pa2IdM8ZK5WCU7E7yA1tm3xTPlRNNxBqPVsJMt42tS7pDs1lqIeET5k9ks+onbIY5oVI00ZgRfCnjgbxuPhgiR+jWu9I4ZXlKRpEKIa352t9c+z4pOw5iPh8SPF/nBMgtagvX5L4gC/wQxnTICsw5dGoeTq+ZgYKiTnbelZ+m3envAkpzWZQqdyclBMgMpwxut5ciBurVi9EjH7+oqelP7exprBQONhaSv+WCqUpmIm+cYtzO19sTXdNK+EaPUrY+uAtyODesJ0eJz10BjOLZq3lu8yWsyJFgOIkdJp7wNhrQ9QqRpiU8tyuB2IB607nCpu6FrmVsoMv2FoLjwA7ilP9XpbWnB8p3AMC3B7QwlTmfVbCa66Oc7UaG9rgVyZKGIy34GzG11ox1g6TkXj9edG8sLObB98iXURLTNxRdBQUBqcHF0sq+1vFghXG3dmEH8moRA4jgrPkAqanNFGNXxT4JsP0r3v9EOIZgI/R/R1LPKlBV3ozOhBfkDIpPE6KLiRNTChwahntzYAjnzpRbHSbZzdHXxZOt2LVLLToJ//QuZqJXFIfk7sPIS6VCawA8xdmyA9ITPAJG+zsHlN2lGfCcxpbrWvRccTZcl4+IKIlum1LH3+d04QQ1KMRu3Rx/eKVmu2pH1c8LX4rYOWrxp0ocPs2s9109s6cKBh6iy0A5OwAo77nvAvSPesEckD36pqWvz6xB6iU6mLFt/5q1aYYODZkqycstTu/ZrfcR/m7QsxClYFCVpeKULYdskO3UjkUWwWOAy3N6MfQg/D5nvifs0BSJdMnqhNnxOeN7W88rjBKTuX23uBpDDwHhev7tn2Eie3KXsKjZBoe2SWhqkBYp1uOMFKKc//ZPLgCEWqdSy3nnbtOmaMG87efAlTPDeeGlFANcUKs5UgN6ms/vA8KQfMUyBjxV8QB9nSaYT3ZjYpKdlQwrH0QvxMY/0I4+OX8WELplxyJ0EgeC+GDhGNxHcPUPD0GJtDxOuT76LCArr/3lbTQL12+EiKbQa4GUqRBeH/7XLONET55SrAWXeIuGUUT1LlIWpz71qP7c2wHYlYqwqBZgY8UM/egRHe50z+yjwRlc4uu0TBGgcZCHzHnV9ID3vO+Sf27yqSGeIiNRC1LN0/BHDRPIP70eU88mpYRnb2/UF7PgGtYPNrJihcxiFdomrnwG0AgRGls44nQrafYu7coh4ZO0MGEbt5htYuUojD6MuxwekFolnkUMkrxSmVhFsytSRWU+0vA2YyoSZipHTpfNizFqs63HgFR2rIlKGzoIe9pJYKfoldt0oMs9ynuLUOnIYV8xjWthCTIPEbt5BXoQKrBDu39EnS8yukeGKOB9pTeU3FJoCf+MpcOOADnN8/e5pXxd6pP7NXpKmMA4AMfv1fpk3bw4Dtfp9fQnV6pEhmWxg1Pa6jEy4+XexJn8nkBNep/OF+RJQFypOVFNjQeyu4mDy/pzNl3LQU36FXMsDbbGO8+aCyqBI8ovMj3sIE7W6JrNMQIqmOarNX1vQgL9FPIOnnkile3vrBAhSVTLb0uyPQzVlmv2MJdwu7ZZ/DaWQkgpG1aJbUR/L80lZF8EPkiJDtDj+DTVlyDvcISxMmC/JQIvSqF4YmG62XvlTaGwBkz45VQ45Di1pOl+sDHynkCXptO0mfG45BlNT1dju3IWEfZQDgBm9WaLgr7PZoloA0q0ufj07Nm1h5/kKCyuNm27KKJtuwPJ1f/I6NKYHGM5ApzyAU+g1cRpZyJi6kA64x9UJYRYlTF/ajFnbF6Afijdzn12YaMExXhyvwMHiCEOzlumPFFh0QFwwv7L/aq/dfxRBekHfyb8qP3GcwxX8VufVBkh2YQ6AwbG7tfjAPNqtNcCoDYQ4id9sZqQ68zft1O996HaG2DAyfJq8r3gdahnvGVX/8ElXp+CfHTeYwCgD7ShldXa7d5wA+gMQO4qdAneuZqOS7gx0RwCHm1JkPefKkCKD02F3yntS4bq+Q29IiiVpw+Wck/Q7zcMqtEt01jdjkizxAjHXE+Rd9MKdjbVyD1Tt4u8ZezjQnd6W8s0fXDn7giVVI509kW6xEPitHm2tqkx+RDgFUtm2saoD+WsqLIlv6h4UodtEkYpdyGrz34U05v7IBfmuWTuW+J4yM/u4myD7lsd0HabE9tiq/YJLBFhNT6Sc/WmFvWqJfkzkbl8O8Knkpsuynr8LXujC+9LwUqYK0fLJQXHd5tKQcBuDx/9ll5sOpz4sBy5ETy/V372oS8ERbe5v6MEByghAYckJJBDQ8+Gh06rZ9pviI4WL8n7xDJg8hu3EPxmRNw3eWeigHbW9cNKgcRvjF19jBgVlcXPZ76XczWhLLanXYi090LB/HI8pVydlu47g6doNkMyz7B/YyUnzex7Ux9ho4iKzU15dxdKf+VfrnP6occIJ7LDXs5WRbv0afaS550coO4q8th78MsXAxOA4KlLeWrAC+Wy8NaQw5A9AcV10RwMl+auVPMaxYEnr9fnUvS9NVhEvnwwnBkHDg7B9F2Mgssg4vc/D87kRs/dI2UlAZEMyrk739aWc2HGFlJUcE4m+Uc7uBJCpA4h0tZzx78J1+45xAtd08bWBpv8f4rN+UNhgPMO9oEwk9cDS5ZhfDrZhl3K1taB1eBiYDvl6Dro9Sv0uTNN/zcFUSYIB8SjfWFnd9+XGBZX4/oHXEufHZNTiBonfKESMqTmQSeIAZ5sauJx3ZqQGjKGNco2jprHyUvFJEGVJ0Cu4pQPmuv1K4G3k/ukkX9MGgtGhVtaTGzQZmoTBbWQG0+vFBhNCfI1fZUeC6GotrVGqqLWLdV+TL3jY81rkVwZzbpuTc3+2WBgWl63Ipl5++fPkyGIaQCdMxAXgGT3ncSEiid1FpA4VQNjHgUvB6qGx5OIOhqbSZlGW1K+Xy0UR64Dozg4KUs5p9UZ3wjj7+s3YbcFg4Ry+g+YeSp4R4zYwBXGjOx6wAhotXszjnvgFV8Vj0qnAK+nvRWKCTMuKMSx+QypcX0wP8dF/V/Z9eKv6rCKaHNjKSeBKalRHkngouj46gnEykXWr1FObzDny5srDVPJJP+aScOZhep3c0xPYzmKQl4f7mCz7M5Lec/wl2+19VkKAvci/sUBY3SiIrKKYpsYUBhOo+V9P8gatG1p8tip+n4hSI6eCrg0O1I+fccuqvX6YG3Sj1K7kxclQdwoH2aZR7p9AxzzbRhIAbLHtBCmmx9q/YO/chtBSKqBNg5p3Jk8jJS1QcRcjppKTI4+Sb4su5Ul2txj8WJFJw6dvkRHSb8z8HUjFXOrFrx3mdLI9eRkRUhx1N4tL5m45n0nYqFtRVPqcf9CYqsPuILX1a2Fux0+GOF1dhr9jd55KIAby92pn5fnxfNkZVcQiGVq/Ui+BP8LtMS1PrWI+ZhgqsYUwSXjkD8HEadsGupR+MkqQQS3QIOgwBwPDngnidXh45veWezbkab0MvlAeXtV0ShJY1GCVr+BCS6lqEVwJpFhEV8um4hBPobrfesuAiMxzkeD2CpF4EaKqTrVwGKl4CkGNGVqcVuqlRCdTpfLOCzQFMKry00nMf2DQqJapPRI7tkOoNruKordedLdjV3gK98F1XxVlGxTT46ha3BuRrSozYuXlLXkyPMpQZMVYqXIpvHr+QUOJQjPAMRSBx6QLwn+5SAxMpM5enTHBs03NsvK8Bjn7ec9gIS7XFAnqvBfFDQreobf3je+IxyN3Mwxx/KY86tQ6m3N/Bdcs3PVbGbY6GeofPs8TuyjfwDN5s9rtEzzYRGVIUewHKDkWQOj0lKwwUlb29qkBlwNbiUCKoKpBf3UfwOWB/ea98NeVrl+laf7QqvTD8zlzsWtVp+Od7lmspmyvOG2BOB6pfyiBKaxzX/AGuiQTbTDqtuOsnRIkfrCjwd72DbjSb4pGwpL8ZUERRLJIrJRRppdS8INJBrjPSgx5ZWK8kmqNOnsknRrQ16Qvolb9OKK15Y/y86xAY/O/uMSV1iPw+bDuD/H+SwF6wMLIpw0S7u8ycTXbnR9UlCOo+ZGw1VA9OKG4j044TKM7OnH6r8bFKFXyW0D6gBxB90kAdoE2dAC7LVxJoHMx+g7e9ROO7Yc+ancMJBapQV6zubW2SzKsdRCTYddgDrAivvLlrURrgSvZ+B1MBP1m82Kp5DrKrKky8MtgzB1UJD/ArcORVw9ZM++TlpyWIDeyX0H+Wl9+qM6l+CWldoscLV/Rm1qI11pzIdCYnPitEI9v96mpbCXAHmg4sT7RAYm8MzHXc2Y40aAis1Q3sW0Ob4TfudoW8I4VfH6vaFxzMfolB92mB+XLuTYyPDu6A0XCXAmZ6aYQwH4OJDOZY/PbjH4nlicVZQFFAoyT87AyqGdgRaRQftarhsa732pFzpk4o9MFwWI3tf6bSGj/ytL5TNtolyHD6FhKSxoOPFRnzpZmgPlRFFcEPuGihfRKeG23ESW8EFpi249hKinsbq0EzxQJgYCpJoTNI79bUhSMw1M9jhRLhO7mMNFi/0JSpMByrtlNMfCQwk/YMYuYBFEyX5liKprO3sMVAeOzdmQM4Jhq2pIF+MzjddUOI92x/nVLjVDi72s3TNynbn+z43qOY+AvwfR1Yn3+9wGSC5wVwiOjnE2UeTVkC0KQlYGbC0T9MP/GXFZ9G06UfccbmfzgeebCpeNjxrO23ARD1tGJBzhkC+KUMsxlamNUL9VHrV3v4E2RwVSiAm37tNhjO2+aWFf/UZgBsATNir4a0RVli/t1PsKgRTgqV3xmeWjV4Vj5q3L4FQ4GN0j55UARpEy24p8VOo17B6MKsbsFt1uv4esDUsl2kQCBqsRK5tyoHmPrjAJDrt6Qi3+0g1A3r9e6pJrq27KWpwEAm9/3LHnaZGg8OD+mJeT+luqpDx3oKxqNCf+mjX9z9EynBpTvnGyjq5j/hj8n9nEupLJMRD5PaMdDNvFE/9PnNh7BcldU0djyBfywgHKI7NllVAuT4DYXtuKNr3K4ip6aqODf9D3cci1seGrNrIuXZ/hyWGyEPkjCLz6Jpilrx64eS/CQALn1w9G9OujGrbmvF7tct5ED9+DPz0bCYNHqqZ2x1iKZtdEGf+aWkF5JnkBlZyaUAkxvmUrxe7jqMOAYRvmc9kPZSRfKYKQxW8IeozWphYkH98E+rX2wfD/RpmvqjttF2p4hcE+7jcDm9nIOClY+6APgs5426TEokCFdIQcpwVYdJupmfvX0gdk1N9eOCC98RAqX1kNYmWn3tToB5pBMlUBbJTmMY6vcETsXE8GJuqfDY7Z3ZWYDVWrpL+ud5HV4Cc+lUK9FQHMOFG58eI21oOoQdo4TooEQhlxyOhKOjQKyhj1/4L+y7By+RKIU8lpAROzqGu3PEAzOeaNWqmJCdFMtG0e7KyD1dSyWLqcwfGo8UD43zAXsKY7hhUaThRWZ6LRDUZuAo69/Iz77UnkRjIXMiLsA7Sx1JWO7n9bkdh7vb5C761SnyniJ5sHFNt1ovpgayHRstZyMtNFI8bj3xM6CBviAFeZnvVIoEaKO7mf5sbnplG5gFbE1a8VRDQBfW81ju4fHsYp4luv54NxuNBZZ/yZr16aAn+KSBcr+M3BguknB1ohpKabGsNhHrV0PtGMo2/OwXVAzlHaJn0lEpR4gQK1eGI8d/4bQv4yilWsEEvLm+l67HHsJFVwcVqLEuXrO5xNpamyouGlfLOTOByXoeO4n6RLPZQLQoHLHh4qUv/vRC9Ha//0rJ5omhsnNQZYBYM4KXdJ2aceOMvpFAwEBPqh2JnwYuySASddlEQD6L4I9ITsdtENEewPIojyJ4AWVKpX0/k3rJfsgS2g9Zdq1Et+ZfQxCLmR6+p5revrAadEjxnNKFES3re48saEfz5hxpHV2yRcplsr/IHVGdvY1ekQ8XuYUowHLPwB9APoTpP3a6U8IF28uabU3w7vRnXC+D6QbdC+8DdqlrvE5n1xIOJkilJoWDRNOoLSHVSLqrYVGW8MWb+JMxdzPtjpCuWFcJ1+lggJgwAJ9ceQ64/5nkl/X5b9NyGT/lAsfyG0ZEqu6DvO1E5wPymD0XZByd1YN6VZsaB/7guIIlNBIC4bADcnqWfsiBHiwLCHkc7/JSW9t+YGZMxfCjAtWKKpoIn/fTXqZzMlXbY9pDZNyQof+SDelsf4iaFx0TgMFm0HzO1MnFDqQl7CfGRbe+C++MiJGzVCdR2mSvaDou4N1Ze/UCEHTyW4Bh+s0gee3ql4J2AYmgkDrgzloJFH0qgDu5SG61ag8Xfgr92s7+C63gY8i3ec6+bP5WqdXBcxAR1BMz451uul7S2PTLAEKV2m8lJuMM9hennwnolZpvxdRtyrDMIjIpZCQWIuXxI7X6K5oMPiM51Zir4aHKEMxIoR4MIf6DXKRZOgU94FJ9YE9CpcDbCoPcm/moJFznaS5ky8ErgDaJ6TTB+ehZ90qaKOHRz1BleEKGpSaW71onhM3MvS4G7Yh1ax6yVCW9So0CSwooflBIaYfyAOOS/lo0Jill5botwFls2juapNysOP9hqUdlqt82j8a1NaIeNbKTeVp7MQSa4RaaBw/QcTWU9C7BO0PsmniKn0W/676MH71zcDgV6FIfdzls8ru0hBJ+KyWeiIU3ib3bQMwupTUCduU/SPy1i2/WYQEqHh/RuCMCdnkegTAB1/cSwH/4sCn+cMZHdLon4+HLVfhP0jGidQdOsp170LTcKa/0mMwFbc1+j9nqU0oWcHuPjbU6ZBAfpgwCkgJpV7PQVmBoRy4QzeuEYpVuSD79XCQv0rDCSM7ZBKKSD5kCL8Rg003f+EnBMwl/dkRX6z7G3EAFueW4ek1BK+MCDfjwFs4ODJjxNBy6S7Zyd9E2TNzh3/fLs+ULtVn97ftNcgT6rTcJ8nC/wHzrFfbldyp2xP7PF5wIi0lFIQ2/fvDTGlJ5uNmnieG39z4HskehQPavWS6Ps/dy0UJXvNvBSBooTFA1rEVUefE/4LclUpPheTaiMgSgux26vWhg8phzYAt6Oj/XX5gk9Vj/QdeVQnu8IsSNQ2W2x4Cn5VXDh9/x5vkS9GaP00xUM5toFyhtj+xIA/d3pqq5/Hvw//YE/hOv62WRJ+2DldMlpLM+zIoGC0Fkld4xKPk3UrAXLHONs7rxIJ/n+JT0S4+q8vrMZHEGQ9Qk0HttdUrDbB8g4IONUZmrWp3sfnAcmuz8KdLKpXGpFuhclOsPxVn+/IgLGJPXHyPTKYujHcDOERnhH+s0IH/MBEo6MhFbNZ0P3eyxPrl40aDRer0Uyr4MQ/Z/jXEoJ2FJ3zgdfXSsCMupsYecy9D33N9Hn2m2gV/QEqG06SN3I4IuVZgHEGRlTM9jIlL2wqBlfIvy0jnw0KrROZHXnRtGeeJx1Q5GcpZ/299mHaCNIFSKa7PMNkvFmcyEwoH/xgFXS+MxWhfTwv+SpdfYyh05l9xFjxlhxbd5skjUyaIC2z3cKXewMgraHvjJXNdNgm5KGmJMA3JB+9bHv+o34n3+ltn1m7w0RLZETaiWpGV7pKu4Sn/Wf6t7Rs7Fme/Zh9yM04GV4PFzgIjAl34zoH3TScX467HgIZXv3DiH2tYZhgvP1JaslYhJkx42v0BswmS6+wsAGnR3Qm67imzlW6Crt7E98Sauv5xAf7R/8i8/+1wLL0P8/zIqKc4fCz+LfW+lDeUwsRNiFKzxt2wOcubaOp6rgU3ZI67U4r+laKXPxqaMHUgjfbSeyIc5X5iAPAjW3oz0p9DODmP7C3J+Hz3Rwu8d0pfsfDFlWtvsRtdrfpYacgW/yfgXDxZmw56nO/9/IS2Wz0wjJGUnMr3ER4X/sY53Ea5JMw497S/33jCcJbyd7HoKTUaNfe/gq7MpvgxgABwHkOJ4FNTEnDkPj/q0qaxFANwcYUKU8ttXFazCqAS8q13mqtGXNdTy04VtbD1euubmff+u9WV4Gxr9YP8tmLIS2vhcVDtPzNQlrx22s+KeEfKmvONVmVC99972OZ3n+fFG7CdZUMWwquhU2XG5ju/VYvfoRAedB4cE4OVatFzOTKgDqX/0GbZ0GPft2Kio+Xx1+vtP/LzpIjSpJhl2Yzp7ieLxO7+S25xRB4YAFxzPgzi+ked4MqnC2zQdD2oXkGkTGuQTlnLe+BpseKfMD3iHF6tDK69gYZ7waHvPedD2ALWNdkMHIj0/1/qnyYjkWRAG5v41qT6Tq2D01msMmqYsQWjbDikToYWxAlw9Z3egjabFwI7ms9tNlcGtjd/pzHECLIbDcKOk/m+TZ3X6NRebRiyIIuEeLNi/VuTFjOgtJm9hI/fg7uefizDG3yJCnXgHGL/PUpGenlun13ozVcdjqoWRNzTZ3X9M0o/cSXVdVWyyQGT6RfeUR9vKTwCK0t2i/fu06mKLr5AGtIPf6iAieGXV021lKlZSXG084vIST2nM/wcRI+zLMkKA50YhMPXV60iZYzxYgRvyozRC/B0jyvLLDovrmgcaImmP5/s4KL6ONDw37VLDeOq+XdJO+C7i4a4Rr3JVzZggShieZjm49vqZtUxFKk/jrELS9qnXLKle92MOT/V93A1mAEXQOOJe424Oal0sssTt/z9MiB5pJUjRosQLjNNilo0+psvMBCPZo+PqrOQMLg/iqNYkt7lx11tmGuohruCA2693gjmlEeE4XDWsET+6mqlFKGaAhe8k5NhVDHWJznEGi8XP24cmrTbBSJ1h3yvi02HeotPLjgYxuarl3M52ve4jYSVgXMZPmOhKZaS1JZ9g4+hESwgdPUkY4Kpu+bYmGd5fFdkfuLxWcih+A2SvdX1rcnkbvAW9k3BWdadnHRpD8rGSzN8cCKNfrJ2JTXCbS6qcFANvhgNDQD1gLNTvQBY6Pjc0kaslV46HmIXOVGyzXofuS3vuKmBkFzROu02IY/N7SGTVxZ691Ytxdv4MBmP+kkaG8CzL1GWLLkStx4cCZMWK6Flhu/s49jnij9K7h6AswGzvPyYJSxqsu5sCqYInIiX7pjzmwnPQUrlYhBcJK8+mxPNATaStof9lCm+U0G/XULrTe24qfImdndxyrOC2wi9j2sVyjlc8WYISI58Bmrd5mvmDYIVnXK6J+N9xUgfn+DyuXCRR1cpXMPw1G6kDhBMdSrTax6IUp4WdwtqWQ4jDfJlce6KIWJb35Lml2dd+sUYEW4VSbbNNppF7pPGvC5A4yeVobbWLUXPd7uNFNZOrGULG9Pn4jwMGIDZoSevnjG0LUGdhgIcPYm64DVyHKu8/yN72LE9YzicjpnSSRajfdYxz3mUXDs2iGPr7tA8yj60ec/HkPjKqgQ7esvME5SQh6KHvYv9GjtYKAII17eVRa/5k+/4d7O9WE0ypZAwSSNgDMbVgNSLJJ/q0KP+oqSzKL1+FDzfA1Vfx+jxA5a6erOOQYnO4tHlhRdrWcLohJ33BhEK2GdnG0na9XUWD0ee/mWCr+/TOIfwECTInoMH/ZUK5DM190rcGgn+WechGDQba1ItLbVAfTTLwirxyk5AetdLDnfGEQX556JwtO6EnT6aGlsOp07oit6l1AJ8A3P3ZoI+Jf0lZD3GpMSko70bcZQmm+QZYq/VDoQDMW0BPK1m9YzQVd6l58mq9+vsLlRKgDcPe5INiq2Xhw/Qov1meS7GjEfZKtep2t3P8pOZ3T0Apt2vDQKSWjhEW0v731vDfZg1EueNE/ykAKP8YtzChxWzDjcxNmVa6k2GwAIErdrjgkjwYVYrjrQ0yh4Kd8skZV7qOiHsq3ppr96J/V3wW/Jw5+Xasq4xfJ+AmdlU0fDJSi/UblWOgr8E5leZFPwEklp/2oL8lkO4feMGebyx+j/CRHrjDLbfY5T4mmnbQAXgnwIjqk5r7U7hobPVFNALgfj0i9c/Xcpbb6QG6uKgv1w0qIAf6+urdJezME4oB5m78YiFUD8XbAKw0fwZbTARSzcKthPKeK9E2FOZH4DXH30kXCycuqOSUIsNaNvEs3eqC+g+RmeqO1cYajmx74zHd5EzohngWQgY8V3vctir8zFM/whXGVe5kEt8NIoFqDP8pd0IQolUD5fkmWRqbHh9WqRwskCPdP5/bJXuuvhCd256419Ojy1VJrzCbW/64nmcYPRltKWQCj2BdKH4GaJCyYVwCH4wlah5U7BG5tmVQK3PDdD5OfHKh1teDRSRGP4Gadb1xIz5dSQlegncbmPv0RXNbdK5yQbl1Rw5wJf8MVa6iixTEcMma9SoidoLHb0dgzBlwOvhVAUALpuc9mDK/Hblgm1q4VthUySVUdGGUef6L89qtbLxJP/D4zTFwgqK2KczJGTZjbhnwPKi13ddce555LlF7eyH1rUv3rk784JhvP4qFP1GqDdV2eV2RkSLzaL3lffyDG7Yu+AbR7aKoIkn4UkO+dSEcU8VUf8UGNtvsh52n62mjeQP07HCU0CC5hEUptoGvrcy0f7+mH42iWxbxlL2VWqIu+fbdH79JBlfCk0JzWidbCkKqi/HuDtMpcQCjQaC8rOtBU4HltT1ZSWeETpQN5hgMM0/h1LyQIeHHSxQDESStWuotBEcyyknhhL1BfxV2Szv6QcSa4+N/T0fXvipmxKeDtjNn5QddbECT3z30RFaBWH5ml0DvBLUNan1T3eOMW0YwkPi4m/qJX1MeSd9/mjHKkMmKnC3SVyXb259rZCavNBHoq/5l5LIp0JEGIZ8GNP4w3g+k7tUohrzcBA0ZIbtWKMLZt3QZxkrcWWDX0INUJLe8hZzUvhE05oHjRHgy5Aat0W1+bSF56151o/EPBwKGSrej0pG6vpK2mO6KR//45XqX1VsqEgE/CpJ7ou1292E1wtU4XIyggtFYM7oArY9wXO1+9zNsV3xFb19PbKbVf33X4WlQz/8WsGZ1uEBM/I5bQ9Vn/1Uz32ao5rSoHWYGTBdLCFs6WLB9O8kCdWS67UAYkuAFRGsjd7b7dTnjfQyzeenzDCrLfgj21USzk8XG3SOFP5Tk7iEUq2KGWx0lSV09CvZ4qeJMvIVlIZOdV9xiYa2naRhcRd61hrXUlr3Jl2rnqD4CzqarjMCK06CGAtCZuuHzl1KJUOSFfRVr8cDvYnB9TYnxT6CMkVCX9DziI1vKr/G3ymusgPlVmV4GzmxTTWILfQqaDwTc/0LtM2/4VRVzvrbOJ2xkkUq64+G2az6ev0euPWLPGhIjrcAK57MnJor4RRXAUG3MXjEUCzgwXsmedf4cd2D0coQgNKxPBABYqU7Vk76TEM55FU/0BuXf6iSqE5D1E+E9zFLBoWWOJddCxo9eV8YHkNWqP74BwzJ54B+yBVdd/qU/WTL2poevenPbE3dhTH6QUkuV1YNWGvui6IK7+tVKyBAbog/Zog5xq5WcDh7N2xueGgM3h8eCzBE0YUeu+7AkAXkF4XZlSmary2na1YW009hHQZg/T86QNwdG5YfewNXihxhr64TDcFPqc9ADe+9I56Y2InlZkOL8BvytcvNzEEnk4qR7K9/sOgZXYLYEkeAHn/Fyxeyq4nHjeQf9In+0EsZ1GUSKJV1ye/5+kXQqoAndWtO/USbwtYZ6lmhbbtt/ksnqDBgIXQsbAfIKjjMzA8Sd8B97M8WdJCUEUueUPeKcPGWmcy9f+yTyRGelqxsgx1wY+PwGsEzPjFxJoFCv6BFuGhEPj6zNYM24+ZjHpxcjbyileNbkj5a/ARAghhK4/lTBXHVDZSuD+6ifte+gmdRIlCUGVqKD353K/+T4dw/ti9ufafGzy64HeWJ3PQTPrpj4Vf3hNOVE9a9Q8us7mhA/Fyqf3znNNtvahgePHbI6tOJ061dW7eTvU+aRLz8YZTNiJWUf2rh8+Gxz6RaxYg30vCdwfIj2yjbJPZAl0Fm3e0S2GG+jYBeDPfRWBV7SaYJSSSuqUnG62xgozxOMHpa0QjR0cKqsR1vWlEoyL4VDNP7xrRnXCO2Q7qzdb6ER67SVs8oddbPAPWDRyOycYZfoNkj0ICbUbsa21pbQHo2DVicB+l1bknXNHi5WzGKq9Fqc3NoFjKxcAiDUQ0ykh9Q1v60j4ts6I9kwn+bxfhDbFuebvZG2OCcMDtbDD3ghEbaOyilQKGccYxj0NBmBC320nZ6lznoOPxAi0uYK/+dl8l8fwWt5Lh73800ATE+0JMiOGSZ5xYfD2IOmR3vDiUXl/Y1D61zViSNrLTMIT5s+m5pd/9gwXcaVkiXYBX5oLSEBqMXVP8u44qp8svzyA2et+WDFxiIwUQZwUi95bh3BKNeqEPN/+28kbMgOAqAk2iqV1SZX4CfKDqUm7IJlVvNEwKYyxeixo20tr/1KhZIM0VVkSXEU0som0Ky9GgVl439iArDfYrvf05EDfPoTo/HGK+kNWx3cPDzTIKd5x0WVVlpNMdaU4peHAIFreMrdXSv2HWDJe8oypQIYsWeoYEuakDp0+MVjTgxsZnwEZ+Hl1D4dyibZ/v9wKi6/g2nNHMSFApi+mLvciLVKzqIb3yawxnKIvf2I/TqH2N5Cfmenb+5XClcwkSVeoOdrYGAqBibUTJ3lLNY33lvNMPUhLxkuQ7rUDFqbA3+yiAqGwyl7+PNEP5zcq1xZARZ9MYPGrQGyu3ybdTwjSHABcZbrwhxc42qyjr0bmKII9NO/ikbU1P0h6y6AiwnIuutHaHxw5KEtKHgGjW83V7tb7oyP8mrhocX4lT0cFlxrPVb4UVQJhk81MVThCuPMRViPGhOHge4SN11/LOrDXSh9b1zwmUJEYIkmcP7zSM9J9+MU2XwSEclrJpbGGuNyvwfKmSih/LqmQ/KK9AajUiiIZq6nyXEQZZQQnx/mBo5Ljn+xPHDbhY42Vt4N5mAVPbE8/j4LzOo3G0KR1S5U1fU25diRmJy07tUrU6KSutaV5JCYL5YSq4DAsKdDigcUsDWZV2+PiM819EYDDqnvzAkx5AFN+8S8y2DqhoiIkN6FxBbpzJ976cH828NU4jkFa4YuAJDVVC/bHUTtpYs7o7N1jjqM25VCbsgfy5bM60ps59FStyJgLYjPRYAT6/KTewkmOcnQn0GcLEzz0Z+TGr5lmD4JSu5m84KiQRCyr2QIgEme74qtLGKsf5rcYj064288Cg4XOllurYNSnLjS1VbnN8GkXRHNJ0gMPXfcYFTydcZH0i9gXKw4K6ozHNV5ckPKS5XawDnEvL/1Jx0X5dmcqn6DZpOVc6siJLbrXekKLppdgCj+4wR7c9COgn9Yq0SvORahC8QbYH0ufQ3+hQWRXp2aSqzaizc8Vq+DaN6IwOMjErSOtAZlZOFTqBwpMDejThpsmhm1ixqklAzL5SCnXZH/ipvQDbxkniGctLBqdcRNkIBAkHBVTf0+u8WH4CFcq8xOoyDH3/x0JCMLSvlrQ/gP7vrqAxoofa0TtB+G45C5+b6Zs6c7kTRGYdPsm70+J92GzZ0YFJQGgsGrwTMvbgB8JGpzVVTBYZMS8rHdiYi6vhFXlasEuy6OLDHwE16UGHkS4J+7LJZfPHJCB3K2HR7oXzdkg2mLMa8dx4VJaxQ1Hqj2ZZbgmPQlIOpn3YW9wT8WwyoQZGtevMZiZbywZ3l7ysZ8AFRyMhCVaDxLQundaqUthzStRdC9AFeHnR+8V0U51r/iPAwW9TO4OEtlL9242rjaCsNt+y9xnUAb9G1mX0d7iYGEUxwMTCA45vZqzlyVMLSJxqJD5lC2QKIOqznsymKA61DWd2JMSH2vYVpDU8ZYUlbhIhVVQ3+fYa+6zkLH0OiDKigrb5cNETwRgkdZ62vsa1fcNMNK8uURNscIvOdoSUQxuhxhGCRubLKN4Rb6kledPogAGwsnZ71UjW03RqpNRTefRcxS/6NcOZSyLFQG3wTx/yvfdRwKmG1YkvzkWYLMC+2gyyw+vzFI4wHR89lq9EVKzGRNa2DvYUuWDLyk+OWYHzv8FJ13aUwla/64BG3SHBb8XQVJx0DpfPf0an9H09Xje7L5tVIf83r8oync3AVG5oSdJ4Lnep/LLEkclFXBgjvQw7JMzC982HkOiio26OsfCBupBlEKHEaKWfO26WdmXfd5GReA2tFiiYlHzdzkWJw3YnZm50XUyoZ5qMlV9tJkIfea5EQ38UQG662sOknnqBkaHS7lu7XFSGctC+i9Xfoq/iWmwWkCg7b6+OwuJ/J1t2WzNCGHNNCBmRZvGinCQzLjb3Wvfi/djV9+3S+9drnCrUod7UoO7W1JnpS8Cp+FML+OfBwMfiXZZ7gyyzs16O4HMa47476gZAZ701cQQVW2unIlrkF+BZwCIvhQ/7rJ7f+rySLnsrZDb1TmNnQyj/eZWi1m0qOtwK3SkgbNf60gFJP+E/W/FM3eBvunkC9NDPWNE4uhmf5s31bVi44c52nKv6ywXjJKB/vxy48CZsL4Xesj6dE9bwb2GVs37iETbEmMuH02oYBiaA4g+VAHRjIB4/bYJZ5WPOLR1Rt84hbKKclBo18Sh1XSj7KZBNs4NAgKOnZ6gGy9+OGYJ300imCD35xmx0Ud9slW66rA8zDWNAD+vZF8a7RO0crDlATpZgIwCdSlBEyewpe6lLKqfWT3rnxtXrLcs2J4+oRbgF1/YI4qQCxe8ox9LVcBNnr9cBCWggc70oYmc8uWsuKT8LPivHmq0QTS/Mbc7xaNrcmbDbT8u1PPwYECMGLEkEhag6KTekntdjy5jT24VAJmqKhd8SZviktAPLwXO7QLi0ZMoKaz7BhKKcZf8MxfC16Zv+uC3t/BQxUZOK+WgZbF0dI/+XEZuKfjwiySGe/7ytPInzTiybWFPJytK3adetPOPHRkIlaHjOA+MjZUrBrO0RY27VrjRZ8K6uPHRHmVGSLBG6YOLcTkq8HcCdiLv1Qjp6nelNeiBQnIMUfIFmgbVQeZsN/sSNyTO0QTIrcTNorxDM0BGT/A+z6fJP9ahdfq7gz8AAyRcyaIgUbQhoQGlDfGU789Mij918HbUiTxFPJlXNv1I599/jDm2IauzejkXikzl6nm+JgX51UQHwRAjj9PfZ4eTe7ArjSs4Jp/Dx4ZinsfjplHUWeEFl73dXLoBtU7MLnpbUwmflNAkVhFpW1vcoPlV31JulRVe02iNjrsbhFLEKswXsHRWjT4QSO7qvtVRQ6o7Ap5eWm/NY9TpnMEpsADMGHYMcAX5NGExUwpJabdUbmSlScat5arU19wOjA+YTMUd5DyqKrKiGnhFIZzEXAoqLN+7BajV4sJmxEorWF2CANxQFsATUn1Zptwf8bEov0nSHPVtUVEak+eiLdXZdJGZsdL7JtlYObNxxmiX8dR1C+7HIiRDwfyFDPZdCvTydbcLkjmLPPa1RPC1NyiqFaQgIPJ/jk7eEcRHlRXDbkL6LJXFWfXZ0rflA6S5IDRDBf7j7b+y4lS7uQ6LgRjCX4uA0aOxfQVhq5Xl/KRAkl9o+M2BPSxFa/Y/7n+bZcl/aL8WbRbx7W6uTPNNpvT9/qatYvv+9Zg7UZQSUAOvurCq08gx3EHloO6S0l1ahB55lXsZc+F2gdLMWMFiHsKCWQAggAgrFa0lZRTcXaSoZw/pcOO+MG7/cJjZilOjG+JtsWTVmZiJSaO8TuoSCPh4PZ3WrRl6iCdCnlDsTKttspNClDBTVwcWCkAuJxKSWU71c+5eElEluCr9i/zV3Uaf/DF41FaQJT5gZQfebPy4sTv5s+e4aAqLesmsxi3JQY34zhsbo1UTiEI9mIvaSLod1+g3GrDfys/shFw6PvBrDmJRWrKWZEciuhpIQ+o0ciA/g6KwrbclPzpvWCp2dLQJ62ZUug1FehjxC41vPaHZXgUN8qLUmp/cgsxmhZqlLNbAzv2QCdRtNg2iFlGPtkIRAPLHrYkB4d4NOlE3ZWet5fdTfKsZQZhn2h2xd3bUGfY4bhEIY7fP/E29QphSz7ZdSipXixsP3PjcD9IaiFhNOhw31ITODJF0UyJrw5TfcWq1mTD3QM/kb++L/lSqTjetoXyJ/nmRvEGAVxVIH0ZF3LO830a2oQT5Ml+H+tUU3MH+X84974HPFAqJz1Ke5SG1ddJyN9CrGpqN2vhmXzTEj4QVL7Iv1bYiFz0YyhSDOoXNnHY0SUMls3eyVNgjG/7jCPFJsYhPArI/DNOLr5/gjxWYF8wZ6TfOhmHh0J4LjlvdXo129odD9v7HYMz5q0Gy7NmRjvkFH6a93ZBRFQQMakd8ZQGZ+XrJ9SPBcNwF0uWEUltOF3TfOwqlPspFRATO5MWRMD0eEq2gOroPBBQe9zmER2Psv0s77GlVq9AvcZDon5VPgsR+R8QGMng8kClhHkXDEVLXWltVm6vcgSNwglKrO/Vn6vMpS2SsaTBDeXptIjZApEzSps4xLack81Ad8e/3inhaGJAqTz4rI8JYEO3Q+1iW+E72RuSfvFcwsgeVc0waGBjIGIBSvwya5D5Uf8NeQ4id213BAgbR0m1JaFj0vvGjS+FVKZNJ5cMrZp6bxstfzIXXkc53oQH2gLpuct38tYa4ea+JkqC59GlmePNdZyEbHaDmsf6dglkl+AtL/52yqbQqNrms9mWkV8/4gsI0Uy3r8wnPCH6O/Vs6zKMAaDo+8EzjVhTa1sFnd29mvE9FWx5gznA3dZkiB632PZZIvxFpcE24v3nLCO1108hlCJ+6ofwbrcVFqipffkFvQDhssE2mhftCCOQrQt3TE6MDy7LDdfvZg0fmCuUeZYJXmbVsdiTJWm0bzkSmOfWPA/Ky4+HyVWw84zZ98HaZLZ8+wLgTkGwJuCjELxXNfdeQti6vMpHg+8+ca2dmlGC+mCILh15gmRQgn2ZiSp7KKUPR1mxanPpyM3aR6aarM8iaaUEaqkJImXCSejBaZBLjok0eN2v43FEjBdevssNPEaGOKhd9WzPSPAFwkLKdyEbdxlAV5m8rojXYFYTT1XWlEfbYPvFoJmL6T1mI14UUCJ/Gr7I7mojf3+zYJTQAyNTZ1azpltalRi0eteQ6oioaY+K1r2Dz+qtJqHn2l3RkRe1Q1rypCXS8hMCUDiDctNDGiK/i/af9rw9R7zDjo8uPMJt7/uZ3Bm04Q0DBCe5LQz3ft2qtutBQkf6nrvcS1gv4yLu+wg2Z9ugMAGDQPFzjnPGqI7etb+q1bK349yermlsBtfqCOpovDbUEsj9DBia/htIkJ233AEsuQ4kd3hgsX2TdC/3O7milveOk9BbouEX9nxDiKJDwQfjOTazoshaRlbeSMHkXJYUNeU8xN50jHjdZtDHOMazNFgkdnxjnZ2zbr2QGAU+ntJ+LFvYc4NWYG/bY3FyCEXfOrLO58XGsX2bIpKIAc6AAb4sMg6AuwctrSNu2aJVqXFkQohNEjxYszGaL6QYpQ4lRvu0boScukqZD/HLJ6VTqHevEruklYnlsHxU5bkvlwZBkqkBt175A6YUagk7M1G/xeKqiCB/aH3PrvTS6/AeL/tHz15gxVsxJH/T+NMgHFQIsAMM5v/EI6OAB4VHis+TbdZFT8T7o9Hh085Gd96w/3LWgoUDfiWuKBBNqX3Bdg4e+9+q+7y9wlrkZ7xfigx3LMxSIUrH1D13TfGvVE14Ip5B3jp1bPvRz/XT4qUspza/fQYPhJVVO4Cg8IfA+dZvZAnuf1kfz24ifvF81TtrRGpL6igUXeujgs7Kjpn+5kIOePrkwEm24RfizTrpw3gyP6FZuE/njgOd2sIEOcIL6CP5jvAAJKg7RZbZp99DE2tTBP4XuG1KDKNiwVWMtFgm670PtWByhUnKvm/KcEft2yMQHqVJsaiumuOfHxQALsPcCyU8IhbhnGXgLcZBLTPwPdVl5NrpZ5CXaxzQkDfwwlm5p0bpZLcVdvW2dxYRqfaHrAcgw7qg1voyqiOKWCEeOzjKnB3thXQBoD4kgINVz7DRAeJ6B6kA5ioiUyDsY2OOtiFGwJ7MMi8KcGFsn/4/UHyyKojBFfXYVOxsKCsSdrctcRtc2J35eJpp8V48ggXV7Gs5G65ZQoAtdMf+lbi0e/9uO00PSCPkN87u0LVzoQJeFHkmSPMd6D6kYxhzlPVsBvnzHc7LWPQVCmfGkZ+oDLshj2yF2+Ewn8qln3wQN44uegZdtMeuVmC86lggiH6sqE+hmRI3aTFdnuPDHIBhu4eJWEh0CgXT9UsHG9oHrW5671KoQD6d4r1u2A5/SfQL7yy1RbfPxE+zPaD4b5l2uMMfDLXj25vHr7mvDz0qakNOh7O8eK4g7HYfNRZtGlBCaGa8ArtqFEuX3RKG7NvpYJzveE4BUY7N8Nog1jNe0JgTgWIrHKBjRcXgaReRGBb0PEssz7j83eZN8Tej4HpF4U72iwqK4Q50nTx3aeq+VADLJmyJChaxvaKtU6VXnxE03CGAfzu0JVfjQdwO9+nkXjK+Mo3AiZd87a1z5ZNNdoWq6Ixd6FkCcJivrw1iyl/NDprB/qHR3HAerCvxuiMNnoJ/2HjNiIMPtuYlR1corELSSAlr8XAeIOPCOzXb3Wy1ycXIdEVIb2oxlgaXMjeAIpBGPHrN4jfvO++dNaMxvScE+OC0yAVLSXBwZ+qJdpXXJXAZA4gLi/rzSjyjRCsTMuKMuOaE1fdnkVAi1YIsM8HdYx1jM5Ddyw3VjBECaY+H2BYs4bZfIVI4QxtlS8O2Z+sIAqllR1NDsayeC2oMtNg1ij6lV8/Zol9kX8l14Z6hAgvwiyiRZLgkJKsB1/cyxMQrpIEWIxclG2SuFVuDtRl3djVQVHWHY50Xq/e7vAgl15n7PqjUV3+SSueMeOBSNJZYgeZIcjsOBluJc4JoDA5XlLqjiGg/fi+GdePRHgspGzBNCDirqQPK4VUAtJOt34ryvGBXJms26ACOLI5ZZtFA3QJk+Q2G0x5f/hBeggzt/ftAwsc3TrP+AqDSw5WFQBzxdHdnPHrJJeH/1CiKUX8nH4Kgz1O5TUETg3b9fbLx2zm50yU+dwzNBtYiJoNpGds6FlPvkPpmeARpSlfBG51zqcAwLrv1fZxSVKewREMpyj1cb5y3knzjpuCFPQUEuNYvWSEsqRqXwRxWY3Use5Lkyrxw2cLmrXWfOq/zTDDBwsA4adL8+gljN/7M7E/QIkWO0l3JiYFG08hnBChndfK/WD8yKk3JgO7d+WA4Ef0AOWxRdm79beWBuoY5Fua3heauJBOruiytfR+p17+FdYQ9QgreN0h/2+Ak/hmcBIC+aXaC6gZyrZ/LtTac+GxCIByAgh2EBRIsYefotXFgbmhTJjsxY8pkumf82GmoWXSrR/TRr10noGkksyVzRqc7oDkz7H75TyEKJMYctJRdl2n/fR+xD+2wStFIn0jQaEykw+Dgb63gdVmjuTVfNl7R+Sq5hVDJUzkwhAsohdP1wLLK1TDH0apF5EDoiA+7QGZYSGmBp7wcuoRgkd4WgyQOe8poQetxRjqJP/Vi9+uC2W+KDlTRQzTQADM1tIN7hgjsKgvVFS3B86JV3o0LMF85+SRAHdUmngo0eY9DvYOI22hYPgzJmb2jCx0eX66t7NDr8aeoInCWLU/kiOs7onXWMRd+7OabqzskNiC3fkxfc8j6RV7jGpT6jIs9H3YK5apkm0tmPxDwW5jPV1c2asNwvofMOdP0vvPQXrp253UAYfV3W0j2iV5hrZsEQNu9E8ZjM2ke0HWTDvYfnNhQV5SGTxNLeNmEMwSM0RzEjn2UJxnVM37uqlCgTZ1z80as3yD1JhPT+O5h2IUk+LKmkpUes3KXXaf/bOnXqDZvey9//HWLFOG6MRsPxtZwYpnCi8CPfgrYUvPpVdsr+DW61BHV04uU25vnOfLaRFZKt7mWrf8M1op74opNQTHw42sNIWugBV3jCyVXRkiIjiIrQx4Pv1UpfBd+eejHyr/ZhEitNmQ5gste5tCUCHTe56AJpWXUlkzjyn3/Vb81AalakXpwbWBKo8F/rhnEI6rupyJTSdoAZ7lFulsaXNY5zHxYcmRfg2buZ02BindKbd2hN3VmrAE2uL7iKsftYsukCoikVesuFuhiTKjMU+hzXHR1Dx64YKuIuuC8DyeUaTgF+jWKToBT4Q4dO+DmFsBZ4KuDM7TPLoYzoQWZ1NnMp6UTD3LkX/ndvBuJ81mBH1i4sRMCtwaDoaAhRHUfl3hKqA7CWvAeh/4YgYgQ7EpuYbSBuGeRXP5h2LB8CQUHyZiKxB48qVjck6FM/NMPtKrgdXAh2IEYX8sY5omJtIIkPQ+VCdpAwK5HWrt04BNjqCbpMx7pEJITFNYg2iPaW+PBgcwbbX20d/tU2DQaY2bl8mjgErRgprXbz19MJkwmp8FpQq0CWIDQX/XBu4wE+j0/G+UJMwDE0/TwtY+y7rIj4bf+ROAada7yzkmfypndE/QEefJFI+3gbV6ySjUKJ913lapxfPiBtRIae4cVXVTxOKBqczBe0TBg2RepIh/Ytwz0g3STgrFEWpUX9w0zGocfhSLe/LaZAMrrzBSz9DDLHRTsVVFb8zMyI91jbLc+bu2/w8i6fmn7Gx9tfRxkqMJkWQ1Ifpwoht1ix0SWUUIm8G5l1UyNKATH8DPepZcWV7akQ5kC8N+k/K34THRUFb/cYgTmDFHIjJr8jvRwF8gtbivcgLhArAr1bq8zuDQjW1xf3AlF2l/ez6FZFSWnaJsls9kQvAEPjjDE8VaHQ6Th5A6664b8zq3aDDH7pEI/U5KLcwVBRSlEYn7u8OkQ5iAOwbcrJ+FlRFQfVdItKUF8hIKYEekbRyf5Ue6FWCrUNCEDV9kKUeg4eMXrDGlnc+uFq/Zi+VRvv+zexWxpZdLS4+S1otdael/7idLFkkeM8cDd3qGeLMp+D+VHQxvFSRtWMt1ux6LBFsbrsoILuj8xd2gaClHT5Fh1yRL4z5Acjl3Kd7ytMuac9ve9Ia+ge10s4OYu9iZV/gIvvhJ9FkqduJj2ac8M0Myk/ElYYzZxxcFJ3HmyvUixFG3WauN+2/CCe0V8hPbGEkkvAo/GB6OVS77T4Px9hDsOh+EFzfARFukmHMWGuZJJHGhK5JduBX8qmD9/Z6e7W7tuXF3H3VnBpSCygpDkBLV8OBK+ddovB6K3ngnKFnVN47YjcfCcXRBEp6FuI8BwRf3I6sGI7WhyHxalP3vJPECxtaGtwdHqgDHPtzDaTSid4Cs/3vUuwTn6C7kMGKDFAlpkaTLiOF9lH+QqhUdw+T4ea9CjzaYKkQaRnZq0vXvWSwWZHRbK1aawMM3Hb4qMVELFkyV0aUivSbUhU98hecmJJa0ERGnoptwquNcuss+Ma5TBM8CgZ1HdFl5CAVPi8F4VjJ0Nl+qm+aIqLn1rWJqYgf2i/Z+yLfpecjljmpWPrST65kH1g0jZ/0sJl8VNT5/rsKmZrZvHrTAkPZ9iJpvYCYQrUt1QQONajBzYpCxJ4X6LCgdkaO7+1eH58ZWgKIJnpwHaQiRHRIG15CPHzy5GfKVLiNEB+4b45sdEdAV4Itwo7af9s9t4i5bwH0Xxb1A4S8bF03AnvdJQyxjB9Rp52geqOya95FbnEmgHJeDSsiSd2DNAbyPJem68z+Iw9aH0AKVF1tm1BcXdzjxjY7VZtXtF2emrTuweGv/9eshW1G3BIIS74+Q3bK2Lv6D10XadL7lpN01JN9kmxHrm6/3r17MUTQQ0INQz71aNBlYDTwSnS+lvM/tQBwVDeYhTdIwd6CiOqqPRY+BP29b6qG/41qqgoExSg4fTZsfAP/hYO8JlMuecx2WnC2axQh1WQHDJHOYmGHQ0XRlm12y6jESl5+elpD5VXP8nd9bbapvPI84FaD4oVLgc4SX7IIk4at/lUbnWBcE/l4D8Hwy362bS/hCPHyhDN6KvJy8fXa+NHO/inLkvJ4f1lGUflD3d1vXa2sKiyyhbJ63j1XD0i/KbhJ0TcxZfi1y/tz1VUETN7B4yAEOj968ERZiapVRj8H4xEaKH75hBKTYsPzH7jWgke3hJSyr415XBvn+s1Uz34RHvEjmAWXGUpnbcQAE3j1ipAG3ixtNX9n602tiByYFIcyIHAMlDpcUuyAHYYVrH6UdnNZ4ADcQlebHPCO8Pz4SMokiZE8qoLDncXeS5WbYTVkijIRcXUAH4CBqbptY2ofIaKj3wIETEn+VpqE4pl3vilMdi6AW6OlP6V0YTQxlCvCtRpnkB45Mkkg98w7ul1yiXm84NiBZJb3rsDFyYP5RacffOWxuLsw5Y1C3gKyDZinQv4+jEvXfpFtbq54pYIwudsZi4csD9ZVvLrPupF690nKXfAgfoaqJSTSa7F0OHjLxglJVj+sJoqMGgNc9IKUF6IqgO5LxYdsqyGGZODfT8Rednmp7tvKnBO+kd9PuDPjo6snAzoxJx5YLg9LJWL6obqjZZI4oHXUaZRoQ6qGsY4t2xKrmLqdcyzLtLrmhjnvj3kxdgw0TZx12HJ/eVir5y5ik0ky9yTXnCIMQ1GbBOuWXIGeiH4sSFEU2ryVuYZ4YaME1w+gwZljxlR7EOnbjL8q9LteSGXD3h2PyPaB+jJQc6FXmHYxTv5qcY7KPM3ajOEumrMU30b66sz69t6r7/hjapVIqZpUkqCl0XM61gfd4meBK712j7z68ehD0idQzUy75dsgC/4YmVBr+cIrHQ75qmOSP/2FhYr4W3kQjXqrnjH4rdd2x55mwOL/sp9tEuT4VmN1hFtwm0RYBO1CJUBpNa9v0LQ8AoZt4Z0/itPGcw+B1uiw8V/9xwuvOFKuibbW+UBeKzJvQfpuUWFl8vgbP/9gApVYBpeCgI43gw0cTCW47fvj6xWoPGCnPhXN4aAhQm+xP7ytUhwA8zFy2+taWm09wkzqrAIZdMV+WA3g7b1X+ULf62tYeupp9oCzAernwohiYt6TwS7s9II+lB9iW19v4F3o2PXc0ot1TsH24hC7bzz4vYOHR4/ji9erFpLeG7Kpi5h8rAQ8+YMcXrLvctSWVIPjF2StSH3oI3cG+IEEEAKzGDHGc2Ue8ChIPX4qeMxhrfi/ZzcjyyF05rgf4UnO4Rq99CrPm2FkOUzxmX7YOtposes4rTqqjBabrEkoVmN9pNJA4eFKsAqVDan5sSLFHN/A9oxQsPOir8NuiIpWWXCNNWMeRHkxKaMuraCvfnvrVu3/J8rloykW55wP3zu7xDV5qcw+pZLWdKpmYQZyQQRduA/AYLYXdSo6cQgRmMhQbvJrD9jFEksOFMCTqbRKQ2mZcMuQw5y0ToKCJ9h3jOmvHdyMNDzjTmDQwdsFl5HBR0MdjOFAE7214nloOICPqayUxkbtWx4CWVm7o41T9zl5tn2zHcEroMgWBCkeCHii/SyZhYIdG3eO+IYOWKc+/dEh3IsHAC+X+eyOaWUknXo2ekBrnPvZkX3VAz8AgPEE+yr99YTp+5h+uqePBt/bKDDAW0lhry6nJdaXRjvO8bDUiLHGh82Dn5QTuRQKJGC0s8C9TTNxYVM0s+bKn/+VTkeVeldlQ1MxbK+bm5YNS0ww1B97sSwe9z8T9Ygqn+D8ObJ552ZndIkDsw3O/4fX2ZrNuYTeXAnPLkmM08hB6oqOU+FR5TLoGhiAX6vVUq/GQNP5UxnppQHjedKiK0rXuVtxRLM17Br4811yiQdB6DAGp9zFatRPdzVQei4kS3OAztCTkeO9rQtI+S69gRQAi1N0YxroYaIDG+vMxyle47zy4tXOuUL4pC7UxqT3RSUX25YKrNaawxKU056SwhjBT+XSQ75iDVeq64IfqaQvK+8+YAjdK2ggZt0TMzfqmwvCPBsJ6NIBnV+pI+xhW7Ic0qAHgUSCPI+nv8IslLZR0yxtx1EAfYkTuhhTo32WAM7lq7BJjy8KRE79SsuG0br2Qm2VfM6rUsaFdpR8q20Fvzl/iTWKkaWaN3oFkkcybKLgN/3/cz4godvJrAU/bMdLgOAYoi3XNcQQh3JDlsGHY1sL+5hdrl2d9xPYGxLzH4PnzdudsbFLVopfrYcPDhITv/m9vxCTvjl2v9IA+8Pf8pgVjdxUsL9EMSxjDveHIq1tXh03cGS8Zu4B9Km1mepU0/UrczLGrk71oYmGoEwyrQmtmN1ZyGHRNdmqv2Wpk5/XeLIptabLJjnh3JzSO/RbhfsaP+Fh1dlKcjalIgZdifvBZ6geYNJXtDH8UBE+qcRPuKeeCQngdrEEcPxg1Kb+pmdTvZyBoYr/lwjevZDnFYGFfjc5DUwEo4dH970Kxcgi1KIewk5/FC+0zczH7A4WQQAkO0zni7by5AOKZQjzVLCejXAFzOCG6uJA+3zh0DAUtjcyb8wayFIo98T6iUJZIuqi/JC+EEvrVYFJjBhQhlq5HliJXfCHj18hDoeM8dhBDbghbuV3ub26gKOCQKnQyXQdsaZKRM7QS0N9fMd1HNuQWKvwgCYlwskAVIrxONbqxSNQfYYedKV8odLzN6dBDH/78dblMECp3+7nwOdZhxI3XfQSn+ZPYJm1SzYlE2fjEb24Wb3HC7SZv95f/9yZsQfeDM0rd67OqjDpcmrNxn9z+849W52nbXlKDvzujT8Gaf/xBxfFp+T1+5L0ErAHtXNJeY2AG7h29Hz+pGLFZL2ooNeowYOikw1u5sWQu0pWN8rjG8FkkbqV7+qsgHafnUzO/YTMCKbLqBxSFQtN0gT3CHbPE+4lBRgKY6jS7U2kM+SXposkM8eZF3NzvwO4VDMULmapEiJaPYb7WhE0ujL6rtd9ZY6s+SIUxg7rCBuBYW/VeAfs7ljh5x61zn7C3D9+Y2XbokObE2JD/yQL/SD495fPh8SOcXLFEPQjhpSNRB5jSV3sFwJ7Q6gozcrKlDyzmXCdhCkACcqJvfLcwrV1kIHnnz4zBeJAmdVc1Y1mnJPS4VD+xKwW4+eZ3gCqxrMyw9sFLu0YOX0NZ2+k1gJOZNNVNGnSH67oI9YmtvJAk+W8v1ojgU27iQ0KZAW4fWcutghczSbqud8FY2A4b2DWkfh4hkjp9PPMsDJT7Mr1w81u5cD8nwZ+1tmKOlHoxwXmxzA6PG5V7Z0N7PrS+j5RuuDg6YhD7c+qawvn99GMFkWtQ3OFihd4ruczrrCiD1Eb2T9NlblcsKUPEtiw+Pzl/ZFih+sqSS58TZ7K+XYojaizEEMS3S9GD8JLJpS1qg0gOEN7ZLuMPEj4m2JyPvuE4pzt7K07My5nBWpNdHCiN8+i6OnNvC5kZ6T3PiPvigw7ZcTrCy2N4SqOKWnhYbEjP6kbj5sEpTYT5X4D7nyuHOyaKicpoC4SdwRF/SDp1kN6NT97xTQIr28jLdszH7tyxSZT1eOBptHwj8E0UFmd68KS9pzpvMJ7d9Ct396eWCiKZasgWgiCf4SLVsu2bbv/A/pdMTLeiusZMCl54g+dVMNJtZNuLxwqUifH1NSel5AYDz6A6oXfRPrNohMm2oURBrnWGK0YNbHHg3R8TXkmIIJCqkl5FBE4ZxlAadVt2549onZcNhkfKRZTt/6nyfujamzbrItbrdU1IdLYmT/vxlVgWQuvdb4Mx5+MJEsFHrEie7NvbnnPyMm+A3fLel4KyqZgqjb+WW6442FubRbNs5qvm+Y0Y4+O4xUxw6Bgc3AmqCGKkI8sk887aWN3S62Z4k36wP8cus35Mer5j9kw6YoGOzC4la9AO8GHxzWglMw5iq2n3i/rId5/pO/8ILfL/LzGkNrUZ7eT0UOX8DNRSrUGNGH1pebV2j3C/qbmvpJ1uGOABJZJ3LChlNJ/Lj5KC8yI6U8lu7KFRkp7WsMc/Y9ryI4D1sK/4zZCALOpvFtWQTnt1H6mlUHP8XHmmsjHxyYVkoe4ret07LRPWUrVpoGwEDdj+/QCsLzZF1ox5FBU05mRHjy1k9qg9AuixuBY8zoemnELrJz0Z7RC71wsRE0PYTzZwUuZS2+6nAz3lqi3uFQanWvdsbzCqTZPd2p/Vi00g32kQnyOoWywlmQ1FE/KJHCQA4vsXkHlrUJOsI92Br9mfRiDfzKCgC76GOAf89r/NeZHJzUNbvJc7fREColx2q+UlgT0V+xgp8PnXRSGi0115tOWyHaUHTv3AbZKyUb9fAV2u536adUYTZUr3hgo1w0w5Q7zq5yqJ+lTlZ7jog23sfD3M0cyz8JZSF/0uWtO/90Ki4WXXPbVupKM/k0kkkSVEmBSD+7tpAOdSQrp2DBhB2eHpnIic3HpV/bSfJNOkF15hAJoV9ATSTVARFl+8OCmaDe+FWhRMSm5rP3P6nFX3rk3cydGkvNMnO2rzRPibzDUARslQAngjeVSSX3HDhvsVzyT2bf49cVI65Q1DIOURF8U6SmYIY8Gc+d4zSP11ua4BD3mS1Zn1+7W772Nl7hv9rVI2a7F8Qz2zuF3d5DdWa8OagYPhsAFjkvCJogSKgypO+N9vTeKSa9gAcTFmbNGiS+a2KAxb+Prjo4CSCqOvoHUYBKG8XC+/DzIPPCDgxXq+VnSZhEluBXkySY/opaKR5KH4S075F+l8z/0TVATAyc2tExaPdttZ8HLisjwtNsGt5o0laOC5Ls0nEFY3alVNSJP7dPBirNg7A9Qmvt1s7yU7dzz28sUoPJKCns3epP/l+f3AFR1mfXBQ9/h4EbQAqu06jiyP8ygDmcMyydW+ayO23UAYyWYFUCGbQ3doeXWXOqjkEE9nCQYCrdmzaDcCXV1cGrFNC9KAtucYdVpYMwP1BGp53Jw8C8IHsUnWvolqxa4k67ekWLNNgJYrB4GdqMW/2nYMjgGMKchuMOBqHjsz4gFLiELNf49MEgHv0tN6AfSm5zurLjZveTzMb92gRsb+MMv0PFfbQdp3MuOJmrnPIrOoik/v1JkiEqOGSW5WGHKivNkB3VsU17qGB9G/L3jLOzbeyj6PYq31wTh9ARit0VcFxepPcqub5ymg9ncQUHdbuIqUpvbMtBZ4i3cdvyd9rpsOQOa14Lx4fNEv4e9fXTr32XLv0l6hoxSQ3I5ZCCCkgE2XOaSwMqrYCNUOot/xhHwKcKXfG/Ju3T7HWECvYqjUoMDwIdDmHyzsUvfPHI0TOQo0K9CvjzNEf1OoT/QBZvlm+61ybF1YB14RPBtnRMZP8wqUIXami+Wg58BMGoKyc06q9laruLOBRNoaNm1TcbERr3beMYEniyioyJi2T8IDSK6hGfaXBFL+CZ2b9kWMyLA29SEMAvtHNCOEwrzCb8x6z9SVn6d2wgsNmFTgBlfvIs2fv//w8Z0Tv7x4bOvLC/yCVOiX7y4jVLns5HzRYHw6T/jaw0Ou5FHSIcclp+ZZiGeoMZ6GEV/Jo5XttN9V6zes7l30IbyyZSTTE9523rXnAGEoVUvwwC1KWMuHuQoOY6lRf3xeU1SLuMpPjvCEIk4y8n2fOR1HcVIMzjif+Ytae8nGZtRbC8ymHyXuZnyeKcypvvJJDCFw8NG6oidgLrW2twjTVx00E2gx1tJtexIMXLCvIfVHlpFenPSQ1u6XleK60knuAvFWzfkm0lsknBFqcPH9DW0CeSGgiXmHoBB7liUJbe6LRMqLu26WMTM6GnwLinBj9Lt89WMDr5gprJufDG5XrsiaF7GsJvANeFncM8lbEgSSn0+LMELAnJtf6n2+nMxYvge/Oeoe9u8uUlmO1yjK36SkXsu2VyYdYyKSgN7mz5G1i/9giFDl4qdBDGc3kqsAVH0hKbfp+mVISOIFosPjmzKImvesgATcxePGj2TmHnw3eXkqnx4/vUMVoMaCoTQ6HoIsfArI4vQeHyYStFEs7OPMLRbKkoVHua1Z09tJXqSXaZAoORk1S2rzFt9OipQTFkGzK1N6LeCDoyitHIIJ2SiC+JNh8XfUJCahJA82h3mZDhnmcrGDgoAyty0DizijrEMbyINHwTs6k7U2lCI8oZC+5kmZXiAdO+gU+oX/wXpmpWNvpBIN+sWlWuaxtw1WIEXaPuctk7IERRy9O0X++zA6C2fTUqhpkAu73QaGcQUvPn1Lh7JIl3kH1UsIYPo0wtuP/CtYAmGJX4yoJkCQ4bDVzTnVbzB9fnup/ut5zqNRuSFgUxFQreoICM4iPdjAmqP3gZqE3jJJ0nMoNqeAbG1jrEYMO2ppOdus7c4yDh0O7Sa474AXjY35mvXmmrOz85p1viUk2cqxSGyku6q3jD4amH479IekGIWw/ooQIVmsCwKRyI0Zn0WpvomHLH+3Rr3PtDArlexLHM9qb0wT5dOBpbS9K1HqQff3Cni7wtacTyeHflJxr6HXGXuUhAFpjmtJY35ktCpI89TrUD8zQ7aXECX/5A3AYdxW/mzeg5iZR/ofRdUftsHGWdeOUnFira4r8OSGVCA0RJ8HWD0vMAOtM3rK0ZBcBxvWHu1aLuvfdGdiWWihgG33rB2JeOnCC9c8RgdQp1xAG5kL/NAYBiHZsBlA27IwmRqRMDW9D3NI/n13K7x+9IZhOp6q/A95ItBLEtC2pzUCaLIgTYg31YM1pu1c0FuQWyDc1Q0QWe6MLy/DEvmNvAr7qSPBMW2HO7oLKDteKtV9hZHjl3WmApmVxWGm/RZp3DKMVrr6ZcNssgfM1tm6ZnYQcZKNZhGNI32ERe3buZo7qNeAFOf200mv5GZgjKzZfZ8a1HfjOUxNEm6jRnGlawD4VOJZjeuSdRzN2Eze3WBAXNm+/JtwfbcktMT8mUFEVkwwZXpIqoCTeNQar4APBbakooHIH7mlUP7KpogmdVIyMGoro781z0Ht2r/ygDBZd+Ytov1/BZhysfAMlJ537VQirVJwvW7ja5fTDc7KpKelDXHZeLdIsm4E05pzyjO5wGb+tTbj1C+TKKSU6FVmqqSG0nf9143lSJnr9f8ehNjot0rc/OG4IVU2/0PxJCSIjSbU/3yr9I4bNQfRIPAjv2t2otenPdLdLdrdA8rYKYrvmWpkwWsG4BjG2cHVJDkwJzH5OORUGjygeQ4u6iBGPeW0OC05rf6MaK4Qxft9Wi4uy+8tyq47VJiJSvObqAfT/xZG3uG0N0Ymo7+tKBsLuV5mv7HeIpFsy+l8EOIn+pZF9nVsz/cu7lxqqEH8dEyk5dSc7Inq8j9XXPQaVjNu7LMwE6S28JI7/CqE9v6XAZWNbwtUsaShj6zWInXz2HUVHYO2Z6N9lfMyOrClajsQsoTtcyyEaRWIVM9thP4EOd1XyLCq9mZoHWXar9kmh7xsLnUPFicOSDJaPFxNe0K3UGA9mVH2JqDvvtarn81pprssyMCiSHtCzc6J4zXlQcEaoMe1r6+Tx4cMH4sJQJKt2bdFRtUI6kk+FbJCbCcN22A1o9OTX3rgnMSEkhqrcfDbDbZTCyBkEzTxQHRsgUz5RKerFImZH/Ig7sLdwoohukD13mm7XwmJiqHPJ3ixrZ2PA67Wf0hfUZBr59oSOwoCE75HB3vn4Lj/dEwpksko4RoiIozpKWhRovj7eKH5M0buYe/3fxwKaTacDm/hHVbqT+PPnte7WxkFwpxRzfeg1rhGQ634bsZQJ+bcN8HwTZ3p1UB6ssTW76AGNZ7eXR+7RgokXiNrAkEQoBOieu2V4HLZOc6L8ni2YaZI6Ne7fbrasjIIM6qyjqRXrZc3h6Es7P5UVYR/vIRkOIPA29Rkusyb5c3+8IUJOAwEMMp7nCDG8/TRe0R1zisGxeDnYtc961NNqIf/2EJhZaxjjMbDjGDZErfw8oij0oW51CcFJh9SwFghg+arJwNG1/wRt7+768EReDLjJ57v72HF6kZawojfBSLQGphmBOwLT56hYcxzZeC5hI6XhZ1wEN93Pm6xjCsU/2zk8zY1t5CHeYbXrWZuABnn9JdqxwxttI5ohEgDWSLdvGB49AuGNw8HPSU9kTIZun2GJqguRCNcRhSNlQAjdhf6bpe/WQ3yZcKNHgqjtQsUCSB3FyAkjeIQQrMLnlzE+wvSjshr9u4xpSJ2i51YKOE89pqXonCUDQWAyScrq4ab4lNZw7raHrc6SBpg/ASRTutuZKzxiTyQE6rxzEaHA7qPScM73PtBBPtGNXY7N7rqfNylGZSjjHTiOeHpwxUaNpmrlGEEReXFBPPMETmE7EShhfhRguhuIe6h5v0nfcp8COh/CPBrFrrpNT+JKfUeHnwyswb948EtIE3wKW74FmNEJm+SQopMT9VtPBcnHwow5QG7YNc2mDW3jeeWckazghIx+A9Iy1WmwYLJuhFChesc8iCCOZ6rATyVy7zBwPaDj4WKUL3BQnhUeiVZanzcrXYpGM8VtSvyZwORNQjqZcyl70PbfFnXmqGTeuOxqoNOT+sNzHToQdrUB3TaU2WdwUUGRPcbgMyQr2a638fUjLOJHSp2xsBQwFbKMYKow4RwpbSPrEWO8mZ0XSuUwqP0saT85MUcVBUk0zxemB9MaizpiENnKDVRLU6WFE3sKDECbYjGJIxGFQjEaQ/OTytBL9T1QfqnmCswS9g+85DupEz5ydDS+PiWQU/KycarDHs1zzZIDwnvxce11ut5pb3orU4YVcv/FSjcQec1URaIR1Q5RVowOjeiPeBQ3RcjymYD3pI+lgu2MBo7GkGXQI2BTk2aNopRq/rGbj5cIc4NPQpmRrZK6B4YMMe3eqn0uBKGUGB68KwRk5Ny17zhPKWH7d3gv+84TbAyeI5TR0vM2veAMsQqxR4ny39U2v7xVzAzlMuCT97b7ZBM6/oWev3yXjTUqfh0LvYGhDSqtp+TZrnEtzhhSflbWDPUgSu0LnFRBtnIw1bqpWiDVzA/UcE06MoV+U8qXURSEcR6sb99SrsNyoRfGnrn+/maVXyRjQpqd4csCkk7zpgznK3tzpzz0sXtNWliQAoXDmlcIizjwF6RixFV7QDiH/dUnR7/oBqUMG1PKIS0EYkmPc5fZu7eDta0FYm9CuA360rV4MihXLau4LtHSIdAzc3wVdhaE3LIDRDaZwS987e5hUy5FlCRzUgYQChMdjaoBjPxEuISHdO/M+L2eMAoQsxBlJVSjydSqILODEDjBdG/70GrSfMKsl4u+F6gO3N+EU6rLT3sgG+em8T00nqystsG42lgUlfoUfzq5o7VqgIp1XUxC7pIu6ZlnTYKslcUMnzxWfQ4wwy01cjq8NkyPnrDZgyRU8i1KjC+r7Q2f/qxRUaSsFymT5VT+PNl+f5vbhmJz/EAB1+L2O+ngpl81xN85VlMEbPPQkqUK2qMPsEG3KePJaKduTgo8LAaG7dMnh8bW1yOr21dg0923iueED789SFUb3ecZVcStjyIdt3vyetLDlYVAG8AfmYWKyPgneBmSckRzyAxSQnFT2knrMmI31mNGn3sPvXLCY8v3/9ZGhIxzK/9PycativWsBmfBhlH6Sep46doR+N77EAq2yYLP4SjzJP4J8JtobY3ES4t+77VDXGumDQsDea3mcnC+C3PViAtqlL4TuyKzQZ/sPSvwel0JE1wtzL3r3hzuaGkFUdHTJOkIfHMQLvAgITOtRY0dzL2z/sepaPnlBOpukVA2qnzEHDMtXO2cLXZRKjZ3MlhJ15BvgFzeFRCRbUOGablrSTONZvUrwkTOUHg73OeFGqWfV4SK+04Aon7Ryiya+YBO/vgG+TikhmpBPdrctlfuQWtOntT4rUoRHpg8/LbI7da3lRJlmu0K2ea3eEgcWnhmH23yK9FjlCTHov6H761j5SIfaGS+W6fIx6ryM0O14FfGlhnf6F9bs979QZ4OJYUZ6D0VO8IeKm9C+xkjCE5muk17DSE0LjakGfLI124lreTvAG4fEm0PTCmF/YOotNLca4NSU0YYQKiOfsqc9keC79xddS1dvNy8LFiC2eIVAvutOrXPVjjLCAdFl0xpcX58YcakXX2YTHpj+WgoOOfFfuVdLVoafXQnw6NM5qI6UdmPsBh1QdLP6ZthgRJQ2GTwMPvR7GAuZd1uvKzbyo7MkdEpIgo9QUF377/w4VOmxusj+XPCEsKVWywPTN/SGpbUDjl0n4Jen1WyaXCuIHnbFczr7liDk/R7HfJDXvC9DKKM1x1N0VQEFCFblguiuu8awbI9CI+HFqslHfiQ5l/bMB0iGLlTGOYoaAUXPbnLuv4Xufave5IJxaqHFx3JJ12oWirVMUMNA8FhZlxrTvshBPRsAwiHNxms0EnLIOvB112GDDX4KmUERkWlx1n2UcXDWZUnvXphllxR0AKEXx9fbpAE0SmTrZ05RI+8Pdpr6icrRteB2InPX14j2AEFICzj6nUVYxnNynG9BR0JnbHojT38HQTjONGhDlJTUawPKvS3O92sAJ4SSK+IXmA8J/sOQ1yFnmZYNkQgCw0x4rVs4I7vJ6oHu7lOvsYYXjHo/N+IcWvO0V95NuHo0Xz3howx+H38+y8oZvc/NETv9NaaFPjXz/eG+RDhBJF+O9v5LiKHVeBZ82wHDAqHVSjKCZoeMn03J9OHGLAr3le3r6YRXezO3hro6KtfKbQiJsfDBxZB5tSyUzsOlmZnBo4ng2yNi9BcXADejZQqCWghhIY82fcmF5Dh6dplqm5cZMlzhvyq+685krLpsUdx1Jpf7QRfZwPi2IZrYq9dMJSKkjKpGVRJGwvOjAXhd3IbZXAo9xubVAkKUeIcVNd3opfQFYbu2grRAAenoHZXny8BNqNcWVZNRc+IyviZSR93yyW1Bb1GT09hUcbnAhZ/kS7f7Ix8iqXikVyEqa8cEtVy/M6YZDlgMqswo1yZ8aTF9SUkeL9FP+ZlQd+a6cH7xJfzVeqQGCwILLqpkJ9GaWnLrQg/M7mXNJGF9vRtPot/BvbrcD/X+kMl8XzfxW34L2gqT7kDeuG4h+l1gbP/PCHMYOtFgbrg/dcHCbtgrrcpaPJBEiHLAgCoOHMwGBcX7cDgvFfl20l6OJSjPa+inxEHK7JagE8MM+vKJS+jaElbbzhQ4Tjx+N3wz1BX4dTS8a2nlYwwxvLkRNZRPbHfm6xKt5Ga9xk+gVkyrbBrD37PT/1jFVakDBQsP9boibBX6qPKbUQy7786sBr0pQouBWGCpzCkMDCASiaUc+9O8sPA8nXKY67gMFRGd+r57T5miRxiEN4+/K5ayvGUm8IFzXbmLH6ZG0ccEuAu3pH94aLtCtLqUrOUKofzaYTC0n2hl+ZWrjY2vWV6MFe8hASuNr1npbl2gNx3j1eeZIzL9gq3yHgZhAHgD+m6QKKIg9oLhKVtkJm/2WFHHo++WdYk789yvzb3FhWpt1SmgCJpItrRs3PHqnRkiE/WCx7q6nqKHvDWRW5R3gHQJtYa2dM+obqPWj+0OheSRtsoro1xSBh17J3V600dR7VkG1h3Q7/LcH29jD7eXbRJxs8Nk1GX1UjTa0tcmeeOp5q0q6utziKaCiEM0YN+w+R6amomaUyZnNXWETY/QDN+ORv1axUOyOAsRb3VChM5Hyg75e3gajruK2rwgEmS/StTsMSHnKEEi3BwiA8cGRLCOIMZTT+VfPJ0o7JgONxVyehFMqQ/DUUJkfUtnb9KrTgXAMw3weksJSeSPkcyWwAeA93thiYF53Zw1AGp5/j4S0a6qF9XnJm0178k9KYb1Hn1YAH4iNNBYsW+gNaNVz24vZoZ6KEcLOywEaFTSPv40d0BXyarC66t0JfFOiub0qqQU+MuDS+srBGLxfHnkyfxCXk5DOa3uXjdpqCfcvrTaL49CJVuZ33HGb0LeynTs9p3h52TXRRcFp5pC1Ayl+yrJUBkBNbOL6Wv+SM1Eg5NeUJg5XqAaHQmyauMXPSzTB2dSwe6lzBezkPTb6V/78m8+VMRw+0Amv7Wwtl4MCBq1qYfENSZOQm1DsEPawuClmpj5xUNuxZzEUnq5lOAPedjD/Pnuhv7eM83xpmThI/8UfDaknG8egqffwZh+BHlb0a0ZRDzclpV3/EL9/HcpJMXvd1koY0JneT92Avz/BiesBMH8KKWZOPj8OwqZmAEty3lc3fi3jHpu/lJy8f1q8Kp576Tu/IWFjI5fMEYDWoTq1JFBBJA/7P6l6oZzLs39or4vITUZj58Xnrcn5awcPorRODdOuE7jXMhc9OlewX/lcxNQF7T+2lPWxVoeewdoKPT6Rz16xGKSaQUma6uuOy6GduTZLp0jBqh/8QE+Ueu6XbV3jhipCZxVT4c7Y/egwyEGxpyGXtDydQJpWR8kLeTVeaRhDl0xXf3HgyfCse9USwvngigJSmj8BsS2Y9AW2EKFicmYOPOV6JY8ylW/LlzeNHZ5GC0mtpxKgVaiHBRmNct0KnYQSe6SHpMcbHFKSAWfjJaaiaCEyJIDymgwbMG3O3YRNC47BK6Aa+XK1uwCkBIEfdN/gxPBLNwHyaA5lEMcgm1pttphrnWBhtZfPr21VPTWwBSo1b6DXJX2XuKp6JiOR2tA4q5i/6ZEBZ8jqPeFB/pAAdQiNDZDeE9os701Tuy+/dkCGNjpAIHCS/rHytAMzcw87/7irO5zuWZxImpp9vXXYoDsOWIzl5xSCHIYagEuHPMRhjMKScFKF4zhjoQAAMhwsaaugIYPqwEyDk9Fs9r+oWhd/U7jXngFYvp6/rxtvvGK6H50M6N/q15UGqS7MWGl5TP+KOM5INcaR+S2etzau25MkuEzYNGyjaW4rSJEFcQxMuQ+mDJuUP+koaSEIAAc9q3yXo5PIvyCVsIzHGo2unVzQivjGutJ4BvNH5SPBfyM6nydMzGGo56MCY/TaatOpfA3t3u79MZF9YibUDiKZzYj4e/MshqCRwurJL5II1mlqMivDgnGSMbPWRd86Q7CznCat64C2Bhjihio+UubiEBoVObA1ANEc0lgRrtvC0OJJj9ty8Rf7aY9dBE/WWIpqvoVsgwT9vEAOwVxtoQvSpIydCPHHATS61mnYbdklHlPW8dkKhBnEGff1FKKYQjwertZZX7pwgCOFYPuQvAS3oRtiGPjz3BMJ+9sZgAFITsOJrNfXvjSEdDEUffSO4vrFgkGEPtxlP9KmJlF0NDXo/MAGVx/EYRk/E0B4+AUdTvgcomtfE1l0mpb7dv33TGKeYaem1nvTXy6PRNwRUyEjTe0nwH5HgsT3bZS2Y18+Y50OCjNP/OBxvRMuVMFCYEO/JRiPFI9eQc4NpejB1EYIq9X13Vp9LZ2U9+RGmS49hcrqNbNhhJ9E80f/wVucH5da2OvFEskGeMiHqLHN4CpuZAKPrB9F4NImw6ytAkE3Hb4lZk4x+32oPJFxsg/4ycdiewxY6Ouyr4QC62yuhZxpufN3ZTKBdXIL78PXGWnV7chSE9bbmoNxhx9GbtLwMJH7QobGP+3Um3IjXTxTfNm/+sBIN8LuLqV2GXXdYZYViXQMll2k9rAVKgq7zBuRnzYNO9Qgzj++g8naXSHBK4kCb5BflqoHPnwohaPVzkQ+rufs+gJd5RlJ7AG6yvMaRKGAs23QjtdOCN03N0zsdNk1vXT/W7ZDIlIyUV+5W7idHvZlALZxUTlblaC2jxPzfZvoppdEBrHJg4U72XY84Sn0IfIpbssrXf6HFBXkUp3kAZ+JnuyjRuCMeN2C3u660jwqz3jC597gwpD/YtDEYtoHi6JJuevaFdeVobWC8A3pNxPdtj5czfGxZmRwxtbDkg95qIfiyu2DFmDzW91Ps74IpbGkBav0NrYwSCJJYnbMg1IZ811dtyTWYOthy6zQStlL90flU579rxj/ULW4Yzz9W2r/LJw3J6NGiHXY+LgCI6igpTJBvnkX8utTsgj7q6YpqrVIG8CzodWJUJQvw/w8mXJuO0L8URpHUAtc6MAybuHAx7sz8597syOv8nkaaDlwSMwMZwv9BjdVv6MKSQceqvfFtitXsPQ5P0feR9v7EBZVHoOwi+2NGKrxH58LvImi7lTgcu0HsIOLf0WxEquBJTK1TG8altR91EAVt/8UJ8L2qxne8B01ceN21DTRNy4dzWWNhZR2vKp4KQf1XKflVn08JiNDNLIeiX8eemRxwbsLfUsNOXJStYAxqsYWhHYnC2eYucIFHrSA45sjIYiy++2F7X/E8I7w6dQ8X519iuKexCiep7iwCUKlQeac1BPLGnZJiyeL3N6P46j5FuCW79JOabX3pu/qvsbHBjmVDoeA5jJgXrCOtQgqErQHfpa8hZX+cmM+/v9yxGkL9FUha+EaRecphkAd3yVkIOYV/ie/9Q6WSFfi3bEJ1X2iDnYCtwsKKtTNTbsZZOnbhbVdP6kYqvEOr1avq8uqxb7R02ZeJHQFzqT2YeIWjjV5db9WFSMMsAaNKO4KNZCnl2QZaTHIEA4fht2Eup4Jqhk9coIlMRVH4EH3BZK6u7WV3zPK+k1vSpNS/M/gzFEAk60O7Qo/ExZyf59rFBYr6UCV2rLmsNfci9B+Hqg/0vD51iv0LELbGCjCZ3TJxSw2sKYu0iQrRtRs4BRk1tuRuaW7jn/U5nqnH5/dMgTW6ecQi6wRSNDo2MWEE5fgwxhnf74uGV905jsVkj5FmQmlsa0adoo5GDt14c37LQTR5E10tVF7szsYFxdRCbVzZhgQMbicwFmmOFv9LHaPHQo6sfGU8N0hQ6itxZUae3ya4pJATl2KJZjEP1id+xnnKdPQKVj9BBU6SweMhwnTMRGj15KR7OFymauKBs2hsnMVvbCQ/IpnyUr6yQayx8NArWGdrEER7EDFH7qMHvihzwoNTn7hrqftTrirN02wIE2L243IdCcQqvG+NeOiiy7Ug1M6BNTdLKHPqKZu6t2PgXx/tOR/CrF7mSL4b0D5tA+moMVtuFjNjTvuK2LEzBHZxqzfnFeDk5w+Per+TcEWGrYBH7yaNAY2T+8+4tjUKeZdsE6rg0WcrO+Byti4cFI3C90riIDeMEFfNYEVKM3/zXT8XBS+EN9ZKSWHe5vkxcKCQb/brsZO0Z6QIJbRpRmLAsFHl4T/BdPQHMbt0BIQlyWCDumTjA2Rnie/y1FJQBIhJUBhlL2ggOpm0Okj2z5iXfIm8bH3ykQ3mLVP+0dqg6xoo5VTvv0LrqgmlP1dvpaYqGjKmIGzGUJhbfY+gvpsYihOBWEk1g31x83Bvgrqh63OKOStyYsy2oZYPZYO5UQFVwB5lfKTFwvzhGzmQpFIDOWq+zh26L9FummW4RoBkAlQYEiQUhKH5tK4kGnqMn/OX8k3LVyVxzRLHwMUK+c+jRMCcA8R619cQpbuICxbBro9sPPRGqIfeRlF8jBlvIqRj+d5nbz7sK+92getdgdXdEZvm8Ke9ynh/AXOi3rwvrvbQyJd49jahIDvSGF6Ncrc9IruBw3054V7PUU1QdnITUto18HBq9znVPMLOa5TrenPMUUPs4X1m84wAa0u4gc9SOKMku5tc82gTjt2Aku4a0toKr5FZ9u6QVkcF8dVZoDqPqX3qwKIbKB6I9o9VTm+3b6qWsO/GT0dWE2nGHpjU4EBWIh/+izMIQQPMVx2bAocM6pg1wFm8ME/ADNmHa7jkkuub2GKlWrYeyya/TkcbmV9GLdyedG0KDl6IALMT9ggqSUG7AubWk0Bqfo1BzDcwCImbUPpiqBBDa9/IUeYtODGbVtr00vDlGfGhEbQ7gxsN5nABC24FNbzEehlCsE655XybHi7iwYqjXE/HljyQQt0zd7pVdsaNOYr0yHqf+HrxRgOVf2/ujndOg9Sk5XGhrynXVLeN3L1MVuPgb5roUcs1YUCiGoTI4cgko8iSUQvJOhnLyalnEPPcDaXl72+AEpnwoCfaP/Jt+s520qu+8qWwFodAxY+eS5UQTDGTIqvs6IccT/Wbn0hHq+5IooxbkZsSe62n0iSdwPVoug6VBceMqIbsL2PPVYxilsJu/4JpSK/I9n/2yrdjYnEakEjvkjww3bHh8W064ewUigGY1ohTAzbrMXiuDLh8V2FSCyCb1yzS8SAOSRbgxXNyy+5DC5Ji53g3pYvJa/FEF6085vKpWWgQV75cA4uqwcnoXnUj7N7bywSqMaGGDAVbT9GvTP/s6HNq7r4d8oC6u66NAwLgWuWPZVUByMbuNWuFA+AD5TqFY+25wMuhCYCqa+siwm/nDYWoLswJP2lvO716b8pwCDsyp2pSeazyOrNR3r7HyXMy9zJt9Mshr0i2/y02K4xcu29HlVXeCnA1cUN61iYB7wpzPMEVyrWyzt5LYr5fIV2GmAitF46oPDmS0fu6B1xjjuQNtlK2MbS8LQSeN3GEgSwRLqj4RlodYWr7R3/qrfr8Yv9lVgKEMBoRzOotRSdo75V3FLzL8rze6G5aSPn6I3vz6u3Yg+Zd7IpN6a36i7Nop8JePM1yMzx/c9UINUsQFoXhlPfjf6PfEfImKckBAVXV3QXCtjg8iE67idqmB9gbWP9Cl4x+ipDDkE8H333KuMtueYWEdj7LWBC+bwWnV1CUS5Q38AodBYnQwnVpTiiYBpg/5D69GB5e/wlRF+05AZ6Q7o3C5e/KG648U18LDkEYPF1oPH2mCG0u3Xycotwl/vJ8JsMULOWLrw96VmyT0XyhHI/KCYJMcn8ObLH01xZY0g4kpCxKxq5apQ8QEb99PGTXwJ+OAloJsj+hfUWklQV1X6KcMwomAvwRje5evrx3JFDdm5noR6zu7lOKKgKqJJJYVeOIwLNW9tkuVoqKdtmkdRh+P9TTHf7RXwUSQ473Rt3/Dz8Pw7g+OMJc0nD9M+7VpX1994lzxwXl4gQA8tw+rZ/AbJH9R+CGUTrGKDq/6uqObeR0z6Xlgpnm+Cu9Je8/By7Jepb5MZylZJVeX1E3W3zAkJNpR88LVgnJasnjTV1720ehiRXZMpWh8duY/bJvWAlayIHmiO1iwGJDhUjIUop9Cne4442mJmb/GvFm/Of4bvDjvOD837PS5M7i9DTvNYk/luCC8ijAoSXOJsUFwgljTt3zHo/IMY5uv1WFwDAHicikejne7DHgbwQkGoP5FrfRXXbrerAL/lZ6K4DPLm2xuf/D6wXsMYtv38Gfcahk3H/tPIPPyPM7IwkqI+AviytJii5Wq1ok1oTcX/ZP8HPF93sdbRpgIe9YUodEBK4JsAV34b10MXHIvjrFaKSXRLEpFVJXQFaN+i0ojpjco3l8dI4TtrTZc4ZDvfZP/c90zFOTwsnXWSe6mbhqlkwtBvGXkmRUPkrG+V0juNYqRpufUVHu9Z/gAMLm24/wiNx3h0YiQtFO1biLbpRijf8h3+5lGJUL6rC7adWXso3qiws69ukpUI+9vDgG90t+Bd/cugg+EC4YckaMGJN6AM78XSfgvEdnKf4NDG0BKCgT0KgOPI/oX5Jv7LIZFsnOOLhRecXrANoC/zpB9DFSy5kKcGbk7mqcpPOGnMieM1iuTS6PbaMBh93LislghJeDMvveg6mEFy2llqzpZ11V0N3GQC8pvzx1Z8FwT4cskj5DH+bPdbNVKOMlHktAfP2SJDthhIRiryOXx/o13ntQPrn6qisTbOcwmyi0p0nXzSBH6T8p1tk0oVMh9/2iP4zm8iO+VxS8jBYIEX55+OAo0vYQauSTE8hr02YubVt1njb0OgOyug241CVPlakpEsJSTYGZDPr4U4lf8tMj55cJ5PP5iCC9su2qAVRJGNfO+zHzsTaWEWXrTRkwmSMNNxwx0rICmt1LF+9pYLJqT8Rt3x4rX5wyuK3eX/uIbimRCY2lW0eRsyftZJ/IHs/G67x/pG66rJJJ+m8vo4HyJuSv4G7h6kz2sL/AefKMHLnAyTETReB7Nk7mRlfiTZKkTBGmsuXd/GbNwPNVu5W5IOhD7JWS/x6sGMNG7TyijHjaFMvwg2RU6+C7bUP7F08iB5DKgVLqJaz6BOXOg3AZtfGUCDOX6U76hqly1OS7GcXfOEmMcLq54XOskj5YBhZgESfHp5WYbUU4LFASpn/DeuLZBIqGhrkNAzLtLLOLDO3bPzPDOjXA/7ObjMQjOeqyEXdUXjde0PPPFy5XpLLuu4xDy1DhyLjI1kNo1i3ZvIzoiKZWXfvp/sXZRpHC/BbT/YEJtEDNbnGSLv57OQgO3e2yNUKfpNw5RqSvFGEUzXOVFk+U1LFE3NAhR1IUDztxfOLsVvT9VJpPlsqFVynot3OOs2MAD9Xr96yWzKwkdH0YiCN17Q0w7+SGbtMdjxL9NAsfAWlProTJauAum5PWa8VquLJDb1y9ckCfYO8dK4le0MLHCHciu2rTeLfIrQS9UHJRd/86wlxXCjeAyFyJfLFSstBANsBcVtpCpnIrB9YJhwEF37AJNX2Hv9njGu0mk0cZI75X22j8s7u4GCVIPDqg1pCqpdp56icvwIO7fTcRXYKmEWcJXRzrdZdc1YkNuoOYMkpGjEDSBBQQKeSfRRDRAwLax9eJ2N1sHdE4NBmw00YxJoVQ4bIYCCzl2E5g4uoDjRPac1zJk85uI559VWMksZjpywwWjqqTriUPm1PeBJLDUa4P8Rhy8enmJ3Xe2oOMC0F4ZuZ7kAO/kMW8vhBl5mp4HS7r6XQKA9Ij+FWhmkiQdIBOpNPSOfmvp//y7dIY3kNAGK1wCFQCiJSDoygIaHcX9VOPaWFjwPzyWS3bS/yPQEFAQIMQ15uqpMQnQ0QaZ6VEhF6A2KId1bH0tAIVJoD2KCx7o9ozhU8gYQCmemqf3cHJpajBK4cO/MuHQj7B481q6PjcZrlRnixHY3Nk0DtzVQwkdr07XQCb41SNA66EoTI1kbuurYphj/kUWWae3sDpcfu7ihbPooVgaafEdQF1A1qu0c5OmPx5T22A/GhQe3WZWKvAaEASiZpCCqVaZlIl3peQTdKKKwFyKtLsiOvRqqanpHafvR5tQlZAJamI5rJzxIQcLkAvxlebi3fBFrQLZOzeN3YSA/vz7GQ57dH3U/QLcQtioPEk5W6hR6Kl4LB3As+vtyPKWh1/m88iN5HY/eCdaG6KnWmoAzEPKU4CPyAZ59RcK1LAvepZyK30KgjuxYHWnqeLtZZWLbFgNvHdq560N7N15C3QWHQLi4nnJxuklTDPdk4nVYAAkKBCUab1rWZ+7r3AkH1rSVTBWmOqTX/wyV4ayPPZJv5JEUnhCO6aECNdyhS2OTPJPsYHFJYLF5dC1m/ofd4kwme/eqIrZqdEWeWq2e8osfImqAfQvKd/0R9+Iej9p5cZSPJNDmufv0YGfqJcmE1DFhdQIPK6tCD8RXj9fvG+v6aiKE0boX8v4a2KbhUMqcR0XZ+TcFZaMIyjxEyx6mGWOxZf1vlZ62gArOR5Pa7GaVIJwdZbOpH2pMYZOoTg7a4a+kPTecHdCb2AqL5N0VJfGNAbMLBkpep+EazAbxOkpjxyS5yLuAE2UzvdGhvSuEr4XsYIFWyYXMH/vN8ajQibf3wE35CcbYje1sdFXk0iir6LgJ0PApTtOEHuEInQ/P0hhEcOoUQpvo2Yw06CpAR8ByJQXJ7bACZBTKrtzXNnNRJK5P3CmFf+26i2eZhNqOKPepBw+TYJPjK97wun3IiQ8joumja1VgBBP9I2B1atA/90m9j+hy6cUPC9BXdVM6+siCrRpRIXGGN+OjE+LYnsI5fPyWWufxUyuPqhdE0cxB2IlKN2bDhlNBFAUtZYK4/eLG4Nrtd/Qj6Sf8w+AWwm/aiUrdQ6m/XyMOHSM7flrOZptfe2ZR5LSgogi5phZg2p2jd9aFOOqXj9zHeJxS37s/8CzwVkHOvnd599CYa7ycSsSAcHdeQ2+qjdB+fotPirlRTWkeQQ4oqmPPHbU/CgP+RLWjZy4Q44Ay6YQSg+37hCtn836ECfiPmysG4UaYP+ytb2aHb5xtecl/ujWdjyayis2P5KLLltPHnIcxRzEUdrBp9caL2nufnvrI0mA1v7Ex1DoVqCZlavqqLs59hgpYxP8olIIlOKUkGhYwZjkOb6yXVi0aKFWx+XsFklEhwQW7w6AlbSldqGTxOajdhfUCEB9z3CNuWfyxOpsazrTrvFQiGUc4XtA4i9JI0z9B5SyvSwpW2ZkPYMkxaERDFk2ukUiQMinU/tzDN1X7seL/vuhqd5nKIr2oq+USEYsgt0kGcNY4DC2a/RGNgEwIC6aOdIPoLFjDchTvL4D/CoTyoBaj/sMSngJsYHI20mvRUjJTU7FwU3E4ffWoJJ+HtQ07yRNBOSDToUKDrT36Ch0JHchJ2af+FwEdaIULogh5zM1setziaPhzbCbw2usd66anPNAQuwi5vsm31uEimF4zci7Q7QBx/+6Je9G2hIB/ClgM3Bb0JrUVLUtYDnpwAH8HKSLr+qsiQAM4mFG1qBD6+kuX1Dt8guLAh6290uLZiS03KOP6RjnjYmnjFY8g5rMEDHWUnqWncTefPr6us2eNes0i8Zo49LcXuxtrkeIyG2F2WyES2D9REm1dj40xSvgVpEKOJWDsnBThioIsC+NuWr9mOV5BsIMMN7QvTmeCkzFysFSmNXiMufnzriNMWs8jvN8StXyNIyZhZdbjOE8+Ck1c84Rbo2ellpBCQKcMNWMal5i/uhgvA+/qLr2EXasgiu5XTOX3XT4XiC4M5BX4QWaV+jAk9bXgdpNjulgB/rC5fCWmR7Eb67de150W50T7y8Beyju3XBiRkLSn9yQoq9Ad81q8WCryx8vaBtKK4TlmF9u5r8P2tVWNZTOz27ao61xmkx0yjroPqTgSE3DCRV4gEgaH7JS1iAT+il2zsJ4VdwQbIKaL7K67GVA42ZvGH1HFp8eWiHRz7X58ix94dIALlJGz7g/uzg0DwcHq5GpF5yOkeXWtKXfCatqRCybLeeTrrsU3WomUhDMDOuIdYaii7lFPTc3dOMeY73DXHW0yIskNDevWO9wNk43KVmLmTs2G3SsaiHBB9wgu+i9BiVcK4uZVJsY2DWdE6gpXX+mCYdQqp09WGZCfeC6O/lvn6Th2tRFAd35HIP1eZ8BU8jSxZ5oWkQc+LgmOqumjVnsxCIeoVYaJZLznmxylKpUHQ+nW6LSZdAj2FeA3NTSY1Hl1bJ0H5gj+adYWGgcdEI0VVVQNO4f+XAQKCj5l2pUSxW2KDOGzO5UftLl6bv5B9gN44DOC4LjbLyTHkfLcdo1GHQ9bOnOEAzrtTsWGe7j2ToMvSqdjJ47Gsq7X4EsYY5uiBXiuga2Wvbm/6aWxjAUIxdPVonJa4jXYbDBEJ8mbnGcWbpena2NPU++sqZQU4Oa7yWxI0SZy3UpuOQ4xXXdA7daF0PP0Sno9o9+lRIVgL/h++LvCTHMMwi4ekUi0eiKAxLQ7af2bx0Wscvsc6SJqIQYApTA+g+Hz2wZBdiLmV9jk0I+7fUcK5OtLKIKc5L7DJbEolhoF4gCdCq0Jch45I2+z3610SXVad04pE8/1nYlyhU5A8+eCOApf+DQBjqyXsmPIMwq4lkvTqH7cIgqYv4hI0n/pUKNVaybm3n9/yCsOyCRcoE9FPXjRIGkOcGP0yIaBGNZVGuGeHc0/tebWDjXlPZ2BpjLZVvOYdCIC26/pLkDaH2gL5ZiErW89/43y9Nh6EJecG/fE6f43E8v/nEiP2CjgHmX8RB1JjyLQ2bcr4N3KqVDxdmOMmGMYIbzaFdWNWc8ALz/DPcWyCH0Y9BA0jj9vRIUDYMZlWSTwscqBnADkS1u4sw6XP6wiCbpsjUspw+LS4iLDAf/YSTQMHsaYc6bvyx+J7pTtjVX+7Mep6M1ia9bwKJ0zdGYgSOlpb53o8aPcri5N2+Zh3dQXAOIS6V8gqWGLBA0o+UqNYCNIb1PQjLLwBEaljCLgWoX3lCLjcxUTDFrxmbHMZNfrwC7COIA70+QO8VP8USQrwr7NvRt+t8PE+BLgI7FDr8aqk61hekbcmueEwVFEpEkr0kVmdbpKao7MnxaN3WimgQrc4zoshjUm/62+utNhK+cB1OpfBrIck7ju36+ibh6nwcxdOqcKRbGfjb3uy6uwAYxL/lKtG12/hsVz+eyCRnh2rqmloGCnBEVkupOAwoj2MR4sa/7pljlN1nfts/Vnvl5aujmEivi659B+TUnyyekUAUOcRnkN+BQUfhO6spla8hWjCW3+1cYl8PPQtDyKz8RG2gi0uuR/i7pMRGod+W9ksDnjAwhCTSy7++wTASLKERjDjuR5vuzTU12traVWFx3+pVQ0hG9lmvE/On1CBn0dAGcqXORKmrFBmYqzewi6XOAg0KCIw02uIzTQaIcwu2zjEbWiCoaRC+zB+d1Si8g3ZkwrYXMKf9AI0qsiilBHNhMVvPJk+fSAGIkKNg7e4VnJOwYW0J6InUnRkx+aqEmfGgem+RNP5xx2qktWepSaGWmlhk5I/KDC95Jaj1x6HKUGjpAuR6ngmgpdhSMqfCvRdApqb1VdPoxnonFLwHIlDmSQi7rjEslInvsZBpRuhSYRFDqMZBh0xwlYTEp3D+Ht4GGcXj38z/Fh71g4HakouKDNwzwSCPOTUnQfztf/UoNc0+UP9SEzWpnb4tVewObjPlkojrcmdSPgipf90dv81ieh310SXl1Fj2zsfJ2rMsG7MIIkF0M4Ftqg6nuerZhPZKr7wRlCKzLx4E6cw2iZgw6ft9i3wXZtDx5jxevvnhJB9xuAfDJSi+y3MUfRfshnW8XuGYTgi2X6SjR0iMnwOOTN7si70/vi6CLoPO1oNgaeltSDkBGBsG265QitCMe+2pB3d/Hd90qGCQYkr38H5hUPgEsnZhxTVQA9BSpX+8NDtMkbC7vRKqbppi25OBiNRPwr+UEJg8w6Xs9xwOfv1uloU+TvdeBs/BdLeR6j4HHU5YiYexnuTf/+GbSyD9tRWLR3/AyQeAFuwHCDjCed/6N3Ws6DrJGR6AcORoVhiQG8Jrj7wLf7iQNvwvmUSeTxcQ052701eKWu8Xv9cBmcYBigaMejv0XfwNUAbZGZ9CPb42y0v3dQaDrPvjlUR4oZvUyvLzS8gF6F2WccQW2RE7Zc3F1Dcw1U8w6b5Pp53gxB8Cbxoak6GS5pTYxCHwuU981tF0YIh4b28oix1F3cEECLar0Xc4pIrhKR59tXpHXYXQT5FubKtqroVSngJ5dIquxYpFPc3/PvT/9qqW6QJZKPpfM1coFs1AXhoq41znZV76fvd/zK+v+hTkXpn7X1lxpkInBdeAi2vsPcwdmKGNQhCm12Dwui+m7y1rYdoqnNuxmlk4GOataKOALMLDtQ7/57vP1Hd5mA9Pk0DXtsoTYwJP5SaPbWbg19xP0kbsOkTYsxeKJEpuvmygaUi3OnrGaa1ESwkMYQt59LBtf20MLS5OusyEq50ETNWxzqaGKKmiSNhps72BTTvbPkDogSTWwQtYYi8QWWAefCVFqvUSH9LJw+2oB/gnHyZUAb585i/Cp3MWejeujZh/o0vV66XuAW2FERFoHWz/sGAByXUhzNtIUAwpteKrv+D+q4d64jZi1rjrEHk1kxwoGS+WaRDDRhB803Za8xtJzWb9Le45/M7DyQkoaAHhrc1mUV4XL3zcXRBmFEhT+3YtEWx+hWEacWVS5lOGIT3/KEo0AC+gkoCHWDB7Z+K0MyTGCpTW/8o1M1bJNQyMqd7Gx3aUwExyrr+dgRQANigjyfipLy6fjInTfMFvyntPu5qgbh6FZxvWSymSxNgmMSu9AafN3eS2zrzyl+emXl4iHuU7DdfJPDed6BjWwAzIGDzDP6KwOEUdBOsJku2ZMuctz52nUS2fpxIpJMLByLUU42CcTkO+Q9TgfxiMQh9wbO6ssxl/2kz7LQMu29OTz44bx6gH3lIakGCtBHHGL3uiDOhfgflrrFuZbrJiq8cIWcp2HAE51MLkzTeOu2jt+fSbAsEYzKFX9aw8l2XHNkLO1If8XBYLVpADVEcUjwT3F/2hbBVP8d7XLeRUKbS80+P2OdIPSAkeHdkL8jeu8TkXCtji15bNqecJZnivQq/k8bI1IIGr2uoTXtk34/bVjkJNtI8xSJsMoCr+nxzsjLTvlNVaXcmIG9Vzmw3rxfXjRJ/m6xCg6I5wKyvk6OPOKgCT267bB10rlcv+EWpWwwlgLp8hj49WdbjjVVqiZAgIi9o3prppN422sr3f10BI3gBEtKzsN9vrTELLQHpMMuI5ymK6zI/odSi4bnixiMsEhuR4NBViRjfnEmbuxdkOXqM538k56qIEgV6U+yNq3AELyzUHYKv0LpCvlZsrJkekUBBx9QV9tZm/a0LDusUwer/8ayq1kq+ZxxL5irxuhDelvu/JjCxiYAigqvQK5KxbvO4MjMsFBAVvF8OnUKmwd4bRnDs4fYYI8cJIdyRdXZu6hCZOnJliU4D9lLiF9NWnrRGi2Jp9sEB2alv85BuT7m8z1MzH+v9vMjAE6M4UKPo/sPGeYtrXyMbfvCv/Ih2xDQZvT/2UCUY33cH65flkIecTUhsXlW70+8bEotjxnfuBK60yBlAZaxQOPjHzPg5dBIcWE9fzo3OhZFuCySW8sgA9S0QIFaYURnGnpe7D+/0Xkcq3viMbgt+v49PGc/T035xMOhHzGOOFosouyOvTjrgNz8XGoY53v08xyxttZtqDXOIZN9zMRHtgC6gZVq4Wvm9/R3PFfiBXBXt3Bzzt+XqdaY7N9DlA4c1F3TH1YKbTnnvhd+71jgm4ykoboxcFVQEyHIZbJUx4e4zKB9A2MvjZ0jWjdirQXC3qUu+GuuJy2dtymDEdDwz6CwPBQgq0bIbUDPBW/rnN2N/FK4LnC3X3kq5bciUIqsgzsHtkLXb1apgTbUO3zIer0vItjsgw+Bl4bmhfKcTZ9Frj9pcV2ChlYA467tR6SPd30pBHekT7xKvNZbfq9FRuA26WQqYJ7AcSbNikA7OHlhrSHpMtFkGI90iDpRtSL2hiCITf21rU8RRVsj0Q0pQobR80U24iRd+LnKYFfcGes3agI2mC8fpBylUDafe8pRvGtRo3cNoPhHlGi0okh02NnS/POTuVzhLGOgG1GSJr8wwjZKtLfHjhEWGJ+szGV/BNIqKgsqbG6dxUFcevBCfPNuvbXBkV5QTqZqBppcy+qC53whv9x+35+npPGxZ72/9nx7HRM2uR6byOQIJ1rxSBWFWelhrL8cbV6l01rxVrbtYQWJm8tEhpd11cyILIYExDLcyhVJWHw49QxzaR3/BFxxTL7NKHHN86VP9hrosL2eLtZfzkSixTkF+1PgIeTGAGSWa9IAzlLGTcVhiAAZtDyu+200ZOB/UO9+XteDcnYyo7y80iAv41QMdJ0skACadWMxo40MUW1S+dbMcZp9Gnba+tOior3TC+DEWe1njOkVWWafP8smGg+U3Y4K8OzNKLZkNDl/3moo7egucVojhW+4ZTmZEfvo6wOE/lg58nbYCgbR6WB0T5kBkQsbR98NrKRenRmUe2U7jMMZHPg2dFIB+jfTRKAD53FKWYftYYLX2M78bEVChcUIVN/X6ApI6c1Yn/Hd6p8EStfUaNid0l2usaNVnt8oEve/z2STbJlq+5WQDWlLQ5dMQLvpwj42JwVGHobTrPe1kT7QH2850g+8GUEF9exaIiJGYwEqQsFC3hl6hwWzRkHme2gp6lDo13DLTBMlyXSSNOUY6gag5mhm8C1RJstsE2ahS/rJxkDzXV+/dKmGA8Xm8KXjEH/FmclKO3hbPZ2yPXR05mW34H2q7/YH2+j4NRyFWuUa19HY4PwdYdgmI0tHyz2SqtRYheM9tmnVfILAiikAdGJIdqWk2ksjvWxc1Y8mvSqCOAFPpP0+i0Izunuk1/InbM1YEFYYegNUisicW9ZFrL0u1ymXsx8P2n+PyQ6iB9Gp6KLv6SDw5MCpSdaoXot/Et8K0cmwHbmj2RAujTjnMbT6pMs8ypI85Umas0+DsCTgmvW+d79azjgw9HXrl8ccGrYN+3Nh4Hng1T9taFcasyGd1SYR9Qk8UNcFlLzmw9NrmZONpCQ7KNjrjT8A0j6NwkiLJy7oG2uRYbG1y5xcsQV5gPYMEXk0eccMHaAioQwq9AbOyoie2TZ2N1ykzdwrkRSZ9abCUjgVNEWrG78rQxIpzE0LL/+WX7GoRsxTJG8o99OzdNC20N8gNaI5uhEHyN6rEktfuGXbgVaETUr5IxEI4uM3hfjeoqLvN9UroFx6iQZygnjmZfGui3NFvukOxpc3qDdZfg+IalYR5dR/HJaF7KqITQd6+OqUVBAvcMu0HYr4wvfN4oq2Xn5Vx1HLEWUFT60TbJjLL/gXe2P8+KXhNObv8n6Zpiow8xJWX78xHSdycEKbqZ7MlhM/mTa7jRRHC8E+RirTj++4mbEW4jCMYyXmXwnKqu70+t//EUmrhntDhHGZT9fVSbSyh1uGi5nrqHUMCVnJ88PuR1ffOp+iPNS3NTmOwmXNwWIOoVMvXiyl/vF91r4YDDvsCAqEaSIcjRcIYFQRqRruPjKGsKcmYQ6sh40y6nakItRVjBEETqPtsU7ZfMriZiGdnkwOmBHdiomhw5IibH5DqOlfY0lAuwHyIkXzhtqZUO8gX4YiegAPr0ZKjd8gU4rXvNKyW6Wr+lDhGzUfXrLBL8+TqvlheDoc4cNgV0a9IhFV2NpAVtP3ZJtC8JqNfxHrOjdmKdoayVmLyye4AWameXRU8KHfsasrNZZBWv4KRr7SuY4Es9+VoHJTwDjgzOJYpdsjp2Vw/5cbnxrP8Qx3fmuPUt4+iOCcAH6aiE4JptQHzg7bF5a0QpJkep68Q780r1j2mhqCNBbxAamcQrAT0//04XjYlxwLKQhHZXrzYrB/9OnY08h6sMbOUikK9c3LsuMnKiOXm2exmY5qsaEoAfugNt/H2vOJHhrevCyOQHsg+LrreEuVFJPYG0y+4p8h53s8tsIV5fInbH1Ezyt2XiDZG94ORtRC53WsENK5UFPTP4xdOdOvG8JBAudSsME2Pzu0ktG9hGnc7Qk44culODC1ekbqcJQ2MgChzs1kEaus7swh4NmFYZKDO4UTwNQbO3ORj56A7S4Mz5jHm0V8UVj8tbhyomM37aMr0ttBFT0DI8q/y5Iqavo20Zuf5NF+5f9HdjNhY4OiDxpfNHHbncXWCN4xjO1FXvE5cVt2rBPFbLtA4u/1Qy55Xbz82KkolfY2B3Kp0JHwHpIjhkgGDNHUUaJcfrQtOg10wmbLxtf0hBbNXBSJ2XS2tU81OPpClt80P5/DWvKnlcGg0yJM2I0eVYQecr5Joan+onu5cQ9ZeectSUjfTz/PnvRPkl3DavhqWsTIqTYoxHgOR89EWjzampUIw2gjDzfhDYfZdSFhQJZCcFe+M2uhFtjy5xIKT5oL42JouPkj0LSQRYYje0jFijYPmuQi40WhFGkyCFXQLCTETzYfCwPn0g0a2SW6U3knenQkj+5iX7/I9iUUOix/3xmR1FWcjsOdMjBgODdYFiWeyPmswQXMw8dhbVqai13gnknFglg4MRZmPmOddGfWHsK5MLHdEj69ofIEj2DM/geOGQhYiSGbTYrxZhG14+2RZPMQoaewAzn6kCa+/aAe1V9CvuwAvPCMgIFleVv8Tr+zR/m2BJHeJrzp36r41rDufxHNTBmCcQdI0gmTjJ7OUAx++3nheLHeSZTZXj7L4BcfHTetcJe10tvPDVERfU7UeLd89btaUqdx4NQuGev6hBA3nsm+7Yf8pn9+KT/klzrmaQa9bESJWqNRQznSibHRTs/j/nwOz+SB+QAgKDDl3udLnsTLlluI+Jhn3Sg7z9yzBIKE0q/7JP1gjFsn4Mab9/aavbhnymdodQyS6w4rPJljgbcMzPOEM3pvuAm7uyMQaXtFxYunEbvaSqOUd1CwVoJn6NbVry8nf0bxHEEsxKDXlotSWNmIcm/wstLYy4y2jeboPz/PuqYyD8xWKtTgND95ejZzFlHa4aOQJY6AJshc1E0ilcopbl58SWSeL2cP7LJNUo9F9St5mpc+RiTGdQHR1lrj+7+8MA7kynbrlG6qlR1OGmEfwMAI5whrcj2ieB7zvEA0CoNL9kLW62VjvznbL1H+h3qUgROjLDw79RaXkK+DMckrbnihZhDEc3MJooCcMs6KS9UZAziwe4CP4MUN9pv0BwIzmdxsyU8jI+HJhRT+KtxmJlrdgqIZPleYsPt8TallsvMR+c8eqEuOHVDIRZKXy/O/xkM6MxYiSRTsFtrN+JvFtC7fzCu+hBYhNHcv4vwOvO6l8aIqJ55+PREt62+fa+lOEafM0vV32+uAiOTRR7sUhyRp/+29HmFqihX7KoR1lGc43ioHKhGLgUohrUPasY0ygQpBT5SrgGIwMUCLRYXBkL2cmYkHcL1ZR/Tyj8EMOHgOSD6YgtIf0KcO2SxIMyvSU8mYavRJdtv27msn9o6f3zH1usTElBmYYh4FjjG/saC/4LLJe0ytBVq7IXu86j8U5Fjf+WxDzJjlkdEns5Pw6Ls+Tukt05jGnFbF8h7fvsOdhtc9HUJXlXMv1vb0JI0x5CUu/66cwmZGN8JVrgh21uKyYDuiea4S0zFyTl+QLQZJDbc440idDVxAPWQE90PRuk5Qd/3GabU5QpOt9vUQCoD4SpafK1sXsqscbKmLR7DAOE2I5M1fMICVcu14z7PbC09+UjXRMGrIh4p8MYWlvZkPYEG82JWhgDCG94sWnEbKMbN388IbIPqiX8R90/2xQ+vLYS/EzFVTGvC0nioJvMS7myOsxrleNTFJ1shKzaR2mVwK2pc1VKOIjnfRPIh+mh7cEFzuHOAhm1bogd2IXj9JvnvFLq+T5Y+Yupg2v+6b1U+raMxO7JFYOk1Jxl4uGVY8NzxhRtFywnGQtdwSu25s21fO/AdiFy7JJTsgJt66xQDkvY+RlL97393sVxvIMF32Ru6snzr+A2igIF0+Mbd/b37RUAh8JiPs+hWu3lSP32ByeGv1GoifFRqGIOg9cq2S0yKoD/BpWfuVLSokA1dKyDwEoV0DkhOBbludJoRO0i2WuvIZ2M4lJz3rDHCPbN9+99TgdjwQU6qULlTU7i7TD2X8HCXC89Tll+jrP0bGic/UtaHrHmyWrgyFvcPQnVc0Dzasj+NathzPXmy58vX2EiI5a9uygpLAXNI8Jcio2Wm7ohCZFzgKEzlWpHLfoGfGh94bb/d8dKwtmezOruZVmk5nvoSk5Wxd7hnuu0jhV0Uhk2aX1mpe7O/NNLq6IU959BbKjtFBI66ciRPLan/dUrtpW3zxf0+QM/8z2J49/ANEMw4yVjREfxi8MJIhu6LGbFsxSYiVykIFHNATjqlZJsig5YRpiWQknIIGJ1sXFi68ZkGk9qpAy20BKDHaSnRztaDfXK23DfSgIYPBD8g5bKPuSj8RfsYSeeeDZeVqJQUAcknoKkmAz8dTYkjsb5wjY2fZKgFbpgph6FFuLyVkNrp2KNiYdJ+uAEUPiAks/dyoOQp1GSV1U8ux+DDtcUtKK29nH60wlTuvVqg0o83OPjQX/6lqhkABBblyic/1o7bNKe9bqiFZmIO38Hr84jOG7xSMd+K7a9I3EMYmJq6foQ4HrnVQrKy8pcd3eTxg+yo/irH2LOPwlM5+WBxWbNcZ0piwiT7mQr0VyyKu+k9HTTooYIuTiZgXgBxozSPJD7WkfXsiRoSkTi4N98wDBEu8Rr6nOl2LmfctN5Zrn0MdNhZveeDYdOnMsmbGyyyiQob771XbGTr1zuHIRQTAFdq4klb4Jw/w1PdtJy6EoztnJiLSir2yTs907Q2mn7/Rjg2NnGwy1+lg2jOTmhwfbT4/e52K6R/4QaHC1DF6jbGMRaYS+MsNlF9dpd2d2QSKm57SqhF9uZSZzAFBQGCM2shhQ7tMhDQtuIO3COp+lXDzfSFhEdNlDevJtJsJ/hQdIjV+sYOKMe+dMcVtianRhuulPfX09y4Y3kGIKpgb0XIZe9/EPgqhovYk9ohRp10e2hh2JpskiOsLR0KeZrkzesbeN1xX246eBzhRzHen4PrasKM8GYgSJQ19kw6661JMfSJ+rEvk7T/y/Uup0CaOST60RA7kiCodb+DLGxfYxaIVUY8Kq7VYGoZj7/CZ0yQQ3atr8P3BRLglPGlHi3kCfYSoUbT2JTSrSHzP4Jk2ZUgH5L00lb1+C2dyqOfJnCl5VJxkiqkbQ1SkjRdHcqfsV37ZuA6Nu13pCa2XuAWEZtaeos7blxBZhmKV2AqY7x33IADUhUx2dVxigYbdc11ac4JZlIVWmIeA4HWTl6VryuEiGu/AunMkP2QdYGZdwHEoCcjroL4kRrmBFJGi3Uxk/HFrxFvEdQ9fo5ARdYRYuXq6vu8HNbI3SbX1IiN1rNsjGfPIGMU1xIstEEMqbNSFjufw7QO4frQXznyS7pleSlWBYXLRXApFq74doqeET/BgGRSCvcdVjfdOI87pjucqQKR5BA8xC3hlqC7UOtQ88w9bnvKjTAbAZvuBACqCbd1DOF8iu67zbvI+z1rH36KFvoxX602W1bAON0YYMJmAE2lFTyBQS88iFDo4PJa2mft0+0uIYe/zW7jA2bQD0Xt714Cttk1F1G3YLI7RduuUmuUdBeGJ32i9bsb4zCQlLeUa1vxYmmTfNRG6l8Fn7cHn/0eudYUsFd8d3ABREBQjVT10yYbXVvqS2WOEFAt+nuUBlQIbazYpvVI6M4T+9DBhfCmfBvwxjxgY6kbVFWpC2ukYKfXUFcB6x+UpMjoWPazyL573q1F/vysZHm3lXU4ADxWEt/fp0qG6W3PqobSG82ichPmrCBoJUnlKeyNjelmdFqJh4lYciDADGCh3am7o8YjPaml+i2HZ3hnshR+IfEdIAlUgV+1LoQyaa7R1vnytZNvee25uCi2p4Kkpg/e5cYgVRbCArYgTKBtRSbIYkk4yWYBdihpI9k8vrQFaM7kUehgH1p3p+SrVSzcq/lAZ3FLRw4Mqc5g3XCJnJiERP4Qtnk3Yt49Fwc3ZXET6LhGDIE/qcFDuiuRX+6RMwLQMRxiov7Z91QIm+X9Y/tvwcQ3BH6AtzYi4lYYtS5JVceKBhFmgpbUA+bLEqm+VZ/Fhsva7iL7d/Jz63QvltCRbjTxMRLerw90yg69yd0lmHKL42TaOx7lAZHl70R2Ra+qO5b052HcLoQNOeKxEC7VtGuXJn2wf1vSAifdx38hVkDyh0uVbOupcHH9vxxik80q+nlIis/lkF4S9odHnlNVDbq/KlJLG82c1y7eDX6LrddbtKe8lzX36ryE2tI/8fRks5NhCZYsh2W2kwg9YbwrHN5pw9V48T/84Yw0Hpi4rKQZQzSc9ywhW626JjO6VXiOecyYaFp3nwmscCN6ENNUzbIA+xOqk4fYvPWZFMcho4aOTt6EO8LO4rkEYlHDXFxUMypaPTMbWs52Hd9DflY+lbe6tNurRAvLQgTKIJjYMWdfC6UQT42ZT+cBksYpMsuLgQyD6V8/R6ca52EAmbAzby7eRQXT3AqiMB6zBTkd5GRyb9uai52EjhsbGcXP4LhvK2KRRBLm2+xvi2QtvJzt/qh2e70mzb14FUFh862hyN0/m8q0sf2t1IdqwvaqPU5xug7MoPWEp0tgMN2EKKjV7OYUWA9lkr/Y5VK5WSDfB7r9cHyM1mkNoc4O6C/OSfFmX1dRChm3VPyV89sJsAGUaI0brPp3w2uM/pEsDg1/EfmeuXIyM1i4LJEjc34gaSmUHxxUDDD98mNeHSpD8gyfE8vcqHlcd5Ihn+d3hzwmZDk3HXyAILPIInk8ttKQq7+ALV2vrYYDHcP1JrdxTIZ5ar53J7einOoihvwpMTaNKvCoAtRQsV2qo+LSo4DmbnRXaq2myfEoMCFUVCxxk9XCfptLL4NUqEFBM0/hoFvPapLfrs5o5wJX/sfYoLmdK7ruG/TCP4U2zR6vyDLSiOgzX4Ju5sZQUNl8ZMUkopsaBD2I+D0eg0OKGcYxyrskaaQv5CefUcOcIHnm9eG75A3Au8tEy/uVKJJ/QXBzlejmZVmtkr4sk4HMaxFOc55Y+Oq8hffX5LfjI08bvgaYCEVDvzj5lZOlncmU7LUG2/E9mfbXH5PvFghkQ0fz6DlIAFNdQfNh2RfT6qTSpP9rDYKZ9dm+uwzEn9LhpT0NU0ad3CEsAAYE8sHT4KqkRT/O4ML4galEwO6kpcV7oBXtjfvHynrGxWUseHJVmew44oukshtY0NlcnT7u8Ze3u7kP+QFqagV8ICC851oAK14nSqZTi79YecHkQ1GIUWYfMKXnrkHEE7dShuXcaDwxzPnqbuRf/R28UXALYAoH89ELqlxX/DTsWyrLa5N4PMFXlQ0AT6JB7UB8b0vaIVzVs4ApL6zrEDJDlw610wuEkQdu6JsAypLUUkk87BUzG4pYiLp2SbEBfxoLzWJnr32XK5OuspEz+fvbmRBPOq7AydwmDTl1wJL/VbPJRC+lMAvA45xuKh8lsauhiI1odsKHQbrEAlRXPYEAJm7u7hf3/jobfEwveTAFFkg1N6Lob42xePybG821ZZ/CVRm75WcNdn1dYlBLevLYPCegb1An3kzrpuoRbVNFp0VbgKOPFVDh434MN1NxmWB5rVATVX4RS0LAAQNgexxCM0lli6qjMWl8cNav+tnHBB1VmhGwEIq4b7YIZ2cnR1Mvl2+bG6pATAL/g7OzYLvIfJXkS1ITAkhz7NqipXBOIrU7Zvd4DfAPind9xF6uxdh0X30NeVs+zCjoCuprUDFzKAwSR3mRWyVQYQuDxkvqYEJAHses3Co15ksqepo6apN0vdV+twr+JWr4towxkQthJLOX0CYpybFiHnjyV1mCHgt1mIh1bLGGQk7v0OFHrAA71rFlLg7uV/Zxp5gBlR0j00wg0kEKZdU45gc63KoJYbQF+mDl+YAgA2SRRf8NGZSiaJ09Vhvraw8974aHN/KSr/Fp1aRGJGvq6o7rsZyg8IvSrizvB1nqM27Spfk7vlIPT+AEv1AE9BRSZwWbsGIKtgYkkgxGXAaZmTC5eZFH/TEnl9bhml+mxPHtLXV32o7m7vneKnIKxC7l9ycXNsc4RXLmvhRrwkq17GPaePH7VmeFDq4q/yGceedPAlaLaNPTHeC4uTcoQHAiVnB2gZCeER/1XoxntXVPB2kHPs9HB4PhckvzY6JfULFzhcaOq97Ttt9jToHjUNtiXM2kRBu+S2tFOJRAZ+fh1e3Cv0l2BVe0QDAoXo7ZoTeVU7n6rYzHCF8l5nKXdTzFGRGFJFffPJUkXlEYJF8XrLN2LKLx8pjHM/HUfP17pdcqmkqbuT+h3EOInqh0XFH8HKAuXjxi0fq3dlmIB0R6ZkrIBZtqZ9UpIuESkNzNMedRveEiQF4REemCirTdypFqDsh+aBZVxzD9pGk/zMkO0fEgt+qdgPk+RsP8y/IqI+ElcDOdEGN00Arn4lO8xgdcHnpZ7qAXN7g0CEPM1nQkJqTtPPYdCNz+nj6RBzPlFOuaCD+r6j4WhdQkvv93KQdFQ1bI7QA3aMYMEvPJxSAA53ioka0rfbL/xDDTWkxCSpR5vJjSQDb/Y1WVJx4UnWQMcJznrZPlYXJnk6KyAKxYwobbFAigHIA0WdP3t+o6JMWhk40cVRHlT8aZQNtcDY9u3XfRCNOjNwcUkGh+6mhlUR1KG7hpEe6DbIl+0XI/XRzNO53NEVJgbIGl04GFtfw9ZyDSbc2kLXUuRFIU6OPUox4yaSg7/tpe0JBSBYg4EJvoPx2Wnk4IwqpWS9776hPoY7kaHhQE0/j0udmf1CF5OF9gwuW9k8t+WQ82sWDjrvUw7TSR2+nOtPhHaKRpfahW+oxOB1iOZzAPC0r73Nusve8fkPH68LOie5Fsp7zgy6XiAGPvNpYur6Aicr057z93+0+Q+6ew/tIEoYmoPuJuqUvUQBf+6/OglbiUc93/n4v9oruZ5bR3v170fE4bBdTsQxbYpAIncsMjtERTy6cUvyNLK227KWzrpFovZD8bsipTAF+L+TapF2+TJhI2tNAHJMG6EhBgLc0A6TOOgoN+K6LBbZMq+gtM0rhG0uhaAixfRF6MMMwd5c4NY7xIbkD8PCTbwa1vZGiB8CfLyxSBiPIzMcbXWWk5ZAs3yihn3Xm52EJE5NIKPgLFtk5k8m5xNDJQmPt96onW3rZZV+axIrC02S5bt/J4EVqcNCjd833pqWHDRIbVTOhNfjRte+VLDdfZ1RJ977Lb5QN7eBX9Z1MUHQbtnFeD7dzyfdAPabBqXcL5siCZFBUV+98IQHFnYd+3FvTC7x3oejqAFJQa/mJ+cOzCwelO1/pOgALdM5ICpY31qZ6LvhS+MedTPTCkyV98i5R97AkxpVrDz6y+26sXjL/hvAuanq/+8TFiAS7zzt6j418QPiemPdzrqEnMsZzXaxzg8klQxgcR36KMQer/NvmIxbdEO4Tu/USQaj2pIrNC+gUjaECYzBDxDc6JGTNdKY5IaJ0Uh3jZLfm3ZAKVjGOfxvusmdFi9uvR3lZUTgck5Gv5mhmk0oJTyjRr2WmJY4X78VurO4xb4Mejqn88qMVVaHXq7g31J39vQ1qAqixKVS6Q8ytBKDM3xGEyu1qgKkKXT1c7fRFpKa7/07yCyBcyPfid4M1EZc57RtQlCqvlUtAJEbRTbdJO+gXAJVCv9ivpGbmIMRFl2czFTJ+CN9oynqdSt2leYFo5yv+jt/HgdNn+l/dlfq/+UgB/31lpkFCU/GbSZbfIJQpwwUgrxoioqEsBopyGgK0rPpNf+HhjHc0Pbzk5TWEA+7s83VaiSTn6EXpsQoa9NvQ3JJKWY304oGDVfmLPlBkUuhfidkuLK518fx8LapWAHlwUhia06Tb/9/DhJL07aSAg20o/TTkbD82qGajj8CWdpaodHbpsSH6JJJwAjd8yfn/7l7OAgnlLG9Tj4ydM/tdLBsGrQ5RdtF8zk5ZnkxAsvJVPvAT/QpuoDysCAVDrG2EZGEHgQ6R8TL1zSbSMLhC51PpD8dI0dW1xLA2fdY6OhgCEysZB86OsPbIGFYr+d2iGA0+RymUSgZ5kttMMompqXv/re4NTai5XP2iFYpI4uUy2ZCFIpADkBNth+/jRqiXqqi0iy+Qs9XR/fWptfwE9C7WecB5YMZ4GBs+YpIBXC4rj5qI7B/Jak6+A7BcdTea1VGUUoEnuLrrLfRUT+5FCFtwSxazh4YnzJWYnWCHkHPexEFH2eAfa+1lzdQgiDVZyEthjGexrHtF3M9g4aS1cINQbFdr6PYUTGk8ursESOLaLCmrylNYML8UV1XUT33C2O9Vyv2cNtQVqUh3u2Kfbi0yJxAaoIHKC+6m/yTpLvJz1kUGaQHVC+i8iMyG8Cmj0c8zcbhPU4jRHQyXCFuNbTd3+eF+n2kFy2YlgLNvkGfrCceL3XZ7u6fLZCVAxhw+WI+B++ruDppTXg8yuuPIuaUuhq7aYPAPtCYCCwTVmb7YAQbRG8nRIkMjwWey3ikimqpfi1ku94yKuRAEVdVSPHvIr4sDh9rYRKVTlv8BryAMD5ZU1NnrfKVcZBd4CoGugZJnbAloZBqShIN+mbVCG7LyAEs4kHBTgQhr22SGQjEep1XsTNxqW8mmLAvHAPOB2eOazoXGYpZ0M69zWzEGAI40TwKD5nlqCP5wNrrKcPuoTaSyKb2zVYoSauu8FMrAYIZxoF65IhfxjzVfgmfIiEW4Bdkhmf74u2wfdne1Xj+D3RB/BCpG961QvaEkVMzGLTrfJmBwbZyud2WgAqRrJhydPcEhCbeKJOsM5P8nVICIfJRoMBaLsq0buF/f6cH8tlzjk0YPSi/n/YlALbj3Xt/HM07J3MDRTY7j97XWuSX0dsXcmd5hXRUd4O7dXBNfovp1MJ1Gc2MEbjCtjCoKZUochbhPNnN4cpONnMMEi/Hlomm9iugS7zIr2ODqsvF+96VqGYFvdmiWpHpV7XpGndw3r/y9Z5hm9Kw2x4UF/3XMZ/Jaof9ki6bUdiRYA97RxGfO5uiameKXh1AOLsXL/vlXLdqkOpPapCnorUfCxxd+6I7EHrrTuMeY95AnaCXCFDZcPOBSYQ3BdTUekDRrxWXTPIWKbBZhhSyJVaKTj4FM8t01MG9YLEOqGj8U/xmuLJcl1Cqy6pNMOVxWcUWAXBgkqgv9BXdkFxPG46059f8gCpCV1K1VHEhUzlEIvtOHscoBbf7icyml0JcfeglKqh8zhk9sEmBN/3VxsMjmrmHFdUgWheRu1tgSM030VOED6kD/jKX8YOn++ZuD4mGi3cLBFJlcCip0zBKfmugVAkBIU24m3duKXwCz33OOZfR4Ok6hPqnsKCjlFp27Alq8qJOX7RlU9gV5IZC00myVgbMbQvByEIblw74k3/v9vjjHosPNmQ54Qq0+qgdE4GcCS0mSitWTPvQFBTq7Wa7WsgdcYwlmACgBH2WbJF3MpXkN5i+cMFRGhUOpov1UphAIBBUWhI5igKPxb887Ld4Uyxf4kXQSqeDzq+a/FLhHk3FukK4aS43/ZIUQmClLDkSL9LLpBkY/pa8J/PqTdF+6oCmkPZUODzVTIA8jPgbSTY90CdNBGpLHKnBGTqHtp+TGOm+xveBhJwKbEiAfv8PZek2E1rtrIc30ReqvhvQFiYyNVY2jhnC6SdvV9OVqGmD07g/udEyl3S5yV0TE8gyAI4B1/f2Ti5MpeiGSkr8tC7VrM0/f4GbjcSOkgLpqosECJXalCzQGmCldokSz21jmjPd+wX0Vj5pCwEhqBBH+RyuGjIn5UiWa/q2ch/hm2v50Yli2CXZcas7gmlidX7YUdowfi2VxXT+OqPNcHSV15DVZdqkcJxiqtdqNicTjHLxvCxP94Ba+9s1QfgGhpXLcW1rIfXNZPhTzptdAV2eiNJTEj1Y3Q83+dCoy8434qeXv0l+clHFGVbX1psRYqZ2XyLnWcch0D7y7uGAFQcGsTkRJJgbCr9P147bVCLyLQ+NCe2AvYMautguNsUWrvRjmz1EtvTqmNDQUeDpgucsgfbZmJj7qDORdYlav0OKxtWPAyAIzeOiU9V5IE5MYY3kU/jM0gT7dLwdLqBPslvj0ZMzYzjvh8tjgPx6YdLGZ4LDRZi0ctk6Z009sFdj7unclV7EBO3XcFaXkapRJ/mFwL8bxQmgzCJaB9vNnNd7ickOWsi7D55qMvWiUFMcYz+czA05iLtEwRhb84snNqWe9sPF5yjQSe4GmBAlJYNweNh60WTvjtOxWWqF8ehqvd0/L2bOLyVMnktNDAS+EJBwNSXEYXCiW2JHMSJXR6sQC4iIx0gZy5d+D1N6qc3OPHKuKQMM9H6CBWtxwGFNgXwMAKqKykwVDHJ9j+QSKuarqV2W41HsKL9zV1+PFMYdOeHvAZA1s7t/SGcFZTs5Xge6xCD0gHg5dDxwbK1SuEiDM16e2UV/RcChyuZDkZ2Ilj7F5LwjOvdTnGJkkREbjw+bs2CQctit6lNj8g/pDhfrujFdfxB4u+MYKe8bO54sfsAE7Eww9NB8hpelbKmxnGCUTBaH70GUGECw4G5AI69zUH6wzqg8EOaZkQofAmAvCxRyAMW4D0ADNCLFt3agss7gABsbeFiRPoBfaRdvLJpgAUkbsMJgUwKTvY4jl/M2kn8eb6JhO4yAI34JknCt7oqv5soLS0h6u82RBfnc4p4rW2PLJgzc/aNf2Zl1vCTytqWfAW9HYkkLQvtBrfv742FZhnGZs3lYqm8uSBV7lmYUijXMZwCHuZlKoXJyXQeQH6bPdG4p6zeQN9PEtGK9fHBVcDEwIkitCwc+q9ch1PtWSEV4CcAuHXdNJbBh8ixUTioiWCVScobwb8APH1DtWq8WphqwA2CgOEbhS8UDkgO6iTaDoqvJAXovrOXmaoS9/Sa33Q/okTC+fIWcnrDLfNn1PmLg38AEfYa4mBShoYC+Xs/njtEYHvDsPqgHPgSlyurj4nZwKOo/ipnJfn1uOYlaxxid1wG3cJOiNb4LdNm3BzyNhbLzHuDWUrTbBmJw/U6EzSZazS2fV3K880bgAKPyhoAIXTLMpjlRv2M1WHpnZtpEy2pocq69Fdn2AXyZd14kgOIgHKPcrEcG6QfBC+z8pLZdGNMn/NLh7naj5MKHRludmeTbCSo7cQsoiAofCF6lYc47pPvmulP4aekWr6uvPAncTMqpvoAQ1qd301eXAAmtsWpzkVh1plHFC619p8KoRMpZz0VVMusPYWMp1DZaPebXtCkxjhADr4KMhJfZeVz9Vq9ADnj7n4rwQ2HYSuJAYa/Vp9VCBPz4LUWcqLQoXYStC7ZhyQQ5qgl855JHWkWaTmEACfgjc7tUwAi3V5WHvy0JJxR5qwPRvPcrnNQZMlKKLbm2H4Vz1cJJgLWzFTgSEOCwT2LkMHMhNXoC0Ob1YYcpNfr7ubMh/LP+Yms45m4VBe8LjMSg7MBwDOY3XNTgjnZzQpwoqwX7MdjbNqAU3vANAokRYT3EOJ/2DnrvwTO+L8c6+FLBgR23cRgE8BoZzRfnFkwIDSwd1lQ4mOFuatIxkDvEHAm2mhbkyhj+rPGGCmpRKRMIqrpbcqj/0jwDmlporZaQq2pfrm9ksd9EK/x24Z2qwGxEBYyOftgbWa/2E56qEhV3+XLF/JJ2wgVSkdXOpFplIgkluaFsuvSM7N3/gjjo/GbABstUyTyb0DgN2I9ASQawAVH2Yvp/19O38iTnTiDEV4Z3a5nDxJ2RvwxNXLlx7Yy+00niC8eMBR8Xi7AreKgE8tbFGu5E6VpP1BC/+ZUfXiZwEOh67DgEMVvc0tCyC1QAAXkWHxBwr0+DJrKKws3homG0y8BnrzFYnD3qcOySrViZyafaRj0g0w8l3oURTxyGv6Ctfzg+rjI9W0taBRADeHjp8sqbSxORph4njDJkrCFGWtODce6DRmZ3wKqqGAACteHtQ44LtCGHRNEZyOoTDYN/A0txpy27if0A1l2DdzKJoKK8GeX28cbKDZWZh7vX3NRWzZISB27TIkemN9TLsF6xhmKn2E5TnDDNopMORJa+QzZsQ6y/ilNhyj9vbu06EPP42mltRVe10SYBkexraDy7yxIFgxqusdj17TfrAP8gGTbN3FffXRPN6axrmuk0l2dlaNg6Ymp2sjVcsBKkcE7YVtkhs7yicTfEOkAsLKcv1VeAAAAEMyUEGtGwEAAAEbrWp1bWIAAAAeanVtZGMycGEAEQAQgAAAqgA4m3EDYzJwYQAAADndanVtYgAAAEdqdW1kYzJtYQARABCAAACqADibcQN1cm46dXVpZDoyM2IxNTc5Mi1hOGMxLTRmNTMtOWE5Yi05YWNiN2RjNzg3NTEAAAABu2p1bWIAAAApanVtZGMyYXMAEQAQgAAAqgA4m3EDYzJwYS5hc3NlcnRpb25zAAAAANxqdW1iAAAAJmp1bWRjYm9yABEAEIAAAKoAOJtxA2MycGEuYWN0aW9ucwAAAACuY2JvcqFnYWN0aW9uc4KjZmFjdGlvbmxjMnBhLmNyZWF0ZWRtc29mdHdhcmVBZ2VudGdEQUxMwrdFcWRpZ2l0YWxTb3VyY2VUeXBleEZodHRwOi8vY3YuaXB0Yy5vcmcvbmV3c2NvZGVzL2RpZ2l0YWxzb3VyY2V0eXBlL3RyYWluZWRBbGdvcml0aG1pY01lZGlhoWZhY3Rpb25uYzJwYS5jb252ZXJ0ZWQAAACuanVtYgAAAChqdW1kY2JvcgARABCAAACqADibcQNjMnBhLmhhc2guZGF0YQAAAAB+Y2JvcqVqZXhjbHVzaW9uc4GiZXN0YXJ0GgABEJJmbGVuZ3RoGToLZG5hbWVuanVtYmYgbWFuaWZlc3RjYWxnZnNoYTI1NmRoYXNoWCBKIsLkMwtLKXTIRQqGoSosObGL538IZZPWF2qnWXWfnGNwYWRIAAAAAAAAAAAAAAG6anVtYgAAACRqdW1kYzJjbAARABCAAACqADibcQNjMnBhLmNsYWltAAAAAY5jYm9yqGhkYzp0aXRsZWppbWFnZS53ZWJwaWRjOmZvcm1hdGR3ZWJwamluc3RhbmNlSUR4LHhtcDppaWQ6Y2U1MzEyZTctZDE4MS00M2Q1LTg5NTUtMDVlMThjYWU3ODVjb2NsYWltX2dlbmVyYXRvcngZT3BlbkFJLUFQSSBjMnBhLXJzLzAuMzEuM3RjbGFpbV9nZW5lcmF0b3JfaW5mb/Zpc2lnbmF0dXJleBlzZWxmI2p1bWJmPWMycGEuc2lnbmF0dXJlamFzc2VydGlvbnOComN1cmx4J3NlbGYjanVtYmY9YzJwYS5hc3NlcnRpb25zL2MycGEuYWN0aW9uc2RoYXNoWCA8zGeI1j6QKpaE+60QGPQkXwKp2K9u9vtAGdtB7g49XqJjdXJseClzZWxmI2p1bWJmPWMycGEuYXNzZXJ0aW9ucy9jMnBhLmhhc2guZGF0YWRoYXNoWCCbw0EJBhz+6Sl8Q2lpW91lXLOLJ5GARl4L+fpfylQ1ImNhbGdmc2hhMjU2AAA2GWp1bWIAAAAoanVtZGMyY3MAEQAQgAAAqgA4m3EDYzJwYS5zaWduYXR1cmUAAAA16WNib3LShFkHt6IBJhghglkDLTCCAykwggIRoAMCAQICFCJDGWDTWl98lPyOyaqJ14AxQHh2MA0GCSqGSIb3DQEBDAUAMEoxGjAYBgNVBAMMEVdlYkNsYWltU2lnbmluZ0NBMQ0wCwYDVQQLDARMZW5zMRAwDgYDVQQKDAdUcnVlcGljMQswCQYDVQQGEwJVUzAeFw0yNDAxMzAxNTM0NTNaFw0yNTAxMjkxNTM0NTJaMFYxCzAJBgNVBAYTAlVTMQ8wDQYDVQQKDAZPcGVuQUkxEDAOBgNVBAsMB0RBTEzCt0UxJDAiBgNVBAMMG1RydWVwaWMgTGVucyBDTEkgaW4gREFMTMK3RTBZMBMGByqGSM49AgEGCCqGSM49AwEHA0IABFMGOle581QwOAY7RZJhMTh2Dg4wvUM0uZCbr1/mePjbhL7/hDPDpht1WWd6KHBiMbOOaCWaz0KjjMByktaKgqejgcUwgcIwDAYDVR0TAQH/BAIwADAfBgNVHSMEGDAWgBRaH2tm05TnsEGDfZwMe13Fc0tLszBNBggrBgEFBQcBAQRBMD8wPQYIKwYBBQUHMAGGMWh0dHA6Ly92YS50cnVlcGljLmNvbS9lamJjYS9wdWJsaWN3ZWIvc3RhdHVzL29jc3AwEwYDVR0lBAwwCgYIKwYBBQUHAwQwHQYDVR0OBBYEFAQNv/c4xhSnocSR849KBsVZ2FjZMA4GA1UdDwEB/wQEAwIFoDANBgkqhkiG9w0BAQwFAAOCAQEAIioq5qrsNjSB5FRq6ePLM5Qb41gxrWi5fG/l1JlZru86VlzuRg0mraaAEaEpFS5ik75ZlcKFU4E4bEHvAOvt8VXVtxEB4TGe4WvAsJ62G8rNkvsK73EJ2DByVxVm8GZXRdbyNf1/wLBJXiJEjVPjdlTQ3ENVm2bYmMBFOoYwEbotNTbQ/oYmHM6TLCrCk3Je94mm7avurNBhOolbJjFtxuHd31Wd3FZ0qhyyF+z1LsQQ+SOAXpmkzt2Ddbxgh/XQpuz6MnxW0fgESx49/kZv+oLCE2Q5/G0Fn8oWtekyYzRiWhJorYi1/yCxeMQCb00RpcNu4WjGeOgf5JIjeJb2xVkEfjCCBHowggJioAMCAQICFGn8kMTMiVCCOh6oX9KC/yjV/ZOQMA0GCSqGSIb3DQEBDAUAMD8xDzANBgNVBAMMBlJvb3RDQTENMAsGA1UECwwETGVuczEQMA4GA1UECgwHVHJ1ZXBpYzELMAkGA1UEBhMCVVMwHhcNMjExMjA5MjAzOTQ2WhcNMjYxMjA4MjAzOTQ1WjBKMRowGAYDVQQDDBFXZWJDbGFpbVNpZ25pbmdDQTENMAsGA1UECwwETGVuczEQMA4GA1UECgwHVHJ1ZXBpYzELMAkGA1UEBhMCVVMwggEiMA0GCSqGSIb3DQEBAQUAA4IBDwAwggEKAoIBAQDBFhLDp1DBmMzOa/iOpPHFavpylojYBTP7iuyC8mWA50GcmsThYBXHBOgoa/XH2t4KiiL6xaej9goo/gdiOwrLCXlleQ5YmpQ8li8vYtUWWMyKqJfKSJACWesINuevL6U9+3+T73exvuh6OPgUHkQXUGjh+WepF0n1v03K+/a8gaGfZEjhWAh6XKt6QfuGhjoBoe6mct4got3CqFE1nYyXq3J0MvkTm5v6u1n91NhXTMit76FxH4VsH+fYHfC9KuQ0Zoi+mROwfbHfYW3Nvm7W89/oMxdTKv8DdZajmtvnFiqRHRjHS7YDEVTW85nGcYuTvnBSuRLlxoV9aBjBArJvAgMBAAGjYzBhMA8GA1UdEwEB/wQFMAMBAf8wHwYDVR0jBBgwFoAUWLrxqfIN50UGCrApp1qXMOonPQswHQYDVR0OBBYEFFofa2bTlOewQYN9nAx7XcVzS0uzMA4GA1UdDwEB/wQEAwIBhjANBgkqhkiG9w0BAQwFAAOCAgEAdTiGehcRQvBXfAawu3fdO42FymnF5EFaM4wheoZxf0Xti3xT0KrnMbhzP3dTYaBhn6ZOherz8Mg924znkFcVsF98kTZjk6loVulFx087JxSKnJJrAV2CKwdHy9EEVj+r1EMbLjQW6tJT0KINCuWNlxdEDhm7/9lhhgbCe01bWn8OcVlfONX/duGO350pM0Bi6iWj2iYVVcnlfFAwoT9KobjdkXpLfAuoJMjUK+KV05YCzKoC1Q+1xsKy98JAACCz4ss+0dbJya1Ci2FdrL5D5/erUAehjruC7ZNvQepsqJyMBxz0H5bEJeFdvMcNpawC7bmTrWkq+OwrNjhrP8J+iIltHBBQnnfLJqFHtOQb2ThKvkuDtj0ist0EP1KFom+0EImvO16l6Dl0/AYubyPFJfuSM6sXs6ZgEBFz370+i7Ug7TkuqHcETkLEvBa2uC1BIlScnh5MwFyaEn9V3YSinECYaIrlaf/ksrubk7n/Skt1XXMs7kTKZsFhJ3HsUKkj0yFRNoGNq1aPpngJG91V8nRTM/kV5zCnSRNMuagjsrGq/qXU38rUxTe3PInYPrOuzklvTGzJSHvr81GO34zX03wA0GmYMqWUMZaYwSbnIQkdGue3WnA24NUpEp+kwm+KxW3juwkp/4KKeFWuYYkqu3vpn/1Q/55cRGK23YIn6dGiZnNpZ1RzdKFpdHN0VG9rZW5zgaFjdmFsWRdBMIIXPTADAgEAMIIXNAYJKoZIhvcNAQcCoIIXJTCCFyECAQMxDzANBglghkgBZQMEAgEFADCBgwYLKoZIhvcNAQkQAQSgdARyMHACAQEGCWCGSAGG/WwHATAxMA0GCWCGSAFlAwQCAQUABCADEPUgVtboMlTFTC41ykclRQr3OxJ8yLUPmlNoChIT+AIRAJgjJX308qM2MDtOKPzI1WgYDzIwMjQwODE5MTYwOTU5WgIJAO8HzpNQfwxcoIITCTCCBsIwggSqoAMCAQICEAVEr/OUnQg5pr/bP1/lYRYwDQYJKoZIhvcNAQELBQAwYzELMAkGA1UEBhMCVVMxFzAVBgNVBAoTDkRpZ2lDZXJ0LCBJbmMuMTswOQYDVQQDEzJEaWdpQ2VydCBUcnVzdGVkIEc0IFJTQTQwOTYgU0hBMjU2IFRpbWVTdGFtcGluZyBDQTAeFw0yMzA3MTQwMDAwMDBaFw0zNDEwMTMyMzU5NTlaMEgxCzAJBgNVBAYTAlVTMRcwFQYDVQQKEw5EaWdpQ2VydCwgSW5jLjEgMB4GA1UEAxMXRGlnaUNlcnQgVGltZXN0YW1wIDIwMjMwggIiMA0GCSqGSIb3DQEBAQUAA4ICDwAwggIKAoICAQCjU0WHHYOOW6w+VLMj4M+f1+XS512hDgncL0ijl3o7Kpxn3GIVWMGpkxGnzaqyat0QKYoeYmNp01icNXG/OpfrlFCPHCDqx5o7L5Zm42nnaf5bw9YrIBzBl5S0pVCB8s/LB6YwaMqDQtr8fwkklKSCGtpqutg7yl3eGRiF+0XqDWFsnf5xXsQGmjzwxS55DxtmUuPI1j5f2kPThPXQx/ZILV5FdZZ1/t0QoRuDwbjmUpW1R9d4KTlr4HhZl+NEK0rVlc7vCBfqgmRN/yPjyobutKQhZHDr1eWg2mOzLukF7qr2JPUdvJscsrdf3/Dudn0xmWVHVZ1KJC+sK5e+n+T9e3M+Mu5SNPvUu+vUoCw0m+PebmQZBzcBkQ8ctVHNqkxmg4hoYru8QRt4GW3k2Q/gWEH72LEs4VGvtK0VBhTqYggT02kefGRNnQ/fztFejKqrUBXJs8q818Q7aESjpTtC/XN97t0K/3k0EH6mXApYTAA+hWl1x4Nk1nXNjxJ2VqUk+tfEayG66B80mC866msBsPf7Kobse1I4qZgJoXGybHGvPrhvltXhEBP+YUcKjP7wtsfVx95sJPC/QoLKoHE9nJKTBLRpcCcNT7e1NtHJXwikcKPsCvERLmTgyyIryvEoEyFJUX4GZtM7vvrrkTjYUQfKlLfiUKHzOtOKg8tAewIDAQABo4IBizCCAYcwDgYDVR0PAQH/BAQDAgeAMAwGA1UdEwEB/wQCMAAwFgYDVR0lAQH/BAwwCgYIKwYBBQUHAwgwIAYDVR0gBBkwFzAIBgZngQwBBAIwCwYJYIZIAYb9bAcBMB8GA1UdIwQYMBaAFLoW2W1NhS9zKXaaL3WMaiCPnshvMB0GA1UdDgQWBBSltu8T5+/N0GSh1VapZTGj3tXjSTBaBgNVHR8EUzBRME+gTaBLhklodHRwOi8vY3JsMy5kaWdpY2VydC5jb20vRGlnaUNlcnRUcnVzdGVkRzRSU0E0MDk2U0hBMjU2VGltZVN0YW1waW5nQ0EuY3JsMIGQBggrBgEFBQcBAQSBgzCBgDAkBggrBgEFBQcwAYYYaHR0cDovL29jc3AuZGlnaWNlcnQuY29tMFgGCCsGAQUFBzAChkxodHRwOi8vY2FjZXJ0cy5kaWdpY2VydC5jb20vRGlnaUNlcnRUcnVzdGVkRzRSU0E0MDk2U0hBMjU2VGltZVN0YW1waW5nQ0EuY3J0MA0GCSqGSIb3DQEBCwUAA4ICAQCBGtbeoKm1mBe8cI1PijxonNgl/8ss5M3qXSKS7IwiAqm4z4Co2efjxe0mgopxLxjdTrbebNfhYJwr7e09SI64a7p8Xb3CYTdoSXej65CqEtcnhfOOHpLawkA4n13IoC4leCWdKgV6hCmYtld5j9smViuw86e9NwzYmHZPVrlSwradOKmB521BXIxp0bkrxMZ7z5z6eOKTGnaiaXXTUOREEr4gDZ6pRND45Ul3CFohxbTPmJUaVLq5vMFpGbrPFvKDNzRusEEm3d5al08zjdSNd311RaGlWCZqA0Xe2VC1UIyvVr1MxeFGxSjTredDAHDezJieGYkD6tSRN+9NUvPJYCHEVkft2hFLjDLDiOZY4rbbPvlfsELWj+MXkdGqwFXjhr+sJyxB0JozSqg21Llyln6XeThIX8rC3D0y33XWNmdaifj2p8flTzU8AL2+nCpseQHc2kTmOt44OwdeOVj0fHMxVaCAEcsUDH6uvP6k63llqmjWIso765qCNVcoFstp8jKastLYOrixRoZruhf9xHdsFWyuq69zOuhJRrfVf8y2OMDY7Bz1tqG4QyzfTkx9HmhwwHcK1ALgXGC7KP845VJa1qwXIiNO9OzTF/tQa/8Hdx9xl0RBybhG02wyfFgvZ0dl5Rtztpn5aywGRu9BHvDwX+Db2a2QgESvgBBBijCCBq4wggSWoAMCAQICEAc2N7ckVHzYR6z9KGYqXlswDQYJKoZIhvcNAQELBQAwYjELMAkGA1UEBhMCVVMxFTATBgNVBAoTDERpZ2lDZXJ0IEluYzEZMBcGA1UECxMQd3d3LmRpZ2ljZXJ0LmNvbTEhMB8GA1UEAxMYRGlnaUNlcnQgVHJ1c3RlZCBSb290IEc0MB4XDTIyMDMyMzAwMDAwMFoXDTM3MDMyMjIzNTk1OVowYzELMAkGA1UEBhMCVVMxFzAVBgNVBAoTDkRpZ2lDZXJ0LCBJbmMuMTswOQYDVQQDEzJEaWdpQ2VydCBUcnVzdGVkIEc0IFJTQTQwOTYgU0hBMjU2IFRpbWVTdGFtcGluZyBDQTCCAiIwDQYJKoZIhvcNAQEBBQADggIPADCCAgoCggIBAMaGNQZJs8E9cklRVcclA8TykTepl1Gh1tKD0Z5Mom2gsMyD+Vr2EaFEFUJfpIjzaPp985yJC3+dH54PMx9QEwsmc5Zt+FeoAn39Q7SE2hHxc7Gz7iuAhIoiGN/r2j3EF3+rGSs+QtxnjupRPfDWVtTnKC3r07G1decfBmWNlCnT2exp39mQh0YAe9tEQYncfGpXevA3eZ9drMvohGS0UvJ2R/dhgxndX7RUCyFobjchu0CsX7LeSn3O9TkSZ+8OpWNs5KbFHc02DVzV5huowWR0QKfAcsW6Th+xtVhNef7Xj3OTrCw54qVI1vCwMROpVymWJy71h6aPTnYVVSZwmCZ/oBpHIEPjQ2OAe3VuJyWQmDo4EbP29p7mO1vsgd4iFNmCKseSv6De4z6ic/rnH1pslPJSlRErWHRAKKtzQ87fSqEcazjFKfPKqpZzQmiftkaznTqj1QPgv/CiPMpC3BhIfxQ0z9JMq++bPf4OuGQq+nUoJEHtQr8FnGZJUlD0UfM2SU2LINIsVzV5K6jzRWC8I41Y99xh3pP+OcD5sjClTNfpmEpYPtMDiP6zj9NeS3YSUZPJjAw7W4oiqMEmCPkUEBIDfV8ju2TjY+Cm4T72wnSyPx4JduyrXUZ14mCjWAkBKAAOhFTuzuldyF4wEr1GnrXTdrnSDmuZDNIztM2xAgMBAAGjggFdMIIBWTASBgNVHRMBAf8ECDAGAQH/AgEAMB0GA1UdDgQWBBS6FtltTYUvcyl2mi91jGogj57IbzAfBgNVHSMEGDAWgBTs1+OC0nFdZEzfLmc/57qYrhwPTzAOBgNVHQ8BAf8EBAMCAYYwEwYDVR0lBAwwCgYIKwYBBQUHAwgwdwYIKwYBBQUHAQEEazBpMCQGCCsGAQUFBzABhhhodHRwOi8vb2NzcC5kaWdpY2VydC5jb20wQQYIKwYBBQUHMAKGNWh0dHA6Ly9jYWNlcnRzLmRpZ2ljZXJ0LmNvbS9EaWdpQ2VydFRydXN0ZWRSb290RzQuY3J0MEMGA1UdHwQ8MDowOKA2oDSGMmh0dHA6Ly9jcmwzLmRpZ2ljZXJ0LmNvbS9EaWdpQ2VydFRydXN0ZWRSb290RzQuY3JsMCAGA1UdIAQZMBcwCAYGZ4EMAQQCMAsGCWCGSAGG/WwHATANBgkqhkiG9w0BAQsFAAOCAgEAfVmOwJO2b5ipRCIBfmbW2CFC4bAYLhBNE88wU86/GPvHUF3iSyn7cIoNqilp/GnBzx0H6T5gyNgL5Vxb122H+oQgJTQxZ822EpZvxFBMYh0MCIKoFr2pVs8Vc40BIiXOlWk/R3f7cnQU1/+rT4osequFzUNf7WC2qk+RZp4snuCKrOX9jLxkJodskr2dfNBwCnzvqLx1T7pa96kQsl3p/yhUifDVinF2ZdrM8HKjI/rAJ4JErpknG6skHibBt94q6/aesXmZgaNWhqsKRcnfxI2g55j7+6adcq/Ex8HBanHZxhOACcS2n82HhyS7T6NJuXdmkfFynOlLAlKnN36TU6w7HQhJD5TNOXrd/yVjmScsPT9rp/Fmw0HNT7ZAmyEhQNC3EyTN3B14OuSereU0cZLXJmvkOHOrpgFPvT87eK1MrfvElXvtCl8zOYdBeHo46Zzh3SP9HSjTx/no8Zhf+yvYfvJGnXUsHicsJttvFXseGYs2uJPU5vIXmVnKcPA3v5gA3yAWTyf7YGcWoWa63VXAOimGsJigK+2VQbc61RWYMbRiCQ8KvYHZE/6/pNHzV9m8BPqC3jLfBInwAM1dwvnQI38AC+R2AibZ8GV2QqYphwlHK+Z/GqSFD/yYlvZVVCsfgPrA8g4r5db7qS9EFUrnEw4d2zc4GqEr9u3WfPwwggWNMIIEdaADAgECAhAOmxiO+dAt5+/bUOIIQBhaMA0GCSqGSIb3DQEBDAUAMGUxCzAJBgNVBAYTAlVTMRUwEwYDVQQKEwxEaWdpQ2VydCBJbmMxGTAXBgNVBAsTEHd3dy5kaWdpY2VydC5jb20xJDAiBgNVBAMTG0RpZ2lDZXJ0IEFzc3VyZWQgSUQgUm9vdCBDQTAeFw0yMjA4MDEwMDAwMDBaFw0zMTExMDkyMzU5NTlaMGIxCzAJBgNVBAYTAlVTMRUwEwYDVQQKEwxEaWdpQ2VydCBJbmMxGTAXBgNVBAsTEHd3dy5kaWdpY2VydC5jb20xITAfBgNVBAMTGERpZ2lDZXJ0IFRydXN0ZWQgUm9vdCBHNDCCAiIwDQYJKoZIhvcNAQEBBQADggIPADCCAgoCggIBAL/mkHNo3rvkXUo8MCIwaTPswqclLskhPfKK2FnC4SmnPVirdprNrnsbhA3EMB/zG6Q4FutWxpdtHauyefLKEdLkX9YFPFIPUh/GnhWlfr6fqVcWWVVyr2iTcMKyunWZanMylNEQRBAu34LzB4TmdDttceItDBvuINXJIB1jKS3O7F5OyJP4IWGbNOsFxl7sWxq868nPzaw0QF+xembud8hIqGZXV59UWI4MK7dPpzDZVu7Ke13jrclPXuU15zHL2pNe3I6PgNq2kZhAkHnDeMe2scS1ahg4AxCN2NQ3pC4FfYj1gj4QkXCrVYJBMtfbBHMqbpEBfCFM1LyuGwN1XXhm2ToxRJozQL8I11pJpMLmqaBn3aQnvKFPObURWBf3JFxGj2T3wWmIdph2PVldQnaHiZdpekjw4KISG2aadMreSx7nDmOu5tTvkpI6nj3cAORFJYm2mkQZK37AlLTSYW3rM9nF30sEAMx9HJXDj/chsrIRt7t/8tWMcCxBYKqxYxhElRp2Yn72gLD76GSmM9GJB+G9t+ZDpBi4pncB4Q+UDCEdslQpJYls5Q5SUUd0viastkF13nqsX40/ybzTQRESW+UQUOsxxcpyFiIJ33xMdT9j7CFfxCBRa2+xq4aLT8LWRV+dIPyhHsXAj6KxfgommfXkaS+YHS312amyHeUbAgMBAAGjggE6MIIBNjAPBgNVHRMBAf8EBTADAQH/MB0GA1UdDgQWBBTs1+OC0nFdZEzfLmc/57qYrhwPTzAfBgNVHSMEGDAWgBRF66Kv9JLLgjEtUYunpyGd823IDzAOBgNVHQ8BAf8EBAMCAYYweQYIKwYBBQUHAQEEbTBrMCQGCCsGAQUFBzABhhhodHRwOi8vb2NzcC5kaWdpY2VydC5jb20wQwYIKwYBBQUHMAKGN2h0dHA6Ly9jYWNlcnRzLmRpZ2ljZXJ0LmNvbS9EaWdpQ2VydEFzc3VyZWRJRFJvb3RDQS5jcnQwRQYDVR0fBD4wPDA6oDigNoY0aHR0cDovL2NybDMuZGlnaWNlcnQuY29tL0RpZ2lDZXJ0QXNzdXJlZElEUm9vdENBLmNybDARBgNVHSAECjAIMAYGBFUdIAAwDQYJKoZIhvcNAQEMBQADggEBAHCgv0NcVec4X6CjdBs9thbX979XB72arKGHLOyFXqkauyL4hxppVCLtpIh3bb0aFPQTSnovLbc47/T/gLn4offyct4kvFIDyE7QKt76LVbP+fT3rDB6mouyXtTP0UNEm0Mh65ZyoUi0mcudT6cGAxN3J0TU53/oWajwvy8LpunyNDzs9wPHh6jSTEAZNUZqaVSwuKFWjuyk1T3osdz9HNj0d1pcVIxv76FQPfx2CWiEn2/K2yCNNWAcAgPLILCsWKAOQGPFmCLBsln1VWvPJ6tsds5vIy30fnFqI2si/xK4VC0nftg62fC2h5b9W9FcrBjDTZ9ztwGpn1eqXijiuZQxggN2MIIDcgIBATB3MGMxCzAJBgNVBAYTAlVTMRcwFQYDVQQKEw5EaWdpQ2VydCwgSW5jLjE7MDkGA1UEAxMyRGlnaUNlcnQgVHJ1c3RlZCBHNCBSU0E0MDk2IFNIQTI1NiBUaW1lU3RhbXBpbmcgQ0ECEAVEr/OUnQg5pr/bP1/lYRYwDQYJYIZIAWUDBAIBBQCggdEwGgYJKoZIhvcNAQkDMQ0GCyqGSIb3DQEJEAEEMBwGCSqGSIb3DQEJBTEPFw0yNDA4MTkxNjA5NTlaMCsGCyqGSIb3DQEJEAIMMRwwGjAYMBYEFGbwKzLCwskPgl3OqorJxk8ZnM9AMC8GCSqGSIb3DQEJBDEiBCCu+dZx73SVSS+e+p/0AM305aWjPsIq1WEbSRfR8PwrUjA3BgsqhkiG9w0BCRACLzEoMCYwJDAiBCDS9uRt7XQizNHUQFdoQTZvgoraVZquMxavTRqa1Ax4KDANBgkqhkiG9w0BAQEFAASCAgA41p4h5GH71pIVuzF5WJUdu/FcHzC3lNP0rxumN4f3USWImYMieK3fVWIIbECa88mo2kGNpqW+7EeXuEE9bApWabx1SkqVnhAxuNqlNX7tp8YdpJT76bRR5LR8g7+7qvgocp+GN34Mt3SsDOV1r+waQifxD8TS6s13xsRvMBuyIfyuBtcn2FwjvFlMldBdZt21jz782HuN2OlVI/sMNQYR8M2jv2hjSPjX2Ty0eGW9VLCIAWcQsSqvtcnhijhyF4hh6YkZUSVIrDETkCEQ7RFzPLSgwolyh1xV1+k+3eDmMaUEAI3obBa3qxHaSn+DAoVXHyPQ4SGUGOAyFbwFDx/z3OJyoYKWtKn9+HKbz0AhpLWS2TmdaklbfrBO01+JbfFUd3ZVC7VKQuBcAFIBl+FPgqehc/8oZ6Vb61Wd3N3pWQiK6gV1CWExUGFi45PHsC5hcfuTT2D2rDqoWyZKcoNqe6HkVf6PUJD2zCzz/T/K3DyhOcQPf9pktoTS8JBZ13ub5mdRM1KtE/Zrubf2fnQipeZuET4PaJWu7MKQgITeEFMC3O7gn4j8ujG5uG52IXJ1Xq5+8somb4abzV+MEXmuMKuRuVXZhzYBmDxF0QJxt99SNlrYwqZBsRQ8tfYcrS6RVHkGn610EIilBHN2IOLkCNsOK4VhW/quElid2khgh2NwYWRZFn4AAAAAAAAAAAAAAAAAAAAAAAAAAAAAAAAAAAAAAAAAAAAAAAAAAAAAAAAAAAAAAAAAAAAAAAAAAAAAAAAAAAAAAAAAAAAAAAAAAAAAAAAAAAAAAAAAAAAAAAAAAAAAAAAAAAAAAAAAAAAAAAAAAAAAAAAAAAAAAAAAAAAAAAAAAAAAAAAAAAAAAAAAAAAAAAAAAAAAAAAAAAAAAAAAAAAAAAAAAAAAAAAAAAAAAAAAAAAAAAAAAAAAAAAAAAAAAAAAAAAAAAAAAAAAAAAAAAAAAAAAAAAAAAAAAAAAAAAAAAAAAAAAAAAAAAAAAAAAAAAAAAAAAAAAAAAAAAAAAAAAAAAAAAAAAAAAAAAAAAAAAAAAAAAAAAAAAAAAAAAAAAAAAAAAAAAAAAAAAAAAAAAAAAAAAAAAAAAAAAAAAAAAAAAAAAAAAAAAAAAAAAAAAAAAAAAAAAAAAAAAAAAAAAAAAAAAAAAAAAAAAAAAAAAAAAAAAAAAAAAAAAAAAAAAAAAAAAAAAAAAAAAAAAAAAAAAAAAAAAAAAAAAAAAAAAAAAAAAAAAAAAAAAAAAAAAAAAAAAAAAAAAAAAAAAAAAAAAAAAAAAAAAAAAAAAAAAAAAAAAAAAAAAAAAAAAAAAAAAAAAAAAAAAAAAAAAAAAAAAAAAAAAAAAAAAAAAAAAAAAAAAAAAAAAAAAAAAAAAAAAAAAAAAAAAAAAAAAAAAAAAAAAAAAAAAAAAAAAAAAAAAAAAAAAAAAAAAAAAAAAAAAAAAAAAAAAAAAAAAAAAAAAAAAAAAAAAAAAAAAAAAAAAAAAAAAAAAAAAAAAAAAAAAAAAAAAAAAAAAAAAAAAAAAAAAAAAAAAAAAAAAAAAAAAAAAAAAAAAAAAAAAAAAAAAAAAAAAAAAAAAAAAAAAAAAAAAAAAAAAAAAAAAAAAAAAAAAAAAAAAAAAAAAAAAAAAAAAAAAAAAAAAAAAAAAAAAAAAAAAAAAAAAAAAAAAAAAAAAAAAAAAAAAAAAAAAAAAAAAAAAAAAAAAAAAAAAAAAAAAAAAAAAAAAAAAAAAAAAAAAAAAAAAAAAAAAAAAAAAAAAAAAAAAAAAAAAAAAAAAAAAAAAAAAAAAAAAAAAAAAAAAAAAAAAAAAAAAAAAAAAAAAAAAAAAAAAAAAAAAAAAAAAAAAAAAAAAAAAAAAAAAAAAAAAAAAAAAAAAAAAAAAAAAAAAAAAAAAAAAAAAAAAAAAAAAAAAAAAAAAAAAAAAAAAAAAAAAAAAAAAAAAAAAAAAAAAAAAAAAAAAAAAAAAAAAAAAAAAAAAAAAAAAAAAAAAAAAAAAAAAAAAAAAAAAAAAAAAAAAAAAAAAAAAAAAAAAAAAAAAAAAAAAAAAAAAAAAAAAAAAAAAAAAAAAAAAAAAAAAAAAAAAAAAAAAAAAAAAAAAAAAAAAAAAAAAAAAAAAAAAAAAAAAAAAAAAAAAAAAAAAAAAAAAAAAAAAAAAAAAAAAAAAAAAAAAAAAAAAAAAAAAAAAAAAAAAAAAAAAAAAAAAAAAAAAAAAAAAAAAAAAAAAAAAAAAAAAAAAAAAAAAAAAAAAAAAAAAAAAAAAAAAAAAAAAAAAAAAAAAAAAAAAAAAAAAAAAAAAAAAAAAAAAAAAAAAAAAAAAAAAAAAAAAAAAAAAAAAAAAAAAAAAAAAAAAAAAAAAAAAAAAAAAAAAAAAAAAAAAAAAAAAAAAAAAAAAAAAAAAAAAAAAAAAAAAAAAAAAAAAAAAAAAAAAAAAAAAAAAAAAAAAAAAAAAAAAAAAAAAAAAAAAAAAAAAAAAAAAAAAAAAAAAAAAAAAAAAAAAAAAAAAAAAAAAAAAAAAAAAAAAAAAAAAAAAAAAAAAAAAAAAAAAAAAAAAAAAAAAAAAAAAAAAAAAAAAAAAAAAAAAAAAAAAAAAAAAAAAAAAAAAAAAAAAAAAAAAAAAAAAAAAAAAAAAAAAAAAAAAAAAAAAAAAAAAAAAAAAAAAAAAAAAAAAAAAAAAAAAAAAAAAAAAAAAAAAAAAAAAAAAAAAAAAAAAAAAAAAAAAAAAAAAAAAAAAAAAAAAAAAAAAAAAAAAAAAAAAAAAAAAAAAAAAAAAAAAAAAAAAAAAAAAAAAAAAAAAAAAAAAAAAAAAAAAAAAAAAAAAAAAAAAAAAAAAAAAAAAAAAAAAAAAAAAAAAAAAAAAAAAAAAAAAAAAAAAAAAAAAAAAAAAAAAAAAAAAAAAAAAAAAAAAAAAAAAAAAAAAAAAAAAAAAAAAAAAAAAAAAAAAAAAAAAAAAAAAAAAAAAAAAAAAAAAAAAAAAAAAAAAAAAAAAAAAAAAAAAAAAAAAAAAAAAAAAAAAAAAAAAAAAAAAAAAAAAAAAAAAAAAAAAAAAAAAAAAAAAAAAAAAAAAAAAAAAAAAAAAAAAAAAAAAAAAAAAAAAAAAAAAAAAAAAAAAAAAAAAAAAAAAAAAAAAAAAAAAAAAAAAAAAAAAAAAAAAAAAAAAAAAAAAAAAAAAAAAAAAAAAAAAAAAAAAAAAAAAAAAAAAAAAAAAAAAAAAAAAAAAAAAAAAAAAAAAAAAAAAAAAAAAAAAAAAAAAAAAAAAAAAAAAAAAAAAAAAAAAAAAAAAAAAAAAAAAAAAAAAAAAAAAAAAAAAAAAAAAAAAAAAAAAAAAAAAAAAAAAAAAAAAAAAAAAAAAAAAAAAAAAAAAAAAAAAAAAAAAAAAAAAAAAAAAAAAAAAAAAAAAAAAAAAAAAAAAAAAAAAAAAAAAAAAAAAAAAAAAAAAAAAAAAAAAAAAAAAAAAAAAAAAAAAAAAAAAAAAAAAAAAAAAAAAAAAAAAAAAAAAAAAAAAAAAAAAAAAAAAAAAAAAAAAAAAAAAAAAAAAAAAAAAAAAAAAAAAAAAAAAAAAAAAAAAAAAAAAAAAAAAAAAAAAAAAAAAAAAAAAAAAAAAAAAAAAAAAAAAAAAAAAAAAAAAAAAAAAAAAAAAAAAAAAAAAAAAAAAAAAAAAAAAAAAAAAAAAAAAAAAAAAAAAAAAAAAAAAAAAAAAAAAAAAAAAAAAAAAAAAAAAAAAAAAAAAAAAAAAAAAAAAAAAAAAAAAAAAAAAAAAAAAAAAAAAAAAAAAAAAAAAAAAAAAAAAAAAAAAAAAAAAAAAAAAAAAAAAAAAAAAAAAAAAAAAAAAAAAAAAAAAAAAAAAAAAAAAAAAAAAAAAAAAAAAAAAAAAAAAAAAAAAAAAAAAAAAAAAAAAAAAAAAAAAAAAAAAAAAAAAAAAAAAAAAAAAAAAAAAAAAAAAAAAAAAAAAAAAAAAAAAAAAAAAAAAAAAAAAAAAAAAAAAAAAAAAAAAAAAAAAAAAAAAAAAAAAAAAAAAAAAAAAAAAAAAAAAAAAAAAAAAAAAAAAAAAAAAAAAAAAAAAAAAAAAAAAAAAAAAAAAAAAAAAAAAAAAAAAAAAAAAAAAAAAAAAAAAAAAAAAAAAAAAAAAAAAAAAAAAAAAAAAAAAAAAAAAAAAAAAAAAAAAAAAAAAAAAAAAAAAAAAAAAAAAAAAAAAAAAAAAAAAAAAAAAAAAAAAAAAAAAAAAAAAAAAAAAAAAAAAAAAAAAAAAAAAAAAAAAAAAAAAAAAAAAAAAAAAAAAAAAAAAAAAAAAAAAAAAAAAAAAAAAAAAAAAAAAAAAAAAAAAAAAAAAAAAAAAAAAAAAAAAAAAAAAAAAAAAAAAAAAAAAAAAAAAAAAAAAAAAAAAAAAAAAAAAAAAAAAAAAAAAAAAAAAAAAAAAAAAAAAAAAAAAAAAAAAAAAAAAAAAAAAAAAAAAAAAAAAAAAAAAAAAAAAAAAAAAAAAAAAAAAAAAAAAAAAAAAAAAAAAAAAAAAAAAAAAAAAAAAAAAAAAAAAAAAAAAAAAAAAAAAAAAAAAAAAAAAAAAAAAAAAAAAAAAAAAAAAAAAAAAAAAAAAAAAAAAAAAAAAAAAAAAAAAAAAAAAAAAAAAAAAAAAAAAAAAAAAAAAAAAAAAAAAAAAAAAAAAAAAAAAAAAAAAAAAAAAAAAAAAAAAAAAAAAAAAAAAAAAAAAAAAAAAAAAAAAAAAAAAAAAAAAAAAAAAAAAAAAAAAAAAAAAAAAAAAAAAAAAAAAAAAAAAAAAAAAAAAAAAAAAAAAAAAAAAAAAAAAAAAAAAAAAAAAAAAAAAAAAAAAAAAAAAAAAAAAAAAAAAAAAAAAAAAAAAAAAAAAAAAAAAAAAAAAAAAAAAAAAAAAAAAAAAAAAAAAAAAAAAAAAAAAAAAAAAAAAAAAAAAAAAAAAAAAAAAAAAAAAAAAAAAAAAAAAAAAAAAAAAAAAAAAAAAAAAAAAAAAAAAAAAAAAAAAAAAAAAAAAAAAAAAAAAAAAAAAAAAAAAAAAAAAAAAAAAAAAAAAAAAAAAAAAAAAAAAAAAAAAAAAAAAAAAAAAAAAAAAAAAAAAAAAAAAAAAAAAAAAAAAAAAAAAAAAAAAAAAAAAAAAAAAAAAAAAAAAAAAAAAAAAAAAAAAAAAAAAAAAAAAAAAAAAAAAAAAAAAAAAAAAAAAAAAAAAAAAAAAAAAAAAAAAAAAAAAAAAAAAAAAAAAAAAAAAAAAAAAAAAAAAAAAAAAAAAAAAAAAAAAAAAAAAAAAAAAAAAAAAAAAAAAAAAAAAAAAAAAAAAAAAAAAAAAAAAAAAAAAAAAAAAAAAAAAAAAAAAAAAAAAAAAAAAAAAAAAAAAAAAAAAAAAAAAAAAAAAAAAAAAAAAAAAAAAAAAAAAAAAAAAAAAAAAAAAAAAAAAAAAAAAAAAAAAAAAAAAAAAAAAAAAAAAAAAAAAAAAAAAAAAAAAAAAAAAAAAAAAAAAAAAAAAAAAAAAAAAAAAAAAAAAAAAAAAAAAAAAAAAAAAAAAAAAAAAAAAAAAAAAAAAAAAAAAAAAAAAAAAAAAAAAAAAAAAAAAAAAAAAAAAAAAAAAAAAAAAAAAAAAAAAAAAAAAAAAAAAAAAAAAAAAAAAAAAAAAAAAAAAAAAAAAAAAAAAAAAAAAAAAAAAAAAAAAAAAAAAAAAAAAAAAAAAAAAAAAAAAAAAAAAAAAAAAAAAAAAAAAAAAAAAAAAAAAAAAAAAAAAAAAAAAAAAAAAAAAAAAAAAAAAAAAAAAAAAAAAAAAAAAAAAAAAAAAAAAAAAAAAAAAAAAAAAAAAAAAAAAAAAAAAAAAAAAAAAAAAAAAAAAAAAAAAAAAAAAAAAAAAAAAAAAAAAAAAAAAAAAAAAAAAAAAAAAAAAAAAAAAAAAAAAAAAAAAAAAAAAAAAAAAAAAAAAAAAAAAAAAAAAAAAAAAAAAAAAAAAAAAAAAAAAAAAAAAAAAAAAAAAAAAAAAAAAAAAAAAAAAAAAAAAAAAAAAAAAAAAAAAAAAAAAAAAAAAAAAAAAAAAAAAAAAAAAAAAAAAAAAAAAAAAAAAAAAAAAAAAAAAAAAAAAAAAAAAAAAAAAAAAAAAAAAAAAAAAAAAAAAAAAAAAAAAAAAAAAAAAAAAAAAAAAAAAAAAAAAAAAAAAAAAAAAAAAAAAAAAAAAAAAAAAAAAAAAAAAAAAAAAAAAAAAAAAAAAAAAAAAAAAAAAAAAAAAAAAAAAAAAAAAAAAAAAAAAAAAAAAAAAAAAAAAAAAAAAAAAAAAAAAAAAAAAAAAAAAAAAAAAAAAAAAAAAAAAAAAAAAAAAAAAAAAAAAAAAAAAAAAAAAAAAAAAAAAAAAAAAAAAAAAAAAAAAAAAAAAAAAAAAAAAAAAAAAAAAAAAAAAAAAAAAAAAAAAAAAAAAAAAAAAAAAAAAAAAAAAAAAAAAAAAAAAAAAAAAAAAAAAAAAAAAAAAAAAAAAAAAAAAAAAAAAAAAAAAAAAAAAAAAAAAAAAAAAAAAAAAAAAAAAAAAAAAAAAAAAAAAAAAAAAAAAAAAAAAAAAAAAAAAAAAAAAAAAAAAAAAAAAAAAAAAAAAAAAAAAAAAAAAAAAAAAAAAAAAAAAAAAAAAAAAAAAAAAAAAAAAAAAAAAAAAAAAAAAAAAAAAAAAAAAAAAAAAAAAAAAAAAAAAAAAAAAAAAAAAAAAAAAAAAAAAAAAAAAAAAAAAAAAAAAAAAAAAAAAAAAAAAAAAAAAAAAAAAAAAAAAAAAAAAAAAAAAAAAAAAAAAAAAAAAAAAAAAAAAAAAAAAAAAAAAAAAAAAAAAAAAAAAAAAAAAAAAAAAAAAAAAAAAAAAAAAAAAAAAAAAAAAAAAAAAAAAAAAAAAAAAAAAAAAAAAAAAAAAAAAAAAAAAAAAAAAAAAAAAAAAAAAAAAAAAAAAAAAAAAAAAAAAAAAAAAAAAAAAAAAAAAAAAAAAAAAAAAAAAAAAAAAAAAAAAAAAAAAAAAAAAAAAAAAAAAAAAAAAAAAAAAAAAAAAAAAAAAAAAAAAAAAAAAAAAAAAAAAAAAAAAAAAAAAAAAAAAAAAAAAAAAAAAAAAAAAAAAAAAAAAAAAAAAAAAAAAAAAAAAAAAAAAAAAAAAAAAAAAAAAAAAAAAAAAAAAAAAAAAAAAAAAAAAAAAAAAAAAAAAAAAAAAAAAAAAAAAAAAAAAAAAAAAAAAAAAAAAAAAAAAAAAAAAAAAAAAAAAAAAAAAAAAAAAAAAAAAAAAAAAAAAAAAAAAAAAAAAAAAAAAAAAAAAAAAAAAAAAAAAAAAAAAAAAAAAAAAAAAAAAAAAAAAAAAAAAAAAAAAAAAAAAAAAAAAAAAAAAAAAAAAAAAAAAAAAAAAAAAAAAAAAAAAAAAAAAAAAAAAAAAAAAAAAAAAAAAAAAAAAAAAAAAAAAAAAAAAAAAAAAAAAAAAAAAAAAAAAAAAAAAAAAAAAAAAAAAAAAAAAAAAAAAAAAAAAAAAAAAAAAAAAAAAAAAAAAAAAAAAAAAAAAAAAAAAAAAAAAAAAAAAAAAAAAAAAAAAAAAAAAAAAAAAAAAAAAAAAAAAAAAAAAAAAAAAAAAAAAAAAAAAAAAAAAAAAAAAAAAAAAAAAAAAAAAAAAAAAAAAAAAAAAAAAAAAAAAAAAAAAAAAAAAAAAAAAAAAAAAAAAAAAAAAAAAAAAAAAAAAAAAAAAAAAAAAAAAAAAAAAAAAAAAAAAAAAAAAAAAAAAAAAAAAAAAAAAAAAAAAAAAAAAAAAAAAAAAAAAAAAAAAAAAAAAAAAAAAAAAAAAAAAAAAAAAAAAAAAAAAAAAAAAAAAAAAAAAAAAAAAAAAAAAAAAAAAAAAAAAAAAAAAAAAAAAAAAAAAAAAAAAAAAAAAAAAAAAAAAAAAAAAAAAAAAAAAAAAAAAAAAAAAAAAAAAAAAAAAAAAAAAAAAAAAAAAAAAAAAAAAAAAAAAAAAAAAAAAAAAAAAAAAAAAAAAAAAAAAAAAAAAAAAAAAAAAAAAAAAAAAAAAAAAAAAAAAAAAAAAAAAAAAAAAAAAAAAAAAAAAAAAAAAAAAAAAAAAAAAAAAAAAAAAAAAAAAAAAAAAAAAAAAAAAAAAAAAAAAAAAAAAAAAAAAAAAAAAAAAAAAAAAAAAAAAAAAAAAAAAAAAAAAAAAAAAAAAAAAAAAAAAAAAAAAAAAAAAAAAAAAAAAAAAAAAAAAAAAAAAAAAAAAAAAAAAAAAAAAAAAAAAAAAAAAAAAAAAAAAAAAAAAAAAAAAAAAAAAAAAAAAAAAAAAAAAAAAAAAAAAAAAAAAAAAAAAAAAAAAAAAAAAAAAAAAAAAAAAAAAAAAAAAAAAAAAAAAAAAAAAAAAAAAA9lhAE9apSuRBnnm3ghqs4S0goQ3AkeLou6jmALZ2gBMxSeQrEy4GUYWhAq5TlthTgzWQK1pN3BCQIHNnU6osW6oQLAAA4apqdW1iAAAAR2p1bWRjMm1hABEAEIAAAKoAOJtxA3Vybjp1dWlkOjVhODg3NWRlLTYwOTctNDEzNi1hZTU0LTkyYmU4MmRhODk2MAAAAKkianVtYgAAAClqdW1kYzJhcwARABCAAACqADibcQNjMnBhLmFzc2VydGlvbnMAAACmn2p1bWIAAAA4anVtZEDLDDK7ikidpwsq1vR/Q2kDYzJwYS50aHVtYm5haWwuaW5ncmVkaWVudC5qcGVnAAAAABRiZmRiAGltYWdlL2pwZWcAAACmS2JpZGL/2P/gABBKRklGAAECAAABAAEAAP/AABEIAfQB9AMBEQACEQEDEQH/2wBDAAYEBQYFBAYGBQYHBwYIChAKCgkJChQODwwQFxQYGBcUFhYaHSUfGhsjHBYWICwgIyYnKSopGR8tMC0oMCUoKSj/2wBDAQcHBwoIChMKChMoGhYaKCgoKCgoKCgoKCgoKCgoKCgoKCgoKCgoKCgoKCgoKCgoKCgoKCgoKCgoKCgoKCgoKCj/xAAfAAABBQEBAQEBAQAAAAAAAAAAAQIDBAUGBwgJCgv/xAC1EAACAQMDAgQDBQUEBAAAAX0BAgMABBEFEiExQQYTUWEHInEUMoGRoQgjQrHBFVLR8CQzYnKCCQoWFxgZGiUmJygpKjQ1Njc4OTpDREVGR0hJSlNUVVZXWFlaY2RlZmdoaWpzdHV2d3h5eoOEhYaHiImKkpOUlZaXmJmaoqOkpaanqKmqsrO0tba3uLm6wsPExcbHyMnK0tPU1dbX2Nna4eLj5OXm5+jp6vHy8/T19vf4+fr/xAAfAQADAQEBAQEBAQEBAAAAAAAAAQIDBAUGBwgJCgv/xAC1EQACAQIEBAMEBwUEBAABAncAAQIDEQQFITEGEkFRB2FxEyIygQgUQpGhscEJIzNS8BVictEKFiQ04SXxFxgZGiYnKCkqNTY3ODk6Q0RFRkdISUpTVFVWV1hZWmNkZWZnaGlqc3R1dnd4eXqCg4SFhoeIiYqSk5SVlpeYmZqio6Slpqeoqaqys7S1tre4ubrCw8TFxsfIycrS09TV1tfY2dri4+Tl5ufo6ery8/T19vf4+fr/2gAMAwEAAhEDEQA/APY8/Ma5LmtgyfU0XYWQh69aQxaQBQMQ0AJQAtABigAoAQ0wCkAooAWmIM0hhQAUCE/GgBaBhQAlMQlABSAWgAoGFABQAUCFoAKYBSAQ0AGKAEIpgFAxaQC0AFABQAUAFACEUAJigBaAFoAKACgBMUAGKACgA/GgQUAJQMWgAoASgAoAWgAoAM0ALn3piDPvSATNACnqaYDaQBmgAzQAUALQAhoAKACgAoAKCgpCFpiEoAKACgAoHYKBCigANACUALQAUAFAC0AFABQAUAFABQAUAFABQAhoASgYooELQMKACgQUAFAxM0CEoAWgYtAhKACgBKCgNAgoAKACgAoAKACgAoAKQwpiCgAoEHNAWCgBKQD26mqAbSASgAoCwtA7AaAEoEL2oAKBhSAKYxaQgpgGKBAKACgAxQMMUAFAgoAKAFoGFABQIKACgAoAKYBQAUgCgBaACgBKAExQMKAFoAKBBQAUAFAxtAWCgBRQAtACUCEoGBpDEoAKYC0ALQISgAzQAlAAKAFoGFIApiCgAoEFAxKBDz1NADaACgAoGFAC4oATFAAKACkMKYmLQAtABSAKYBQAUAFABSASmAUAFABQAtABQIKACgAoAKYwoEFIAoABQAtACUAFABQAUAFABQAUAIaRQlABQAUxC0CA0AFACUFBSAWmIWgApAIaYDaACgAoAKACgBRQAUAFAgoGFAhx6mgBKAEoAKBi0AFACUAFAwpAFMTFoELQAhoGJQAUALQFgzQIBQAtIYUwENABSGLTEFAgoAKACgYUCCgAoAKACgAoAMUAFABQAUAFABQAUDENACUDCgQUALQIMUALQMQ0AJSGFMBaBBmgANACUAFABQMKACgBKBC5oEFAwoGJSJJCOTVAIcUgG0AFAwoAKACgAoAWgAoEFABQAUDCgAoAMUAGKBC0AFAwoEFABQMKACgAoAKYCgcUhCYpjCgApAGKBC0AFABQAlABQAUAFABQMKAENACUAFAC0ALQAUAFACGgBKQwoAKACmIKACgBKAFoGFABSADTASgVhaAEpDEoJJm6mqGNpCEoASgYUALQIKBi0AFACGgQlAC0AhaBhQAUAFABQIKACgAoAKACgYUAFABQAUALTAKACgQUAFABQAUAFIAoAKACmAlIAoGFABQAlAgxQAtABQMKACgAoAbQAUALQAUAJQAUABoAKACgApDCgAoAKYBQISgRI3U0xiUhCUABoASgdgpCHUxhQAlAgNABQAUDFoASgAFAC0AFAgoAKACgBRQAlABQMKACgAFMBaACgQtABQAUAFABSAKACgBaAENADaACgAoGFAgoAKACgAoGFABQAUAJQAlACigAoAM0ABoASgQUAFIoKACgApgFAgoASgRI3U0xiUhDaACgdgpDFFAC0CENMQlAwoAKACgBaAEoAUUALQIKACgAoAUUAFACGgAxTGLQAUhC4pgGKAFpAFABQAUAFMBaBBQAlAxaAENADaQBQAUAFACGmACkAGgAoGFAgoAKACgYlIBaYCGgBKACgBRQAtADaQxDQAUAKKYgoAKQxKCR56mmMQ0CEoAKRQtAgpgLQAUAJQAhoGJQIUUAKKAFoAKQBTEKKYBSASgBaACmAlIYopiCgYtAhRSAWgAoAULQBFe3VrY2zXF9cQ21uv3pZpAij8TxVJOWkVcmUlFXk7HB678XvCumFkt7ifUphxttY8qD/vNgEfTNdVPA1p9LHPLF047anGX/AMeZd5FloUSL2M9yWJ/AKMfnXSstt8UjF4yT+FFSP476lu+fSbBh/syOP6mqeXxS3F9bn2NSy+O8TFReaCwXu0N0GP8A3yVH86zeXvoy1i7bo7LQvip4V1ZlQ3rWEzdEvV8sf99AlfzNc8sJVjra5tDFU5aXO3ieOaJZYnV43GVdTkMPY9652rOzN1qLipGIRSAQ0AJQAhpgFIAoAKBhQIMUAGKADFMApAJQAUAJQAUAFAC0DEoGFIAoAMUwCgApAFMAoFoOPU0AIaBCUAFAXFFABQAtAxDQIKAQUigpiCgBaACgAoEFADsUAGKYBigBKQBTAMUAFIApgLQAopALQBDfXlrptnLeX9xHb20Qy8sjbVX/AD6VUYuTtEmUlFXZ5B4h+L17qV+dL8C6bJPNJ8sdxJGWdj3Kx9h7t+IFehDBRgueu7I5JYiU3y0lqVLP4U694jmF/wCNtbkE55ESN5zqPTcflT6KCKznmdGj7tCNzop5ZUqe9VZ2WkfCjwlp6r5lg99IP+Wl3KXz/wABGF/SuKpmWIqfat6HfDL6EOl/U6uz0PSbFQtlpdjbAdPJt0T+QrllVnLWTZ1wpQjskWnhQjBRSPTFZ8z7mqS7GTqPh/SL5Ct7pdlOD/z0gVj+eKarThqpMHRpz0lFM4zWfhR4YvATawz2EnXNvKSM/wC62R+WK6IZtiKXW68zmqZPhqvSz8jkZvCHi3wXK1z4U1OW4gB3NFHwT/vRHKt+p9q7KebYav7tZcrPPrZLiKC5qD5kdP4O+MENxcix8WW66fc52/aFBWPPo6nlPryPXFdFXBpx5qTujihimpclVWZ6yjJLGskbK6MAyspyCD0IPeuFxadmdd0wIpDGGgQlIYUAFAC0ALigAxTACKBCGgYlIBKADFABQAUAJQAUDCkMKYBSAWgAoEJTGFBLEoAkbqaYxKQhKAEoGFACigQtAwoAKACgBM0AAoAWgAoABQIcBQBT1rWNN0O0+06vewWkJOAZGwWPoo6sfYCtIU5VHaKuROpGCvJnJJ8WfBzT+X/aUijON5tpNv8A6Dn9K6fqFa17GKxdNnaade2mp2Ud3p9xFc20gykkTBlNc04Sg7SRspKSuicisyxMUAGKAIby6trJVa8uYLdGO1WlkCAn0Ge9Uot7CbS3JOCAQcg8g+tLbcYooAUUgMjxb4j07wrpD6hqchx92KFfvzN/dUfzPQVtRoTrStEyq1Y0leR4lb2Xib4u6sbq7lNnocL4U8mOL/ZRf43x1P6jgV6VWrRwEbLWRyUaVXGyvtE9l8KeEtJ8L2nk6VbBZGAEk7/NLL/vN/QYHtXz+IxVTESvNn0OHw1OgrRWpuOyRRs8rqiKMlmOAPxrnOhRcnaKuzn77xZZW5KWqvdOO4+VfzPP6UnKx61DJa9TWfur8TFuPFmoSMfKWCJe2F3H8yf6VzVK8lsenTySjH4m2QjxJqeebhT7GNf8K4KmMqrZmv8AZOG7fiWYvE910miice2VNY/2lUWklcxlk9P7LsXYddtpjhiYmP8Ae6fnWizCMtHoc0stqU9VqTyzAjIII7EGlKspChC2hx/jPwtp/iSMtMvk3qjCXCDn6MP4h/kV04HOa2BlprHscmOyejjY3eku5xfhLxZrXw31UaXrUclxozNnYDnYM/fiJ/Vf5HmvtqM6GZ0/aUXqfFV6FbL6ns6q0PoTTL+01XT4L3T50ntZl3RyJ0I/oexHUGuCcHB8rN4yUldEzCoGMNIYUALQAoFAD1XNMCnqmp6dpMQk1S/tLJD0a4mWPP0yeaqMJS2REpxjuzLs/GXhm9nENrr2myTE4CfaFBY+2Tz+FaOhUSvYlVYPqbxFZM0GkVIxKACgAoAQ0AJQMKACgYUAFIApiFzSGJQAUCYlAiU9T9aoBDSAbQAlAwoAKAHUAFABQAhoAKAAUALQAUCAUAUfEGrQaDol7ql2CYbWIyFR1Y9lHuTgfjV04c8lEicuSLbPA/DOg6x8WNfu9U1m8eGyiba7qM7e4iiB4GB1P4nJNelicXHL4KEFeTOLD4eWKk5Seh1nif4U+G9PsI1t3u4pmP8Ar3l3E/UYx+QFfPV+IsVRqRWjT6H0eAyLD4u8He5wXhbxBffDvxU0TyNJp5cC5iH3ZYz/ABqP7wHI+hFfTxlDH4ZVY7/keDisNVyzFOhP/h13Pp6OSOaFJYXDxuoZWU5DA8givGas7M6r31FqRhQB4L8e9B1+/wDE9ve29ld3um/Z1jh8iNpBE2TuBAzgk8578enHqYKdNRs9zixMJyloelfCnTtS0zwNp9trAkS4G5lik+9EhOVU+hxzjtnHaubFyjKpeJtQUlD3jrxXIbkd7dW9hZz3d5KsNtAhkkkboqjqaqEXOXKiZSUFzPoeGaBo+ofGDxrc6pqZmg8PWjbABxhc5WJP9ojlj2/IV7NSpHBUuWHxHl0oSxtXmex79bWFtp9lFa2UMcFvCoSOOMYVQOwr5qtNzfNLc+noU1Bcsdjn/EviG30geWm2a8PSLPC+7Ht9O9ZJOWx7WBy2pi3faPf/ACPPdS1W71GbzLycsAcqg4VfoP8AJrTkSPq8NgaWGjamvn1KwkrCaOnlHhq46iJsPDV5tVE2Hbq5JRFYXNZuNwJra7ltz8jZXup6VUbxMqlCNTfc0ortLhfl+Vx1U1MrnHKlKm9TN8QaVa61p72l4uVPKuPvI3qK6cDmFXA1VUpv1Xc5cbgKeNpOnUX/AADifh94pu/h94ml0jWHJ0iaQCXuIyeky+2MZHp7iv02EqeZYZV6O/8AWh+b1aNTAV3RqH0ZuV1DKQykZBHINeS1Y6BppDExQAUAPWmBwnxZ8dDwhpiW9gUbWLpSY9wBEKdDIR35yAOmQfTB7MHhfbu72RyYmv7NWjuzzzw58J9Y8UN/bHi3ULi2Nx8+1/3lw4PQktwnsDn6Cta+Z0qHuUY3sOhgKlX3qrsXfFvwb0uxsDNpV/eLMBgLclXVj2+6oI/WvPnxFOjJe0inFs9ShkEMS3CErSsc94F8d6t4H1VdK13zZtJyFaNiWaEf34z3X/Z6emDXr8lHHU/a0XqeZWo4jL6nssQrH0fHJHNEksTq8bqGVlOQwIyCK8hpxdmdF76iGpGJQAUAJQAtABQMKAA0AJSGFMTCgYUgFFAhKYrEjdT9aYDaQCGgBKBhQAUCFoGLSAKYBQIKBhQAZpiCkACmBw/xsikk+G+p7MkK0LMB6eav/wBaurB29srnNi7+ydjnfgpr9tYeApIUjEtxDdv5iBtpAYAqTx6DH4V5XENWeHr3cbpnr5BhVjafJGVrblnxFr0+sXC71EcMZOxBz+JPc18y6kqslNn6Hl2WU8FG6d2+p5Z8SWR72zC480REt9CeP5GvteHOZ0pt7XPiONnBV6SXxWd/S+n6n0X8Po5YvAnh9LgESCwhyD1A2DA/LFOvb2jseDS+BXN2sTQKADBoAXFMBVXmkB4p8Y9Yu/EPivT/AATorZJlQXGDw8rYKhv9lVO4/X/Zr1MHGNGm68zzMXKVWaowPd/D+k2mhaHZ6bYIq29tGEBAxuPdj7k8mvHr13Vk5M9jD0FRioI4jx74u+zSSWGmSfvhxJKP4PYe/wDKsIU3N+R9nk2T+1SrV1p0Xc81aYsxZ2LOTkknJNdKppH16pqKskJ5nvxUT0K5TF1XxVZacxjG6eYdVToPqa1oZbWxOq0XdnzOa8TYLL26d+efZdPV9PxfkZNvrvibWyf7D0ud484zb27S4+rYx/KvSjkmDpL9/K783b8D4vEcW5hiZfuI8i8ld/e/8i6mifER/nGnah+IQfoTSlgcrtblX4nH/a2b35vaP8CG71XxboAD6zpNwsGQC89uyKfYOOM/nXFU4ewGI/hS5X5O/wCDOyjxVmGHd6y5l5q34o29B8WWGqMsTN9nuT0ik4yfY9D/ADr5zMMgxWCTnbmj3X6rf9D67LOI8HmFoJ8s+z/R9fz8jogc968Ox74hODkEgjuKaC19GXbecyLhvvj9a5qsOXVHPOHKznfH2jJq2jPJGgN5bgvGQOWHdfx/nXu8N5nLA4lQk/clo/8AM8DPcrWMw7lFe/HVf5HS/AXxW2saDJo17JvvdNAEZJ5eA8L/AN8n5fptr7rMsPyT9pHZnwGFqOUeV7o9RIryzqFC0ANIoAcvSgDw2/ij1/8AaNgtbtd9vbuuEYZH7qDzMY9N4J/GvVnL2OBbXU8+mlUxiT6Hu1y8dvC8txIsca8lmOAK+XnUjBOUnZH0lOEptRirtnmfi7xRDfMYLJXMS8b2GMn1xXk1IVMZUTWkV+J9plWUToL2lV6nlXj62E2lJdHmSFwM/wCy3BH54r6rI26NfkWzPP40wkKmC9rbWLPX/gfey3vw6sVmYs1tJJbgn+6Gyo/AMB+FdmPjy1nY+Aw0r00zumriNxpoASgBcUAFAC0AFAxDQAlAwoAKAFoEBoAbSEPPU0xiGgQlACigYYoEGKAAUALQMKACgQUDCgQUAIaAAUwIr+zt9S0+6sb1N9tcxtFIvfBGOPeqjJxakiZRUlZnzdr/AIc174day9xCGmsGyq3IUmKVCfuvj7rex79Ca9OrTw+ZUvZ1f69DkwtfEZZV9rR/4D9SvJ41YxfJYBZD3MuVH6V5MOFUpa1Pd9NfzPq5cffu7Ro+966fkbPw/wDA9/4y1ddV1mN49IDB3dht+0Y/gT/Z7E+nTmvYc6GBoqhR3R8rUq1sxrvEV+v9WPowYVQFAAHAAGAK8l6nYNPWkADrSAeozwKLgc5rHjjwxoztHqGuWSSrw0aP5rr9VTJH5VrChUn8KMpVYR3Zz158ZfCNvFKbW6nuplQmNRbSKrNjgEsBjmuiOX1m1daGUsXBLQ8o+FHinSdM8aX/AIh8UXLm9cMYmETOC8hPmPwOOMj/AIEfSurMqVWVNUaCukLLVS53Urys+m57Br/xT0y4sfI8PXSzXEq4MnTyx9Dzn8K8JYOtHWorI+2yXA0MbVvKoml0vq/kebyXO4kk5YnJJ712Rgloj9EjS5VZDS/GTwO9Vyt6IbtFNswJLnU/EepLpPh2F5WfgshxkdyT/Co9T/8Ar9Shl9PDx9vivkj8qz/i2pi6jwmWu0esur9Oy/FnrHgr4QaPpEUdxrqpql/wSrj9wh9Av8X1br6CuTEZhUqO0PdR8xRwsYay1Z6XFFHDEsUMaRxoMKiKAAPYVwNt6s7Fpoh1KxSGSRpLG0cqK6MMMrDII9CKd7aoT13PKvH/AMH7LVY5LzwwsdlfgZNt92GX2H9w/Tj6da9HD5hOHuVNUcNbBqXvU9Geb+GddutOv20bXlkimjfygZhhkYcbWz+hrxs7yWM4/WsKvNpfmj67hziGXMsHjH5Rk/yf6M7kHNfHWPvRysUYMOoolFSVmS1fRlkyBwCO9cXK4sy5LHnPhm5Pg74sWz52Wjz+S/YeTLxn6KSD/wABr9bwNdZjlsZPdLX1R+S5nh3l+Yzh0buvRn1Aw6+teTaxY0k0gGk0AKtMD58+Kdxd+Evi8muWqlTKkc6EDqNnlOB78H8xXqql9bwUqN7P+rHnqaw2MjVkrq6uu66nS3etPqdhFdG9e6jlGYyXJH4DtX5i6FZYj2OIvddz9fy+nh6iVTDpcr6oxXOa96lZKx7iOU8c6lH9jXT42DSOwaTH8IHIB9ycV9Jk2GlKp7aWyPgeNc0pKj9Sg7ye/ke9/C/Q5PD/AIH06zuVKXTKZ5lPVWc5wfcDA/CnjKiqVW1sfF4aDjTSZ0zVyG400AFAC0DCgQUAFAwoASgBKACgB1IBDTAbQIeepoGIaBCUAOoAKAEoAWgAoGFAgoAKACgAoASgBKAHA0wBlV1KsAVIwQRkEUDM2Pw5oaTeaui6WJc53i0jDfniq9pK1rkckL3sa44AA6elSUtAJoAUAntQB5v41+Lei6A81ppqnVNSQ7SsZxCjejP3x6Ln0yK7KOCqVdXojlq4qMNFqzj5NF+JfxCiD6lKul6ZL0hkYwIV/wCuYy7f8D/OutPC4bzZyTlVq7uyN/RvgNosEanV9SvLuXuIAsKfTkMf1FKeZyX8OKRHsF1Z0UPwf8FxrhtLklPq91Ln9GFYvH15dR+yiNn+Dng2Qfu9PmgPrHdSH/0ImiOLq33CStscxrXwMtdrNourTRsOVS7QOCf95cY/I1usU38SIUnF3T1OG1rwp4s8JxNPd25ubFPvSxN5qAep/iUe5AFV7KhV8mfQYDi3McE1FT549pa/juvvMbUdcbUrKKys4ZRcTuqEDndk4Crjrk4rTD4dUp89R6I9TPeLlmOC+rUIuMpfF6dk/P0Po74d+DIPCWhxwkI+oSqGuphyWb+6D/dHQfn3rgxeLeInd7dD5zD4ZUI269TqDXEdJi+MNcj8N+Gr/V5YmmW1QMI1ONzFgqjPYZIyewq6UHUmoomcuVXOB+FnxQu/FetyaXqljbwytG0sMltuC4XqGDE/nn2xXXicGqMeZM56GJdSXK0erVwHWKDg8UCPK/jz4KXWdIbxDp0YGoWSf6Uo486Efxf7y/yz6CvSwGJ5ZezlszixVG6547nD+BNWbU9GKzktc2xEbsf4h/C35cfga+Uz/L1hMTzQXuy1+fVH6Rw1mjx+F5aj9+Gj8+zOgaUCvER9LyhFPg4IOO1ZVIp6ilA4r4o2YP2K+UYLAwOf1X/2avsuDsV/Ewz9V+TPzzjXCW9nil00/VfqfQngbV/+Eg8IaVqhOZLiAeZ/10XKv/48rV3Yml7Kq4nz9KfPBM2WWuc0GY5pgKKBGF428K6f4v0c2OoqUkQloLhB88Leo9QeMjv9QCN6FeVCV4mVWlGorM8Rufh34y8NSSDTkW+tS2c25DA/8AbBB+n5111oYDHa1laXf+v1LwWPzLK3/sstH03X3P8AQrJpPjq/byI9EvoS3y7jbGEf99PwPrmsqeXZfRfNzX9WejX4qznER9mrR80tfxv+B23w8+FM1jqkeq+JzE8sTeZFaq2/L9dzt0ODzgZyep7HbEY6Lj7OirI8Snhpyn7Ss7v7z14mvMO0YaQBQAUDEoEGaBhQIKACgYGgBKAFoAWgBDQA2gQ89TQMQ0CAUABoAQ0DCgB1ABQAUCCgAoAKACkMaaBiE0AKvWmIcKBCigBwpgOXrQB5F8VvHNxc3beE/Coae9nbyLmWI8gngxIfXsx7dPXHo4PC6e1q7I8/FYiz9nDc3fhl8L7Hw1HDf6okd3rOAwYjKW59EHr/ALX5Y7mKxjqe7HRGVOmo6vc9LxXnrcuUlFXZi6h4j0+yYr5jTuP4YeR+fSvRoZbXrK70XmeFi8/w1DSPvPyMW48buDiDTxj1eXP6AV3xyeK+KZ5E+KZ/YpkA8cXX8VlCR7ORWn9lQX2jL/WOu9eVGhaeMbSchbiGSAnqfvKP6/pWM8vlH4Xc7qOfU5aVFY2orqK4iEkEiyIehU5rllTlB2Z61PEwqR5oO6PLfiD8Oort/wC1/Co+xavE4l8uJ/LWRgc5Uj7j55BGB/OuiE3bllqgjX5HdkXgb4ttFONG8bqba7jPli7ZNoz6Sj+E/wC0OPXHWuTE4K3vU/uPbw+LU1aX3nsCusih0YMrDIIOQRXmeR2lfUbO31Cxns72JZradDHJG3RlPUVSk4u6CyasznPBvgfRPCLzyaVDIZ5uGmmfe4XOdoOBgfz4znFa1sTUraSZnCjCm7o6nNc5qUdZ1nTdEtPtOr3sFpD0DSvjcfQDqT7CqjGU3aKuROSirs8y8R/G/R44prTR9Mn1IyAx75z5MbA8cDBY/Qha76WX1H70nY4p4uO0Vc8t8L+D/G06O2jaVqEMUwAZ5AIAwHQgyEZ69q9DEwwlayxFpWMsLisThW3h5ON9zqo/hB42vBuub+zgbv515Ix/8dUj9aw58FBWhTX3DeLxlR3nVf3se3wS8WgZTWdMJ/67zD/2SpdTDf8APtfcDr11/wAvH97M7Ufg/wCOliKeZaXyA7gkd4ev0cKO9XSq4eEuaEUn6EVKlWpHlnJteo7S9d+Ivw601LKbR/8AiWwuzYnt/MjXJyf3kZ45yetVUo0cQ+ZvUVOtKkuVbHZeGPjjpV86Ra/ZSaa548+NvOiz74G4fka5auWzirw1OmGMi9JaHqWnX9nqlol1p11DdWz/AHZInDKfxFcEoODtI7E01dFnFIYUAKBSGh+KQDW6UCIzQA2gAoAKBiGgBKACgAoAKBBQMKAFoAWgBDQA2gRI3U0xjTSEAoADQMSgApDFzTEFAC0AFABQIAKBgRSAYetABigYqjmgRIBxTELigBdtAHCfF3xj/wAIxogtrKTGrXoKxYPMSdGk/oPfnsa68HQ9rO72RzYqt7GGm7Ivgv4ATRtNj1vVYc6rdJuiVxzbxkf+hMOvoDj1rpxeI5vcjscOHo2XPPdnplzJDawPNM4SJBksa4YQlUkox3Kr1oUIOc3ojgtd1qfUmaNMxWvaPP3vdv8ADpX0mDwUMOuZ6yPgMzzWrjJ8qdodv8zn5FIrvTPISSIGU0i+VEZBzQVYUCgZasL2exl327lfVT0b6ionTjNWkXSr1KLvBnX6ZqsWoRkD5JgMshP6j2rzqtB035HvYbGxrxs9Gcx8QPB9j4oti5CwajGuIrkDr/st6j+Xb3qCubQxksNK+6OD8AeOr/wHqraB4nWU6WrbQfvG2z/Evqh9B9R3B4cVg+b3o7n1eBxsasFKLumfQ9vPDeW0VxaypNBKodJEYMrA9CCK8dpp2Z6idyO8uLeytZLm8migt4l3PLKwVVHqSeBQk3ogbS1Z494w+L73NyNJ8CWst5ezHYl15RbJ/wCmceMsfcjHsRXoUMvk/fquyOKri18MCr4f+EGueIboan471OaJ3GTCsglnI9CxyqD2G78K6Hi6dBctJHI4Sk7yZ634Z8GeH/DSL/Y+mQQzAYM7DfKf+Btk/gOPauGpiKlV+8yrJaI6D6VmDYlWkQ5JDSwFWkxe1j3ANSsHOnsI1NA5HGeK/h14b8SLI13YJb3bf8vVqBHJn1OOG/EGuinWqU9mZtp7nkWseCPFnw4uZNU8MX8tzYjmR4V5A/6aRHII9xnHXiuxVKWJXLVWpVOtKm/dZ3nw3+KVp4kaPT9XWOx1Y4CYOIrg/wCyT0b/AGSfoT0rzsRgnS96OqPSo4hT0ejPSsVwnSOUUAeSfGX4m6n4R1yy0rRra33tAtzNNcKWDAswCqARgfLyffjGK7sJhY1YuUjmr1pQdkejeFtXGv8AhrTdV8owm7gWUx5ztPcD1GQcH0xXLWh7ObijenLmjc0GrIobQAUDFoASgBKACgYUAFAgoAKACgQooADQCG0APbqaYxKQhKAFoGJQAUhi0wDFAhaACgAoAUUCA0AMxzQA7HFACigB60AcB41+Kmi+HHktbX/iZainBiifEcZ9Hfnn2GT64rqoYOpW12Rz1cTCnpuzzu01b4l+OpGm0xp7OwkPyvFi2hUf7L/eb8C1dM/qeF0m7silSxOJ1jojD+Gugy+IfihHZ6pMb6K0kkmuZS5cSrGcDk8lWbaOezV0zqKNG6VrnHKnaq4t3sfWLSE5JPJryGzobOG8Rag1/dGNWP2eM4UZ4J9a97A4dUoczWrPic3xbxFRxT91GSIc9q9JM8CUbHAeKviDp+mTtb2EX26VeGcPtjB9jg7vw496iVW2x6mEyWpXXNUfKvxOTb4j6m5LJZWgT6Mf1zWX1jW2h7K4ahbmvL+vkX7D4iK7Bb+xKerQvu/Q/wCNbRq3WqOGvkEo/wAOfyZ2em6jaalB5tlOkq99p5H1Hatk01ozxK1CpRly1FYtZoMrCo7RuHjYqw6EHBFDSejCLcXdG1a6sbiIRztiYfxf3v8A69c/suWV1sdTxDnHlluYHirQLPxHZtFdKFuFBEU4HzIf6j2rSdNTWosHmVTAz5o6rqjh/BPjbV/htq02katE91pa7j9nUjKkjIaNj0BPUe5OM15GIy/2r03P0TA5lCtSVWm7pm/pujeLPi3erfa3cSad4dD740UYUj0jU/eP+23vj+7WcpUcGuWKvItynXd5PQ9m8K+D9D8Lw7dG0+KGUrtedhulcf7Tnn8OntXnVcRUrfEy1BR2Ny5uIbWEy3MqRRj+Jzj/APXUQpyqPlgrsxr4inQjzVZWRy+oeMo1JTTbfzD/AM9Jsqv4KOT+levQyeUletK3kv8AM+YxnEsV7uHjfzf+RgXPiDVJyd126A9owFA/LmvUhgMPTWkfvPCqZvjKz96dvTQoTXl3L/rLu4f/AHpGP9a29lTW0Uc7r1pbyf3lZvMJyXY/jT5Y9ieafdksMtxEcxXEyH/Zcik6cHvFGkatWO0n95o2+t6nARtvJGHpJhs/nWEsHRn9k6qeZYqntP79Tf07xVHIQl/H5R/56Jkr+I6j9a4amXuOtN3PXw+dqT5ayt5o6GOSOaNZIZFdG5DKcg1xODi7M9mNSNRc0XdHmPxH+GFlrcMt9oUUdnqwy5RRtjuD6EdFb/a/P1G0Kjjo9jWNXlepn/CPx9cPef8ACMeKXlTUo3MdvNOfmcjrE5P8XoT16dcZ5sVhkl7SGx7GHrqXutnsVecdZi+IvCmh+I3gk1vTILuSDiN3yCBnOMgjIz2PFaQrTpq0HYiUIy3Rpxxx28CQwRrHFGoREQYVVAwAAOgxWe7uy/JDTQA2kNDhQAtACUAFABQMSkAooEBpgFABigAoEBoGJigLCnqaEAlAgoAKBhQAUhiigBaYgoAKACgQUwCkACgB1AA5SOJ5JXVI0BZmY4Cgckk9hTSbdkJux4f438f6l4q1L/hHvBEcxhlyjzR/K8474P8AAnvwT3wOD6lLCwoR9rXOGdSdeXs6R0Hgj4UaXo6xXWuLHqWoDnYwzBEfZT94+7fkK83F5pUq+7T92J62Fy2nS96erO28R63a6Ho15cPPBHNBbu8URcAsQpIAH1ArzqUXOaiup6rhP2cpqLsl20PM/wBmbTxv1zUXGXAit0b2JZm/klfR412jGJ8bSfM22e1atIYtOuHU4O3APoTx/WuTDQ56iTIxk3ToSkuxw6x4NfR8x8JKDOJ+LetS6Xo8FhauVnvd28qeRGOo/EnH4Gq50tWdeWYP21Xnl029TndI03TdKs4h9jgvNRIDSz3EYcRt/dQHsOme9fPV6tfFVHJu0eiP6F4f4Wo4ajGdaKcnr/XYtTSNMczNu9uw/CtYUlFH2caMYrlitDNvdNsronzbeMsf4gMH8xzWkfd+FnLicpweMVsRSUvlr9+5z2p6ZcaC632n3LKoIHBwy+3uK7KOIadnuflvE/BsMJSlXou9PqnuvR9fzOo8M+M4rxkttTCwTnhZeiOff0P6fSvTjU5viPyXGZRKmnOjqu3U7FmFaWPEsNBOfcUA0ZHijxfDo0DQwhZtSI4jP3UH95v8O/t1rOUrbHdgMqli5c89Ifn6f5ml8MvhvJrcq+JPGoed5TvgtJVwHHZnH930Tpj24rw8Xj5J8lJ/M+6wuFp0IKEVZLoe5pGEVVRQqgYAAwAK8Zu+rOt7HO+IPE8Gn74LPbPdjg90Q+/qfavUweWyre9U0j+LPn8yzuGHTp0dZfgjhLu6ub6Yy3czyv6sensB2r6ClShSXLBWR8ZXr1K8uerK7ERCelaXMGkPMeASeg6mk2wSvsY174i0azYrPqVsGHVVfeR+AzUe0j3O+jl+Jq/DBlA+NdBzgX3/AJCf/Cp9tBbs6v7Hxn8n4ov2Wv6VeECC/t2Y9FLhT+Rqo1YS0TOWrgcRS+ODNWtGciHDpUjZb0+9uLCXfbybc/eU8q31FZVKUaitI1oYmphpc0H8js9L1OHUYjtGyZRloz/MeoryqtF03rsfUYPGwxUdNH2PI/jv4TYNH4n07cskZVLrZwRg4SQH1HAP/AfQ1eHkn7kup6dGbTsd/wDCrxcvizwxHNOw/tK1Ihu16fNjh/ow5+uR2rycXQdGpboe/Rq+0jfqdiz1zGhETQA00hjcc0DFoAWgAoAKAEoAMUgCgANMAoGFAhaQCGgBKAsO7mhDe4hpkiUAFAxaACkMKAFpiENAAKAFoAKBBQAopgSIMmgR5B8W/ElzruqReCfDANxcSybbtoz1Yc+Xn0GMse2MdjXo4SkqadapsjhxNVzao09ztvAvgmy8JaYIYQs19IAbm6xy59B6KOw/E15eOxksRK/RHsYLCqhHzMPxn4xa3llsdIceYuVkn67T3C+/vWFGg56s+3yfJVWSq4jbt/meWa0WbTr2aVmklZGLMxySfWvToQSnE9jPaUYZbWUdEos9F/ZoZW8I6p/f+3nP08tMf1rrx795H4lQ2PUdcH/EtcerKP1rHCfxEcuZfwGjnEgyRxXr858x7I8b+NSND400wy/6g2seCemBI+f5/rSnLmgz6DIIwhVgpfzIQ8E156asf0zC3KrbDGJJpNmiRDcTxW0ZkncIo9e9Srt2jqzlxmOw+CpupiJqKIPDvhzVPHmrKYEaDSom2tcMvyoO+P7z+w6cZx1rd1o4WN3rI/GM9zStntfS8aS2X6+p6f4s+E2k6lokMGjxpZX9rHtilPSbviXHUk/xdRn04rlo4+cZNz1TPPlhIcqUN0eW6dqWp+FNSXSfFEE0MI4VnXcUHYqR95fpn29K92ji4yWmqPmcyyhVLzpq0vzNPxH4shhiW20OQXN1KABIg3BM9MDu3t2/SuiVWNrpnkYHKJ1J81dWS6d/+AdR8K/hbIlyuueLIS1zu8yG0l+Yhuu+T1Pop/HnivDxeN5vcp7H2VKioJHuCAKpZiAo5JJ6V5dm3ZGsmoLmexxPijxSZt1ppTlYujzDgt7L6D37/wA/cwOW8v7ytv2Pjc2zt1m6OHdo9X3ORRM17DPmh8zQ2lu093KkEK9XkYKB+JqXJIuEJVHywV2chrHj2IXC2Xhu2k1C8kO1W2MVJ9FUfMx/L8aznUUVd7HuYHIKlZ3r6eXX/gHE6j/wkWseIG0rWJ5obpeXhmyqxjbu+4OOmK4K2MUKftN0fbZLkNKriFhaKUX3epqW/gi2C/6Td3Eh/wBgKg/UGvHlm838CSP0ahwVhYfxqjb8rL/Mmbwbp2OGuB/wIf4Vk80q+X3Hd/qhlz25vv8A+AZmseF4rKxnuIbiQ+Uhba4Bzjt2row2ZSnUUGtzx824Rw2HwtTEU6j91N2dn/kN8MR+KV0+XUtCiuZ7K3fZKiDzFXjPKdcY7gceor2nXjTly3sfmVTLaeKg3ON/Pqdz4U8Y22suttcqLa+PRM5WT/dPr7H9a7IVVP1PlcflU8MueHvR/Fep1y9q0seKyzbO8MqyRMVdTkEVnOCkrMqnUlSkpweqOrLW+s6XLDcRq8UyGKaI9MEYIryJ03SkfYYTFLEwVRb9TwbwXcy/Dz4qPp185Synf7JK7cBkbmKT88c9gWq8ZBV6PPHoe/gqtpW7n0cxrwD1htIAoGJQAtABQAUAFABQAUAFACGgBKQwoAdQIQ0DG0Ejz1NAxDTEFACUDFFABQAUAFAC0AFABQAtAgoAUUxHO/ETxH/wi3hG81CMgXbYgtgf+erZwfwALf8AAa6MNS9rUUTKvU9nBs5D9nzwqYtOufFGoKTNdbobUseSmf3j/iRtz7N61tmVdJeyiYZXRcpOrI9G8W6l/ZHh++vB9+OM7P8AePC/qRXhRi5zUUfTUFeSTPBpyNx5yepNe1GCirH6jgoONNNlW7hNzZTwjkvGyj64q17rTFmND6xhalL+aLX4G9+zHqQS81zS3b5pEjuY1/3SVf8A9CSuvHx0jI/AKOl49T3HWZB/Zk567AHOOuAQT+gNcmHVpowxvvUpIzLdAVDDBBHBrtcraHiqFzg/jb4ak1fw5FqFpGXudOJdlUZLRH735YB+gNVCotmduGTg7nk2ma/bfYUW7lKzRjaflJ3ehrGeHqJ+6rpn7NkvF+DWCisXO046evmMm8QPI4j0+3Z5GO1dwySfZRWsMJJK9R2RwZjx5f3MDTv5v/I7Dwl8MNW1+aO88USy2dp1EPAmcemOiD68+3euatjKdJOFBa9z4+vUxWYVPbYyV/L+tj3fTrK30+ygtLKFILaFQkcaDAUV5d23dm1lFWRYcqiM7sFRQWZmOAAOpJp7kvQ8H+L/AIusPFktt4f8O2w1GdZhtukUsS3TbFjqD3PQ44z1r1MJQdJOrN2R5+IqqfuRR2Hwu+GUXhwRalrASfV8ZRBylt9D3b37dvU518U6q5Y7EQpKOr3PUlAUZJwAMkmuNJt2RUpKKuzgfFniE3rtZ2T4tF4Zh/y0P+H86+gwOAVNe0n8R8PnGbPEydKk/d/M5tF3GvVPntivrur2fh/Tmu71gT0iiBw0jeg/qe1ZVJqJ1YPCVMZUVOn832PJdavdc8VLNqEiFraLOyJeFUdwi9/c9a51JyV7H2FGOFy1xoX959f8z0n9n/xF4ai26bJZxWWvScC6kbcbnJ+6rH7p/wBkdfc14uPp1Ze9e67dj6XDTprS1mULSwm8VfGLxPd2BQpDvVWJ4baVjH5hWNcuPm6GCjC2rPW4frwpY91p7K50epeHNQ020a4uolEYIXIbPJr5iVacdWtD9Lw+Z0MRPkg9TCbKn5hVRr8x6aszD8YS+X4euj/E21R+LDP6Zr1MrvPExPn+KavsssqLvZfieh/s7wGHwXdSsMGa9cj3ARB/PNermLvVXofl+B/h/Mi+L3w6h1G1l1zQLfy9Ui/eTwwjAnXqWAH8Y68dee+KvCYtxfJN6GeKwyknKKMD4ea+2s2L212+b62ALE9ZE6bvqOh/D1r6OlWU1yvc/O83y76tPnh8L/A7NErRnjWNLSrg2twGOfLbhx7etc1emqkfM7cFiXhql3s9zzb9o3Sl+16TqcQGJYmgdh/sncv/AKE35VyYfVSiz7TDzV9Huer+AdW/t3wbpOoO26WWALKfWRflf/x5TXhV6fJNxPpacuaCZv4rAoY3FADRTAfQAUAFABQAUAFACUAJQAtABSAWgBDQMbQSPPU0DENMTEoAKAFFAxaQBQAUwCgApgKBQAUhBQAopgeH/tH6jJLqGhaPDk7Y2uWUfxM7bE/EbG/76r1sviknNnnY33moo9r0e1XS9HsNOhx5dnAluMdDtABP4nJ/GvArVfazcj6HD4dUaaicz8W5Cvgq5OessY/8e/8ArU8Kr1Tuw38RHjqMXw3rXrH6pQa9lF+Ri6jr7Ry/ZtMTzbgtsDbd3Poo7muilQ5lzVNj4TPuL1Rm8PgtZLd9PkM8KXOpeAfHWlX2tWs1osnMqyDBaFyVY49jzj1WuibjXpOMOh+aTco1HOXU+pLmcEZRgykcEHg1yU43RyYqdrox7CZbFzBIcWpP7sn/AJZ+x/2fT0+nTrlTc1dbniRrqjLlnsb0Y4GOlcj0PVhZq6PGPiN8IZJZ5dS8JIp3kvLYlguD6xnpj/ZPTt6V0UsS4+7I2SRy/h3xxL4JuBaav4WginUbWkWL7POR75B3fpXPiMM6+sZs76GIVLRxR20Xxy8PBAX07VQ+OgSMj899c39n1Dp+uQfQzdT+O+4eXo2ifvTwrXUuef8AcXr/AN9VrDL3vOVjKWN6RRljSPiP8RWH9pGaz0xyCRcA28IHtGPmf2JB+tdF8Ph1pqznlOpVfvM9a+H3w60rwennRE3epsu17uRcEDuEX+EfmfeuOviZ1nrsVGKjsdjdTQ2cDTXMixxL1ZjWVOnKrLlgrmWIxNPDx56jsjgfEXiKXUN9vbZitM4I7v8AX29q+hwmAjR96WrPicxzieLfJDSP5nPIhZsV6SPEloZ3ibXrXw5Zb5cSXTj91Dnk+59BUVJqKOnAYCpj6lo6RW7POLazvvE+o/2nrLk25Pyp03Dsqjsv+feuRRdR3Z9XWr0ctp+ww/xf1udnbRqgVI0CovAVRgAV0xtHY+cqNzblJ3Zz/i/w5pq2NxqaM1pMo3YQArI3YY9Sccisa1GMk5bHqZZmeIVSOHtzL8kej/s66Q9t4ZvNUmUh7+fahP8AEkeRn/vouPwr5XOavNVjBdEfouV0+Wm5vqdb8S7hY9ItrYEb5Zd2P9lQf6kV89i5LksfY5BScsQ59EjzoHHFebytn2FjkfiTKF0+1gAAMkhc49FGP/Zq+o4cpP2k5voj4rjPE8uHhQ6yd/u/4c9s+E9gbD4e6LGww8kPnn38xi4/RhXZipc1WTPkKEeWmjrgcHI61zmrPnLx/bt4F+J639sm2wuT9pCKOCjHEiD6HOB2+WvdwVfmin1R4OZ4SNaMqbW56rCiyKroQyMMqw6EHoa9d1Ez4F4Zp2ZOIsDpU89zKdGyOQ+KCG/8H3MLfM1q4mj9sZB/Qmh018SO7KcZKNaNKT0ZZ/Z0vjN4V1CxZsm1u9wHorqCP1Vq+ezCNql+5+j4R3hY9XrgOk8Y+J/xS1DSPEc2kaGkEQtNomnljDs7kA4APAABA6ZzmvTwuDhOPPM87FYudOXLA6/4VeK5vF2gS3F7FGl3bzeTIYxhXGAQwHbrjHt74GGMoRoyShszpwtZ1oXe52ZriOgKYBQAUAFABSAQ0wCkMWmIKACkAlACYoCw49TTASgQYoAMUAFAxaACgAoAKAAUCFpgFABSAUUwPBPGg/tP49WMD8pb3FquP9lUWQj9TXqp+ywUprzOKEfaYxR80e6Wcwmi3A9CVP1FfKqR9fXpcjOY+LsLzfD3VGiBLwhJh9A65/TJrswkrVEcrk4JtHz9q+qNFp0NvC2Z5l5I6gf417tKlzO8tkevnPEXscBDDUH78lq+yPdPhf4Cs/DGnQXdzCJNbmQGWSQAmHI5RPTHQnqfpgVzYmu5uy2PiaNJRV3uP+Lvg/8A4Snw2WtEzqdjultwBzIMfNH+IAx7ge9LCV/Yz12YYil7SOm5y3wh8Z/2lpyaDqD4vrWPFuzdZox/D/vKPzH0NerOkou62Z4OK1jfqdveelb01Y+bxrvoNsNUnsDtB8yH/nmx6fQ9v5VdTDxqepyUMxq4V2Wsex02m6taXoASQJL/AM834P4ev4V5tbDzpbrQ+lwmZ0MStHZ9n/WpentoLqPy7mGOaP8AuyKGH5GsNT0TMl8J+HZWzLoGkOfVrKIn/wBBpOcl1NFYvWGlafpw/wCJdYWlp/17wrH/AOggVjKTe7NS2zLHGXkZVReSzHAH41nGLk+WKuxTrQpx5ptJeZzureLrS1JjsVF1KP4uiD8ep/D869PD5VOetXRfifO4ziOlD3MMuZ9+n/BOM1PU7vU5/Nu5CxH3VHCr9BXt0aFOjHlgj5fEYqriZc1V3KyoWIArU59jB8XeKrbw7H5MQSbUGGRGTwg9W/w/lUzqch6GX5XPHS5paQ/P0OP07Q7nVbg6prrO8sh3CJxgkds+g/2axUHPWR7dfMKWEj9Wwq26nSiPGAAAB0xWlraHit3d2WoI8cngDk0GU2+hkadptx8RfEaaPYN5WlWp825ugM4HTI9zyFH1PQccONxcaEbs+syPKpJ80vie/kj6GtrOz0PR4oIVWCytIgij+6qj9T/M18RXquUnOZ+h4ei3alBHlHiTVn1jUnuCNsSjZEvov+Jrx5zdR3Z+hZdglg6XJ1e5lryaEjvZwd1FP4v8d22lWxIQzC2DDnaoJLv+ADH6AV9xllFYTB88t3qfknEWMeOzBwjtHRfqfU1vDHbwRwwqEiiUIijsoGAPyrzm+Z3ZklZWQ/vQI8j/AGj7FJPDWmX+P3lvdeT/AMBdST+qCu7BStJo5MUrpM2vh9Kb3wRok7DJ+zLHn/cyn/sterzHyOKoJVHY6EQ1SnqedWorlucJrDreWl5CekqOv5g16vJpY8CjP2dWM+zX5mJ+zbcFdW123B4lgil/75Zh/wCz181mWrTP1zB7NHu5ryzrPNfHXwr0/wAUay+qRX8thdShRNthEquQMA43Lg4AHXt0rtoYyVGPLa6OWrhY1He9jpvBHhez8I6N9gsXklLOZZZpMbpGOBnA6DAAArCtWdaXMzWjSVKPKjoKxNQoEFAwpAFABTAKACkAUwCgAoAKAG0CHkUDExQIKACgYUAFABQIKBhQIBQAtMBaACkACmhHgOfM/aCl3dVnkP8A3zbnH8q9LFaZc/66mWAXNmMU+/6HsGkzGK+uIyTslAkX2I4P/sv618pc+4xNPmgpdtDUuY4ry0ntbhd8M8bRyKe6kYI/I1pCfK7nBKmj5i0TR/sPxd0/StR5WHUET5ujYOU/Bvl/OvrI1ObD88T5PEU+XEuLPqheleQzqHrxSEeI/FrwZc6Lqp8X+G8xhZPOuUQcxSZ/1gHdSfvD1JPQnHr4HFcy9jUPOxmHTTkvma/hDxhaeJ7YI22DUkH72DP3v9pPUe3UfqfVSS0Pj8fhZU3zdDZmU1ujwqtMoTD1qjDlsSQ6je2/EN3cKo6L5hwPw6VnKjTlujop4mvT+CbXzJx4k1dOBeH8Y0P8xWbwlF7xOhZpi1op/kRy+ItXk4a+cD/ZVV/kBVRweHWvKZTzTGy0dR/LT8jPuLme5YG5nlmYdDI5bH510xjGCtFWOCo51Xeo2/VjAM07jUVElVccngDuaVxvyOL8U+OI7fNj4f8A9JvXOzzkG4AnjCD+Jv0+tYVKyitGe9l2QzrNVMSrLt1fr2NLw78GptX0C5u/Et1Pa6zdfPCCd5h75kGfmJ7jt9cgeFWzB8/u7H3lHBRhT5UrHMXI8QeBbsad4itTNbZIhuEOVdf9hu/0OCPavWwmPjUjynz2ZZJGUueOj/Bm7puq2OoJutplyBlkb5WX6j+tdfNGWqZ81iMJWou0kZV7c3vibU49A8NqZWlOJZR93b3JPZB3Pfp9eTE4mFGPNJnuZRlE5zU5rXou3mz6D+H3hSx8IaEljafvJnO+4nIwZXx19gOgHb65NfH4vFyry5pH3+HwscPG0Tn/AIja6ssv9mWrgohzOQerdl/CvDxNXnfKj7TIcBZfWKi9P8zgWIxXOfUIoa3qSaVpkty+C/3Y1/vOen+P4V3YDCvE1lDp1PKznMYZfhpVXv09Tc+Anhlobe48R3inzbgGG23D+HPzv+JGB9G9a+tx1SyVKPQ/KMJFzbqy3Z7DmvMO0BVEHln7Rk4TwTZw/wAUt+n5BHJ/pXZg1eehy4p2gbfwus2t/h3oaSD5jAZPwZ2Yfowrvk9TwK0bu5p+I7kWWmyYP72X92v49T+VdWDg51PJHh5nNUqL7vT/ADOEKkox9jXtHyz3Rzv7OIP/AAlWqn+EWWP/ACIlfK4/ZH7DhD6BavLOwYaBBSAKACgYUAFAAKYhaAENIYhoABSAWmAUAFADaBEh60wEJpAMoAUUDFoAKACgAoAKACgBaBC0AFACimI+f/EX/Er/AGgRK3CTTxhffzYAn/oTGvWnH2mXSt2OfDT9nj4N90epySNCRLH99OR7+1fIS2P0VRU1yvqa0FyssSSoflYZFQnY4pU7NxZ438cdLmstb0/xJY/I5ZFZ1H3ZkOUb8QP/AByvpsnqKpB0pHzOc0HCUayPa/DOrRa7oFjqkACpdRCQrnOxujL+BBH4VjWg6c3F9DljLmipI06yGMkVZEaORVeNgVZWGQQeoIpgeL+PvhPPFOdV8FOYpUbzDZBtpU+sTdv90/gegr08PmDXu1PvOGvglL4fuOe0b4jXdnIbDxVZTLPEdjyqm2RT/tocc/TH0r2KVVSV9z5XG5O7uVJ28mdpZ6pY6pD5un3Mc6d9p5H1HUfjXTGzWh85WoVKMrVFYeTTMbEZ5oHZCYoFZCSMkUZkldY416u5wB+JqttWKMXJ2irs5/V/Guj6dGwhl+2zjokP3fxfp+WazlVittT0sPk2Jru8lyrz/wAjE0+y8YfEaXZYw/ZNIJw0pykGPdush9hn6CvPr42NP4n8kfV5fklGhaSV33f6HsngP4c6P4SVZ4x9s1TGGu5lGV9Qi/wD8z714mIxU6710R9FSoxgjs8VzG2pynjrxF4Y0vT57TxLJBchxzYhRJI3p8v8PsTj61vQpVZyvTOavXpQVp6+R896H4Vu/F+vTjw9ZzWmlGU4lnbesCehbA3H2HPr616tfGRwlP8Aeu8uxw0MJLFS9xe6fRfgfwnp3hPTvs1gpaV8Ga4cfPKff0A7Dt9cmvl8RiqmInzTZ9Lh8LDDw5Yh4w8S/wBnQtZ2LZvXHzMP+WQ/x9B+NeZiK9vcjue/leWfWJe0qfAvx/4B5o5JySSSepPeuRKx9nFW0RCx9TgVajzOyKbUVdnGtb3fjbxba6ZpmTAG2q+PlVf45T7fzwB1Nfb5fhY5fh+efxM/Ic+zKWa4zlpv3I6L/M+n7KzhsbKC0tl2QQRrFGvoqjA/lXBObm7shRUEkiU1AAKZJ4R8cbyXxB400fwzp/zywlVI7edMVwD9FCn/AIEa9XAw5YOozzcZO8lBHt9nYx2NjbWcA/c28Swx5/uqAB+gpc19TzaiscH4ouheamwQ5iiGxfQ+pr6DB0/Z09d2fFZliFXrPl2RiahILbSryc9IoXf8ga6W7K7OKhT9pWhDu1+Zmfs3WhFzrt2RwqQxD3yXJ/8AQRXyuPex+tYXqe4NXmnWNoEJQAtAwpiCkMKACgQZoAKBiGgAoAWgAoATNACZoEOPU0DEoEJQAvagAoGLQAUAFABQAUAKKYhRQAUgFFMR4b+0Rp8ltrGj61bjaXjMJcdnjbcp+vzH/vmvYy1qcZU2efjLwnGojtbDUI9T0y2vYj+7uIlkHtkZxXylWm6c3B9D9MwtRVacakequWbG6EEnlscROeP9lv8A69czi9zWtRclzLcsara2uqadcWF/GJLaZdrDuPcHsR1BrfD1pUZKcehwVsNGvBwl1PJPDniLUPhb4ql0vVPNudBmbdwP4T0lQevZl7/gDX1fuY+kpx+I+KxFCeBquE9j6D06+tdTsYbywnjuLWZd0ciHIYf57dq8qUXB8si001dE9IYUhmVrnh/SddgMWr2FvdLjALr8y/RhyPwNXCcofC7ClGM1aSPMNe+CkBlM/hzU5LV+oiuMsB9HHIH1BrupZhNfGrnJVwMJqyOam8C/ETTmxayS3KL3ju0dfykIP6V2RzKL6nm1MmpS3giD+zPiXHx9guW9/Kjb+Va/2hD+Y5nkFBv4PxE/4Rn4m6gdptrqNT382KDH6g1EsfD+Y1hklGL0pr5mvpfwT13UJFk8Q6zBAO6oWuJP1wB+ZrnnmMVsrnoUsAo6JJeh6N4Y+FvhnQZFmFo2oXQ6S3pEmD7JgKPyJ964quNq1NL2R2Qw8IHQ654l0Pw/F/xNtStbXaOIi2Xx7IMsfwFYQpTm/dRU6sIfEzzXXfjjYRP5GgaVcXkrHarzny1J9lGWb9K7I5fK16jsc0sbfSmrmSIPiT46ffdM2i6c3RW3W6kf7g/eN/wLj3oniMHhNveZcMLi8T8WiOs8L/CfRdLZZ9TL6tdA5zOoEQPtHzn/AIETXnYjNq1ZcsPdR6OHyijS96WrPQooYbaAKixwwRjoAFVR/ICvLb1uz00rWjFHH+IfFy4e20dtx6Nc44H+76/WuSriPswPfwGUOTVTEKy7f5nEyMWYsxLMTkknJJrmR9PCKirLYiJ9aGXscR4q1mS9uU0zTSWV3EbFDzIxOAo9s/nX2WTZUqMPrWIWvRH5vxNxA8RJ4LCvTq+/kfQ3wz8FQeEtCWJgkmozgPczAdT/AHQf7o/Xk96nE4l4id3stjwKNGNGNludVJGBXOb3ICvNBJh+Mteh8MeHLrVJlDsg2Qxn/lpIfur/AFPsDW1Gk6s1BGdWoqcXJnmnwN8N3F/q134v1gmWZ2dYGccvIx/eSfgMqPq3pXq4mSpxVOJ5ULzbmz1HxdqK2Nj5KN+/m4GOoXuf6VWXUXVnzvZHg5/i/Y0vZRfvS/I87PLV9CfFLRHMfEi++x+GWhVsSXUixj6Dk/yx+NYYmVoW7ns5FR9riufpFXO6+B2lnT/AcE7riW+le4PHO3hV/DC5/wCBV8tjZXqcvY/SsNG0L9zv64jpCgQnemAtABQAUAJQAtABQAUAJQAtABQAUANoEJQA89TQMQ0CAUALQMSgBaQBQAUwCgAFAhaYBQAuaQAKAOV+KWgt4j8FX1rCm+7hAuYAOpdew+qlh9SK68JV9lVTexzYqn7Sm12PLPg9raz6ZPo8zfvbYmWHPeMnkfgx/wDHqyznC8lT20dn+Z9HwxjfaU3h5bx29DuZ8EFTyDxXiWPsYk1le4AhlYlhwrH+If40nBrUzq0ftR2KfiTR7LxDpzWl/GSBzHIPvRt6g/0710YbEzw8+aJwYzAUsXT5KiPNbC+8TfCvUT5ZF1pMz5KHPky+/qj4/wAsBX01GpQx8bbSPhMdgcTl872vHv0PbfBXjzRvFkSrZy+RfYy9nMQJB67ezD3H4gVxYjCVKD12M6WIhV23OsArlNwxSAKBiUAPUUAZOveJ9F8PRltY1K2tWxkRs2ZG+iDLH8q0hSnU+FGc6sIfEzzTW/jlZpL5GgaTPdyMdqPcN5YJ9kGWb9DXZDLpNXqOyOeWN6U1cyJW+J/jgmNw+jWD9dwNouPpzK38qmVTB4Zb8zKhQxeIeuiNXQvghp0JEuu6pc3shOWjgAhQnvk8sfrkVyVM5ntSjY7aWTw3qO56ToXhnRtBi2aPptta8YLomXb6ufmP4mvMq4irVd5ybPTpYalR0gjUYBVJJAA5JPaud2R0+hhan4osbLKw5upR2jOFH1b/AAzXLUxlOGi1Z30MsrV9XovM43W9evdVUpM4jt/+eUfAP19a5Z151d9EfQYPLaOG95ay7sxicUkekkNJ4JPQda1inJ2QSkoq7dkcfresXGo3iaVoKSTzSnaTEOW9h7ep6V9XlmVU8PD61jNOyPz3PuI6mKk8Fl+vRtfodRZ/C62XSkW7u2GqH5mkTlEP90DuPet5Z8/a3Ubx7Hn0uGouguaVp9y7/wAJJ448H7EmdNTsU4BmXdx/vD5h+Oa1jLBYt3g+VnBXwOOwivJc0e6O78KfE3Rte2QXZ/s2/bjyZ2G1j/sv0P0OD7VjVws6T7oxp4iM/JnR69rWnaHp73+q3SW9snG5uSx7AAck+wrGEHN2Rc5qKuzxhZb/AOLvi6P5JrXwzYt+IHuenmN+O0evf06cY4WN/tM82rN15W6I9uH2PQ9JXaiw2tugSONOwHAUVyRjPET5VuzLFYqnhKTnLoeaatfy6heyXEx+ZzwP7o7CvqcPSjRgoI/OMXiZYqo6k+pVj5YVujlbsjzXxN5/i/x5ZaLpp3Kr/Z1YcgHOZH+gA59lrz8XVSu3sj7nh/AujQTkvenr8uh9NWVlHY2VvaWq7Le3jWKNfRVGAPyFfKyk5tyZ9mlyqxKVNIBrDFIBnemMUUCFoAKACgAoAKAEoAB1oAWgAoAKQCGmIbQBITyaYCUgCgBKBhmgAzQAUALQAUAAoELTASkAUALTAcpwc0CPn34k6Bc+BvGkPiLSYv8AiW3UpbYOArkZeM+gPJHp+FerGSxlB0Zbo56FWWBxKrx2Ox0/UrbWNOivrF90Mg78FT3UjsRXzlWjKlJwluj9NwWJp4mmqlN6MhuG6j/IoSuenBE1nqqDEd0SrdBJ2P19KU6Et4GVXCS3h9xpzxxXVu0UyJLC4wVYBlYVzxm4O6dmcDhGScZI858Q/DwLP9s8OTtazod6xFyAD6q3VT/nivocJnbXuYhXXc+ZzDhinVvUwr5Zdun/AACz4f8Aip4g8M3S6f4wspb2EcCXhZgPUH7sn6H3rteFoYpc+Gl8j5utDE4F8mKjbz/4J654U8a6D4oymk3ym5Ay1tKNko/4Ceo9xkV51bD1KPxIuFWNT4WdI2FUsxAUDJJ4AFYb6I023PO/E3xb8O6OZYrN31O4TjFucR595Dx+Khq7KeBqz1ei8zmnjIR0jqzk5tS+JfjePOmWx0bTX6NnyNw9d5/eH6qMVpKWEw3xvmYoUsViNlZF3QPglaI/n+JNSmvZmO54oP3aE98scs31G2uapnE9qSsddLKYb1Hc9M0Lw7o+gxbNI021tBjBaNBvYe7dT+Jry6terVd5yPTpYenS+FGm5SNd0jKiDqWOBXO2krs6Vd6Iy7rxBpttkef5rekQ3fr0/WuKrj6FP7V/Q7aWAr1do29dDHu/GDEFbS2VP9uU5P5D/GuGpm/SnH7zvpZM73qS+453UNSub5ibqZnH93oo+g6V588RVqv3merQwdKj8KM6RhVwidsUQOeK7ImiMrVdZstNH+kyjf2jXlj+FengstxGMf7qOnfoeZmOd4PLlatL3uy1f/A+ZzclzrXiiOUaVY3AsEO2SRUJUezMP5V9ZhcDhMsXPUd5n59mOdYzOJezpLlp/wBbs9H+G2jWWjaXLIis+oS8TSuuMD+6voP5/ljhxuJlipXk9Ox25RgYYbR/EzZubkhzzXnuCPr6dLQryXZKkMcj3qOVJ3NPYo8p8fTaJI7Lp0q/bg3zxxDKfiegNfR5bLEWtUXu92fAcQ08uUuahL951S2/yub/AIM+FniLxItnN4jurqy0eP5o4pZC0pU9kQ8Jn1P5GtqmIp07qmtT57lcvi2Pe7Cw07w5o6W9pFHaWFuvCjt7nuSfXqTXHFTqystWya9aFCDnLRI4PxLrb6rdYTK2ycRp/U+9fQ4TCKhHXc+DzPMJYyf91bGJ1Ndx5TMTxfrqaLpjLG3+nTqViH931Y/T+f41NSfJHzO/K8A8ZWTl8Ed/8jofgR4Kk0q2fXtUj23l2gFujD5o4jzuPoW4/D618zja3M+SOx+oYSlyR5nuepa5rWl6DYi61q+t7K3ZgivM4Xc3oPU8VxQhKbtFXOiclHcfb3FveWsVzZTRz20yh45Y2DK6noQR1FTKLi7ME76oZJUFIh70DHimIWgApgFIAoAQ0AJQAopALTATNABQMSkJiUxDz1NACUAFACUDCgAoGKKBC0AFAAKAFpgJSAKBC0AFMDN8TaHaeJNDutLvsiKZfldfvRsOVYe4P59O9aUqjpS5kROCmrM+co21b4ceJZtP1SItbPywX7sq9BIh/wA+h5HHo16EMbT5o7mmVZnPK63vawe6/VHeLfQXtqlxayCSGQZVhXieylCXLLc/VMHWp4mmqtJ3TKcr5JreKselFE9hqk1kdoO+Huh7fT0qKuFhVV9mZVsJGtrszoLTUbe8H7t8P/cbg151TD1KfxLQ8yph6lJ+8huoWNpqFu0N7Ak8R/hcfy9KVOtOlLmg7M56tKFaDp1FdPueW+NvCthokYvLHUGhmDBooG5fPqrDkY9/zr6PLsyr4qXspwv5r9T4nOMjwuDi61Opy9ovW/oXvDsPj74i6bHpj6lL/YkLbZbm44Df7JIG6Uj0P4kcGuuvLDYKXO/i7Hz9KnVxSstj2DwZ8NtB8MeXMsP27UVwTd3IDEH1Reifhz7mvExOPq4jR6Lseth8FTo62uztWIGSTgdSTXnuyO9GTe+ILC2JAkMzjtGM/r0rzq+ZUKWzu/I9Cjl9erra3qYN74puHyLaNIR6n5jXl1c3qy0grHq0cogtajuYN3dzXL77iV5G7bjnH09K82pWqVX77uepSw9OkrQjYqs9ZHQokZerSLSIXfg+lbwXRFaLVmHqfiTTbHcHnE0o/gh+Y/n0H517+CyXGYnaPKu70PFxvEWBwWjnzPtHX/gGFFq2u+Jbv7D4esJN7dfLGWUerOeFHucfWvqMNkWFwlp4mXM/w+4+PxvFWNxd4YZci/H7+nyO88IfB2JHW78V3P2qUnd9lhYhM/7T9W/DH4111cwduSirI8SnhNees+ZnsNhBBY20dvaQxwQRjakcahVUegArzJJt3Z3RtFWiYnjGe0tNOe5mkhgC9Xdgo/M1i6U5S9xXPWy/EwpTvWkkvNni+tePLG3LCzD3cn+z8q/mf6Cu+jlGIqu8vdX4nfi+LcFh1ajeb+5fe/8AIzNM0rxp8QGAsoXttNY4MpJihx/vdX+gz9K9GOFwuD1l70j5DG59jswur8sey/q7PZvAPwq0Twt5VzMv9oaovPnzL8sZ/wBhOg+pyfcVz18TOq+y7HnQjGPmzur68t7C2M93II4x69SfQDuazpUZ1ZcsEZYrGUsLDnqu36+h5r4l8Qy6vII4wYrRDlUzyx9W/wAK+hwmDjh1d6s+JzDNJ42Vtorp/mYY5rtPLGX11Bp1lJdXb7Ioxkn1PYD1NDaQqVKdeoqdPdnOfD/w/P478WPrGpxf8Si0cZQ/dkYcrEPUd2/+vXkY/EqK5Vuz9HyjARoU1FbL8WfQy14Dd9WfQHlHx88DeIPGMWjS+H4Bdi081ZIPMVCN+zDDcQD93B/D3rvwFenS5lM5cTGUrOJ2fw48OXPhXwPpWkXzq11AjNLtOQrO7OVB9t2PwrkxNRVKjkjWjFxjZm9LXOakAHNAx+KBBTABTEBpAFAxDQACgBaQCGmAlABSGFACUC0HnrTAKBCUAFAwoAMUBcWgAoAKACgBTTEJikAoFAC4oADQAgNMRkeLvDWm+KtKNlqkWSuTDMvDwt6qf5joa1pVpUneJE6cZqzPn7XNC134dahiZftWmSthZlB8uT6/3H9vyyK9K9PFq2zNcuzPE5RU5oaxe66P/Jmpp+rW2pwiSBxux8yE/Mv1rinRlSdmfrGVZph8ypKdGWvVdV6/5k7NmketYhdyDleo6Yq3a2poopqzIL3xhfWKG3hKzzngbxkp/j9KdDKIYmXtJaRPhuKM+weVv2NBc1Z9Oi9f8jpvBHwvvNXuF1jxq0u18MlmxIdx28z+6P8AZHPrjoaxWMpYaPsMIreZ8FTp1sbP6xi3dvoez21tFawRwW0SRQxgKkcahVUegA6CvDcm3eR6kYqKskZOreIbWwLRRnz7gcbVPCn3P9K8zF5nSw/urWR6mEy2riPeeke/+RyGo6td37E3Ep2do14Ufh3/ABr5yvjKuIfvPTsfR4bA0sOvdWvcoNIAK5rHaokTSimkWoEMs6xozyOqIOSzHAH41cKcpy5Yq7FOUKceabsvMwr7xZpFrkfavPcfwwjd+vT9a9vC8N4/Ea8nKu70/Df8DwsVxRl2G05+Z/3dfx2/EwJPF+oajcfZdD01pJm4UBWmkPuFX/69fRYbhKhTXNiql/TRfjr+R87iOM69V2wlNJeer/y/M1bL4eeN/ETK+qEWcDc4u5NvHtGgOD9QK9uhTy/Aq1CCv+P3s8HEYnH413xFR27dPuWh3Xh34N6LZbX1i4n1KUfwf6mL8gdx/wC+vwoqZjUekFYzhhIL4tT0ewsLPTLQQWNvBa2yDOyJAij34rgk3N3lqzrilBWWiOW8RfErwxogdWvxe3C/8sbP96f++vuj8TmuinhKtXZGFTF04dTznUfi14h125+w+FdLMMjfd8uM3M2PXGNo/I/Wu2GXU4a1WcM8bUm7U1YTTfhZ4u8UXQvPFeoPaKe9xJ58uPRVB2qPbIx6Vs8RRpK1KJyy5pO8nc9N8NfC3wvoeyT7F9vul5869Ik59lxtH5Z965Z4urPS9gtFbI7qNMKFUYA4AHauUq5ga74ps9OV4rZlubocYU/Ip9z3+g/SvQw2Xzqvmnojx8dnVOgnCj70vwX+fyPP9R1G51GczXcrO/QZ6AegHYV7lOlGkuWCsfI1q1SvLnqu7KWMmtDPYivru3020e5vJAkSfmT6AdzSbsVSpTrz9nT1Zxen2Wr/ABL17yLVfs+l2xBkkPKwqe5/vOcHA/kMmvOxeLjSVup91lGURox01b3Z9C6Bo9poWk2+nadH5dvAuBnkse7E9yTya+dqVJTfNI+ohBQVkaQOOtZlGB448e2ngTSYLm6tJrt7mXy4442C9Bkkk/h+ddGHoOtJpGFaqqSuzU0DXrfxLoVlq9pHJFDdR71STG5eSCDj3BrGtD2c3E2py9pFSRPKazNLXIl5oQNWHUEhTEIaACgAoAKBiUALQAlABQAtIBKBiUC0HkcmmAcUCEoAKACgYUAFAgoAKACgBaAFFAC0APAoANuaBAEpgBGBTAgvLaC9tpLa7hjnt5V2vHIoZWHoRQm4u6BpNWZ414z+D8lvK2oeC52R1yxs5JOfojn+Tfn2r0aWNUlyVloYRjVw9RVsNJxkux56mv3um3T2et2ckc0Z2uChSRfqprqngoTjzUWfVZdxzWpSVPMI3XdaP7tvuNTUtUjFpENPdZ7m5GIhH82M8ZI9e2PWsaGG5pfvNEtz2eIeLaOEwq+py5qk9rdPNnr/AMJ/hXHo0NrrPiBTLrJPmpE/K2xPTPrJ6k9D05Gaxx2YOa9lT0ij84w2Fc5/WK7vN66npGoPBaQPLM6xxIMlmPAr5+rUjBOUnoe7RhKo1GKuzzzXvEst4zQ2RaG26FujP/gK+ZxmaTq+5S0R9VgcpjT9+tq+3RHN7gOleQe3yjHfirSLSOe1rxTp+m7laXzph/yzj5I+p6Cvfy/h3F420kuWPdnhZhxHg8D7t+aXZHK3PifX9Q50uz8mI9H2bv1PH6V9Zh+FsBQV8RJzf3fkeNDNs6zJ2wVLlXdr/Mw7KYXPiGCHxjdailiWxK0WGdB2KqeMZ9O3TNe/RweHw8L4SCTPlM0jjlW9nmDlfz2+XQ+hPCvw28B3NnDfacravA33ZZrguM+hVdoz7EV59bF4hPlehFPC0bXWp6BYadZ6db+Tp9pBawj+CGMIPyFcMpSlu7nUkoqy0OR8VfEvw14dLxSXZvbxesFmBIQfRmztH0zn2renhalTZGE8TCHU87f4q+LPEV41t4T0NF/3I2uJF9y3Cr+IrtWAp01epI5JYycvgRO3w+8f+LnVvFesraWrEFoWkD49xFHiPP45qlUw9H4I3ZhKdSfxs6zR/gz4XsVQ3q3eoyDkmaUopPsqY49iTUSxlR6R0M7JHf6VplhpNsLfTLO3tIP7kEYQH3OOprnbb1YrsuOyxoXkZUQdWY4A/Gkk5O0dSJTjBXk7GDqfi3TbJWED/a5uwi+7+LdPyzXdQy2rU+LRHkYrPKFHSn7z/A47VPFGpagjRmbyYT1ji+XI9z1NetRwNGjqld+Z89iM1xOKTjJ2XZGKMmupnEkSJGTS3E5WMLxL4ostFiaOMrcXvQRKeFP+0e3061nKaiehgcsrYuV3pHv/AJHOeG9H1LxzrdrNrUzRaeWO1UG3IAJIUdhx1rw8xzNUYtQ3P1DJeFYwpe1lG0fxZLfQ6p8KvFy3VgWmsJ+gb7s8eeUb0Ydj+PcissNiKeY0bS+JFYrDTy+r7vws+idF1O11nSbXUbCTzLW5jEiN7HsfQg8EdiK82cHCTizVS5ldFs1Izx/9pKPfoejN/duXH5r/APWr0st+No4MdpFM7P4SDb8N9CH/AExb/wBDauTGfxpHXhf4MTqJDmuU3TsNXimgbvuLmmSGaBBQAUAFABQMQ0AAoAWgAoAKAENIY2mSSnqaYxKQhKACgAoGFABQAUgCmIWgBRTAKQDqAKetatY6Hpkt/qtwlvaxD5nbuewA6kn0FVCLm+WJE5qCuzxjWfjfqNxemHwzo8RjzhTchpJHHrsQjH0ya9Onl6SvUZwyxjvoM0z43axZ3iR+JNEh8o9fIV4ZAPUByQfpx9auWXxfwSHDGXep7N4b1/TfEulpf6RcrNCxwwxho27qw7H/ACOK82rSlSdpHbCSmro0yKzLDFAjkfiTp3hqXw5dah4otVeO2Q+XLGdk24/dRG9SccHI7kYrowsqimvZsxrRp8vNPocH+zn4EN9er4nv/ltbSYi3QrnzZNp+bPouQc9z9DXpY+uoR5Fu9zzMFQdap7V7LY+htVvoLC1kmndUjRck18xiK0YRcpbH0mHozqyUYrVnkHiHXJtZuSzZS1U/u4/6n3/lXx2NxssTK3Q+5wGXwwsb7y7mOxrzz00jN1fVLXS7czXkoRf4R1LH0A716GAy3EY+p7OhG/6HNjcfQwNP2leVvzfocDea7qviSZrfTFa2tM4Zs44/2m/oK/Q8BkGEy2KlW9+p+B8ZLHZlxBUdLBrkp9/83+iNLTNA07TwruhuZx1eXkZ9h0r1HUnNavTsfV5XwphcFaclzy7s2GnRhjPPpWUnY+ojS5VZLQzNTsbfUYtlwnT7rDhl+hqY1pQd4nLmOV4fMaXsq8b+fVHPaTrup+CtZkk0S/6Y8xDzHIPR16H69R2xXbGMcXTvOJ+M5xl/9kYx0aVTmW/p5PzPQFtviP8AEuMG5K6XosnO07oInH+7y8n4/L9K5lHD4bfVnmTq1Knodr4W+DHh7SlWTVjJq1yOcSDy4h9EB5/4ESPas6mNnLSGiM1TW7PSbO0trG2S3sreG3t04WKFAir9AOK5XJy1bK2C5nhto99xLHEnq7AVcISnpFXMKtenSV5ysY114o02HIjeWdv+maYH5nFdlPLq0t9Dyq+d4aHw3Zh33i66kBWziSAf3m+dv8P0Nd9LLKcdajueJiM+rz0pKxzd/dXN44a6nkmYdN7ZA+g6D8K9CnTp0laCseLUq1q7vUk2UypqnIShYVYyTRdsrRGNrPifStH3LNP5s4/5ZQ/Mc+/YVnKpGJ6GGy3EYrWKsu7OJvfFut+IpWttJh+zQHhih5x/tP2/DFctXGQp7s+0yXgypiZrkhzPu9kTWHh6C1QPdH7ROeTkfIv0Hf8AGvNq4qVV6aI/Ycl4Mw2CtUxHvy/BHU+FdQOm6zZh2/cGQLz/AA54/rXlYyjz03Y93MsMlSfKrI9J8Y6BD4k0C5sJMCUjfDIf4JB0P07H2JrxsDiZYaqpr5nw+Nw6xFJwZxn7P+vPE2o+Fr4GO4tmaeFW6gZ2yJ+DYP8AwI+lfUZhBSUa0NmfJ4duN6ct0ezYrzDqPJv2iV/4p/Sf+vo/+gGvTytXqv0POzJ2pr1Ov+F67fh7oY/6Yf8Asxrlxv8AHkdeE/gxOjeuQ6BgpiHUCCgYUCCgAoGFABQAUAFABQAUgENADaA0JD1NUAGkISgAoAKACgAoGFABQIUUALQAUAKKAPn/AOI17d+O/idbeGbKUrZ20/2ZRjIDgZlkI77QGH0Xjqa9jB01TpuqzzMVU55ciPcPDHhjSvDNgtrpFqsQx88hGZJT6s3f+Q7AVjKpKbu2c8oJnPfE+wstS0+KzvI1YSbiMY3KeMMPQ16OXw5ua583m2IlhKsJ0nrqeJ+B9Tu/AXxAjguJCLGaRYLn+68TH5ZP+A5z+Y7mjG0OaLXVH0mW4yNaCqR2Z9RMCODXzx7YgoEeE/Fm/ufGXxC0zwfpUm6KCVUfHK+c33mPqET8vnr1MJFUoOrI83FSdSapRPofR7C10TRbbTbFRHZ2sYjjHfA6k+5OST6mvHxNdzblI9fD0FCKjE818a64dVvvIt3/ANDhPGDxI3r9PSvjMyxrry5IbI+5ynAewp+0mvef4HNk9q8k9pIxvEWuW2i2peU752B8uIHlj/Qe9etlOUVcyq8sFaK3fb/gnl5tm1HLKXNN3k9l3/4B5peSy3GtLP4nS6hSWMSxq0ZUFDyuM87MdxnP61+r4XC08DhvZYOy7vr/AMOfnFHF0sfj1VzVvk8vwXoddp91ZyW4WxeIxoMBY+Nv4dq5GpQfvH7LllfBV6SWBknFdF09VuTs+RQ3Y9RIrTuI0LuwVV5JJwBUX5nZCrV6WHpurWkoxW7ZS0611jxXqB07w/A7gY8ybO1VHqW/hH6ntXTGhTw69riH8j8p4g4yq4uTw2XaR6y6s9q8BfCvSfDix3V+qajqY+bzJF/dxn/YU9/9o89xiuTEY2VXSGiPiVF35pO7Z6MM81xFt23M291uztQQH85x/DHz+vSuylg6tTdWXmeTis2oUdIvmfl/mc9feIL2fIiZYE9E6/mf6Yr1KWBpQ1erPAxGb4irpF8qMG5Z5XLyszsf4mOTXbFKOx5c5Sm7ydyuUrRSMWhvlE07tkOyMzU9W0zTSVvr6CJx/AXy3/fI5qXOK3ZvRwletrTg2vwOW1Hx/Yo4h0u2mvJ2O1cjaCfYdT9MVnKvFbHrYfIK9R/vHb8WRLofxA8TsFWyk061fr5rfZ1A9wfnP5GuGrj6a3l9x9HhMgpUdeXXuzfn+CEP9mIINXl/tILl2kQeUx9AByB75P0rgWYvm20Pb+pK2j1OMuNE8SeCnYalYlrHIXzU+aM+mGHT6HH0raKoYl80dJHsZZn+Nyq0H71NdP8AJmnb3kN5AJIGz/eU9V+tYzhKm7SP1XK80w+ZU/aUH6rqvUr3T7ULA4KnINZtcysdGZNQws5SPf4BlVPqK+WcdXY+AnI8M8d3H/CHfGO11iEFImaO6kC90bKSj8cOfqa+ry5/WMG6b3R8jmUFRxSqLZn0apVlDKQykZBHQivONDyr9oZc6DpP/Xy3/oBr1so/iv0PKzZ2pr1Ou+GYx4A0Qf8ATv8A1NcWN/jy9TuwetCPobd+XW1kaP7+OK4aknGN0eng4QnWSnsVNJeZ4CZx82ailNyWp05lRo05/ui9Wx5bDFMAoAKAEoAKAFoAKAEoABQAtACUgEoDQeepqgDNIQlABQAUDCgAoEFAwFAhRQAtAC0AKKBHzn4UuU0r9oC7N6Nm/UbtFJ7GTfsP47gP+BV76jzYRNeR41aXJUk2e66x4hjsI224eTsn+NZ0cHKo7vY8TF5vGh7sdWcLc3M+oXLXFy+6RvyA9B7V7dKnGlHlifI4rETrTc6j1PLfiUFvvFEFraDfcCJICF6l2YkD/wAeH51z4lrVn1vDkJrD3ezeh9TgEDDHJ7n1r5OW59qloVNZ1CLSdHvtRnGYrSB52HqFUnH44xTjFyaihSlyrmPHP2b7F9Q8R634jvv3lwi7BI3eWVizsPfCkf8AA69HMZqlCNJHHgKftZubPYfGuqfZNGkRGxLP+7X6dz+X86+OzTE+ypNLdn2GU4T2tdX2Wp5aTivkj7dIo6vqMOl6fLd3B+VBwueWPYCuzAYGpjq8aNPr+ByY/G08DQlXqbIz/hX4Uk8YatN4i19fMsoJAsMJHyyOOcf7i8cdyfrX6mqVLLaCw9DT+tz8jqYirmmIlia23b9D2rXNB0vXbM2ur2UN1D23jlT6qw5U+4IrgjWlB3izrlTjNWkjxvxV8Fruyke98IXjSbeRazNtkHsr9G+hx9TXfTx0Z+7VRlCFbCz9rhpNNdtGcJBrV3Z3L2mtWzxTRnY/yFXU/wC0p/8ArV0Swymuamz63LeO6tJ8mYRuu63+a2fysa/hnQNQ8d62LW1zBYRYaaYjIjX39WPYf0BNaLkwceZ6yPmc64hxOd1nHaktl+r7s+k/DOgWHh7S47DS7cQwryT1aRu7Me5P/wBYYFeLWqyqzc5s82MVFWRc1LULfTkzO2ZCMrGv3j/gPetKGHnXfu7dzixuYUsIve1fY5LUNWub/crHy4T0jQ8fj617VDCwo6rV9z5LF5hWxV1J2XZf1qUNvFdNzgshrKMUXYtDnNa8V6JpJZLm/jaZf+WUP7x8+mB0/HFVe251UcBiMRrTjp3eiOK1T4pKNy6Xp+fR7hv/AGVf8aq9tj06WQverP7v83/kW7Dw14+8ZWcN39rt7PTrhd6N9oVUZfpHub8Grza2PhF8rvfse9hcjo00pRivV6nS6D8DdOhIk13U7i9fOTHbr5KfQnlj9QVrgnj5fYVj2IYSMdz0fQfDGi6AmNH0y2tWxgyKuZCPdzlj+JrknVnP4mdEYRjsjWIrMoTFADZoYriGSG4jSWGRSro4yrA9QRQm07oN9z52+JPhiXwTr8V5YBm0q6J8vJzsPeMn9QfT6GvXo1ViYOMt0aZdmFTKMVGvT+F6NeXYzroNdSWNtbn95dzIie+4gD+YrKPuNylskfovE2OVTCUo0n8bT+R9Hxx7QAOgr5Z6u58vOdzwz9oeNTrumHAz9lKt/wB9Ej+te/kc7SnHyPHzmjfDwq/3mvwR7H8NdQ/tTwHod0W3MbVY3PqyfI36qayrx5Kkl5nJSfNBM5T4+Lv0XSh/08t/6Aa9PJ9asvQ8jOnakvU6v4cjb4F0Yf8ATD+prhx38eXqehl7vhoPyNHXb9dM0q4vHQusS52jv2rk5Od8p3QlyalDwpq/9t6X9q8kwkOUK5yOMcg/jSdP2cnEqU+dcxtUzFhVIBDQAUgCgAoAKACgApAFMAoAKAG0CHnvQMSgQlAC0DCgAoAKACmAUCFFIBaAFFABmgDx/wCNngK5v7j/AISXQI3ku0VftUMX3228LImOSQAAQOeAR3r1MDilBeyqbdDhxWHc/ficNovxAYwiLW4ZZJRx58WCW/3gcc/T8q9uniFazR8ZjeH5ObnQdr9H/mXNS+INtFasul20pnPR5gAq++AefpxVSxKt7qMMPw9UlK+Ikrdlubfwb8E3t/rEfijXo3WFG862WUYaaQ9JMf3R1HqcY4FeNjsXpyRPuMHhY00rKyWx7tmvIPRPP/jtqBsvh7cQKcNfTx2/4ZMh/SPH412YGHPVXkcmLly0/Ud8B7FdP+HttJjEl7NJctn67B/46gP41zZlV567XY7suo8tFPuR+MtQN3rDxg/urf8Adr9e5/Pj8K+GzOt7WtyrZH6Bk+G9lh1N7y1/yMBjmvNseukcD4tkm17xVYeH7E7m8xI8dvMcjr7AEfma/ReFcEsPh3iZLWX5H5lxjjpV8RHCQekd/U+ltF0y20XSLTTbJdtvbRiNeMFvVj7k5J9zXXiKrnK55dGkqcVFFs1zmwL1oGeF/Em5Hj/4g2nh3QbWAyWrmGW92DczD7+W/wCeaYPHc5x1FevhV9Wp88up4+Kqe2qezj957d4Y8OWPhzSINO05MRRjLOR80r93b3P6dO1cFetKpK7NadONNWQviHWE0yIRQ7Wu3HAPOwep/pWuDwnt3zS+E8vNMyWFjyw+J/gcU0kk8jSysXkY5LHqa9+MVFWirI+LnOVSTlN3bHotMm5xHi34j6do8jWunr/aF6OPkb92p9Cw6n2H51fI0uaWx6uDymtibN6J/f8AccLeXvirxQSL24NhZN/AMxqR/uj5m/4Ea5qmKhHSOp+h5RwHXqWn7Pl85b/d/wAMbWh/DzTtiTSXEl4R1HCJ+Q5/WvGxOazpy5UrH2NDhfB4aX+03m/PRfcv8zZ1nwZp2oWqReStu0YxG8KhSvt7iuGlm1anLmve/c7cZk2CxlNQcOW2zWjRz+kXfin4dXDPZMLvTGO6SIgtE3uR1RvcfrXsQxWFzBKMtJf116nxWMyTGZZedP34eX6rp/Wp6r4S+Keg66Fiu5Bpd6cfu7lwEY/7MnAP44PtXLXwFWk9NUcFPGU56PRnfDBAIIIPIIPWuLbQ6kBWgBuKQAaAON+LtgmofD7Vg+N9uguUJ7FDk/8Aju4fjXRhZuFVWMa6vTZ5B8FtNuNd8WW9xKCbPSk80kj+I5CL9c8/8BNdWZyVOk4reR1YHGV8QoU6juobH0YqV8w9D1rngXxrkW91K8kHK2rpEp+nB/UmvRymo44lLuehm+DSyPne6al97t+R6D+z/MZvh5EmeIbqWP8AMhv/AGau7Gq1Znx+Gd6ZH8dY92j6Vjtcn/0A13ZL/FkvI8rPdKCfmdT8P1x4K0cf9MB/M1w4/wDjy9T0Mt1wsPQ17hFljaORQyMMFSMgiuM7k7FextoLO3WC1iWKJeiqMAUkrFSk5blmmZiGmAUwCkAUAFABQAUAFABQAUAFADaBEh6mmAlIBKACgYUAFABQAopgFACikIKACgAoAWmBz+t+CfDmuTtNqek28k7ctKhaJ2PuyEE/jWsK9Sn8LJlShL4kVtJ+HfhTSrlbi00eEzqcq08jzbT6gOxGffFVPFVZ6NkRoU4u6R1h9awNhuaBHj/7SFzs0nQ4O0k0r/8AfKqP/Z69TLV70mcGN15Udr4FlWy8C6GvHy2ELH6lAT+pr4/G5jGFerfdN/gfU4TDc1Gml2RxVzM0s8sjcs7Fj9Sa+as5vmZ+g0qahBQXQiVu5OAOtbwo8zS7jqNQi5Poc38DLP8Atr4k3eqzj/j2ikuhn++5CqPwDN+Qr9QlFYbBxpx7I/FpzeKxk60u7Po015LO2wlAHNfEfxN/wifhG71GMj7YxEFqD3lbofwAZv8AgNb4al7WoomVep7ODkYvwA8Lx6Z4c/ty6VjqGprkF+qQ7uB/wIjcT3G2uzGVby5OiPMw1NJc73Z6TrGoR6bYvO2C3RFz95vSuSjQdeooIjG4uOGpub3POLieS7uHmmbdI5yTX0kKapx5Y7HwlatKtNzluyLUtQtNI0+S81CURW8fU9ST2AHcn0qiKdKVWXJDc8W8X+P77XZfsdsxsNNdtrY5ZlzjLEdR7D9afwK8Vdn1GX5VSpTjKs/n29EXtD0qx0+MSW5W4lbn7QcEke3oK8mvVqVZfvNPI/feHsjwODoqth2pt/a/y7GsTzWOx9NYnsrqa0nEsDFWHUdj9ayqwjVjyzRlWowrR5Zo6Sz12GchbpPJY/xDlT/hXkVsDKGsNUeTVwM6esHdGgyq4BXDKehHINcOsXqct2tzm9b8D6XqbGWNWtJz1aEAK31Xp+WK9TC5tXoaN3XmeHj8hweNfM48su60/wCAYltpXjDwo27w5qkktuvPkqw2/wDft8r+XNerHMcLidK0bM+Zr8M4vD+9hp8y7dTVtvjJr2nSCLW9GtpGHBxvgY/nuH5CtPqNKor0pHlVJ4ig+WtCx0dn8bNBkUfarHUYH77VR1H47gf0rKWW1OjJ+ux6out8X/C23Ie+J9BBz/Os/wCz6y3D67TOQ8cfEdfFmnHQPDdjdmS9dY2aQAOwyDtVVJ645JPTNbUsL7H95VeiInXdVclNbnpPw28JL4T8OpaMyveSt5tw46byANo9gOPzPevJxuJ+sTutj2sJQ9hC3U0/FGsx6HprTHDXD/LDGf4m9foOp/8Ar15dSVj28vwUsZVUFt1Z4B4zydAu3lYtI7oSx6sxcEn+dduU3eKgkfQ8UKMMpqRWyt+aPTv2eUMfgOQt0kvZGH02oP5g162YaVj8wwf8M6T4ka34W0fS7T/hL0aSGaU+RHGhZyyjlhjGMBh+Yp4J1YycqO5njqVKtDkrLQ1PC99pOoeHbG58PSCTTGTEPUEAEggg8gggisMRz+0bqbm2GhCnTUKeyLr9TXObjB1oGOpoQUwEpAFABQAUAFABQAUAFABQIKAEoGPPU0xCUgENABQAUDCgApgLQAUCHCkAUAFABQAUwDNAC5pAFABTA8R/aYPy+HB/18/+0q9XLftHBjN0ddo1xs8F6Vg/8uEP/osV+W5jN/W6sf7z/Nn6Bl1O8Kb8kcoz8mtqMLpH2KRXvpdmn3TDqInP/jprvw9O9WPqjmx2mHm/J/kL+zMga98RyH7yx2yj6EyH+gr7/MtIRR+LYHds92NeOeiJimI8F+Ol5Nr3jfR/DNm2TFsTHbzpiMZ+i7D/AMCNetgI8kJVGebjZc0lBH0DYQR2VnBa242wwRrFGPRVGAPyFcEpOTuwWmxw3ivVDe6o0UbZgtyUX3b+I/0/CvewGH9nT5nuz4vOMX7atyLZGWZ4reCSedxHDGpd2booHU12NWPHXM5KMd2ecabbXvxR8WiNzJBoVl8z4/hUngf77Y/AA+nPFisV7CN47s+3ynK1Sj72/V/oexa74C8O67pcFld2CRrbxiK3lgOySFR0CnuPY5HevEp4qrSldPc+inh4TjY8X8W+BvEPgeR7nTmfUNH+8ZFTOwf7a/w/7w4+nSvUhiKWL0npI1wGaYzJp3oO8e3Qp6PrdvfqqswhuO8THr9D3rGtQnT13R+m5PxRhMyioyfLPs/0NlK5ea59I2S0rkli1vJrVswuQP7p5B/CsatGFX4kY1KEKnxI27TXYnAFyhjP95eRXn1MFKOsdTzqmBlHWGpopcRTJuikVx6qc1yuLjujlcJRdpKxBOscyFZEV19GAI/WqjVcH7rB0oT+JXMDU9B0V0aS4sbZFHLMBsA+uMV108fiFpGTOSrlWAkuarTR59q6adeTDT/DmmNPdSsFR49zE/7o6n617WHVeNquInZdj47NcTlrjLDYGknJ/a/yPaPhN8PP+EZQalq219YkTaFBytup6gHux7n8B3J87G4513yx+E48FgVRXNL4jv8AWNVtdJtTNdPj+6g+859AK8qdRR3PYwuEqYqfJTR5Fr2pz6xftc3HHZEB4RfQVz25ndn6BgMHDB0lTjv1Zwnj+4C2NrbA/NJLvP0Uf4kV7eRUeau59j5fjfEqngo0esn+C/pHvPwn046X8P8ARonXDyRG4b/toxcf+OstdGNlz1pNHweFi40kmZHxm8C3PjfTtPOnXEUN7ZO+xZiQjq+3dkgEgjaMcetXg8UqDd+oq9F1ErdDoPAHhtPCfhWz0hZvPeLc8kuMBnY5OB2HYfSsa9X20+Y0pU+SNjebk1gaDaAFpgFMQUAIaACkMKACkAUwENABmgBaBBQAmaAHnvTASkAUAJQAUAFAwpgLmgAzzQIXNACg8UgFAzQAu2gBdtACYpiDFACgUDFxQB43+0vaFtH0G7x8sc8sRPuygj/0A16mWO85RODHbJlvQJhP4K0kg/8ALlEv4hAD/KvyzNk6eYVov+Z/mfo+TNSw9KS7L8jGPDsPc124e3Kj61bXIbqPzLWaPuyMv5ivQoaTi/NGGKjzUZx7p/kU/wBmq8EfibVrJjg3FmJR7lHAx+Uh/Kvucw96nFo/EsH7s5RPogivHO8VUyQKAZ87/DpT4o+O19qT/PHBNcXQz/cX93H+W5Pyr3Jr2WG5TxZPnqcx9DarcfYdLurn+KOMlf8Ae6D9SK8+hDnqKJOKq+yoyn2R5ZHX1ijZWPzyc+ZtnIfFPVhbaFFYI2Jbp8t/uLz/ADx+tY1moo9bI6HtazqPaP5s9N+FWgLoXgywiZNt1cKLmc453uAQD9FwPwNfL4mr7So2fotGnyQSOyArnNR1CEefeNPhTo3iAvc2AXTL88lo0zE5/wBpOMfUY9813UMbUp6PVHFVwkZvmjozyDXNM8TeCJhHqlm01lnCTg7o2+j9vo3PtXZ7OjiVeDtI9nLeJ8dldoVvfh5/oyxpmuWl6i5fyZT/AMs5OD+B6GuaphqlLdaH6Bl3FOX49JRnyy7PQ0mYVhdH0cWpK61IZrtIVJZgB70OS2HJRirzdl5mbLrlur5WQ7v9gEn9KtUZVNonjY3iHLMEv3lRN9lqLBr2tXkot9HiuZpT0ULvb8sE1MstoR96s1E+OxfGcKz5cFQbfdm/Y/DTxJrsiSeIb9bWAnJjLeY4+ij5R+f4Vn/aOCwumHjzPueJVhj8w1xU7Lseq+E/Cuj+F7bZpluPOYYkuJPmkf6nsPYYFeVicfUxMuab+R14fAww8eWC+ZLrvia10xHjhZZrztGDwv8Aven0rinXS0W57GDyupiZXeke55vqV7cahctPdymSQ+vQD0A7VmnfVn2GGw1PDQ5KasUJTWiuda01ZyFhp7eM/H1ppkBZrbcEkdf4Y15kYH6ZA9TivrMBTeDwrnLdn5JxPj45hmHJTd4w0/zPqpUVEVEUIijCqBgAegrzb31ZxLRWGsKQrjMUwuBWkAm2gBMUAIaYBSASgAoAKACgYUAFACGkMBTEBoAaaQiYjr9aoBtIBtABQAtABQAUAFAwoEFADloAlSmB458W/idrnhLxT/ZunWdotqIUkWW5jZvOLDJIww4B+X6g16OFwdOtDmnI5K1ecJcsUcSvx48TZ/499FP/AGxk/wDjldH9n0P5jP6zU7Eq/HjxJ3s9FP8A2yl/+OUf2fS6SF9an2JV+PHiDHOn6N/37l/+OUv7Pp/zB9an2Hf8L38Q4+XT9Fz7xy//AByl9Qp/zB9aqdhP+F7eJf8Anx0T/v1L/wDHKP7Pp/zC+tVPIwfG3xO1fxfpEenanbaZFBHMswa3Rw24Bh1ZyMYY9q6KGHhQlzRZhWrzqLlkUtF8d6lpekRabCtlJbxFthlViwBOcZDDjJPbvXk4/hzB47EPEVG03vZr/I9bAcQYrAUlSpxTS73Ffxxfs5by7AE9grf/ABdRHhnBRVlKX3r/ACPTjxvmNrckfuf/AMkKvjfUP7ln/wB8t/8AFVrHh/CL7T+9f5A+Nswf2Ifc/wD5Iz/DHiG58N+IoNY07yTcRFjskBKMGBBBAIOOfX0r150FOn7O+h8v7eXtHVtvqd8fjv4iB50/RPwjl/8Ajlcn9mw/mN/rsn0F/wCF9eIQPl07Rg3rsl/+OU1lsP5geLn2ON+Hvji88E393d2FvZXM1xEIm+0hiAM542sPQV2VqUaqUZM5I3idZq/xv13VLQ2s9lpKRMQW8pJAxx2yXP8AKooUIUJ88TDF4f61TdOTsvIyl+Jd7gYsrXP+8a7vrL8jxXw/R/nf4HOeIvEM2s6pDeXUcI8tVURAnaQDnB575rCrJ1dz1cDg4YKHJDXrqd2fjn4gydun6KB2HlynH/kSvO/s6l/Mz2PrtTsOHx18Qd9O0b8I5R/7Up/2fT/mF9cn2A/HXxB2sNH/AO/cv/xyn/Z1NbSF9cn2FHx28RDrY6J/36l/+OUf2fDuL63PsPHx41l0aOfTNGkRhgqVkwR7gvS+oRW0h/WZvocd4m8WQa+CRoWj2E2c+bZo0Z/LdtP1IrelSnT+22jGcoy15Umc+l3NHxFPIg/2XIq3CPVXNqeNxNH+HUcfRtD/ALWzHMsjP/vNmiMYx+FJCr43EYj+LUcvVt/mbuk+LbfSUAj0XSrmXOfMulaU/kWx+lYYjDzr/wDL1xXlZfoRh60KC/hqT7u5vx/GbW4I/LtbLRoIx/DHbso/INXA8kpSd5VJP5r/ACO9ZzWh8NOK+/8AzIm+MniVv49OT6Q/4tR/YWHe03+H+RSz3EL7Efx/zKN18TNcuyftFxC4PVdzKv5BgKiXD9CSs6kvvX+R2U+KcTSfu0Yfc/1ZU/4Ti9xgQ2OPYMP/AGaoXDuHjtN/h/kdkeNsat6cfuf+Y1/G18furar+Z/rVRyKgt5v8DX/XnF2/hR/H/Mqah4ovL21aGR4UVvvGPgkenWu3C5Th6E+e9/WxwY/i3G46i6HKoJ9Ve/5l7wV4+uvBqXP9l2OmSzzkb57hWZ9o6KMMABnn3PXoMdGIpKs7OWh4FGo6a0Wp04+PHiH/AJ8NG/79yf8AxyudYCm/tG31qXYZJ8d/EZ6WOij/ALZS/wDxyrWX0/5hPFT7EX/C9/Ew/wCXPRT/ANsZf/jlV/Z9P+YFip9g/wCF8eJj/wAueif9+Zf/AI5S/s6l3F9aqIRvjx4mIwLTRB/2xl/+OUfUKPVj+s1GdL8MPirr/ibxja6VfWtjJbTq5dreNlaLapO7JYjGQBz6j8cMRhaNODcXqaUq1SUrPY9uYV5p2DDSAQ0ANoAUUALQMKACgBDQACgANADTQInPU/WgBhoAaaAAUALQMKBBQAUAFACUAKKAJENMQrpHIV8xEfb03KDiqUmthNX3F8qP/nmn/fNPml3DkQ3yoc/6qP8A75FLmfcLJAIoc/6qP/vkUrsdhfIgxzBEf+ACndhZB5EH/PCL/vgUcz7i5UOEcY6RoP8AgIouwskKEjPWNP8AvkUwHBI/+ea4+gpNgNMURPMUZ+qii7CyE8iH/njH/wB8ii7CwfZ7Y9baA/WJf8KfPJdRcq7B9mte1rb/AIRL/hT55dxckewoggHSCIf8AFHNLuNRS6CiOIdI0/75FTd9x2XYUxxf880/75FPXuHKhrQQHrDEf+Aii77hZdhv2eD/AJ4Rf98ClzPuHKg+zwf88Iv++BRzPuHKhPstt/z7Q/8AfsUcz7hZB9mt/wDn3h/74FHMxcq7CGztD1tLc/WNT/Snzy7hyrsAs7QdLS3H0iUf0o55dw5V2HLBAv3YYx9FFLmfcdl2JNqgYAGPpRdhoRmKM9UU/UUXY7Dfs8P/ADyj/wC+RRdhYQW8A6Qxj/gApXYxfJh/55R/98ii7FZDlSMH5Y0H0UU+Z9xcqHlUPVF/KmpPuFkMMMJ6xRn/AICKLvuFkIYIf+eMf/fIpcz7hyoTyYf+eUf/AHwKOZ9x8qAwwf8APKP/AL4FK77i5UN8qHtFH/3yKLvuOyF8mI9Yo/8AvkU7vuFkNMEI/wCWUf8A3yKG33FZCqir9xQv0FJtjskBNIYlIBDQA2gBRQAUDCgQtAwoAKAENIY2mKxM3WgQ2gBKACgYUAFAgoAKACgBcUAKKAHLQBIBTAXFAhMUwACgBaQBQAUwFxQIXBxnHFOwXExSGJQAooAKaEJSAKBiigAoASgBQKAE70gsOxTAKBDTQAgHNAx4FAAVpANIoAbigBKYxaBC0CCgYmKQwNADaYC4pAGKYhKBiGkA2kAlACUAIetAAKAA0DEoAWgQtAwoAQ0gG0CJmqgGmkAlABQMKAAdaBC0AFABQAooAUUAOWgDxv8AaL1bUdPXQItPvrq0SXz2cW8zR7yPLxnBGcZP5162WUYTu5I87G1JRaSZ5BFe+LbiFZoLnX5YXztkSSZlbnHBB5r0XGhF2djjXtXrqTQ+JPGWjMrnVdbthngTyyFf++X4/SodGhU2sUqlWGp6P4J+NlzHPFbeLY0mt24+2QR7XT3ZBwR/ugH2NctfL42vTOqljHe0z3azuYL20iurOZJ7eZQ8ckZyrA9wa8iUXF2Z3pp6olqRmZ4k1uy8OaLcanqTlbeEdB952PRVHck/49K0pwdSXKiJzUFzM+bfFPxQ8T+IrtorS6m0+1c7Y7WxJVj6AuPmY/kPYV7FLB06au9TzZ16lR6GJLa+L9PX7bNb+IbRV+b7Q6Tx499xxW69i1ZWI/eI7HwR8Wte065httWL6xaOwUAj9+M/3W/iPs2c+orCtgoSXMtDWlipRdpan0bG/mQo+1l3qG2uMMM9iOxrxJKzsene6OE+N9/d6d8P7iSxuJraV54ozJE5RtpOSARyOldeBgp1UpHNi5uNO6PnS31nxPcbhZ6prkuzG7yrmZtvpnB46V7U6dGO6R5sZTlsyb+3fGdl++OqeIYlXkmSebb+OTis3ToS7F89VHb+C/jVqdjcRQeKFF/ZkgG4jQLNH74GAw9sA+9c9bL4SV4aM6KWMd7TPoazure+s4LuzlSa2mQSRyIchlPIIrx5RcXZnoJ3V0S1IwxQB8z/ABJ8f35+Jn2vSLt1tdIlEMKK5CSFT+83AcEMcj3UCvdwmFj7G0t2eXXxDVX3dke7XmqDWfAtxqmiPI32mxeWAx/fDbDgcfxA8fUV40qbhV5Jdz0uZSp80T5EkvPEkDYnuNYjfvvklB/WvoOSjboeW+csQav4l4Eeoa1/wGeX/Gly0fIVqhp2l542lIEE/iRyf7jTn+VVH2C1diJRqdLn0z8OTqH/AAhmlf2uLoX3lnzRdbvMzuP3t3OcY6189ipJ1pcux69CLVJc254JqHiPWH+LExXVtQEKaz5axi5cKIxPtChc4xjjFexh6UFQu1rY8+pUftLJ9T6qOK8RnokZpDGmgCOmMcooEeC/tEeKpf7TtNA0+5kiFsBPdGJypMhHyKSPRfm/4EPSvVy+gnecjhxVZp8qPQPg54sPirwlGbqTfqdkRb3JPV+Plf8A4EP1DVy42h7Kd1szpoVPaRud2a4jYaaYABQB4/8AFT4rSaPfT6N4a8s3cJ2T3jqHEb91RTwSOhJyM5GO9elhMD7Vc89jgxGLcHywPITdeMPEbvcJNr+pAHBaIyyKvsAvA+gr1Iww9LR2OPnqy11LGj+MvFfhi98sX99GU+9bXm51x6bX6fhg0ToUay0Q41qtNnvvwz8cv4xgmWfTZbae3UGSVAWgY+gbse+054714uMwqw8tGejh6/tVsdsa4jpGGgBKAEFAC0DCgBMUgCmAtABSAKYDaBEjdT9aYCGkAlABQMKBBQAtMApAFMBaAFpAOWgDw/8AaaH73w3/ALtz/OKvayraR5eYbxO8+CLFvhdogP8AD54/8jyVw47+NI7cL/CR20sSTRNFMiyROMMjgFWHoQetct2tUbtJ7ni3xZ+FFkNNuNZ8LW5guIR5k1lH9x07lB/CR1wOCBwM9fRw2NlfkqPQ462Gjbmicx8C/HM2jazBoV9KW0q+k2Rbj/qJm6Ef7LHgj1IPrnqxmHVSHPHdGOHquL5XsfShrwz0DxH9pi9kW30CxViIXaadx2LKEVfyDN+denlsLuUjixr2RY/Zw0ez/sW/1lo1e/a5a2VyMmNFRGwPTJc59cCjHzlzKHQeDguXmPZ14rzzsOUTwFocPjBPEMFssdwqH9yqgR+YT/rQOzYz+eevNb/Wqns/Z30MfYQ5uY6k1ym55z8fv+SeP/19xf8As1d+XfxTjxv8M5X9mhsSeJAD1Ft/7VrfM94meX/aPcQzZ6mvJPQ0Pnz9oHwRZaQtr4g0iFbeK5m8i6hQYQSEFldR2zhsjpkD1r28vxDn7kuh5uKpKPvI2f2bNemudL1LRJ3LLZss8GeyOTuX6BgD/wACNc2Y07S5kb4Od48vY9p715p1nJ/FTxL/AMIt4MvLyF9t7N/o9r6iRgfm/wCAgM34e9dGGpe1qKJjXqezg5Hy5pfhvUdT0HVdYtYt9npuwzsSc/McceuMZPoK+hdWMZKHc8iMHNOR7J+zd4mD2154cuH/AHkRN1bZPVCQHUfQ4P8AwI+leTmlF3VVHo4Gpp7NnuJmcDAdsfWvKTO+yYxpX/vN+dMViMnNAhCuTRYdz5BlJ/4WLK3c6sT/AORq+kgrUfkeK/4nzPsI96+dZ7FhDSAYxoAbmmBW1bUbfR9Ju9RvGxb2sbSvz1AHQe56D3NVCLnJRRMpcqbZ8lafp2rePfGEyQbX1G+eS4cscKvBY5PYdAPwFfQuUcPTV9jxVzVpmh8J/Eb+EvGcLXZaKzuG+y3itxsBPDH/AHWwfpkd6WLpe2paG2HqezqWex9ZGvm9meuRmgCh4hvX0zQNTv4gDJa2ss6g9yiFv6VdNc0kiJu0Wz5N8F2EeueM9Ls79meK5ul84k8uM5Iz6nBH419FWbp0ny9DyKS56iTPr6GKOCBIYI0jhQBURF2qo9AB0FfONuWrPZSS0Rh+LvCel+K9Oa21OEeaoPk3Cj95CfUH09R0Na0a86DvBmdSlGorM0tC0mz0LSrfTtNi8q2hXAHdj3YnuT1NRUqSqSc5blQgoR5UW2rMsYaAEoAKACgAoGFABQAUAFABQAUCHHqfrQDENACUAFAwoAKAAUALQIKAFFAC0APSmB4h+0x/rfDn+5cfzir2crekkeZj94nc/A0f8Ww0j/en/wDRz1w47+Mzrwv8JHdVxnQKOtMR8g/E7R00Dx9q9laDyoUmE0IXjYrqHAH03YH0r6PCz9rRVzyq0eSeh9V+GNQbVvDmlahJjzLq0infH95kBP6k14FaPJNxPTg+aKZyHxs8Gz+KvDcE+moZNS05mkjiHWVGA3qP9r5VI+hHeujBYhUpWlszDE0ueN1ujwbwX411nwVcXC6eYzHIw862uEJUsMj2KnqOD9c4r16uHhXV2cEK8qOx7X4V+NOgao0cGsRSaTctxvc+ZCT/AL45H4gAetebWwFSGsNTup4uE99D06GaK5gjmt5UlhkG5JI2DKw9QRwa4GmnZnTdPVB3qRnnXx+/5J2//X3F/Jq78u/jHHjf4Zyf7NHM3iP6W3/tWt803iZ4DaXyPcuhryT0GeLftHeIrb+y7Pw9C6vdNMt1OAc+UqqwUH0J3Z+g9xXrZZRfM5s8/GVfsIqfs0aTKv8AbWryAiJglrGf7xHzN+XyfnRmc1pAeBi9ZM9zryD0D5j+O/iZ9a8XyafE+bHSyYEA/il48w/XI2/8B9697AUVTp+0e7PIxlRznyroe2fDnwpFoPgWHSLyEM91Gz3yN/E8i4ZT9Bhfwrz8RVcqnOjtoUlGHKz54vFu/hx8SGNuWZ9OuNyZ/wCWsLDof95Gx9TXr2WKoepwKToVfQ+sbG7gv7G3vLSQSW9xGssbj+JWGQfyNfNTi4ScWe1dNXRIaQMUUyR3cU0B8hBc/Ebb66uB/wCRq+jX8H5Hjf8ALz5n1/2FfN9T2mIRTEMagBq9aYzyH9onxCttpVnoEDDzbs/aLgZ6RqflH4sCf+Ae9ejl1K8nUfQ4MbUsuRFj9nvw0un6JLr1whF1f5jhz/DCp/8AZmGfoq0ZhV55ci2DBUrR52ee/Hnw0mieLzfWybbTVAZ+BwJc/vB+ob/gVd2XVuenyvdHPi6fJO66nsPwX8QyeIPA1sbqTzLyyY2kp7kKAUJ/4CRz3INeVj6Psqrtsz0MNU9pTTO4IrjNyC/s4tQsbmzuQTb3ETQyAHBKsCD+hqoy5Wmugmrqx8i+LNA1XwP4l8icyRSQyCW0uk4EgByrqfXpkdjX0VGrGvC5484OlI9F8KfHSeELD4o0/wC0KOPtNnhX/GM8H8CPpXFVy7rBnVDHL7Z7B4X8X6D4oTOi6hFNKBloGBSVf+ANgke4yPeuCrh6lL4lodUK0J/CzdNYGpEaQDTQAUAFMBKQBQMKACgAoAKACgAoELnk0LYbCgQlABQMKACkAopiFoASmAooAdSAeBTA8R/aaGH8Nn/ZuR+sVevln2jzcdujt/gdx8MNG9zOf/I8lcWO/jM68N/CR3Wea5DcVetMR8p/Gu8jvviVrLxEFIWS3yP7yRqrfkwYfhX0OAg40rvqeTip3qWR9H+BLZ7PwVoNvICJEsIAwPY+WpI/M14mId6smj06WkEjoE4rEs5Lxd8PfDnimR59RszFet1urZvLkP17N/wIGuiliatL4WZzowqfEjyLxZ8D9TsIZbnw/epqUaAt9nkTy5sei9VY/l7CvSo5jGWlRWOKpg2leLucV4F8aar4L1UGFpWs9+LqxckK3rwfuuPX2wcjiumvQhXiZUa0qUrPY+sdPvIdQsba8tH329xGssbeqsAQfyNfOyi4vlZ6yaaujgvj9/yTuT2uov6125d/GRx43WmeBeGPGWteE47tdCuI4DdlPMZolkPy7sY3A4+8a9fEYaFZpy6HBRrSpp8ppz/FPxpdIYm1txv4/dQRI34FVBH4VisDRWtjR4mpLS5f8HfDTX/FV8LnU457Gxdt8t1cqfMlzydqnlif7x49z0orYylQXLDVhTws6ju9j6S0PSbPQ9Kt9O02IRWsC7UXOT7knuSckmvEqVZVZc0j1oQUFZFLxvry+GvCmo6qcGSCP90p6NITtQH23EZ9s0UaftJqJNafJByPmH4cf2VL4ytrzxNfRwWVsxupHmyfOkBBVeAc5Ygn2Br3cTJxp8lNXPIo8rqc02fRKfEzwaRxr1v+KSD/ANlrx3h6zeqPU9vT7njnx01DQdc1Ow1TQdRhupmjMFwiBhjacq3IHqR+Ar1MCpxi4SR5+KcZS5os7f8AZ28RG+0C60O4fM+nt5kOephc9P8AgLZ/76FcWY0eWXOup24KrzR5X0PW6807BRTJY7uKolnyTbrv+K8Sdjrij/yYFfQ/8ufkeT/y8+Z9cnpXzh7DGmmIY1MBhdI0aSVgkagszNwFA6k0AfIniTVz4v8AHE97dXC20F5crGskpwsEOQq5+i4J98+tfQU4+wpWSPGm/a1Ls+ibDxz4N0+ygtLXW7FLeCNYo1D52qowB+Qrx5Ua03flZ6ir0Yqykcp8Wtf8J+J/BtzDBrVo9/bEXFsATlmHBXp3BP44rpwcKtKpdxdmc+Jq0qkNHqcF8BPER0fxulhK+LPVVFuwPQSjJjP55X/gddmYUueHN2MMHU5Zcr6n06a8A9UUCmBS1vRdO12waz1izhu7Y87ZFzg+oPUH3HNXGcoO8XYmUVJWaPKPEPwG0y4LyaDqc9kx5ENwvnJ9AeGA+u6u6nmM18aucs8HF/Czx7xd4R1zwRqUC6koTcd1vd27ko5H91uCCPQgGvSpYiFZe6cdSjKkz3H4I+PLjxNaT6Vq8nmanZxiRZj1niyBk/7SkgE98jvmvMx2GVN88dmd2Gre0Vnuj09q846hhoAKYBQAhpAFAwoAKACgAoAKAEzQIU9TQMKBBQAUDCgAFACigQpoASmAo6UAOpAOBpgeI/tNnP8AwjfsLn/2lXrZXvI87Hbo7v4LDb8MNCx3WY/nPIa4ca/38jrw/wDCR2wzXNc2OO+InjzT/CWk3Pl3FvNrWNkFoHBZWI4Z16hR1564x3rpw+HnVmlbQwrVowj5nhHwz8IXPjbxODdCR9Pjfzr64buCclc/3mOf1PaverTjh6dkeVSpyq1Ln1cVA7Aew7V83J3dz20c54s8aaF4UuLGDWbzyprt8KiDcUXn944HITIxn16ZwcaUqMql2jOdWMNzctrmC8t47i0mint5BlJYnDqw9QRwazacdGaJp7Eg4NILnyr8cPsTfEnU208xniPz/L6ebtG78emffPevoMHzeyXMeRiWnU0PfPhbDNB8PNBS5DCT7MGw3XaSSv8A46VrxsVZ1XY9Khf2auYfx/4+HMv/AF9Rf1rXL/4yMcb/AAzjP2bIormTxHHPFHKmLY4dQw/5a+tdWZyacbMzwCupXPc7ezt7Y5t4Ioj/ALCBf5V5LlJ7s71FLZEx6+9SUApiPEv2kvECrbad4fgcF2b7XcAHkAAhAfrlj+Ar0sBT1c2cGMqaciOR0D4P65rWiWeoxXen263MfmLFcNIHCnoThD1GD+NdU8dTpvlaZjDCTmrpmgvwH8Qk/wDIU0Yf8Dl/+N1P9p0uzKeCn3Jx8CdbWNidV0ssASFUyHJ9OVFUszpbWZP1Gp3Rw3gfXZvB3jO1vJg8aRSGC7jIIPlk4cEeo649VFb4iCrU2kZ4ebpVNT66jdJY1kidXjcBlZTkMDyCD3FfNtcrsz2lrqOFAh/cVSJZ8k6SfM+L9kT0bXo//SgV9C9KPyPIvep8z63BOBXzp7LENAhrUxHm/wAdPEf9jeD2sIJNt5qZMAAPIi/5aH8Rhf8AgR9K68HS553fQ58VU5IW7ni3gf4ean4ztrq4sp4LaGB1TfOGw7EEkAgHkcZ+or0quKjQdpK5w0sPKrflZ1K/AfWe+raZn6Sf/E1CzWn/ACv8DX6hN9USJ8B9VPEms2Cj/ZRz/QUf2rDpFi/s+fdHAeNPDV54H8TpZtdeZNGsdzDcIpTPPBA9mUj8K6aNaOJhexjVpuhKx9UeCNfj8T+F7DVY9oeZMTIv8Eg4dfzBx7EV4Fek6VRxZ7FOaqRUkbNzPDaWstzdSpDbxKXkkc4VVHUk1mk27IbaSuzn/CHjrQfFbSx6Xd4uY3ZfImwkjqD99VPJUjn274rapQnTV5IzhVjPZnTGsTQ87+PH2I/DW/W9MfnebF9lDH5jJvGdvvs3/hmuvBX9qrHNimlDU8i/Z+hnb4ho8QPlx2kplIHAU4Az/wACK16WYfwjkwd3UPplq8A9UYaACmAUAJSGFABQAUAFABQAUAJQIU9TQMKAG0CFFAC0DCgAoEGaACgBc0wFBpAOU80wPD/2nM7PDZwcf6Tz/wB+q9TLHZyPPxq2PPND+J3inRNJttM02+his7cFY1NtExAJLHkqSeSa6J4OnUk5y3ZhHEThHliOvviR4x1UfZ5dbuhv4CWyrCx9v3YBNaQwlGCvYiVarLqafg/4WeIPEF2suowTaXYsd0k9ymJH/wB1Dgkn1OB7npUVcXToq0NS6eGnU1kfSHhfRbDw1o8Om6TF5dtH8xLHLSMerse5P/1hgAV5FSvKo7s9KnTUFZGq0lZGp4v8ZPhpea5qcmvaExnunVRPau/J2gAGMnjoB8v5dcV34XFRiuSZx16Dk+aJ5LoviDxH4MvZILO6utPkB/eW0q/KT7xsMfjjNeg6dKurvU4+epSdkb9/8XvFl3aNB9thtgw2mSCIK/4Nzg+4waiOCpRdweKqS0LXw4+Guo+IdQhv9at5bXR1YSMZQVe574UHnB7t6dOehXxcIR5YblUcPKbvLY+k0CqiqoCqowAOABXiSfM7nqpW0POf2gT/AMW7Yet5Fn8mrsy/+Mjkxv8ADOW/ZkRt3iSTHyn7Muff97W2aPWKIwF7SPc68o7xCaYDZJEijeWVtsaAsx9AOSaaV3YTdtT5Y0uCb4j/ABQ8y83CG7nM8y/3IE/g/wC+QqZ9TXuTSw9G55MP39U+pIUVEVVUKoGAAMACvEm+Z3PXSsiXNQAZpgfM3x90A6V4xOoxIRa6mvm5A4Eo4cfyb/gVe3gKnPT5Xujy8VDlnfuep/AfXzrHgeO1mbNzpjfZjk8mPGYz+Xy/8Argx1Pkqep24apzw9D0bvXGbig8igR8Y6reXOleNLy7tX8q8tNQeWNioba6SEg4PB5HQ19LFc9NLyPEbcZtnQf8Lf8AG+f+Qwn/AIBwf/EVj9QpdjX6xU7j1+Lvjc/8xhP/AADg/wDiKf1Gj2JeJqdz3f4Q63qfiLwXDqGtyCW6aaRBII1TeoOAcKAOuR+FeTjYRp1OWB6OGbnTvI8J+KmsTeJviDdpb5lSGUWNrGvOdrbeP95yx/EV6OFp8lFNnn4iTnUsfRfg3QovDnh2x0yLBMMY8xh/HIeWb8yfwxXlVqvtJNnq0qfs48pt1gaBQB5P+0L4bbU/D1vrVqm6400kSgDkwtjJ/wCAtg/Qsa9HLq3JPkfU4sZT5o8y6HN/s2+IzBql94fnbMVypuoPaRQAw/FcH/gFb5lR0VRGeCqauB7N400G38U+G7zSbqSSJZgCkiE/I4OVJH8QyBkd/brXl0qns5cyO6pBTXKfLnibwZ4h8IXnmXMEoijbdFfW2SnHQ7hyp+uDXtU61OsrXPNnSnDWxsab8XfF1nbLC19DchRgPPCrPj3Ixn6nNN4ClLUj61UjoZd9qHij4jazDG4n1K5QYjiiQKkIPU4GFUdMsfTk1qo0sLHcz/eV5H0D8MPBUfg3R3SV0m1K5Ia5lXoMdEX2GTz3JPtXkYrEe2lpsenh6PslrudiTXGdA2kAtACGgAoGFABQAUAFABQIKBjaBWJGHJpjGkUhCUALQAUDCgAoAKBBQAUAFACimBBqGn2OpRLFqNla3kSncqXEKyAH1AYHmqjJx1TBxUtymvhnw+Pu6DpA+llEP/Zar2s+5Ps49i9ZWFnY5+w2tvbZ6+RGqfyqHOT3Y+VLoTng0hi7qAEzQAmaYFa/06y1GPy9Rs7a7j7LPEsgH4EGmpOOzBpPcp2HhjQbC4Wey0XTYJ1OVkjtkDKfY4yKcqs5bsn2cFsjXJ5zUFiZoERXdtb31s9te28Nzbvw0UyB1b6g8U4ycXzLcTSkrMbpun2WmW/kabZ21nBnd5dvEsa59cAdaJSlN3kxpKKsiyWqQEzTAM5GD0pgZ2m6JpOmTSTabpllaSyDDvBAsbMOuCQOntVSqTkrSdyYwjHVI0c4rMsN1MQE0AVb+ws9ShEOo2dtdwg7hHcRLIufXDAjNVGbjrFkuKluLYadYabGyabZWtojHLLbwrGCfcKBSlJyd2xpKOxZBOakYbqYjJn8OaHPcSTz6Lpcs0jF3ke0jZmJ6kkjJNaqrNKyZPs49hv/AAjWgjpoek/+AUX/AMTR7WfcfJHsOHh7RV+7o2mL9LSMf0pe1n3Dkj2NKCOOCJYoESOJRhURcAD2ArN3buy1poil/Y+mfbBd/wBnWP2oNvE32dN4b13Yzn3p880rJ6EuMexoZpFXELUCEzQAMFdGR1DIwKsrDIIPUEUBboynYaPpmny+Zp+m2Nq+MboLdIzj6qBVSnKW7BRitkXmNShjfX3oAyrrwxoF5KZLrQ9LmkPJeS0jYn8SK0VWcdmQ4Re6NCxsrTT7fyLC1t7WHOfLgjWNc/QACocnLVlJJbE7GkMYaQhKAFoAKACgAoGFABQAUAFABSAbTGSMeTQIRqBDaACgYtABQAUAFABQAUCCgApjFzQIM0AGaBhQAUCCkAUwFzQMMmgBaQhKAAUwFpAFABTAKACkAUAFAAKYC0gENACUALTASgBKACgAoAKACgApAJQACmMdk0AITQAmaADNABmgApAIaACgAoAWgAoAKACgAoAKACgApANpgPbqaEAhNAhtA0FACigBaACgBKAAUALQAUAFABQAUCCgAoAKYC0gCgAoAWgAoAKACgAoAUUALTASgBKQCigBaACgAoAbQAUALQAlABQAlABQAUAFABQAUwCkAUAFACUDCgAoAKAEoAKACgAoAWgAoAKBBQAUAFAwpANpiHnqaBjTQISgaCgBRQIWgY2gBRQAtABQAUAFAgoAKBhQIKBhQIKACgBaAFoAM0AFMBKQCigAoAWgBKACgAoAWgBaAENACUAFABQAUAFACUwCgApAFABQAUwCkAUAIaYBSAKBhQAUCCgYUAFABQAUAFABQAUgCmIKBhQAlAaDm6mmAlIQ2gAoGLQAUAJQAooAWgAoAKACkAUwCgAoAKACgQUAGKACgYUALQIKYBQAUAKKACkAUAFABQAUALQAlABQAYoAQ0AFABQAUwCgApAFABQAUAIaACgYlABQAtABQIKACgAoGFABQIKBhQAlABQAtIAoAKYCUCHN1P1pjG0hAKAFoGIaACgAoAKAFoAKACgAoAKACgAoAKBBQAtABQAlAwoAKBC0AFMAoAUUAFIAoAKACgAoAKACgAoAKAA0AJQAmKAFoAKACgAoAKAEzTAKQBQMQ0AFAC0AIaBBQAtAwoAKACgApAIaYCUAKKAFpAFABTAbQIe3U/WmA00gAUALQAUDCgAoAKAENAgFAC0DCgAoAKACgQUAFABQAUALQAhoAKBhQAUwFoEFAC0ABoAKACkAUAFABQAUAFACUAFABQAUAFABQAlAAaYwpCCgYUAFABQAUAIaAFoAKAEzQACgBaACgBKACgQlAxaAFoAKQDaYiRup+tMBtIBKAEoAWgAoGLQAUAJ3oELQMKACgAoAKBBQACgBaAEoAKACgAoAKBhQAUAFABTEGaAFzQAUAFIAoAWgAoAKAENACCgBaACgAoAKACgBKBhQAmaAFoAKACgAoAKACgAoAQ0AJQAooAWgAoAKACgBDQIBQMWgBDQA2gRI3U0xiUgEoEJQAuKBhQAtACGgAFAgoAWgYUAFABQIKAAUAGaACgAoAKBhQIKACgYUAFABQAUCCgBRQAUAFABQAUAFABQAUwCgBKQBQAtACUAFABQMSgAFAC0AFABQIKAEoAWgYUAJQAlAh1AwoAKACgAoASgBaAENAhKAHnqaYxKQhtACigBaACgAoGJQIBQMWgAoAKACgAoEFABQAUAFABQMKACgQUAFABQMKACgQUAApgLQAUgCgBaAEoAKACgApgJQAUgCgAoAKACgAoASgAFAC0AFABimAUgENACUDFoAWgAoAKACgAoEFACUAFA7BQAUAJmgRIeppgNNIBtACigBaACgBKACgBaBhQAUAFACUCCgBaACgYUCCgYUCCgYUCCgAoAKYxaQhDQAUAFABQMKAAUCF7UAFABQAGgBKACgAoAKACgYUCCgAoAKAEoAWgAFAC0ABoASgYlAC0AFABQAUAJQAtABQAhoEJQMWgQGgBtAEzDk1TAaakBtABQAlACigBaBhQAUAFACUCCgANACUAOoAKBhQAUAFABQAUCCgAoABTAWgBKBgKQhaACgAoASgBaACgAoAKAEoAKACgAoABQMU0xCUgCgAoAKACgYUCCgAoGFABQIBTAWkAUAIaYCUgFoGJmgQlAC0ALigApjG0hEz/eP1q5bkjTUjG0hhQAmKACgAzQAUALQAUDENAgFAC0AFABQAUAFABQAUAFAC4oATFABQAooAKYCGgApAFAC0AFABQAUAFABQAUAJQAUAFABQAUAFABQAUAFABQAUAFACGgYUCDNABQAtABQAUAFABQAhoASgBaAFoAWgBDTAbSAmb7xNaS3JWw01AxDQAlIYUAFACYoAKAFoAKAEoABQAtABQAUAGKACgAoAMUALQAtMBKLCCkMKACgAoAMUAGKAEoABQAtABQAUAFABTAKQBQAUAIaACgAoAKAFoASgAoABQAtACUAIaAEoAKAHUAFACUALQAUAIaAEoAUUALQAUAIaAEoAmIwzD3rSW5AhqShDSAQ0gEoAKAA0AFAC4oAUigBMUALgUAJimAYpAKBTACKADFABigAAoAXFIBKoANACUgCgApAKKAFoASmAhoAQUgHDrQA7FACEUwGmgApAFABQAUAFABQAUAJQAtABQAlACigB4UYoAawwaAGmgBtAxRQAtAgoAKACgAoAKAEoAWgYUCFIoGGKADFIZ//2QAAAaJqdW1iAAAAKWp1bWRjYm9yABEAEIAAAKoAOJtxA2MycGEuaW5ncmVkaWVudAAAAAFxY2JvcqZoZGM6dGl0bGVqaW1hZ2Uud2VicGlkYzpmb3JtYXRkV0VCUGppbnN0YW5jZUlEeCx4bXA6aWlkOjRjMGJmZDA4LTM3MDEtNGQ2Yi1hODRlLTdmNmRmMGQ0MzUyM21jMnBhX21hbmlmZXN0o2N1cmx4PnNlbGYjanVtYmY9L2MycGEvdXJuOnV1aWQ6MjNiMTU3OTItYThjMS00ZjUzLTlhOWItOWFjYjdkYzc4NzUxY2FsZ2ZzaGEyNTZkaGFzaFggz6nqxQ2rH7xl6UmPSZIumQhHQNx7FppV5sh3bwgTv8tscmVsYXRpb25zaGlwaHBhcmVudE9maXRodW1ibmFpbKJjdXJseDlzZWxmI2p1bWJmPWMycGEuYXNzZXJ0aW9ucy9jMnBhLnRodW1ibmFpbC5pbmdyZWRpZW50LmpwZWdkaGFzaFgg9WEsoIxhfYD9KIa9nZEu/LPRFc8PeksEItxwv4hCcCkAAACwanVtYgAAAChqdW1kY2JvcgARABCAAACqADibcQNjMnBhLmhhc2guZGF0YQAAAACAY2JvcqVqZXhjbHVzaW9uc4GiZXN0YXJ0GgABEJJmbGVuZ3RoGgABG7VkbmFtZW5qdW1iZiBtYW5pZmVzdGNhbGdmc2hhMjU2ZGhhc2hYIFEVNRe+AgjlQbXd4OiNyFbbBtRW75RcSUR381VllXt+Y3BhZEgAAAAAAAAAAAAAAiBqdW1iAAAAJGp1bWRjMmNsABEAEIAAAKoAOJtxA2MycGEuY2xhaW0AAAAB9GNib3KoaGRjOnRpdGxlamltYWdlLndlYnBpZGM6Zm9ybWF0ZHdlYnBqaW5zdGFuY2VJRHgseG1wOmlpZDo3ZmMxOTI5My1lYWY4LTQ1NWQtOTI3YS1mZGRkNDAxZDIzY2FvY2xhaW1fZ2VuZXJhdG9ydkNoYXRHUFQgYzJwYS1ycy8wLjMxLjN0Y2xhaW1fZ2VuZXJhdG9yX2luZm/2aXNpZ25hdHVyZXgZc2VsZiNqdW1iZj1jMnBhLnNpZ25hdHVyZWphc3NlcnRpb25zg6JjdXJseDlzZWxmI2p1bWJmPWMycGEuYXNzZXJ0aW9ucy9jMnBhLnRodW1ibmFpbC5pbmdyZWRpZW50LmpwZWdkaGFzaFgg9WEsoIxhfYD9KIa9nZEu/LPRFc8PeksEItxwv4hCcCmiY3VybHgqc2VsZiNqdW1iZj1jMnBhLmFzc2VydGlvbnMvYzJwYS5pbmdyZWRpZW50ZGhhc2hYIONVmlFeVrZEexBqfEdnH9CSX5LBPbe1H9ZNh+/j8UuNomN1cmx4KXNlbGYjanVtYmY9YzJwYS5hc3NlcnRpb25zL2MycGEuaGFzaC5kYXRhZGhhc2hYIDM+RDEyYaA2Ble7FVvBFbjTJSYbctnmJOmjyHXSvYE2Y2FsZ2ZzaGEyNTYAADYZanVtYgAAAChqdW1kYzJjcwARABCAAACqADibcQNjMnBhLnNpZ25hdHVyZQAAADXpY2JvctKEWQe3ogEmGCGCWQMtMIIDKTCCAhGgAwIBAgIUTkkWa/Nuvvyy5UHYHXXP6uhNoQ4wDQYJKoZIhvcNAQEMBQAwSjEaMBgGA1UEAwwRV2ViQ2xhaW1TaWduaW5nQ0ExDTALBgNVBAsMBExlbnMxEDAOBgNVBAoMB1RydWVwaWMxCzAJBgNVBAYTAlVTMB4XDTI0MDEzMDE1MzUzNloXDTI1MDEyOTE1MzUzNVowVjELMAkGA1UEBhMCVVMxDzANBgNVBAoMBk9wZW5BSTEQMA4GA1UECwwHQ2hhdEdQVDEkMCIGA1UEAwwbVHJ1ZXBpYyBMZW5zIENMSSBpbiBDaGF0R1BUMFkwEwYHKoZIzj0CAQYIKoZIzj0DAQcDQgAEbuVyU+HRUoRQawTw6kWCx978MbzxNmtoxl7Xt5FQ3s7PZO2TpWoc+a6sXg1ePSDj0RonP87MNtslg4OW6s1n/6OBxTCBwjAMBgNVHRMBAf8EAjAAMB8GA1UdIwQYMBaAFFofa2bTlOewQYN9nAx7XcVzS0uzME0GCCsGAQUFBwEBBEEwPzA9BggrBgEFBQcwAYYxaHR0cDovL3ZhLnRydWVwaWMuY29tL2VqYmNhL3B1YmxpY3dlYi9zdGF0dXMvb2NzcDATBgNVHSUEDDAKBggrBgEFBQcDBDAdBgNVHQ4EFgQUmq6kDGTn3a9e9DJMcq4UCm9oc6AwDgYDVR0PAQH/BAQDAgWgMA0GCSqGSIb3DQEBDAUAA4IBAQBIh3yd2q3nn3GbrPTKBEGkY6dWkvU87undYrFqUfGTa5wnv8Ij1iRE6x/OTjM381URtpJDSfitpJ0sUVzN4f/zg9P48N9XnvXw0Y/iPfzmsbsVlbjTcp7kEv415agwIbCRSCJUiSBqZBfQMcfzd0DUXSzWJOc1Ch4xPaMJEOHy0pS08LRVrhMTaCRSLj4y7EbscOcnC3QJjwRy/zrpAmc7QT49NAmu7dVDJIwTbG4cwJkt+H5tZU1uqhaQBuTot1ojp6gL0SpB+eouE3v1gRUd+xa+PePSbrEbmBgUc7SbkbOLz0ikE+8JJLAWIHgIh6i4zresuhnHcEd6S3ioJOMTWQR+MIIEejCCAmKgAwIBAgIUafyQxMyJUII6Hqhf0oL/KNX9k5AwDQYJKoZIhvcNAQEMBQAwPzEPMA0GA1UEAwwGUm9vdENBMQ0wCwYDVQQLDARMZW5zMRAwDgYDVQQKDAdUcnVlcGljMQswCQYDVQQGEwJVUzAeFw0yMTEyMDkyMDM5NDZaFw0yNjEyMDgyMDM5NDVaMEoxGjAYBgNVBAMMEVdlYkNsYWltU2lnbmluZ0NBMQ0wCwYDVQQLDARMZW5zMRAwDgYDVQQKDAdUcnVlcGljMQswCQYDVQQGEwJVUzCCASIwDQYJKoZIhvcNAQEBBQADggEPADCCAQoCggEBAMEWEsOnUMGYzM5r+I6k8cVq+nKWiNgFM/uK7ILyZYDnQZyaxOFgFccE6Chr9cfa3gqKIvrFp6P2Cij+B2I7CssJeWV5DlialDyWLy9i1RZYzIqol8pIkAJZ6wg2568vpT37f5Pvd7G+6Ho4+BQeRBdQaOH5Z6kXSfW/Tcr79ryBoZ9kSOFYCHpcq3pB+4aGOgGh7qZy3iCi3cKoUTWdjJercnQy+RObm/q7Wf3U2FdMyK3voXEfhWwf59gd8L0q5DRmiL6ZE7B9sd9hbc2+btbz3+gzF1Mq/wN1lqOa2+cWKpEdGMdLtgMRVNbzmcZxi5O+cFK5EuXGhX1oGMECsm8CAwEAAaNjMGEwDwYDVR0TAQH/BAUwAwEB/zAfBgNVHSMEGDAWgBRYuvGp8g3nRQYKsCmnWpcw6ic9CzAdBgNVHQ4EFgQUWh9rZtOU57BBg32cDHtdxXNLS7MwDgYDVR0PAQH/BAQDAgGGMA0GCSqGSIb3DQEBDAUAA4ICAQB1OIZ6FxFC8Fd8BrC7d907jYXKacXkQVozjCF6hnF/Re2LfFPQqucxuHM/d1NhoGGfpk6F6vPwyD3bjOeQVxWwX3yRNmOTqWhW6UXHTzsnFIqckmsBXYIrB0fL0QRWP6vUQxsuNBbq0lPQog0K5Y2XF0QOGbv/2WGGBsJ7TVtafw5xWV841f924Y7fnSkzQGLqJaPaJhVVyeV8UDChP0qhuN2Rekt8C6gkyNQr4pXTlgLMqgLVD7XGwrL3wkAAILPiyz7R1snJrUKLYV2svkPn96tQB6GOu4Ltk29B6myonIwHHPQflsQl4V28xw2lrALtuZOtaSr47Cs2OGs/wn6IiW0cEFCed8smoUe05BvZOEq+S4O2PSKy3QQ/UoWib7QQia87XqXoOXT8Bi5vI8Ul+5IzqxezpmAQEXPfvT6LtSDtOS6odwROQsS8Fra4LUEiVJyeHkzAXJoSf1XdhKKcQJhoiuVp/+Syu5uTuf9KS3VdcyzuRMpmwWEncexQqSPTIVE2gY2rVo+meAkb3VXydFMz+RXnMKdJE0y5qCOysar+pdTfytTFN7c8idg+s67OSW9MbMlIe+vzUY7fjNfTfADQaZgypZQxlpjBJuchCR0a57dacDbg1SkSn6TCb4rFbeO7CSn/gop4Va5hiSq7e+mf/VD/nlxEYrbdgifp0aJmc2lnVHN0oWl0c3RUb2tlbnOBoWN2YWxZF0Awghc8MAMCAQAwghczBgkqhkiG9w0BBwKgghckMIIXIAIBAzEPMA0GCWCGSAFlAwQCAQUAMIGCBgsqhkiG9w0BCRABBKBzBHEwbwIBAQYJYIZIAYb9bAcBMDEwDQYJYIZIAWUDBAIBBQAEIDHP5DDWDnpXHOUIr3MxX9kvUj8L2FzEJ4NUx9zthHf2AhAcf8qlSJysDG/kkXRmboMfGA8yMDI0MDgxOTE2MTAwMFoCCQCWhBcnErDFN6CCEwkwggbCMIIEqqADAgECAhAFRK/zlJ0IOaa/2z9f5WEWMA0GCSqGSIb3DQEBCwUAMGMxCzAJBgNVBAYTAlVTMRcwFQYDVQQKEw5EaWdpQ2VydCwgSW5jLjE7MDkGA1UEAxMyRGlnaUNlcnQgVHJ1c3RlZCBHNCBSU0E0MDk2IFNIQTI1NiBUaW1lU3RhbXBpbmcgQ0EwHhcNMjMwNzE0MDAwMDAwWhcNMzQxMDEzMjM1OTU5WjBIMQswCQYDVQQGEwJVUzEXMBUGA1UEChMORGlnaUNlcnQsIEluYy4xIDAeBgNVBAMTF0RpZ2lDZXJ0IFRpbWVzdGFtcCAyMDIzMIICIjANBgkqhkiG9w0BAQEFAAOCAg8AMIICCgKCAgEAo1NFhx2DjlusPlSzI+DPn9fl0uddoQ4J3C9Io5d6OyqcZ9xiFVjBqZMRp82qsmrdECmKHmJjadNYnDVxvzqX65RQjxwg6seaOy+WZuNp52n+W8PWKyAcwZeUtKVQgfLPywemMGjKg0La/H8JJJSkghraarrYO8pd3hkYhftF6g1hbJ3+cV7EBpo88MUueQ8bZlLjyNY+X9pD04T10Mf2SC1eRXWWdf7dEKEbg8G45lKVtUfXeCk5a+B4WZfjRCtK1ZXO7wgX6oJkTf8j48qG7rSkIWRw69XloNpjsy7pBe6q9iT1HbybHLK3X9/w7nZ9MZllR1WdSiQvrCuXvp/k/XtzPjLuUjT71Lvr1KAsNJvj3m5kGQc3AZEPHLVRzapMZoOIaGK7vEEbeBlt5NkP4FhB+9ixLOFRr7StFQYU6mIIE9NpHnxkTZ0P387RXoyqq1AVybPKvNfEO2hEo6U7Qv1zfe7dCv95NBB+plwKWEwAPoVpdceDZNZ1zY8SdlalJPrXxGshuugfNJgvOuprAbD3+yqG7HtSOKmYCaFxsmxxrz64b5bV4RAT/mFHCoz+8LbH1cfebCTwv0KCyqBxPZySkwS0aXAnDU+3tTbRyV8IpHCj7ArxES5k4MsiK8rxKBMhSVF+BmbTO77665E42FEHypS34lCh8zrTioPLQHsCAwEAAaOCAYswggGHMA4GA1UdDwEB/wQEAwIHgDAMBgNVHRMBAf8EAjAAMBYGA1UdJQEB/wQMMAoGCCsGAQUFBwMIMCAGA1UdIAQZMBcwCAYGZ4EMAQQCMAsGCWCGSAGG/WwHATAfBgNVHSMEGDAWgBS6FtltTYUvcyl2mi91jGogj57IbzAdBgNVHQ4EFgQUpbbvE+fvzdBkodVWqWUxo97V40kwWgYDVR0fBFMwUTBPoE2gS4ZJaHR0cDovL2NybDMuZGlnaWNlcnQuY29tL0RpZ2lDZXJ0VHJ1c3RlZEc0UlNBNDA5NlNIQTI1NlRpbWVTdGFtcGluZ0NBLmNybDCBkAYIKwYBBQUHAQEEgYMwgYAwJAYIKwYBBQUHMAGGGGh0dHA6Ly9vY3NwLmRpZ2ljZXJ0LmNvbTBYBggrBgEFBQcwAoZMaHR0cDovL2NhY2VydHMuZGlnaWNlcnQuY29tL0RpZ2lDZXJ0VHJ1c3RlZEc0UlNBNDA5NlNIQTI1NlRpbWVTdGFtcGluZ0NBLmNydDANBgkqhkiG9w0BAQsFAAOCAgEAgRrW3qCptZgXvHCNT4o8aJzYJf/LLOTN6l0ikuyMIgKpuM+AqNnn48XtJoKKcS8Y3U623mzX4WCcK+3tPUiOuGu6fF29wmE3aEl3o+uQqhLXJ4Xzjh6S2sJAOJ9dyKAuJXglnSoFeoQpmLZXeY/bJlYrsPOnvTcM2Jh2T1a5UsK2nTipgedtQVyMadG5K8TGe8+c+njikxp2oml101DkRBK+IA2eqUTQ+OVJdwhaIcW0z5iVGlS6ubzBaRm6zxbygzc0brBBJt3eWpdPM43UjXd9dUWhpVgmagNF3tlQtVCMr1a9TMXhRsUo063nQwBw3syYnhmJA+rUkTfvTVLzyWAhxFZH7doRS4wyw4jmWOK22z75X7BC1o/jF5HRqsBV44a/rCcsQdCaM0qoNtS5cpZ+l3k4SF/Kwtw9Mt911jZnWon49qfH5U81PAC9vpwqbHkB3NpE5jreODsHXjlY9HxzMVWggBHLFAx+rrz+pOt5Zapo1iLKO+uagjVXKBbLafIymrLS2Dq4sUaGa7oX/cR3bBVsrquvczroSUa31X/MtjjA2Owc9bahuEMs305MfR5ocMB3CtQC4Fxguyj/OOVSWtasFyIjTvTs0xf7UGv/B3cfcZdEQcm4RtNsMnxYL2dHZeUbc7aZ+WssBkbvQR7w8F/g29mtkIBEr4AQQYowggauMIIElqADAgECAhAHNje3JFR82Ees/ShmKl5bMA0GCSqGSIb3DQEBCwUAMGIxCzAJBgNVBAYTAlVTMRUwEwYDVQQKEwxEaWdpQ2VydCBJbmMxGTAXBgNVBAsTEHd3dy5kaWdpY2VydC5jb20xITAfBgNVBAMTGERpZ2lDZXJ0IFRydXN0ZWQgUm9vdCBHNDAeFw0yMjAzMjMwMDAwMDBaFw0zNzAzMjIyMzU5NTlaMGMxCzAJBgNVBAYTAlVTMRcwFQYDVQQKEw5EaWdpQ2VydCwgSW5jLjE7MDkGA1UEAxMyRGlnaUNlcnQgVHJ1c3RlZCBHNCBSU0E0MDk2IFNIQTI1NiBUaW1lU3RhbXBpbmcgQ0EwggIiMA0GCSqGSIb3DQEBAQUAA4ICDwAwggIKAoICAQDGhjUGSbPBPXJJUVXHJQPE8pE3qZdRodbSg9GeTKJtoLDMg/la9hGhRBVCX6SI82j6ffOciQt/nR+eDzMfUBMLJnOWbfhXqAJ9/UO0hNoR8XOxs+4rgISKIhjf69o9xBd/qxkrPkLcZ47qUT3w1lbU5ygt69OxtXXnHwZljZQp09nsad/ZkIdGAHvbREGJ3HxqV3rwN3mfXazL6IRktFLydkf3YYMZ3V+0VAshaG43IbtArF+y3kp9zvU5EmfvDqVjbOSmxR3NNg1c1eYbqMFkdECnwHLFuk4fsbVYTXn+149zk6wsOeKlSNbwsDETqVcplicu9Yemj052FVUmcJgmf6AaRyBD40NjgHt1biclkJg6OBGz9vae5jtb7IHeIhTZgirHkr+g3uM+onP65x9abJTyUpURK1h0QCirc0PO30qhHGs4xSnzyqqWc0Jon7ZGs506o9UD4L/wojzKQtwYSH8UNM/STKvvmz3+DrhkKvp1KCRB7UK/BZxmSVJQ9FHzNklNiyDSLFc1eSuo80VgvCONWPfcYd6T/jnA+bIwpUzX6ZhKWD7TA4j+s4/TXkt2ElGTyYwMO1uKIqjBJgj5FBASA31fI7tk42PgpuE+9sJ0sj8eCXbsq11GdeJgo1gJASgADoRU7s7pXcheMBK9Rp6103a50g5rmQzSM7TNsQIDAQABo4IBXTCCAVkwEgYDVR0TAQH/BAgwBgEB/wIBADAdBgNVHQ4EFgQUuhbZbU2FL3MpdpovdYxqII+eyG8wHwYDVR0jBBgwFoAU7NfjgtJxXWRM3y5nP+e6mK4cD08wDgYDVR0PAQH/BAQDAgGGMBMGA1UdJQQMMAoGCCsGAQUFBwMIMHcGCCsGAQUFBwEBBGswaTAkBggrBgEFBQcwAYYYaHR0cDovL29jc3AuZGlnaWNlcnQuY29tMEEGCCsGAQUFBzAChjVodHRwOi8vY2FjZXJ0cy5kaWdpY2VydC5jb20vRGlnaUNlcnRUcnVzdGVkUm9vdEc0LmNydDBDBgNVHR8EPDA6MDigNqA0hjJodHRwOi8vY3JsMy5kaWdpY2VydC5jb20vRGlnaUNlcnRUcnVzdGVkUm9vdEc0LmNybDAgBgNVHSAEGTAXMAgGBmeBDAEEAjALBglghkgBhv1sBwEwDQYJKoZIhvcNAQELBQADggIBAH1ZjsCTtm+YqUQiAX5m1tghQuGwGC4QTRPPMFPOvxj7x1Bd4ksp+3CKDaopafxpwc8dB+k+YMjYC+VcW9dth/qEICU0MWfNthKWb8RQTGIdDAiCqBa9qVbPFXONASIlzpVpP0d3+3J0FNf/q0+KLHqrhc1DX+1gtqpPkWaeLJ7giqzl/Yy8ZCaHbJK9nXzQcAp876i8dU+6WvepELJd6f8oVInw1YpxdmXazPByoyP6wCeCRK6ZJxurJB4mwbfeKuv2nrF5mYGjVoarCkXJ38SNoOeY+/umnXKvxMfBwWpx2cYTgAnEtp/Nh4cku0+jSbl3ZpHxcpzpSwJSpzd+k1OsOx0ISQ+UzTl63f8lY5knLD0/a6fxZsNBzU+2QJshIUDQtxMkzdwdeDrknq3lNHGS1yZr5Dhzq6YBT70/O3itTK37xJV77QpfMzmHQXh6OOmc4d0j/R0o08f56PGYX/sr2H7yRp11LB4nLCbbbxV7HhmLNriT1ObyF5lZynDwN7+YAN8gFk8n+2BnFqFmut1VwDophrCYoCvtlUG3OtUVmDG0YgkPCr2B2RP+v6TR81fZvAT6gt4y3wSJ8ADNXcL50CN/AAvkdgIm2fBldkKmKYcJRyvmfxqkhQ/8mJb2VVQrH4D6wPIOK+XW+6kvRBVK5xMOHds3OBqhK/bt1nz8MIIFjTCCBHWgAwIBAgIQDpsYjvnQLefv21DiCEAYWjANBgkqhkiG9w0BAQwFADBlMQswCQYDVQQGEwJVUzEVMBMGA1UEChMMRGlnaUNlcnQgSW5jMRkwFwYDVQQLExB3d3cuZGlnaWNlcnQuY29tMSQwIgYDVQQDExtEaWdpQ2VydCBBc3N1cmVkIElEIFJvb3QgQ0EwHhcNMjIwODAxMDAwMDAwWhcNMzExMTA5MjM1OTU5WjBiMQswCQYDVQQGEwJVUzEVMBMGA1UEChMMRGlnaUNlcnQgSW5jMRkwFwYDVQQLExB3d3cuZGlnaWNlcnQuY29tMSEwHwYDVQQDExhEaWdpQ2VydCBUcnVzdGVkIFJvb3QgRzQwggIiMA0GCSqGSIb3DQEBAQUAA4ICDwAwggIKAoICAQC/5pBzaN675F1KPDAiMGkz7MKnJS7JIT3yithZwuEppz1Yq3aaza57G4QNxDAf8xukOBbrVsaXbR2rsnnyyhHS5F/WBTxSD1Ifxp4VpX6+n6lXFllVcq9ok3DCsrp1mWpzMpTREEQQLt+C8weE5nQ7bXHiLQwb7iDVySAdYyktzuxeTsiT+CFhmzTrBcZe7FsavOvJz82sNEBfsXpm7nfISKhmV1efVFiODCu3T6cw2Vbuyntd463JT17lNecxy9qTXtyOj4DatpGYQJB5w3jHtrHEtWoYOAMQjdjUN6QuBX2I9YI+EJFwq1WCQTLX2wRzKm6RAXwhTNS8rhsDdV14Ztk6MUSaM0C/CNdaSaTC5qmgZ92kJ7yhTzm1EVgX9yRcRo9k98FpiHaYdj1ZXUJ2h4mXaXpI8OCiEhtmmnTK3kse5w5jrubU75KSOp493ADkRSWJtppEGSt+wJS00mFt6zPZxd9LBADMfRyVw4/3IbKyEbe7f/LVjHAsQWCqsWMYRJUadmJ+9oCw++hkpjPRiQfhvbfmQ6QYuKZ3AeEPlAwhHbJUKSWJbOUOUlFHdL4mrLZBdd56rF+NP8m800ERElvlEFDrMcXKchYiCd98THU/Y+whX8QgUWtvsauGi0/C1kVfnSD8oR7FwI+isX4KJpn15GkvmB0t9dmpsh3lGwIDAQABo4IBOjCCATYwDwYDVR0TAQH/BAUwAwEB/zAdBgNVHQ4EFgQU7NfjgtJxXWRM3y5nP+e6mK4cD08wHwYDVR0jBBgwFoAUReuir/SSy4IxLVGLp6chnfNtyA8wDgYDVR0PAQH/BAQDAgGGMHkGCCsGAQUFBwEBBG0wazAkBggrBgEFBQcwAYYYaHR0cDovL29jc3AuZGlnaWNlcnQuY29tMEMGCCsGAQUFBzAChjdodHRwOi8vY2FjZXJ0cy5kaWdpY2VydC5jb20vRGlnaUNlcnRBc3N1cmVkSURSb290Q0EuY3J0MEUGA1UdHwQ+MDwwOqA4oDaGNGh0dHA6Ly9jcmwzLmRpZ2ljZXJ0LmNvbS9EaWdpQ2VydEFzc3VyZWRJRFJvb3RDQS5jcmwwEQYDVR0gBAowCDAGBgRVHSAAMA0GCSqGSIb3DQEBDAUAA4IBAQBwoL9DXFXnOF+go3QbPbYW1/e/Vwe9mqyhhyzshV6pGrsi+IcaaVQi7aSId229GhT0E0p6Ly23OO/0/4C5+KH38nLeJLxSA8hO0Cre+i1Wz/n096wwepqLsl7Uz9FDRJtDIeuWcqFItJnLnU+nBgMTdydE1Od/6Fmo8L8vC6bp8jQ87PcDx4eo0kxAGTVGamlUsLihVo7spNU96LHc/RzY9HdaXFSMb++hUD38dglohJ9vytsgjTVgHAIDyyCwrFigDkBjxZgiwbJZ9VVrzyerbHbObyMt9H5xaiNrIv8SuFQtJ37YOtnwtoeW/VvRXKwYw02fc7cBqZ9Xql4o4rmUMYIDdjCCA3ICAQEwdzBjMQswCQYDVQQGEwJVUzEXMBUGA1UEChMORGlnaUNlcnQsIEluYy4xOzA5BgNVBAMTMkRpZ2lDZXJ0IFRydXN0ZWQgRzQgUlNBNDA5NiBTSEEyNTYgVGltZVN0YW1waW5nIENBAhAFRK/zlJ0IOaa/2z9f5WEWMA0GCWCGSAFlAwQCAQUAoIHRMBoGCSqGSIb3DQEJAzENBgsqhkiG9w0BCRABBDAcBgkqhkiG9w0BCQUxDxcNMjQwODE5MTYxMDAwWjArBgsqhkiG9w0BCRACDDEcMBowGDAWBBRm8CsywsLJD4JdzqqKycZPGZzPQDAvBgkqhkiG9w0BCQQxIgQgOKZRijbMF1AjRkdClCzsH7KcLR1Mx8+yvbsMZXYHxJMwNwYLKoZIhvcNAQkQAi8xKDAmMCQwIgQg0vbkbe10IszR1EBXaEE2b4KK2lWarjMWr00amtQMeCgwDQYJKoZIhvcNAQEBBQAEggIACpw5/0uoLq+rh0WQLvT1mvBeQpuhPwNdXbjHFqz95wANTTYux2zTdNWYJfbsrRUWSFLoWoqQK7YY5kvHffT0zeZCqRCYbMGGpyYyjZDRzipVlAy5TPermE5IKsAnVBn0JLrQaCRwZHcdWaQn167UM76Cza5pSaWeM2JPkitN5HxNZSLW5ZXhXW+G7y7h3eaXOxdW62b41JCoV8XwxcgWHh9HjC1FTMXIpPQxGrV4pNV1uCxlYqxNX+JQ1dB94lPtQKorsvxSCT+iFFnzgDk0SAw5MIH0gTl7N7xciw/3mKJkXlHASlaTARYWUnRgQ2TAmKKZORsy3aY3YYfFr55quVp/x2NtJ0QKOhRwRfPAP0tnHMZd7g5yVCfidm0z01pvQioGL9HptuyqZmSRJyeFxUs96rpmm6jT/BRqPWaVCaDjQhVBLu0VstZYIuyYqDVD5IfRi3yrpEUT/rfnK9miAbeIA8yaAAWJgoZPagXlRLBBTInhTBIxsTJ4f2ELX7c+nEenZLk3yS76UOmv59p98qfK8NtLhW0fLEqrrQIjrnbUCq5eCXWEnjVTLm8x536XWRO1vb/Q1b0vjoG9ad4MWcbJHnvRiHxUp0GikGQOfpUJCI3QwIR5pjU6AxNlCzx9Ks18KzG+z3BAUzyGstqezAFtAgv+F1IbG2pYfafatfZjcGFkWRZ/AAAAAAAAAAAAAAAAAAAAAAAAAAAAAAAAAAAAAAAAAAAAAAAAAAAAAAAAAAAAAAAAAAAAAAAAAAAAAAAAAAAAAAAAAAAAAAAAAAAAAAAAAAAAAAAAAAAAAAAAAAAAAAAAAAAAAAAAAAAAAAAAAAAAAAAAAAAAAAAAAAAAAAAAAAAAAAAAAAAAAAAAAAAAAAAAAAAAAAAAAAAAAAAAAAAAAAAAAAAAAAAAAAAAAAAAAAAAAAAAAAAAAAAAAAAAAAAAAAAAAAAAAAAAAAAAAAAAAAAAAAAAAAAAAAAAAAAAAAAAAAAAAAAAAAAAAAAAAAAAAAAAAAAAAAAAAAAAAAAAAAAAAAAAAAAAAAAAAAAAAAAAAAAAAAAAAAAAAAAAAAAAAAAAAAAAAAAAAAAAAAAAAAAAAAAAAAAAAAAAAAAAAAAAAAAAAAAAAAAAAAAAAAAAAAAAAAAAAAAAAAAAAAAAAAAAAAAAAAAAAAAAAAAAAAAAAAAAAAAAAAAAAAAAAAAAAAAAAAAAAAAAAAAAAAAAAAAAAAAAAAAAAAAAAAAAAAAAAAAAAAAAAAAAAAAAAAAAAAAAAAAAAAAAAAAAAAAAAAAAAAAAAAAAAAAAAAAAAAAAAAAAAAAAAAAAAAAAAAAAAAAAAAAAAAAAAAAAAAAAAAAAAAAAAAAAAAAAAAAAAAAAAAAAAAAAAAAAAAAAAAAAAAAAAAAAAAAAAAAAAAAAAAAAAAAAAAAAAAAAAAAAAAAAAAAAAAAAAAAAAAAAAAAAAAAAAAAAAAAAAAAAAAAAAAAAAAAAAAAAAAAAAAAAAAAAAAAAAAAAAAAAAAAAAAAAAAAAAAAAAAAAAAAAAAAAAAAAAAAAAAAAAAAAAAAAAAAAAAAAAAAAAAAAAAAAAAAAAAAAAAAAAAAAAAAAAAAAAAAAAAAAAAAAAAAAAAAAAAAAAAAAAAAAAAAAAAAAAAAAAAAAAAAAAAAAAAAAAAAAAAAAAAAAAAAAAAAAAAAAAAAAAAAAAAAAAAAAAAAAAAAAAAAAAAAAAAAAAAAAAAAAAAAAAAAAAAAAAAAAAAAAAAAAAAAAAAAAAAAAAAAAAAAAAAAAAAAAAAAAAAAAAAAAAAAAAAAAAAAAAAAAAAAAAAAAAAAAAAAAAAAAAAAAAAAAAAAAAAAAAAAAAAAAAAAAAAAAAAAAAAAAAAAAAAAAAAAAAAAAAAAAAAAAAAAAAAAAAAAAAAAAAAAAAAAAAAAAAAAAAAAAAAAAAAAAAAAAAAAAAAAAAAAAAAAAAAAAAAAAAAAAAAAAAAAAAAAAAAAAAAAAAAAAAAAAAAAAAAAAAAAAAAAAAAAAAAAAAAAAAAAAAAAAAAAAAAAAAAAAAAAAAAAAAAAAAAAAAAAAAAAAAAAAAAAAAAAAAAAAAAAAAAAAAAAAAAAAAAAAAAAAAAAAAAAAAAAAAAAAAAAAAAAAAAAAAAAAAAAAAAAAAAAAAAAAAAAAAAAAAAAAAAAAAAAAAAAAAAAAAAAAAAAAAAAAAAAAAAAAAAAAAAAAAAAAAAAAAAAAAAAAAAAAAAAAAAAAAAAAAAAAAAAAAAAAAAAAAAAAAAAAAAAAAAAAAAAAAAAAAAAAAAAAAAAAAAAAAAAAAAAAAAAAAAAAAAAAAAAAAAAAAAAAAAAAAAAAAAAAAAAAAAAAAAAAAAAAAAAAAAAAAAAAAAAAAAAAAAAAAAAAAAAAAAAAAAAAAAAAAAAAAAAAAAAAAAAAAAAAAAAAAAAAAAAAAAAAAAAAAAAAAAAAAAAAAAAAAAAAAAAAAAAAAAAAAAAAAAAAAAAAAAAAAAAAAAAAAAAAAAAAAAAAAAAAAAAAAAAAAAAAAAAAAAAAAAAAAAAAAAAAAAAAAAAAAAAAAAAAAAAAAAAAAAAAAAAAAAAAAAAAAAAAAAAAAAAAAAAAAAAAAAAAAAAAAAAAAAAAAAAAAAAAAAAAAAAAAAAAAAAAAAAAAAAAAAAAAAAAAAAAAAAAAAAAAAAAAAAAAAAAAAAAAAAAAAAAAAAAAAAAAAAAAAAAAAAAAAAAAAAAAAAAAAAAAAAAAAAAAAAAAAAAAAAAAAAAAAAAAAAAAAAAAAAAAAAAAAAAAAAAAAAAAAAAAAAAAAAAAAAAAAAAAAAAAAAAAAAAAAAAAAAAAAAAAAAAAAAAAAAAAAAAAAAAAAAAAAAAAAAAAAAAAAAAAAAAAAAAAAAAAAAAAAAAAAAAAAAAAAAAAAAAAAAAAAAAAAAAAAAAAAAAAAAAAAAAAAAAAAAAAAAAAAAAAAAAAAAAAAAAAAAAAAAAAAAAAAAAAAAAAAAAAAAAAAAAAAAAAAAAAAAAAAAAAAAAAAAAAAAAAAAAAAAAAAAAAAAAAAAAAAAAAAAAAAAAAAAAAAAAAAAAAAAAAAAAAAAAAAAAAAAAAAAAAAAAAAAAAAAAAAAAAAAAAAAAAAAAAAAAAAAAAAAAAAAAAAAAAAAAAAAAAAAAAAAAAAAAAAAAAAAAAAAAAAAAAAAAAAAAAAAAAAAAAAAAAAAAAAAAAAAAAAAAAAAAAAAAAAAAAAAAAAAAAAAAAAAAAAAAAAAAAAAAAAAAAAAAAAAAAAAAAAAAAAAAAAAAAAAAAAAAAAAAAAAAAAAAAAAAAAAAAAAAAAAAAAAAAAAAAAAAAAAAAAAAAAAAAAAAAAAAAAAAAAAAAAAAAAAAAAAAAAAAAAAAAAAAAAAAAAAAAAAAAAAAAAAAAAAAAAAAAAAAAAAAAAAAAAAAAAAAAAAAAAAAAAAAAAAAAAAAAAAAAAAAAAAAAAAAAAAAAAAAAAAAAAAAAAAAAAAAAAAAAAAAAAAAAAAAAAAAAAAAAAAAAAAAAAAAAAAAAAAAAAAAAAAAAAAAAAAAAAAAAAAAAAAAAAAAAAAAAAAAAAAAAAAAAAAAAAAAAAAAAAAAAAAAAAAAAAAAAAAAAAAAAAAAAAAAAAAAAAAAAAAAAAAAAAAAAAAAAAAAAAAAAAAAAAAAAAAAAAAAAAAAAAAAAAAAAAAAAAAAAAAAAAAAAAAAAAAAAAAAAAAAAAAAAAAAAAAAAAAAAAAAAAAAAAAAAAAAAAAAAAAAAAAAAAAAAAAAAAAAAAAAAAAAAAAAAAAAAAAAAAAAAAAAAAAAAAAAAAAAAAAAAAAAAAAAAAAAAAAAAAAAAAAAAAAAAAAAAAAAAAAAAAAAAAAAAAAAAAAAAAAAAAAAAAAAAAAAAAAAAAAAAAAAAAAAAAAAAAAAAAAAAAAAAAAAAAAAAAAAAAAAAAAAAAAAAAAAAAAAAAAAAAAAAAAAAAAAAAAAAAAAAAAAAAAAAAAAAAAAAAAAAAAAAAAAAAAAAAAAAAAAAAAAAAAAAAAAAAAAAAAAAAAAAAAAAAAAAAAAAAAAAAAAAAAAAAAAAAAAAAAAAAAAAAAAAAAAAAAAAAAAAAAAAAAAAAAAAAAAAAAAAAAAAAAAAAAAAAAAAAAAAAAAAAAAAAAAAAAAAAAAAAAAAAAAAAAAAAAAAAAAAAAAAAAAAAAAAAAAAAAAAAAAAAAAAAAAAAAAAAAAAAAAAAAAAAAAAAAAAAAAAAAAAAAAAAAAAAAAAAAAAAAAAAAAAAAAAAAAAAAAAAAAAAAAAAAAAAAAAAAAAAAAAAAAAAAAAAAAAAAAAAAAAAAAAAAAAAAAAAAAAAAAAAAAAAAAAAAAAAAAAAAAAAAAAAAAAAAAAAAAAAAAAAAAAAAAAAAAAAAAAAAAAAAAAAAAAAAAAAAAAAAAAAAAAAAAAAAAAAAAAAAAAAAAAAAAAAAAAAAAAAAAAAAAAAAAAAAAAAAAAAAAAAAAAAAAAAAAAAAAAAAAAAAAAAAAAAAAAAAAAAAAAAAAAAAAAAAAAAAAAAAAAAAAAAAAAAAAAAAAAAAAAAAAAAAAAAAAAAAAAAAAAAAAAAAAAAAAAAAAAAAAAAAAAAAAAAAAAAAAAAAAAAAAAAAAAAAAAAAAAAAAAAAAAAAAAAAAAAAAAAAAAAAAAAAAAAAAAAAAAAAAAAAAAAAAAAAAAAAAAAAAAAAAAAAAAAAAAAAAAAAAAAAAAAAAAAAAAAAAAAAAAAAAAAAAAAAAAAAAAAAAAAAAAAAAAAAAAAAAAAAAAAAAAAAAAAAAAAAAAAAAAAAAAAAAAAAAAAAAAAAAAAAAAAAAAAAAAAAAAAAAAAAAAAAAAAAAAAAAAAAAAAAAAAAAAAAAAAAAAAAAAAAAAAAAAAAAAAAAAAAAAAAAAAAAAAAAAAAAAAAAAAAAAAAAAAAAAAAAAAAAAAAAAAAAAAAAAAAAAAAAAAAAAAAAAAAAAAAAAAAAAAAAAAAAAAAAAAAAAAAAAAAAAAAAAAAAAAAAAAAAAAAAAAAAAAAAAAAAAAAAAAAAAAAAAAAAAAAAAAAAAAAAAAAAAAAAAAAAAAAAAAAAAAAAAAAAAAAAAAAAAAAAAAAAAAAAAAAAAAAAAAAAAAAAAAAAAAAAAAAAAAAAAAAAAAAAAAAAAAAAAAAAAAAAAAAAAAAAAAAAAAAAAAAAAAAAAAAAAAAAAAAAAAAAAAAAAAAAAAAAAAAAAAAAAAAAAAAAAAAAAAAAAAAAAAAAAAAAAAAAAAAAAAAAAAAAAAAAAAAAAAAAAAAAAAAAAAAAAAAAAAAAAAAAAAAAAAAAAAAAAAAAAAAAAAAAAAAAAAAAAAAAAAAAAAAAAAAAAAAAAAAAAAAAAAAAAAAAAAAAAAAAAAAAAAAAAAAAAAAAAAAAAAAAAAAAAAAAAAAAAAAAAAAAAAAAAAAAAAAAAAAAAAAAAAAAAAAAAAAAAAAAAAAAAAAAAAAAAAAAAAAAAAAAAAAAAAAAAAAAAAAAAAAAAAAAAAAAAAAAAAAAAAAAAAAAAAAAAAAAAAAAAAAAAAAAAAAAAAAAAAAAAAAAAAAAAAAAAAAAAAAAAAAAAAAAAAAAAAAAAAAAAAAAAAAAAAAAAAAAAAAAAAAAAAAAAAAAAAAAAAAAAAAAAAAAAAAAAAAAAAAAAAAAAAAAAAAAAAAAAAAAAAAAAAAAAAAAAAAAAAAAAAAAAAAAAAAAAAAAAAAAAAAAAAAAAAAAAAAAAAAAAAAAAAAAAAAAAAAAAAAAAAAAAAAAAAAAAAAAAAAAAAAAAAAAAAAAAAAAAAAAAAAAAAAAAAAAAAAAAAAAAAAAAAAAAAAAAAAAAAAAAAAAAAAAAAAAAAAAAAAAAAAAAAAAAAAAAAAAAAAAAAAAAAAAAAAAAAAAAAAAAAAAAAAAAAAAAAAAAAAAAAAAAAAAAAAAAAAAAAAAAAAAAAAAAAAAAAAAAAAAAAAAAAAAAAAAAAAAAAAAAAAAAAAAAAAAAAAAAAAAAAAAAAAAAAAAAAAAAAAAAAAAAAAAAAAAAAAAAAAAAAAAAAAAAAAAAAAAAAAAAAAAAAAAAAAAAAAAAAAAAAAAAAAAAAAAAAAAAAAAAAAAAAAAAAAAAAAAAAAAAAAAAAAAAAAAAAAAAAAAAAAAAAAAAAAAAAAAAAAAAAAAAAAAAAAAAAAAAAAAAAAAAAAAAAAAAAAAAAAAAAAAAAAAAAAAAAAAAAAAAAAAAAAAAAAAAAAAAAAAAAAAAAAAAAAAAAAAAAAAAAAAAAAAAAAAAAAAAAAAAAAAAAAAAAAAAAAAAAAAAAAAAAAAAAAAAAAAAAAAAAAAAAAAAAAAAAAAAAAAAAAAAAAAAAAAAAAAAAAAAAAAAAAAAAAAAAAAAAAAAAAAAAAAAAAAAAAAAAAAAAAAAAAAAAAAAAAAAAAAAAAAAAAAAAAAAAAAAAAAAAAAAAAAAAAAAAAAAAAAAAAAAAAAAAAAAAAAAAAAAAAAAAAAAAAAAAAAAAAAAAAAAAAAAAAAAAAAAAAAAAAAAAAAAAAAAAAAAAAAAAAAAAAAAAAAAAAAAAAAAAAAAAAAAAAAAAAAAAAAAAAAAAAAAAAAAAAAAAAAAAAAAAAAAAAAAAAAAAAAAAAAAAAAAAAAAAAAAAAAAAAAAAAAAAAAAAAAAAAAAAAAAAAAAAAAAAAAAAAAAAAAAAAAAAAAAAAAAAAAAAAAAAAAAAAAAAAAAAAAAAAAAAAAAAAAAAAAAAAAAAAAAAAAAAAAAAAAAAAAAAAAAAAAAAAAAAAAAAAAAAAAAAAAAAAAAAAAAAAAAAAAAAAAAAAAAAAAAAAAAAAAAAAAAAAAAAAAAAAAAAAAAAAAAAAAAAAAAAAAAAAAAAAAAAAAAAAAAAAAAAAAAAAAAAAAAAAAAAAAAAAAAAAAAAAAAAAAAAAAAAAAAAAAAAAAAAAAAAAAAAAAAAAAAAAAAAAAAAAAAAAAAAAAAAAAAAAAAAAAAAAAAAAAAAAAAAAAAAAAAAAAAAAAAAAAAAAAAAAAAAAAAAAAAAAAAAAAAAAAAAAAAAAAAAAAAAAAAAAAAAAAAAAAAAAAAAAAAAAAAAAAAAAAAAAAAAAAAAAAAAAAAAAAAAAAAAAAAAAAAAAAAAAAAAAAAAAAAAAAAAAAAAAAAAAAAAAAAAAAAAAAAAAAAAAAAAAAAAAAAAAAAAAAAAAAAAAAAAAAAAAAAAAAAAAAAAAAAAAAAAAAAAAAAAAAAAAAAAAAAAAAAAAAAAAAAAAAAAAAAAAAAAAAAAAAAAAAAAAAAAAAAAAAAAAAAAAAAAAAAAAAAAAAAAAAAAAAAAAAAAAAAAAAAAAAAAAAAAAAAAAAAAAAAAAAAAAAAAAAAAAAAAAAAAAAAAAAAAAAAAAAAAAAAAAAAAAAAAAAAAAAAAAAAAAAAAAAAAAAAAAAAAAAAAAAAAAAAAAAAAAAAAAAAAAAAAAAAAAAAAAAAAAAAAAAAAAAAAAAAAAAAAAAAAAAAAAAAAAAAAAAAAAAAAAAAAAAAAAAAAAAAAAAAAAAAAAAAAAAAAAAAAAAAAAAAAAAAAAAAAAAAAAAAAAAAAAAAAAAAAAAAAAAAAAAAAAAAAAAAAAAAAAAAAAAAAAAAAAAAAAAAAAAAAAAAAAAAAAAAAAAAAAAAAAAAAAAAAAAAAAAAAAAAAAAAAAAAAAAAAAAAAAAAAAAAAAAAAAAAAAAAAAAAAAAAAAAAAAAAAAAAAAAAAAAAAAAAAAAAAAAAAAAAAAAAAAAAAAAAAAAAAAAAAAAAAAAAAAAAAAAAAAAAAAAAAAAAAAAAAAAAAAAAAAAAAAAAAAAAAAAAAAAAAAAAAAAAAAAAAAAAAAAAAAAAAAAAAAAAAAAAAAAAAAAAAAAAAAAAAAAAAAAAAAAAAAAAAAAAAAAAAAAAAAAAAAAAAAAAAAAAAAAAAAAAAAAAAAAAAAAAAAAAAAAAAAAAAAAAAAAAAAAAAAAAAAAAAAAAAAAAAAAAAAAAAAAAAAAAAAAAAAAAAAAAAAAAAAAAAAAAAAAAAAAAAAAAAAAAAAAAAAAAAAAAAAAAAAAAAAAAAAAAAAAAAAAAAAAAAAAAAAAAAAAAAAAAAAAAAAAAAAAAAAAAAAAAAAAAAAAAAAAAAAAAAAAAAAAAAAAAAAAAAAAAAAAAAAAAAAAAAAAAAAAAAAAAAAAAAAAAAAAAAAAAAAAAAAAAAAAAAAAAAAAAAAAAAAAAAAAAAAAAAAAAAAAAAAAAAAAAAAAAAAAAAAAAAAAAAAAAAAAAAAAAAAAAAAAAAAAAAAAAAAAAAAAAAAAAAAAAAAAAAAAAAAAAAAAAAAAAAAAAAAAAAAAAAAAAAAAAAAAAAAAAAD2WEBIYJmlA+DjudvXrUeUX9B+cgdxxxrxutk3qJgQUqNZFwWKfoFZLK4MKQ5AHIVqPJT5L7Tux0TJV4DikNsjHqfgAA==;fontColor=#cecece;clipPath=inset(11.67% 11.67% 34% 13%);" vertex="1" parent="1">
          <mxGeometry x="310" y="360" width="1024" height="738.5486725663717" as="geometry" />
        </mxCell>
      </root>
    </mxGraphModel>
  </diagram>
</mxfile>
